# Tiled2Unity generated file. Do not modify by hand.
# Wavefront file for 'afueritauwu_mesh_0015.obj'

# Vertices (Count = 44)
v -10 -1 0
v -11 -1 0
v -11 0 0
v -10 0 0
v -3 -2 0
v -4 -2 0
v -4 -1 0
v -3 -1 0
v -4 -2 0
v -5 -2 0
v -5 -1 0
v -4 -1 0
v -2 -3 0
v -3 -3 0
v -3 -2 0
v -2 -2 0
v -3 -3 0
v -4 -3 0
v -4 -2 0
v -3 -2 0
v -4 -3 0
v -5 -3 0
v -5 -2 0
v -4 -2 0
v -5 -3 0
v -6 -3 0
v -6 -2 0
v -5 -2 0
v -3 -4 0
v -4 -4 0
v -4 -3 0
v -3 -3 0
v -4 -4 0
v -5 -4 0
v -5 -3 0
v -4 -3 0
v -3 -5 0
v -4 -5 0
v -4 -4 0
v -3 -4 0
v -4 -5 0
v -5 -5 0
v -5 -4 0
v -4 -4 0

# Texture cooridinates (Count = 20)
vt 0.7291667 0.2
vt 0.75 0.2
vt 0.75 0.2285714
vt 0.7291667 0.2285714
vt 0.5625 0.1714286
vt 0.5833333 0.1714286
vt 0.5833333 0.2
vt 0.5625 0.2
vt 0.5625 0.05714285
vt 0.5833333 0.05714285
vt 0.5833333 0.08571428
vt 0.5625 0.08571428
vt 0.6041667 0.05714285
vt 0.6041667 0.08571428
vt 0.625 0.05714285
vt 0.625 0.08571428
vt 0.5416667 0.1714286
vt 0.5416667 0.2
vt 0.5416667 0.1428571
vt 0.5625 0.1428571

# Normal
vn 0 0 -1

# Mesh description
g afueritauwu_mesh_0015

# Faces
f 1/1/1 2/2/1 3/3/1 4/4/1
f 5/5/1 6/6/1 7/7/1 8/8/1
f 9/5/1 10/6/1 11/7/1 12/8/1
f 13/9/1 14/10/1 15/11/1 16/12/1
f 17/10/1 18/13/1 19/14/1 20/11/1
f 21/10/1 22/13/1 23/14/1 24/11/1
f 25/13/1 26/15/1 27/16/1 28/14/1
f 29/17/1 30/5/1 31/8/1 32/18/1
f 33/17/1 34/5/1 35/8/1 36/18/1
f 37/19/1 38/20/1 39/5/1 40/17/1
f 41/19/1 42/20/1 43/5/1 44/17/1

