# Tiled2Unity generated file. Do not modify by hand.
# Wavefront file for 'afueritauwu_mesh_0014.obj'

# Vertices (Count = 16)
v -5 -1 0
v -6 -1 0
v -6 0 0
v -5 0 0
v -6 -1 0
v -7 -1 0
v -7 0 0
v -6 0 0
v -7 -1 0
v -8 -1 0
v -8 0 0
v -7 0 0
v -8 -1 0
v -9 -1 0
v -9 0 0
v -8 0 0

# Texture cooridinates (Count = 10)
vt 0.01923077 0.25
vt 0.03846154 0.25
vt 0.03846154 0.2916667
vt 0.01923077 0.2916667
vt 0.05769231 0.25
vt 0.05769231 0.2916667
vt 0.07692308 0.25
vt 0.09615385 0.25
vt 0.09615385 0.2916667
vt 0.07692308 0.2916667

# Normal
vn 0 0 -1

# Mesh description
g afueritauwu_mesh_0014

# Faces
f 1/1/1 2/2/1 3/3/1 4/4/1
f 5/2/1 6/5/1 7/6/1 8/3/1
f 9/7/1 10/8/1 11/9/1 12/10/1
f 13/5/1 14/7/1 15/10/1 16/6/1

