# Tiled2Unity generated file. Do not modify by hand.
# Wavefront file for 'pueblouwu_mesh_0009.obj'

# Vertices (Count = 156)
v -4 -7 0
v -5 -7 0
v -5 -6 0
v -4 -6 0
v -5 -7 0
v -6 -7 0
v -6 -6 0
v -5 -6 0
v -6 -7 0
v -7 -7 0
v -7 -6 0
v -6 -6 0
v -7 -7 0
v -8 -7 0
v -8 -6 0
v -7 -6 0
v -8 -7 0
v -9 -7 0
v -9 -6 0
v -8 -6 0
v -9 -7 0
v -10 -7 0
v -10 -6 0
v -9 -6 0
v -10 -7 0
v -11 -7 0
v -11 -6 0
v -10 -6 0
v -11 -7 0
v -12 -7 0
v -12 -6 0
v -11 -6 0
v -12 -7 0
v -13 -7 0
v -13 -6 0
v -12 -6 0
v -13 -7 0
v -14 -7 0
v -14 -6 0
v -13 -6 0
v -14 -7 0
v -15 -7 0
v -15 -6 0
v -14 -6 0
v -15 -7 0
v -16 -7 0
v -16 -6 0
v -15 -6 0
v -4 -8 0
v -5 -8 0
v -5 -7 0
v -4 -7 0
v -5 -8 0
v -6 -8 0
v -6 -7 0
v -5 -7 0
v -6 -8 0
v -7 -8 0
v -7 -7 0
v -6 -7 0
v -7 -8 0
v -8 -8 0
v -8 -7 0
v -7 -7 0
v -8 -8 0
v -9 -8 0
v -9 -7 0
v -8 -7 0
v -9 -8 0
v -10 -8 0
v -10 -7 0
v -9 -7 0
v -10 -8 0
v -11 -8 0
v -11 -7 0
v -10 -7 0
v -11 -8 0
v -12 -8 0
v -12 -7 0
v -11 -7 0
v -12 -8 0
v -13 -8 0
v -13 -7 0
v -12 -7 0
v -13 -8 0
v -14 -8 0
v -14 -7 0
v -13 -7 0
v -14 -8 0
v -15 -8 0
v -15 -7 0
v -14 -7 0
v -15 -8 0
v -16 -8 0
v -16 -7 0
v -15 -7 0
v -5 -9 0
v -6 -9 0
v -6 -8 0
v -5 -8 0
v -6 -9 0
v -7 -9 0
v -7 -8 0
v -6 -8 0
v -15 -9 0
v -16 -9 0
v -16 -8 0
v -15 -8 0
v -4 -16 0
v -5 -16 0
v -5 -15 0
v -4 -15 0
v -5 -16 0
v -6 -16 0
v -6 -15 0
v -5 -15 0
v -6 -16 0
v -7 -16 0
v -7 -15 0
v -6 -15 0
v -7 -16 0
v -8 -16 0
v -8 -15 0
v -7 -15 0
v -8 -16 0
v -9 -16 0
v -9 -15 0
v -8 -15 0
v -9 -16 0
v -10 -16 0
v -10 -15 0
v -9 -15 0
v -10 -16 0
v -11 -16 0
v -11 -15 0
v -10 -15 0
v -11 -16 0
v -12 -16 0
v -12 -15 0
v -11 -15 0
v -12 -16 0
v -13 -16 0
v -13 -15 0
v -12 -15 0
v -13 -16 0
v -14 -16 0
v -14 -15 0
v -13 -15 0
v -14 -16 0
v -15 -16 0
v -15 -15 0
v -14 -15 0
v -15 -16 0
v -16 -16 0
v -16 -15 0
v -15 -15 0

# Texture cooridinates (Count = 56)
vt 0.01449275 0.6052631
vt 0.02898551 0.6052631
vt 0.02898551 0.6315789
vt 0.01449275 0.6315789
vt 0.1449275 0.6052631
vt 0.1594203 0.6052631
vt 0.1594203 0.6315789
vt 0.1449275 0.6315789
vt 0.173913 0.6052631
vt 0.173913 0.6315789
vt 0.05797102 0.6052631
vt 0.07246377 0.6052631
vt 0.07246377 0.6315789
vt 0.05797102 0.6315789
vt 0.08695652 0.6052631
vt 0.08695652 0.6315789
vt 0.1014493 0.6052631
vt 0.1014493 0.6315789
vt 0.04347826 0.6052631
vt 0.04347826 0.6315789
vt 0.01449275 0.5789474
vt 0.02898551 0.5789474
vt 0.1449275 0.5789474
vt 0.1594203 0.5789474
vt 0.173913 0.5789474
vt 0.05797102 0.5789474
vt 0.07246377 0.5789474
vt 0.08695652 0.5789474
vt 0.1014493 0.5789474
vt 0.04347826 0.5789474
vt 0.1594203 0.4210526
vt 0.173913 0.4210526
vt 0.173913 0.4473684
vt 0.1594203 0.4473684
vt 0.1884058 0.4210526
vt 0.1884058 0.4473684
vt 0.01449275 0.7105263
vt 0.02898551 0.7105263
vt 0.02898551 0.7368421
vt 0.01449275 0.7368421
vt 0.05797102 0.7105263
vt 0.07246377 0.7105263
vt 0.07246377 0.7368421
vt 0.05797102 0.7368421
vt 0.08695652 0.7105263
vt 0.08695652 0.7368421
vt 0.1014493 0.7105263
vt 0.1014493 0.7368421
vt 0.1449275 0.7105263
vt 0.1594203 0.7105263
vt 0.1594203 0.7368421
vt 0.1449275 0.7368421
vt 0.173913 0.7105263
vt 0.173913 0.7368421
vt 0.04347826 0.7105263
vt 0.04347826 0.7368421

# Normal
vn 0 0 -1

# Mesh description
g pueblouwu_mesh_0009

# Faces
f 1/1/1 2/2/1 3/3/1 4/4/1
f 5/5/1 6/6/1 7/7/1 8/8/1
f 9/6/1 10/9/1 11/10/1 12/7/1
f 13/11/1 14/12/1 15/13/1 16/14/1
f 17/12/1 18/15/1 19/16/1 20/13/1
f 21/15/1 22/17/1 23/18/1 24/16/1
f 25/19/1 26/11/1 27/14/1 28/20/1
f 29/1/1 30/2/1 31/3/1 32/4/1
f 33/11/1 34/12/1 35/13/1 36/14/1
f 37/12/1 38/15/1 39/16/1 40/13/1
f 41/15/1 42/17/1 43/18/1 44/16/1
f 45/5/1 46/6/1 47/7/1 48/8/1
f 49/21/1 50/22/1 51/2/1 52/1/1
f 53/23/1 54/24/1 55/6/1 56/5/1
f 57/24/1 58/25/1 59/9/1 60/6/1
f 61/26/1 62/27/1 63/12/1 64/11/1
f 65/27/1 66/28/1 67/15/1 68/12/1
f 69/28/1 70/29/1 71/17/1 72/15/1
f 73/30/1 74/26/1 75/11/1 76/19/1
f 77/21/1 78/22/1 79/2/1 80/1/1
f 81/26/1 82/27/1 83/12/1 84/11/1
f 85/27/1 86/28/1 87/15/1 88/12/1
f 89/28/1 90/29/1 91/17/1 92/15/1
f 93/23/1 94/24/1 95/6/1 96/5/1
f 97/31/1 98/32/1 99/33/1 100/34/1
f 101/32/1 102/35/1 103/36/1 104/33/1
f 105/31/1 106/32/1 107/33/1 108/34/1
f 109/37/1 110/38/1 111/39/1 112/40/1
f 113/41/1 114/42/1 115/43/1 116/44/1
f 117/42/1 118/45/1 119/46/1 120/43/1
f 121/45/1 122/47/1 123/48/1 124/46/1
f 125/49/1 126/50/1 127/51/1 128/52/1
f 129/50/1 130/53/1 131/54/1 132/51/1
f 133/55/1 134/41/1 135/44/1 136/56/1
f 137/37/1 138/38/1 139/39/1 140/40/1
f 141/49/1 142/50/1 143/51/1 144/52/1
f 145/50/1 146/53/1 147/54/1 148/51/1
f 149/41/1 150/42/1 151/43/1 152/44/1
f 153/42/1 154/45/1 155/46/1 156/43/1

