# Tiled2Unity generated file. Do not modify by hand.
# Wavefront file for 'pueblouwu_mesh_0018.obj'

# Vertices (Count = 80)
v 0 -1 0
v -1 -1 0
v -1 0 0
v 0 0 0
v -1 -1 0
v -2 -1 0
v -2 0 0
v -1 0 0
v -2 -1 0
v -3 -1 0
v -3 0 0
v -2 0 0
v -3 -1 0
v -4 -1 0
v -4 0 0
v -3 0 0
v -4 -1 0
v -5 -1 0
v -5 0 0
v -4 0 0
v -5 -1 0
v -6 -1 0
v -6 0 0
v -5 0 0
v -6 -1 0
v -7 -1 0
v -7 0 0
v -6 0 0
v -7 -1 0
v -8 -1 0
v -8 0 0
v -7 0 0
v -8 -1 0
v -9 -1 0
v -9 0 0
v -8 0 0
v -9 -1 0
v -10 -1 0
v -10 0 0
v -9 0 0
v -10 -1 0
v -11 -1 0
v -11 0 0
v -10 0 0
v -11 -1 0
v -12 -1 0
v -12 0 0
v -11 0 0
v -12 -1 0
v -13 -1 0
v -13 0 0
v -12 0 0
v -13 -1 0
v -14 -1 0
v -14 0 0
v -13 0 0
v -14 -1 0
v -15 -1 0
v -15 0 0
v -14 0 0
v -15 -1 0
v -16 -1 0
v -16 0 0
v -15 0 0
v -6 -2 0
v -7 -2 0
v -7 -1 0
v -6 -1 0
v -7 -2 0
v -8 -2 0
v -8 -1 0
v -7 -1 0
v -10 -2 0
v -11 -2 0
v -11 -1 0
v -10 -1 0
v -11 -2 0
v -12 -2 0
v -12 -1 0
v -11 -1 0

# Texture cooridinates (Count = 32)
vt 0.08695652 0.6842105
vt 0.1014493 0.6842105
vt 0.1014493 0.7105263
vt 0.08695652 0.7105263
vt 0.04347826 0.6842105
vt 0.05797102 0.6842105
vt 0.05797102 0.7105263
vt 0.04347826 0.7105263
vt 0.01449275 0.6842105
vt 0.02898551 0.6842105
vt 0.02898551 0.7105263
vt 0.01449275 0.7105263
vt 0.07246377 0.6842105
vt 0.07246377 0.7105263
vt 0.1449275 0.6842105
vt 0.1594203 0.6842105
vt 0.1594203 0.7105263
vt 0.1449275 0.7105263
vt 0.173913 0.6842105
vt 0.173913 0.7105263
vt 0.1304348 0.4210526
vt 0.1449275 0.4210526
vt 0.1449275 0.4473684
vt 0.1304348 0.4473684
vt 0.1594203 0.4210526
vt 0.1594203 0.4473684
vt 0.2173913 0.4210526
vt 0.2318841 0.4210526
vt 0.2318841 0.4473684
vt 0.2173913 0.4473684
vt 0.2463768 0.4210526
vt 0.2463768 0.4473684

# Normal
vn 0 0 -1

# Mesh description
g pueblouwu_mesh_0018

# Faces
f 1/1/1 2/2/1 3/3/1 4/4/1
f 5/5/1 6/6/1 7/7/1 8/8/1
f 9/9/1 10/10/1 11/11/1 12/12/1
f 13/6/1 14/13/1 15/14/1 16/7/1
f 17/13/1 18/1/1 19/4/1 20/14/1
f 21/1/1 22/2/1 23/3/1 24/4/1
f 25/15/1 26/16/1 27/17/1 28/18/1
f 29/16/1 30/19/1 31/20/1 32/17/1
f 33/5/1 34/6/1 35/7/1 36/8/1
f 37/9/1 38/10/1 39/11/1 40/12/1
f 41/15/1 42/16/1 43/17/1 44/18/1
f 45/16/1 46/19/1 47/20/1 48/17/1
f 49/6/1 50/13/1 51/14/1 52/7/1
f 53/13/1 54/1/1 55/4/1 56/14/1
f 57/1/1 58/2/1 59/3/1 60/4/1
f 61/5/1 62/6/1 63/7/1 64/8/1
f 65/21/1 66/22/1 67/23/1 68/24/1
f 69/22/1 70/25/1 71/26/1 72/23/1
f 73/27/1 74/28/1 75/29/1 76/30/1
f 77/28/1 78/31/1 79/32/1 80/29/1

