# Tiled2Unity generated file. Do not modify by hand.
# Wavefront file for 'pueblouwu_mesh_0022.obj'

# Vertices (Count = 480)
v -4 -2 0
v -5 -2 0
v -5 -1 0
v -4 -1 0
v -5 -2 0
v -6 -2 0
v -6 -1 0
v -5 -1 0
v -6 -2 0
v -7 -2 0
v -7 -1 0
v -6 -1 0
v -7 -2 0
v -8 -2 0
v -8 -1 0
v -7 -1 0
v -8 -2 0
v -9 -2 0
v -9 -1 0
v -8 -1 0
v -9 -2 0
v -10 -2 0
v -10 -1 0
v -9 -1 0
v -10 -2 0
v -11 -2 0
v -11 -1 0
v -10 -1 0
v -11 -2 0
v -12 -2 0
v -12 -1 0
v -11 -1 0
v -12 -2 0
v -13 -2 0
v -13 -1 0
v -12 -1 0
v -13 -2 0
v -14 -2 0
v -14 -1 0
v -13 -1 0
v -14 -2 0
v -15 -2 0
v -15 -1 0
v -14 -1 0
v -15 -2 0
v -16 -2 0
v -16 -1 0
v -15 -1 0
v -4 -3 0
v -5 -3 0
v -5 -2 0
v -4 -2 0
v -5 -3 0
v -6 -3 0
v -6 -2 0
v -5 -2 0
v -6 -3 0
v -7 -3 0
v -7 -2 0
v -6 -2 0
v -7 -3 0
v -8 -3 0
v -8 -2 0
v -7 -2 0
v -8 -3 0
v -9 -3 0
v -9 -2 0
v -8 -2 0
v -9 -3 0
v -10 -3 0
v -10 -2 0
v -9 -2 0
v -10 -3 0
v -11 -3 0
v -11 -2 0
v -10 -2 0
v -11 -3 0
v -12 -3 0
v -12 -2 0
v -11 -2 0
v -12 -3 0
v -13 -3 0
v -13 -2 0
v -12 -2 0
v -13 -3 0
v -14 -3 0
v -14 -2 0
v -13 -2 0
v -14 -3 0
v -15 -3 0
v -15 -2 0
v -14 -2 0
v -15 -3 0
v -16 -3 0
v -16 -2 0
v -15 -2 0
v -4 -4 0
v -5 -4 0
v -5 -3 0
v -4 -3 0
v -5 -4 0
v -6 -4 0
v -6 -3 0
v -5 -3 0
v -6 -4 0
v -7 -4 0
v -7 -3 0
v -6 -3 0
v -7 -4 0
v -8 -4 0
v -8 -3 0
v -7 -3 0
v -8 -4 0
v -9 -4 0
v -9 -3 0
v -8 -3 0
v -9 -4 0
v -10 -4 0
v -10 -3 0
v -9 -3 0
v -10 -4 0
v -11 -4 0
v -11 -3 0
v -10 -3 0
v -11 -4 0
v -12 -4 0
v -12 -3 0
v -11 -3 0
v -12 -4 0
v -13 -4 0
v -13 -3 0
v -12 -3 0
v -13 -4 0
v -14 -4 0
v -14 -3 0
v -13 -3 0
v -14 -4 0
v -15 -4 0
v -15 -3 0
v -14 -3 0
v -15 -4 0
v -16 -4 0
v -16 -3 0
v -15 -3 0
v -4 -5 0
v -5 -5 0
v -5 -4 0
v -4 -4 0
v -5 -5 0
v -6 -5 0
v -6 -4 0
v -5 -4 0
v -6 -5 0
v -7 -5 0
v -7 -4 0
v -6 -4 0
v -7 -5 0
v -8 -5 0
v -8 -4 0
v -7 -4 0
v -8 -5 0
v -9 -5 0
v -9 -4 0
v -8 -4 0
v -9 -5 0
v -10 -5 0
v -10 -4 0
v -9 -4 0
v -10 -5 0
v -11 -5 0
v -11 -4 0
v -10 -4 0
v -11 -5 0
v -12 -5 0
v -12 -4 0
v -11 -4 0
v -12 -5 0
v -13 -5 0
v -13 -4 0
v -12 -4 0
v -13 -5 0
v -14 -5 0
v -14 -4 0
v -13 -4 0
v -14 -5 0
v -15 -5 0
v -15 -4 0
v -14 -4 0
v -15 -5 0
v -16 -5 0
v -16 -4 0
v -15 -4 0
v -4 -6 0
v -5 -6 0
v -5 -5 0
v -4 -5 0
v -5 -6 0
v -6 -6 0
v -6 -5 0
v -5 -5 0
v -6 -6 0
v -7 -6 0
v -7 -5 0
v -6 -5 0
v -7 -6 0
v -8 -6 0
v -8 -5 0
v -7 -5 0
v -8 -6 0
v -9 -6 0
v -9 -5 0
v -8 -5 0
v -9 -6 0
v -10 -6 0
v -10 -5 0
v -9 -5 0
v -10 -6 0
v -11 -6 0
v -11 -5 0
v -10 -5 0
v -11 -6 0
v -12 -6 0
v -12 -5 0
v -11 -5 0
v -12 -6 0
v -13 -6 0
v -13 -5 0
v -12 -5 0
v -13 -6 0
v -14 -6 0
v -14 -5 0
v -13 -5 0
v -14 -6 0
v -15 -6 0
v -15 -5 0
v -14 -5 0
v -15 -6 0
v -16 -6 0
v -16 -5 0
v -15 -5 0
v -4 -11 0
v -5 -11 0
v -5 -10 0
v -4 -10 0
v -5 -11 0
v -6 -11 0
v -6 -10 0
v -5 -10 0
v -6 -11 0
v -7 -11 0
v -7 -10 0
v -6 -10 0
v -7 -11 0
v -8 -11 0
v -8 -10 0
v -7 -10 0
v -8 -11 0
v -9 -11 0
v -9 -10 0
v -8 -10 0
v -9 -11 0
v -10 -11 0
v -10 -10 0
v -9 -10 0
v -10 -11 0
v -11 -11 0
v -11 -10 0
v -10 -10 0
v -11 -11 0
v -12 -11 0
v -12 -10 0
v -11 -10 0
v -12 -11 0
v -13 -11 0
v -13 -10 0
v -12 -10 0
v -13 -11 0
v -14 -11 0
v -14 -10 0
v -13 -10 0
v -14 -11 0
v -15 -11 0
v -15 -10 0
v -14 -10 0
v -15 -11 0
v -16 -11 0
v -16 -10 0
v -15 -10 0
v -4 -12 0
v -5 -12 0
v -5 -11 0
v -4 -11 0
v -5 -12 0
v -6 -12 0
v -6 -11 0
v -5 -11 0
v -6 -12 0
v -7 -12 0
v -7 -11 0
v -6 -11 0
v -7 -12 0
v -8 -12 0
v -8 -11 0
v -7 -11 0
v -8 -12 0
v -9 -12 0
v -9 -11 0
v -8 -11 0
v -9 -12 0
v -10 -12 0
v -10 -11 0
v -9 -11 0
v -10 -12 0
v -11 -12 0
v -11 -11 0
v -10 -11 0
v -11 -12 0
v -12 -12 0
v -12 -11 0
v -11 -11 0
v -12 -12 0
v -13 -12 0
v -13 -11 0
v -12 -11 0
v -13 -12 0
v -14 -12 0
v -14 -11 0
v -13 -11 0
v -14 -12 0
v -15 -12 0
v -15 -11 0
v -14 -11 0
v -15 -12 0
v -16 -12 0
v -16 -11 0
v -15 -11 0
v -4 -13 0
v -5 -13 0
v -5 -12 0
v -4 -12 0
v -5 -13 0
v -6 -13 0
v -6 -12 0
v -5 -12 0
v -6 -13 0
v -7 -13 0
v -7 -12 0
v -6 -12 0
v -7 -13 0
v -8 -13 0
v -8 -12 0
v -7 -12 0
v -8 -13 0
v -9 -13 0
v -9 -12 0
v -8 -12 0
v -9 -13 0
v -10 -13 0
v -10 -12 0
v -9 -12 0
v -10 -13 0
v -11 -13 0
v -11 -12 0
v -10 -12 0
v -11 -13 0
v -12 -13 0
v -12 -12 0
v -11 -12 0
v -12 -13 0
v -13 -13 0
v -13 -12 0
v -12 -12 0
v -13 -13 0
v -14 -13 0
v -14 -12 0
v -13 -12 0
v -14 -13 0
v -15 -13 0
v -15 -12 0
v -14 -12 0
v -15 -13 0
v -16 -13 0
v -16 -12 0
v -15 -12 0
v -4 -14 0
v -5 -14 0
v -5 -13 0
v -4 -13 0
v -5 -14 0
v -6 -14 0
v -6 -13 0
v -5 -13 0
v -6 -14 0
v -7 -14 0
v -7 -13 0
v -6 -13 0
v -7 -14 0
v -8 -14 0
v -8 -13 0
v -7 -13 0
v -8 -14 0
v -9 -14 0
v -9 -13 0
v -8 -13 0
v -9 -14 0
v -10 -14 0
v -10 -13 0
v -9 -13 0
v -10 -14 0
v -11 -14 0
v -11 -13 0
v -10 -13 0
v -11 -14 0
v -12 -14 0
v -12 -13 0
v -11 -13 0
v -12 -14 0
v -13 -14 0
v -13 -13 0
v -12 -13 0
v -13 -14 0
v -14 -14 0
v -14 -13 0
v -13 -13 0
v -14 -14 0
v -15 -14 0
v -15 -13 0
v -14 -13 0
v -15 -14 0
v -16 -14 0
v -16 -13 0
v -15 -13 0
v -4 -15 0
v -5 -15 0
v -5 -14 0
v -4 -14 0
v -5 -15 0
v -6 -15 0
v -6 -14 0
v -5 -14 0
v -6 -15 0
v -7 -15 0
v -7 -14 0
v -6 -14 0
v -7 -15 0
v -8 -15 0
v -8 -14 0
v -7 -14 0
v -8 -15 0
v -9 -15 0
v -9 -14 0
v -8 -14 0
v -9 -15 0
v -10 -15 0
v -10 -14 0
v -9 -14 0
v -10 -15 0
v -11 -15 0
v -11 -14 0
v -10 -14 0
v -11 -15 0
v -12 -15 0
v -12 -14 0
v -11 -14 0
v -12 -15 0
v -13 -15 0
v -13 -14 0
v -12 -14 0
v -13 -15 0
v -14 -15 0
v -14 -14 0
v -13 -14 0
v -14 -15 0
v -15 -15 0
v -15 -14 0
v -14 -14 0
v -15 -15 0
v -16 -15 0
v -16 -14 0
v -15 -14 0

# Texture cooridinates (Count = 107)
vt 0.7826087 0.7368421
vt 0.7971014 0.7368421
vt 0.7971014 0.7631579
vt 0.7826087 0.7631579
vt 0.8115942 0.7368421
vt 0.8115942 0.7631579
vt 0.8260869 0.7368421
vt 0.8260869 0.7631579
vt 0.8405797 0.7368421
vt 0.8405797 0.7631579
vt 0.8550724 0.7368421
vt 0.8550724 0.7631579
vt 0.8695652 0.7368421
vt 0.8695652 0.7631579
vt 0.884058 0.7368421
vt 0.884058 0.7631579
vt 0.7826087 0.7105263
vt 0.7971014 0.7105263
vt 0.8115942 0.7105263
vt 0.8260869 0.7105263
vt 0.8405797 0.7105263
vt 0.8550724 0.7105263
vt 0.8695652 0.7105263
vt 0.884058 0.7105263
vt 0.7826087 0.6842105
vt 0.7971014 0.6842105
vt 0.8115942 0.6842105
vt 0.8260869 0.6842105
vt 0.8405797 0.6842105
vt 0.8550724 0.6842105
vt 0.8695652 0.6842105
vt 0.884058 0.6842105
vt 0.7826087 0.5
vt 0.7971014 0.5
vt 0.7971014 0.5263158
vt 0.7826087 0.5263158
vt 0.8115942 0.5
vt 0.8115942 0.5263158
vt 0.8260869 0.5
vt 0.8260869 0.5263158
vt 0.8405797 0.5
vt 0.8405797 0.5263158
vt 0.8550724 0.5
vt 0.8550724 0.5263158
vt 0.8695652 0.5
vt 0.8695652 0.5263158
vt 0.884058 0.5
vt 0.884058 0.5263158
vt 0.7826087 0.4736842
vt 0.7971014 0.4736842
vt 0.8115942 0.4736842
vt 0.8260869 0.4736842
vt 0.8405797 0.4736842
vt 0.8550724 0.4736842
vt 0.8695652 0.4736842
vt 0.884058 0.4736842
vt 0.6811594 0.7368421
vt 0.6956522 0.7368421
vt 0.6956522 0.7631579
vt 0.6811594 0.7631579
vt 0.7101449 0.7368421
vt 0.7101449 0.7631579
vt 0.7246377 0.7368421
vt 0.7246377 0.7631579
vt 0.7391304 0.7368421
vt 0.7391304 0.7631579
vt 0.7536232 0.7368421
vt 0.7536232 0.7631579
vt 0.7681159 0.7368421
vt 0.7681159 0.7631579
vt 0.6811594 0.7105263
vt 0.6956522 0.7105263
vt 0.7101449 0.7105263
vt 0.7246377 0.7105263
vt 0.7391304 0.7105263
vt 0.7536232 0.7105263
vt 0.7681159 0.7105263
vt 0.6811594 0.6842105
vt 0.6956522 0.6842105
vt 0.7101449 0.6842105
vt 0.7246377 0.6842105
vt 0.7391304 0.6842105
vt 0.7536232 0.6842105
vt 0.7681159 0.6842105
vt 0.6811594 0.5526316
vt 0.6956522 0.5526316
vt 0.6956522 0.5789474
vt 0.6811594 0.5789474
vt 0.7101449 0.5526316
vt 0.7101449 0.5789474
vt 0.7246377 0.5526316
vt 0.7246377 0.5789474
vt 0.7391304 0.5526316
vt 0.7391304 0.5789474
vt 0.7536232 0.5526316
vt 0.7536232 0.5789474
vt 0.7681159 0.5526316
vt 0.7681159 0.5789474
vt 0.7826087 0.5526316
vt 0.7826087 0.5789474
vt 0.6811594 0.5263158
vt 0.6956522 0.5263158
vt 0.7101449 0.5263158
vt 0.7246377 0.5263158
vt 0.7391304 0.5263158
vt 0.7536232 0.5263158
vt 0.7681159 0.5263158

# Normal
vn 0 0 -1

# Mesh description
g pueblouwu_mesh_0022

# Faces
f 1/1/1 2/2/1 3/3/1 4/4/1
f 5/2/1 6/5/1 7/6/1 8/3/1
f 9/5/1 10/7/1 11/8/1 12/6/1
f 13/7/1 14/9/1 15/10/1 16/8/1
f 17/9/1 18/11/1 19/12/1 20/10/1
f 21/11/1 22/13/1 23/14/1 24/12/1
f 25/13/1 26/15/1 27/16/1 28/14/1
f 29/1/1 30/2/1 31/3/1 32/4/1
f 33/2/1 34/5/1 35/6/1 36/3/1
f 37/5/1 38/7/1 39/8/1 40/6/1
f 41/7/1 42/9/1 43/10/1 44/8/1
f 45/9/1 46/11/1 47/12/1 48/10/1
f 49/17/1 50/18/1 51/2/1 52/1/1
f 53/18/1 54/19/1 55/5/1 56/2/1
f 57/19/1 58/20/1 59/7/1 60/5/1
f 61/20/1 62/21/1 63/9/1 64/7/1
f 65/21/1 66/22/1 67/11/1 68/9/1
f 69/22/1 70/23/1 71/13/1 72/11/1
f 73/23/1 74/24/1 75/15/1 76/13/1
f 77/17/1 78/18/1 79/2/1 80/1/1
f 81/18/1 82/19/1 83/5/1 84/2/1
f 85/19/1 86/20/1 87/7/1 88/5/1
f 89/20/1 90/21/1 91/9/1 92/7/1
f 93/21/1 94/22/1 95/11/1 96/9/1
f 97/25/1 98/26/1 99/18/1 100/17/1
f 101/26/1 102/27/1 103/19/1 104/18/1
f 105/27/1 106/28/1 107/20/1 108/19/1
f 109/28/1 110/29/1 111/21/1 112/20/1
f 113/29/1 114/30/1 115/22/1 116/21/1
f 117/30/1 118/31/1 119/23/1 120/22/1
f 121/31/1 122/32/1 123/24/1 124/23/1
f 125/25/1 126/26/1 127/18/1 128/17/1
f 129/26/1 130/27/1 131/19/1 132/18/1
f 133/27/1 134/28/1 135/20/1 136/19/1
f 137/28/1 138/29/1 139/21/1 140/20/1
f 141/29/1 142/30/1 143/22/1 144/21/1
f 145/33/1 146/34/1 147/35/1 148/36/1
f 149/34/1 150/37/1 151/38/1 152/35/1
f 153/37/1 154/39/1 155/40/1 156/38/1
f 157/39/1 158/41/1 159/42/1 160/40/1
f 161/41/1 162/43/1 163/44/1 164/42/1
f 165/43/1 166/45/1 167/46/1 168/44/1
f 169/45/1 170/47/1 171/48/1 172/46/1
f 173/33/1 174/34/1 175/35/1 176/36/1
f 177/34/1 178/37/1 179/38/1 180/35/1
f 181/37/1 182/39/1 183/40/1 184/38/1
f 185/39/1 186/41/1 187/42/1 188/40/1
f 189/41/1 190/43/1 191/44/1 192/42/1
f 193/49/1 194/50/1 195/34/1 196/33/1
f 197/50/1 198/51/1 199/37/1 200/34/1
f 201/51/1 202/52/1 203/39/1 204/37/1
f 205/52/1 206/53/1 207/41/1 208/39/1
f 209/53/1 210/54/1 211/43/1 212/41/1
f 213/54/1 214/55/1 215/45/1 216/43/1
f 217/55/1 218/56/1 219/47/1 220/45/1
f 221/49/1 222/50/1 223/34/1 224/33/1
f 225/50/1 226/51/1 227/37/1 228/34/1
f 229/51/1 230/52/1 231/39/1 232/37/1
f 233/52/1 234/53/1 235/41/1 236/39/1
f 237/53/1 238/54/1 239/43/1 240/41/1
f 241/57/1 242/58/1 243/59/1 244/60/1
f 245/58/1 246/61/1 247/62/1 248/59/1
f 249/61/1 250/63/1 251/64/1 252/62/1
f 253/63/1 254/65/1 255/66/1 256/64/1
f 257/65/1 258/67/1 259/68/1 260/66/1
f 261/67/1 262/69/1 263/70/1 264/68/1
f 265/69/1 266/1/1 267/4/1 268/70/1
f 269/57/1 270/58/1 271/59/1 272/60/1
f 273/58/1 274/61/1 275/62/1 276/59/1
f 277/61/1 278/63/1 279/64/1 280/62/1
f 281/63/1 282/65/1 283/66/1 284/64/1
f 285/65/1 286/67/1 287/68/1 288/66/1
f 289/71/1 290/72/1 291/58/1 292/57/1
f 293/72/1 294/73/1 295/61/1 296/58/1
f 297/73/1 298/74/1 299/63/1 300/61/1
f 301/74/1 302/75/1 303/65/1 304/63/1
f 305/75/1 306/76/1 307/67/1 308/65/1
f 309/76/1 310/77/1 311/69/1 312/67/1
f 313/77/1 314/17/1 315/1/1 316/69/1
f 317/71/1 318/72/1 319/58/1 320/57/1
f 321/72/1 322/73/1 323/61/1 324/58/1
f 325/73/1 326/74/1 327/63/1 328/61/1
f 329/74/1 330/75/1 331/65/1 332/63/1
f 333/75/1 334/76/1 335/67/1 336/65/1
f 337/78/1 338/79/1 339/72/1 340/71/1
f 341/79/1 342/80/1 343/73/1 344/72/1
f 345/80/1 346/81/1 347/74/1 348/73/1
f 349/81/1 350/82/1 351/75/1 352/74/1
f 353/82/1 354/83/1 355/76/1 356/75/1
f 357/83/1 358/84/1 359/77/1 360/76/1
f 361/84/1 362/25/1 363/17/1 364/77/1
f 365/78/1 366/79/1 367/72/1 368/71/1
f 369/79/1 370/80/1 371/73/1 372/72/1
f 373/80/1 374/81/1 375/74/1 376/73/1
f 377/81/1 378/82/1 379/75/1 380/74/1
f 381/82/1 382/83/1 383/76/1 384/75/1
f 385/85/1 386/86/1 387/87/1 388/88/1
f 389/86/1 390/89/1 391/90/1 392/87/1
f 393/89/1 394/91/1 395/92/1 396/90/1
f 397/91/1 398/93/1 399/94/1 400/92/1
f 401/93/1 402/95/1 403/96/1 404/94/1
f 405/95/1 406/97/1 407/98/1 408/96/1
f 409/97/1 410/99/1 411/100/1 412/98/1
f 413/85/1 414/86/1 415/87/1 416/88/1
f 417/86/1 418/89/1 419/90/1 420/87/1
f 421/89/1 422/91/1 423/92/1 424/90/1
f 425/91/1 426/93/1 427/94/1 428/92/1
f 429/93/1 430/95/1 431/96/1 432/94/1
f 433/101/1 434/102/1 435/86/1 436/85/1
f 437/102/1 438/103/1 439/89/1 440/86/1
f 441/103/1 442/104/1 443/91/1 444/89/1
f 445/104/1 446/105/1 447/93/1 448/91/1
f 449/105/1 450/106/1 451/95/1 452/93/1
f 453/106/1 454/107/1 455/97/1 456/95/1
f 457/107/1 458/36/1 459/99/1 460/97/1
f 461/101/1 462/102/1 463/86/1 464/85/1
f 465/102/1 466/103/1 467/89/1 468/86/1
f 469/103/1 470/104/1 471/91/1 472/89/1
f 473/104/1 474/105/1 475/93/1 476/91/1
f 477/105/1 478/106/1 479/95/1 480/93/1

