# Tiled2Unity generated file. Do not modify by hand.
# Wavefront file for 'pueblouwu_mesh_0024.obj'

# Vertices (Count = 192)
v 0 -9 0
v -1 -9 0
v -1 -8 0
v 0 -8 0
v -1 -9 0
v -2 -9 0
v -2 -8 0
v -1 -8 0
v -2 -9 0
v -3 -9 0
v -3 -8 0
v -2 -8 0
v -3 -9 0
v -4 -9 0
v -4 -8 0
v -3 -8 0
v -4 -9 0
v -5 -9 0
v -5 -8 0
v -4 -8 0
v -5 -9 0
v -6 -9 0
v -6 -8 0
v -5 -8 0
v -6 -9 0
v -7 -9 0
v -7 -8 0
v -6 -8 0
v -7 -9 0
v -8 -9 0
v -8 -8 0
v -7 -8 0
v -8 -9 0
v -9 -9 0
v -9 -8 0
v -8 -8 0
v -9 -9 0
v -10 -9 0
v -10 -8 0
v -9 -8 0
v -10 -9 0
v -11 -9 0
v -11 -8 0
v -10 -8 0
v -11 -9 0
v -12 -9 0
v -12 -8 0
v -11 -8 0
v 0 -10 0
v -1 -10 0
v -1 -9 0
v 0 -9 0
v -1 -10 0
v -2 -10 0
v -2 -9 0
v -1 -9 0
v -2 -10 0
v -3 -10 0
v -3 -9 0
v -2 -9 0
v -3 -10 0
v -4 -10 0
v -4 -9 0
v -3 -9 0
v -4 -10 0
v -5 -10 0
v -5 -9 0
v -4 -9 0
v -5 -10 0
v -6 -10 0
v -6 -9 0
v -5 -9 0
v -6 -10 0
v -7 -10 0
v -7 -9 0
v -6 -9 0
v -7 -10 0
v -8 -10 0
v -8 -9 0
v -7 -9 0
v -8 -10 0
v -9 -10 0
v -9 -9 0
v -8 -9 0
v -9 -10 0
v -10 -10 0
v -10 -9 0
v -9 -9 0
v -10 -10 0
v -11 -10 0
v -11 -9 0
v -10 -9 0
v -11 -10 0
v -12 -10 0
v -12 -9 0
v -11 -9 0
v 0 -11 0
v -1 -11 0
v -1 -10 0
v 0 -10 0
v -1 -11 0
v -2 -11 0
v -2 -10 0
v -1 -10 0
v -2 -11 0
v -3 -11 0
v -3 -10 0
v -2 -10 0
v -3 -11 0
v -4 -11 0
v -4 -10 0
v -3 -10 0
v -4 -11 0
v -5 -11 0
v -5 -10 0
v -4 -10 0
v -5 -11 0
v -6 -11 0
v -6 -10 0
v -5 -10 0
v -6 -11 0
v -7 -11 0
v -7 -10 0
v -6 -10 0
v -7 -11 0
v -8 -11 0
v -8 -10 0
v -7 -10 0
v -8 -11 0
v -9 -11 0
v -9 -10 0
v -8 -10 0
v -9 -11 0
v -10 -11 0
v -10 -10 0
v -9 -10 0
v -10 -11 0
v -11 -11 0
v -11 -10 0
v -10 -10 0
v -11 -11 0
v -12 -11 0
v -12 -10 0
v -11 -10 0
v 0 -12 0
v -1 -12 0
v -1 -11 0
v 0 -11 0
v -1 -12 0
v -2 -12 0
v -2 -11 0
v -1 -11 0
v -2 -12 0
v -3 -12 0
v -3 -11 0
v -2 -11 0
v -3 -12 0
v -4 -12 0
v -4 -11 0
v -3 -11 0
v -4 -12 0
v -5 -12 0
v -5 -11 0
v -4 -11 0
v -5 -12 0
v -6 -12 0
v -6 -11 0
v -5 -11 0
v -6 -12 0
v -7 -12 0
v -7 -11 0
v -6 -11 0
v -7 -12 0
v -8 -12 0
v -8 -11 0
v -7 -11 0
v -8 -12 0
v -9 -12 0
v -9 -11 0
v -8 -11 0
v -9 -12 0
v -10 -12 0
v -10 -11 0
v -9 -11 0
v -10 -12 0
v -11 -12 0
v -11 -11 0
v -10 -11 0
v -11 -12 0
v -12 -12 0
v -12 -11 0
v -11 -11 0

# Texture cooridinates (Count = 35)
vt 0.3913043 0.8684211
vt 0.4057971 0.8684211
vt 0.4057971 0.8947368
vt 0.3913043 0.8947368
vt 0.4202898 0.8684211
vt 0.4202898 0.8947368
vt 0.4347826 0.8684211
vt 0.4347826 0.8947368
vt 0.4492754 0.8684211
vt 0.4492754 0.8947368
vt 0.4637681 0.8684211
vt 0.4637681 0.8947368
vt 0.4782609 0.8684211
vt 0.4782609 0.8947368
vt 0.3913043 0.8421053
vt 0.4057971 0.8421053
vt 0.4202898 0.8421053
vt 0.4347826 0.8421053
vt 0.4492754 0.8421053
vt 0.4637681 0.8421053
vt 0.4782609 0.8421053
vt 0.3913043 0.8157895
vt 0.4057971 0.8157895
vt 0.4202898 0.8157895
vt 0.4347826 0.8157895
vt 0.4492754 0.8157895
vt 0.4637681 0.8157895
vt 0.4782609 0.8157895
vt 0.3913043 0.7894737
vt 0.4057971 0.7894737
vt 0.4202898 0.7894737
vt 0.4347826 0.7894737
vt 0.4492754 0.7894737
vt 0.4637681 0.7894737
vt 0.4782609 0.7894737

# Normal
vn 0 0 -1

# Mesh description
g pueblouwu_mesh_0024

# Faces
f 1/1/1 2/2/1 3/3/1 4/4/1
f 5/2/1 6/5/1 7/6/1 8/3/1
f 9/5/1 10/7/1 11/8/1 12/6/1
f 13/7/1 14/9/1 15/10/1 16/8/1
f 17/9/1 18/11/1 19/12/1 20/10/1
f 21/2/1 22/5/1 23/6/1 24/3/1
f 25/2/1 26/5/1 27/6/1 28/3/1
f 29/2/1 30/5/1 31/6/1 32/3/1
f 33/7/1 34/9/1 35/10/1 36/8/1
f 37/9/1 38/11/1 39/12/1 40/10/1
f 41/2/1 42/5/1 43/6/1 44/3/1
f 45/11/1 46/13/1 47/14/1 48/12/1
f 49/15/1 50/16/1 51/2/1 52/1/1
f 53/16/1 54/17/1 55/5/1 56/2/1
f 57/17/1 58/18/1 59/7/1 60/5/1
f 61/18/1 62/19/1 63/9/1 64/7/1
f 65/19/1 66/20/1 67/11/1 68/9/1
f 69/16/1 70/17/1 71/5/1 72/2/1
f 73/16/1 74/17/1 75/5/1 76/2/1
f 77/16/1 78/17/1 79/5/1 80/2/1
f 81/18/1 82/19/1 83/9/1 84/7/1
f 85/19/1 86/20/1 87/11/1 88/9/1
f 89/16/1 90/17/1 91/5/1 92/2/1
f 93/20/1 94/21/1 95/13/1 96/11/1
f 97/22/1 98/23/1 99/16/1 100/15/1
f 101/23/1 102/24/1 103/17/1 104/16/1
f 105/24/1 106/25/1 107/18/1 108/17/1
f 109/25/1 110/26/1 111/19/1 112/18/1
f 113/26/1 114/27/1 115/20/1 116/19/1
f 117/23/1 118/24/1 119/17/1 120/16/1
f 121/23/1 122/24/1 123/17/1 124/16/1
f 125/23/1 126/24/1 127/17/1 128/16/1
f 129/25/1 130/26/1 131/19/1 132/18/1
f 133/26/1 134/27/1 135/20/1 136/19/1
f 137/23/1 138/24/1 139/17/1 140/16/1
f 141/27/1 142/28/1 143/21/1 144/20/1
f 145/29/1 146/30/1 147/23/1 148/22/1
f 149/30/1 150/31/1 151/24/1 152/23/1
f 153/31/1 154/32/1 155/25/1 156/24/1
f 157/32/1 158/33/1 159/26/1 160/25/1
f 161/33/1 162/34/1 163/27/1 164/26/1
f 165/30/1 166/31/1 167/24/1 168/23/1
f 169/30/1 170/31/1 171/24/1 172/23/1
f 173/30/1 174/31/1 175/24/1 176/23/1
f 177/32/1 178/33/1 179/26/1 180/25/1
f 181/33/1 182/34/1 183/27/1 184/26/1
f 185/30/1 186/31/1 187/24/1 188/23/1
f 189/34/1 190/35/1 191/28/1 192/27/1

