# Tiled2Unity generated file. Do not modify by hand.
# Wavefront file for 'pueblouwu_mesh_0002.obj'

# Vertices (Count = 1024)
v 0 -1 0
v -1 -1 0
v -1 0 0
v 0 0 0
v -1 -1 0
v -2 -1 0
v -2 0 0
v -1 0 0
v -2 -1 0
v -3 -1 0
v -3 0 0
v -2 0 0
v -3 -1 0
v -4 -1 0
v -4 0 0
v -3 0 0
v -4 -1 0
v -5 -1 0
v -5 0 0
v -4 0 0
v -5 -1 0
v -6 -1 0
v -6 0 0
v -5 0 0
v -6 -1 0
v -7 -1 0
v -7 0 0
v -6 0 0
v -7 -1 0
v -8 -1 0
v -8 0 0
v -7 0 0
v -8 -1 0
v -9 -1 0
v -9 0 0
v -8 0 0
v -9 -1 0
v -10 -1 0
v -10 0 0
v -9 0 0
v -10 -1 0
v -11 -1 0
v -11 0 0
v -10 0 0
v -11 -1 0
v -12 -1 0
v -12 0 0
v -11 0 0
v -12 -1 0
v -13 -1 0
v -13 0 0
v -12 0 0
v -13 -1 0
v -14 -1 0
v -14 0 0
v -13 0 0
v -14 -1 0
v -15 -1 0
v -15 0 0
v -14 0 0
v -15 -1 0
v -16 -1 0
v -16 0 0
v -15 0 0
v 0 -2 0
v -1 -2 0
v -1 -1 0
v 0 -1 0
v -1 -2 0
v -2 -2 0
v -2 -1 0
v -1 -1 0
v -2 -2 0
v -3 -2 0
v -3 -1 0
v -2 -1 0
v -3 -2 0
v -4 -2 0
v -4 -1 0
v -3 -1 0
v -4 -2 0
v -5 -2 0
v -5 -1 0
v -4 -1 0
v -5 -2 0
v -6 -2 0
v -6 -1 0
v -5 -1 0
v -6 -2 0
v -7 -2 0
v -7 -1 0
v -6 -1 0
v -7 -2 0
v -8 -2 0
v -8 -1 0
v -7 -1 0
v -8 -2 0
v -9 -2 0
v -9 -1 0
v -8 -1 0
v -9 -2 0
v -10 -2 0
v -10 -1 0
v -9 -1 0
v -10 -2 0
v -11 -2 0
v -11 -1 0
v -10 -1 0
v -11 -2 0
v -12 -2 0
v -12 -1 0
v -11 -1 0
v -12 -2 0
v -13 -2 0
v -13 -1 0
v -12 -1 0
v -13 -2 0
v -14 -2 0
v -14 -1 0
v -13 -1 0
v -14 -2 0
v -15 -2 0
v -15 -1 0
v -14 -1 0
v -15 -2 0
v -16 -2 0
v -16 -1 0
v -15 -1 0
v 0 -3 0
v -1 -3 0
v -1 -2 0
v 0 -2 0
v -1 -3 0
v -2 -3 0
v -2 -2 0
v -1 -2 0
v -2 -3 0
v -3 -3 0
v -3 -2 0
v -2 -2 0
v -3 -3 0
v -4 -3 0
v -4 -2 0
v -3 -2 0
v -4 -3 0
v -5 -3 0
v -5 -2 0
v -4 -2 0
v -5 -3 0
v -6 -3 0
v -6 -2 0
v -5 -2 0
v -6 -3 0
v -7 -3 0
v -7 -2 0
v -6 -2 0
v -7 -3 0
v -8 -3 0
v -8 -2 0
v -7 -2 0
v -8 -3 0
v -9 -3 0
v -9 -2 0
v -8 -2 0
v -9 -3 0
v -10 -3 0
v -10 -2 0
v -9 -2 0
v -10 -3 0
v -11 -3 0
v -11 -2 0
v -10 -2 0
v -11 -3 0
v -12 -3 0
v -12 -2 0
v -11 -2 0
v -12 -3 0
v -13 -3 0
v -13 -2 0
v -12 -2 0
v -13 -3 0
v -14 -3 0
v -14 -2 0
v -13 -2 0
v -14 -3 0
v -15 -3 0
v -15 -2 0
v -14 -2 0
v -15 -3 0
v -16 -3 0
v -16 -2 0
v -15 -2 0
v 0 -4 0
v -1 -4 0
v -1 -3 0
v 0 -3 0
v -1 -4 0
v -2 -4 0
v -2 -3 0
v -1 -3 0
v -2 -4 0
v -3 -4 0
v -3 -3 0
v -2 -3 0
v -3 -4 0
v -4 -4 0
v -4 -3 0
v -3 -3 0
v -4 -4 0
v -5 -4 0
v -5 -3 0
v -4 -3 0
v -5 -4 0
v -6 -4 0
v -6 -3 0
v -5 -3 0
v -6 -4 0
v -7 -4 0
v -7 -3 0
v -6 -3 0
v -7 -4 0
v -8 -4 0
v -8 -3 0
v -7 -3 0
v -8 -4 0
v -9 -4 0
v -9 -3 0
v -8 -3 0
v -9 -4 0
v -10 -4 0
v -10 -3 0
v -9 -3 0
v -10 -4 0
v -11 -4 0
v -11 -3 0
v -10 -3 0
v -11 -4 0
v -12 -4 0
v -12 -3 0
v -11 -3 0
v -12 -4 0
v -13 -4 0
v -13 -3 0
v -12 -3 0
v -13 -4 0
v -14 -4 0
v -14 -3 0
v -13 -3 0
v -14 -4 0
v -15 -4 0
v -15 -3 0
v -14 -3 0
v -15 -4 0
v -16 -4 0
v -16 -3 0
v -15 -3 0
v 0 -5 0
v -1 -5 0
v -1 -4 0
v 0 -4 0
v -1 -5 0
v -2 -5 0
v -2 -4 0
v -1 -4 0
v -2 -5 0
v -3 -5 0
v -3 -4 0
v -2 -4 0
v -3 -5 0
v -4 -5 0
v -4 -4 0
v -3 -4 0
v -4 -5 0
v -5 -5 0
v -5 -4 0
v -4 -4 0
v -5 -5 0
v -6 -5 0
v -6 -4 0
v -5 -4 0
v -6 -5 0
v -7 -5 0
v -7 -4 0
v -6 -4 0
v -7 -5 0
v -8 -5 0
v -8 -4 0
v -7 -4 0
v -8 -5 0
v -9 -5 0
v -9 -4 0
v -8 -4 0
v -9 -5 0
v -10 -5 0
v -10 -4 0
v -9 -4 0
v -10 -5 0
v -11 -5 0
v -11 -4 0
v -10 -4 0
v -11 -5 0
v -12 -5 0
v -12 -4 0
v -11 -4 0
v -12 -5 0
v -13 -5 0
v -13 -4 0
v -12 -4 0
v -13 -5 0
v -14 -5 0
v -14 -4 0
v -13 -4 0
v -14 -5 0
v -15 -5 0
v -15 -4 0
v -14 -4 0
v -15 -5 0
v -16 -5 0
v -16 -4 0
v -15 -4 0
v 0 -6 0
v -1 -6 0
v -1 -5 0
v 0 -5 0
v -1 -6 0
v -2 -6 0
v -2 -5 0
v -1 -5 0
v -2 -6 0
v -3 -6 0
v -3 -5 0
v -2 -5 0
v -3 -6 0
v -4 -6 0
v -4 -5 0
v -3 -5 0
v -4 -6 0
v -5 -6 0
v -5 -5 0
v -4 -5 0
v -5 -6 0
v -6 -6 0
v -6 -5 0
v -5 -5 0
v -6 -6 0
v -7 -6 0
v -7 -5 0
v -6 -5 0
v -7 -6 0
v -8 -6 0
v -8 -5 0
v -7 -5 0
v -8 -6 0
v -9 -6 0
v -9 -5 0
v -8 -5 0
v -9 -6 0
v -10 -6 0
v -10 -5 0
v -9 -5 0
v -10 -6 0
v -11 -6 0
v -11 -5 0
v -10 -5 0
v -11 -6 0
v -12 -6 0
v -12 -5 0
v -11 -5 0
v -12 -6 0
v -13 -6 0
v -13 -5 0
v -12 -5 0
v -13 -6 0
v -14 -6 0
v -14 -5 0
v -13 -5 0
v -14 -6 0
v -15 -6 0
v -15 -5 0
v -14 -5 0
v -15 -6 0
v -16 -6 0
v -16 -5 0
v -15 -5 0
v 0 -7 0
v -1 -7 0
v -1 -6 0
v 0 -6 0
v -1 -7 0
v -2 -7 0
v -2 -6 0
v -1 -6 0
v -2 -7 0
v -3 -7 0
v -3 -6 0
v -2 -6 0
v -3 -7 0
v -4 -7 0
v -4 -6 0
v -3 -6 0
v -4 -7 0
v -5 -7 0
v -5 -6 0
v -4 -6 0
v -5 -7 0
v -6 -7 0
v -6 -6 0
v -5 -6 0
v -6 -7 0
v -7 -7 0
v -7 -6 0
v -6 -6 0
v -7 -7 0
v -8 -7 0
v -8 -6 0
v -7 -6 0
v -8 -7 0
v -9 -7 0
v -9 -6 0
v -8 -6 0
v -9 -7 0
v -10 -7 0
v -10 -6 0
v -9 -6 0
v -10 -7 0
v -11 -7 0
v -11 -6 0
v -10 -6 0
v -11 -7 0
v -12 -7 0
v -12 -6 0
v -11 -6 0
v -12 -7 0
v -13 -7 0
v -13 -6 0
v -12 -6 0
v -13 -7 0
v -14 -7 0
v -14 -6 0
v -13 -6 0
v -14 -7 0
v -15 -7 0
v -15 -6 0
v -14 -6 0
v -15 -7 0
v -16 -7 0
v -16 -6 0
v -15 -6 0
v 0 -8 0
v -1 -8 0
v -1 -7 0
v 0 -7 0
v -1 -8 0
v -2 -8 0
v -2 -7 0
v -1 -7 0
v -2 -8 0
v -3 -8 0
v -3 -7 0
v -2 -7 0
v -3 -8 0
v -4 -8 0
v -4 -7 0
v -3 -7 0
v -4 -8 0
v -5 -8 0
v -5 -7 0
v -4 -7 0
v -5 -8 0
v -6 -8 0
v -6 -7 0
v -5 -7 0
v -6 -8 0
v -7 -8 0
v -7 -7 0
v -6 -7 0
v -7 -8 0
v -8 -8 0
v -8 -7 0
v -7 -7 0
v -8 -8 0
v -9 -8 0
v -9 -7 0
v -8 -7 0
v -9 -8 0
v -10 -8 0
v -10 -7 0
v -9 -7 0
v -10 -8 0
v -11 -8 0
v -11 -7 0
v -10 -7 0
v -11 -8 0
v -12 -8 0
v -12 -7 0
v -11 -7 0
v -12 -8 0
v -13 -8 0
v -13 -7 0
v -12 -7 0
v -13 -8 0
v -14 -8 0
v -14 -7 0
v -13 -7 0
v -14 -8 0
v -15 -8 0
v -15 -7 0
v -14 -7 0
v -15 -8 0
v -16 -8 0
v -16 -7 0
v -15 -7 0
v 0 -9 0
v -1 -9 0
v -1 -8 0
v 0 -8 0
v -1 -9 0
v -2 -9 0
v -2 -8 0
v -1 -8 0
v -2 -9 0
v -3 -9 0
v -3 -8 0
v -2 -8 0
v -3 -9 0
v -4 -9 0
v -4 -8 0
v -3 -8 0
v -4 -9 0
v -5 -9 0
v -5 -8 0
v -4 -8 0
v -5 -9 0
v -6 -9 0
v -6 -8 0
v -5 -8 0
v -6 -9 0
v -7 -9 0
v -7 -8 0
v -6 -8 0
v -7 -9 0
v -8 -9 0
v -8 -8 0
v -7 -8 0
v -8 -9 0
v -9 -9 0
v -9 -8 0
v -8 -8 0
v -9 -9 0
v -10 -9 0
v -10 -8 0
v -9 -8 0
v -10 -9 0
v -11 -9 0
v -11 -8 0
v -10 -8 0
v -11 -9 0
v -12 -9 0
v -12 -8 0
v -11 -8 0
v -12 -9 0
v -13 -9 0
v -13 -8 0
v -12 -8 0
v -13 -9 0
v -14 -9 0
v -14 -8 0
v -13 -8 0
v -14 -9 0
v -15 -9 0
v -15 -8 0
v -14 -8 0
v -15 -9 0
v -16 -9 0
v -16 -8 0
v -15 -8 0
v 0 -10 0
v -1 -10 0
v -1 -9 0
v 0 -9 0
v -1 -10 0
v -2 -10 0
v -2 -9 0
v -1 -9 0
v -2 -10 0
v -3 -10 0
v -3 -9 0
v -2 -9 0
v -3 -10 0
v -4 -10 0
v -4 -9 0
v -3 -9 0
v -4 -10 0
v -5 -10 0
v -5 -9 0
v -4 -9 0
v -5 -10 0
v -6 -10 0
v -6 -9 0
v -5 -9 0
v -6 -10 0
v -7 -10 0
v -7 -9 0
v -6 -9 0
v -7 -10 0
v -8 -10 0
v -8 -9 0
v -7 -9 0
v -8 -10 0
v -9 -10 0
v -9 -9 0
v -8 -9 0
v -9 -10 0
v -10 -10 0
v -10 -9 0
v -9 -9 0
v -10 -10 0
v -11 -10 0
v -11 -9 0
v -10 -9 0
v -11 -10 0
v -12 -10 0
v -12 -9 0
v -11 -9 0
v -12 -10 0
v -13 -10 0
v -13 -9 0
v -12 -9 0
v -13 -10 0
v -14 -10 0
v -14 -9 0
v -13 -9 0
v -14 -10 0
v -15 -10 0
v -15 -9 0
v -14 -9 0
v -15 -10 0
v -16 -10 0
v -16 -9 0
v -15 -9 0
v 0 -11 0
v -1 -11 0
v -1 -10 0
v 0 -10 0
v -1 -11 0
v -2 -11 0
v -2 -10 0
v -1 -10 0
v -2 -11 0
v -3 -11 0
v -3 -10 0
v -2 -10 0
v -3 -11 0
v -4 -11 0
v -4 -10 0
v -3 -10 0
v -4 -11 0
v -5 -11 0
v -5 -10 0
v -4 -10 0
v -5 -11 0
v -6 -11 0
v -6 -10 0
v -5 -10 0
v -6 -11 0
v -7 -11 0
v -7 -10 0
v -6 -10 0
v -7 -11 0
v -8 -11 0
v -8 -10 0
v -7 -10 0
v -8 -11 0
v -9 -11 0
v -9 -10 0
v -8 -10 0
v -9 -11 0
v -10 -11 0
v -10 -10 0
v -9 -10 0
v -10 -11 0
v -11 -11 0
v -11 -10 0
v -10 -10 0
v -11 -11 0
v -12 -11 0
v -12 -10 0
v -11 -10 0
v -12 -11 0
v -13 -11 0
v -13 -10 0
v -12 -10 0
v -13 -11 0
v -14 -11 0
v -14 -10 0
v -13 -10 0
v -14 -11 0
v -15 -11 0
v -15 -10 0
v -14 -10 0
v -15 -11 0
v -16 -11 0
v -16 -10 0
v -15 -10 0
v 0 -12 0
v -1 -12 0
v -1 -11 0
v 0 -11 0
v -1 -12 0
v -2 -12 0
v -2 -11 0
v -1 -11 0
v -2 -12 0
v -3 -12 0
v -3 -11 0
v -2 -11 0
v -3 -12 0
v -4 -12 0
v -4 -11 0
v -3 -11 0
v -4 -12 0
v -5 -12 0
v -5 -11 0
v -4 -11 0
v -5 -12 0
v -6 -12 0
v -6 -11 0
v -5 -11 0
v -6 -12 0
v -7 -12 0
v -7 -11 0
v -6 -11 0
v -7 -12 0
v -8 -12 0
v -8 -11 0
v -7 -11 0
v -8 -12 0
v -9 -12 0
v -9 -11 0
v -8 -11 0
v -9 -12 0
v -10 -12 0
v -10 -11 0
v -9 -11 0
v -10 -12 0
v -11 -12 0
v -11 -11 0
v -10 -11 0
v -11 -12 0
v -12 -12 0
v -12 -11 0
v -11 -11 0
v -12 -12 0
v -13 -12 0
v -13 -11 0
v -12 -11 0
v -13 -12 0
v -14 -12 0
v -14 -11 0
v -13 -11 0
v -14 -12 0
v -15 -12 0
v -15 -11 0
v -14 -11 0
v -15 -12 0
v -16 -12 0
v -16 -11 0
v -15 -11 0
v 0 -13 0
v -1 -13 0
v -1 -12 0
v 0 -12 0
v -1 -13 0
v -2 -13 0
v -2 -12 0
v -1 -12 0
v -2 -13 0
v -3 -13 0
v -3 -12 0
v -2 -12 0
v -3 -13 0
v -4 -13 0
v -4 -12 0
v -3 -12 0
v -4 -13 0
v -5 -13 0
v -5 -12 0
v -4 -12 0
v -5 -13 0
v -6 -13 0
v -6 -12 0
v -5 -12 0
v -6 -13 0
v -7 -13 0
v -7 -12 0
v -6 -12 0
v -7 -13 0
v -8 -13 0
v -8 -12 0
v -7 -12 0
v -8 -13 0
v -9 -13 0
v -9 -12 0
v -8 -12 0
v -9 -13 0
v -10 -13 0
v -10 -12 0
v -9 -12 0
v -10 -13 0
v -11 -13 0
v -11 -12 0
v -10 -12 0
v -11 -13 0
v -12 -13 0
v -12 -12 0
v -11 -12 0
v -12 -13 0
v -13 -13 0
v -13 -12 0
v -12 -12 0
v -13 -13 0
v -14 -13 0
v -14 -12 0
v -13 -12 0
v -14 -13 0
v -15 -13 0
v -15 -12 0
v -14 -12 0
v -15 -13 0
v -16 -13 0
v -16 -12 0
v -15 -12 0
v 0 -14 0
v -1 -14 0
v -1 -13 0
v 0 -13 0
v -1 -14 0
v -2 -14 0
v -2 -13 0
v -1 -13 0
v -2 -14 0
v -3 -14 0
v -3 -13 0
v -2 -13 0
v -3 -14 0
v -4 -14 0
v -4 -13 0
v -3 -13 0
v -4 -14 0
v -5 -14 0
v -5 -13 0
v -4 -13 0
v -5 -14 0
v -6 -14 0
v -6 -13 0
v -5 -13 0
v -6 -14 0
v -7 -14 0
v -7 -13 0
v -6 -13 0
v -7 -14 0
v -8 -14 0
v -8 -13 0
v -7 -13 0
v -8 -14 0
v -9 -14 0
v -9 -13 0
v -8 -13 0
v -9 -14 0
v -10 -14 0
v -10 -13 0
v -9 -13 0
v -10 -14 0
v -11 -14 0
v -11 -13 0
v -10 -13 0
v -11 -14 0
v -12 -14 0
v -12 -13 0
v -11 -13 0
v -12 -14 0
v -13 -14 0
v -13 -13 0
v -12 -13 0
v -13 -14 0
v -14 -14 0
v -14 -13 0
v -13 -13 0
v -14 -14 0
v -15 -14 0
v -15 -13 0
v -14 -13 0
v -15 -14 0
v -16 -14 0
v -16 -13 0
v -15 -13 0
v 0 -15 0
v -1 -15 0
v -1 -14 0
v 0 -14 0
v -1 -15 0
v -2 -15 0
v -2 -14 0
v -1 -14 0
v -2 -15 0
v -3 -15 0
v -3 -14 0
v -2 -14 0
v -3 -15 0
v -4 -15 0
v -4 -14 0
v -3 -14 0
v -4 -15 0
v -5 -15 0
v -5 -14 0
v -4 -14 0
v -5 -15 0
v -6 -15 0
v -6 -14 0
v -5 -14 0
v -6 -15 0
v -7 -15 0
v -7 -14 0
v -6 -14 0
v -7 -15 0
v -8 -15 0
v -8 -14 0
v -7 -14 0
v -8 -15 0
v -9 -15 0
v -9 -14 0
v -8 -14 0
v -9 -15 0
v -10 -15 0
v -10 -14 0
v -9 -14 0
v -10 -15 0
v -11 -15 0
v -11 -14 0
v -10 -14 0
v -11 -15 0
v -12 -15 0
v -12 -14 0
v -11 -14 0
v -12 -15 0
v -13 -15 0
v -13 -14 0
v -12 -14 0
v -13 -15 0
v -14 -15 0
v -14 -14 0
v -13 -14 0
v -14 -15 0
v -15 -15 0
v -15 -14 0
v -14 -14 0
v -15 -15 0
v -16 -15 0
v -16 -14 0
v -15 -14 0
v 0 -16 0
v -1 -16 0
v -1 -15 0
v 0 -15 0
v -1 -16 0
v -2 -16 0
v -2 -15 0
v -1 -15 0
v -2 -16 0
v -3 -16 0
v -3 -15 0
v -2 -15 0
v -3 -16 0
v -4 -16 0
v -4 -15 0
v -3 -15 0
v -4 -16 0
v -5 -16 0
v -5 -15 0
v -4 -15 0
v -5 -16 0
v -6 -16 0
v -6 -15 0
v -5 -15 0
v -6 -16 0
v -7 -16 0
v -7 -15 0
v -6 -15 0
v -7 -16 0
v -8 -16 0
v -8 -15 0
v -7 -15 0
v -8 -16 0
v -9 -16 0
v -9 -15 0
v -8 -15 0
v -9 -16 0
v -10 -16 0
v -10 -15 0
v -9 -15 0
v -10 -16 0
v -11 -16 0
v -11 -15 0
v -10 -15 0
v -11 -16 0
v -12 -16 0
v -12 -15 0
v -11 -15 0
v -12 -16 0
v -13 -16 0
v -13 -15 0
v -12 -15 0
v -13 -16 0
v -14 -16 0
v -14 -15 0
v -13 -15 0
v -14 -16 0
v -15 -16 0
v -15 -15 0
v -14 -15 0
v -15 -16 0
v -16 -16 0
v -16 -15 0
v -15 -15 0

# Texture cooridinates (Count = 16)
vt 0.5641026 0.6315789
vt 0.5897436 0.6315789
vt 0.5897436 0.6578947
vt 0.5641026 0.6578947
vt 0.4871795 0.6842105
vt 0.5128205 0.6842105
vt 0.5128205 0.7105263
vt 0.4871795 0.7105263
vt 0.4358974 0.6842105
vt 0.4615385 0.6842105
vt 0.4615385 0.7105263
vt 0.4358974 0.7105263
vt 0.5641026 0.8157895
vt 0.5897436 0.8157895
vt 0.5897436 0.8421053
vt 0.5641026 0.8421053

# Normal
vn 0 0 -1

# Mesh description
g pueblouwu_mesh_0002

# Faces
f 1/1/1 2/2/1 3/3/1 4/4/1
f 5/1/1 6/2/1 7/3/1 8/4/1
f 9/1/1 10/2/1 11/3/1 12/4/1
f 13/1/1 14/2/1 15/3/1 16/4/1
f 17/5/1 18/6/1 19/7/1 20/8/1
f 21/5/1 22/6/1 23/7/1 24/8/1
f 25/5/1 26/6/1 27/7/1 28/8/1
f 29/5/1 30/6/1 31/7/1 32/8/1
f 33/5/1 34/6/1 35/7/1 36/8/1
f 37/5/1 38/6/1 39/7/1 40/8/1
f 41/5/1 42/6/1 43/7/1 44/8/1
f 45/5/1 46/6/1 47/7/1 48/8/1
f 49/5/1 50/6/1 51/7/1 52/8/1
f 53/5/1 54/6/1 55/7/1 56/8/1
f 57/9/1 58/10/1 59/11/1 60/12/1
f 61/9/1 62/10/1 63/11/1 64/12/1
f 65/1/1 66/2/1 67/3/1 68/4/1
f 69/1/1 70/2/1 71/3/1 72/4/1
f 73/1/1 74/2/1 75/3/1 76/4/1
f 77/1/1 78/2/1 79/3/1 80/4/1
f 81/5/1 82/6/1 83/7/1 84/8/1
f 85/9/1 86/10/1 87/11/1 88/12/1
f 89/10/1 90/5/1 91/8/1 92/11/1
f 93/5/1 94/6/1 95/7/1 96/8/1
f 97/9/1 98/10/1 99/11/1 100/12/1
f 101/10/1 102/5/1 103/8/1 104/11/1
f 105/5/1 106/6/1 107/7/1 108/8/1
f 109/9/1 110/10/1 111/11/1 112/12/1
f 113/10/1 114/5/1 115/8/1 116/11/1
f 117/5/1 118/6/1 119/7/1 120/8/1
f 121/5/1 122/6/1 123/7/1 124/8/1
f 125/5/1 126/6/1 127/7/1 128/8/1
f 129/1/1 130/2/1 131/3/1 132/4/1
f 133/1/1 134/2/1 135/3/1 136/4/1
f 137/1/1 138/2/1 139/3/1 140/4/1
f 141/1/1 142/2/1 143/3/1 144/4/1
f 145/5/1 146/6/1 147/7/1 148/8/1
f 149/9/1 150/10/1 151/11/1 152/12/1
f 153/10/1 154/5/1 155/8/1 156/11/1
f 157/5/1 158/6/1 159/7/1 160/8/1
f 161/9/1 162/10/1 163/11/1 164/12/1
f 165/10/1 166/5/1 167/8/1 168/11/1
f 169/5/1 170/6/1 171/7/1 172/8/1
f 173/9/1 174/10/1 175/11/1 176/12/1
f 177/10/1 178/5/1 179/8/1 180/11/1
f 181/5/1 182/6/1 183/7/1 184/8/1
f 185/9/1 186/10/1 187/11/1 188/12/1
f 189/9/1 190/10/1 191/11/1 192/12/1
f 193/1/1 194/2/1 195/3/1 196/4/1
f 197/1/1 198/2/1 199/3/1 200/4/1
f 201/1/1 202/2/1 203/3/1 204/4/1
f 205/1/1 206/2/1 207/3/1 208/4/1
f 209/5/1 210/6/1 211/7/1 212/8/1
f 213/9/1 214/10/1 215/11/1 216/12/1
f 217/10/1 218/5/1 219/8/1 220/11/1
f 221/5/1 222/6/1 223/7/1 224/8/1
f 225/9/1 226/10/1 227/11/1 228/12/1
f 229/10/1 230/5/1 231/8/1 232/11/1
f 233/5/1 234/6/1 235/7/1 236/8/1
f 237/9/1 238/10/1 239/11/1 240/12/1
f 241/10/1 242/5/1 243/8/1 244/11/1
f 245/5/1 246/6/1 247/7/1 248/8/1
f 249/9/1 250/10/1 251/11/1 252/12/1
f 253/9/1 254/10/1 255/11/1 256/12/1
f 257/1/1 258/2/1 259/3/1 260/4/1
f 261/1/1 262/2/1 263/3/1 264/4/1
f 265/1/1 266/2/1 267/3/1 268/4/1
f 269/1/1 270/2/1 271/3/1 272/4/1
f 273/5/1 274/6/1 275/7/1 276/8/1
f 277/9/1 278/10/1 279/11/1 280/12/1
f 281/10/1 282/5/1 283/8/1 284/11/1
f 285/5/1 286/6/1 287/7/1 288/8/1
f 289/9/1 290/10/1 291/11/1 292/12/1
f 293/10/1 294/5/1 295/8/1 296/11/1
f 297/5/1 298/6/1 299/7/1 300/8/1
f 301/9/1 302/10/1 303/11/1 304/12/1
f 305/10/1 306/5/1 307/8/1 308/11/1
f 309/5/1 310/6/1 311/7/1 312/8/1
f 313/9/1 314/10/1 315/11/1 316/12/1
f 317/9/1 318/10/1 319/11/1 320/12/1
f 321/1/1 322/2/1 323/3/1 324/4/1
f 325/1/1 326/2/1 327/3/1 328/4/1
f 329/1/1 330/2/1 331/3/1 332/4/1
f 333/1/1 334/2/1 335/3/1 336/4/1
f 337/5/1 338/6/1 339/7/1 340/8/1
f 341/9/1 342/10/1 343/11/1 344/12/1
f 345/10/1 346/5/1 347/8/1 348/11/1
f 349/5/1 350/6/1 351/7/1 352/8/1
f 353/9/1 354/10/1 355/11/1 356/12/1
f 357/10/1 358/5/1 359/8/1 360/11/1
f 361/5/1 362/6/1 363/7/1 364/8/1
f 365/9/1 366/10/1 367/11/1 368/12/1
f 369/10/1 370/5/1 371/8/1 372/11/1
f 373/5/1 374/6/1 375/7/1 376/8/1
f 377/9/1 378/10/1 379/11/1 380/12/1
f 381/9/1 382/10/1 383/11/1 384/12/1
f 385/1/1 386/2/1 387/3/1 388/4/1
f 389/1/1 390/2/1 391/3/1 392/4/1
f 393/1/1 394/2/1 395/3/1 396/4/1
f 397/1/1 398/2/1 399/3/1 400/4/1
f 401/5/1 402/6/1 403/7/1 404/8/1
f 405/9/1 406/10/1 407/11/1 408/12/1
f 409/10/1 410/5/1 411/8/1 412/11/1
f 413/5/1 414/6/1 415/7/1 416/8/1
f 417/9/1 418/10/1 419/11/1 420/12/1
f 421/10/1 422/5/1 423/8/1 424/11/1
f 425/5/1 426/6/1 427/7/1 428/8/1
f 429/9/1 430/10/1 431/11/1 432/12/1
f 433/10/1 434/5/1 435/8/1 436/11/1
f 437/5/1 438/6/1 439/7/1 440/8/1
f 441/9/1 442/10/1 443/11/1 444/12/1
f 445/10/1 446/5/1 447/8/1 448/11/1
f 449/1/1 450/2/1 451/3/1 452/4/1
f 453/1/1 454/2/1 455/3/1 456/4/1
f 457/1/1 458/2/1 459/3/1 460/4/1
f 461/1/1 462/2/1 463/3/1 464/4/1
f 465/5/1 466/6/1 467/7/1 468/8/1
f 469/9/1 470/10/1 471/11/1 472/12/1
f 473/10/1 474/5/1 475/8/1 476/11/1
f 477/5/1 478/6/1 479/7/1 480/8/1
f 481/9/1 482/10/1 483/11/1 484/12/1
f 485/10/1 486/5/1 487/8/1 488/11/1
f 489/5/1 490/6/1 491/7/1 492/8/1
f 493/9/1 494/10/1 495/11/1 496/12/1
f 497/10/1 498/5/1 499/8/1 500/11/1
f 501/5/1 502/6/1 503/7/1 504/8/1
f 505/9/1 506/10/1 507/11/1 508/12/1
f 509/10/1 510/5/1 511/8/1 512/11/1
f 513/1/1 514/2/1 515/3/1 516/4/1
f 517/1/1 518/2/1 519/3/1 520/4/1
f 521/1/1 522/2/1 523/3/1 524/4/1
f 525/1/1 526/2/1 527/3/1 528/4/1
f 529/5/1 530/6/1 531/7/1 532/8/1
f 533/9/1 534/10/1 535/11/1 536/12/1
f 537/10/1 538/5/1 539/8/1 540/11/1
f 541/5/1 542/6/1 543/7/1 544/8/1
f 545/9/1 546/10/1 547/11/1 548/12/1
f 549/10/1 550/5/1 551/8/1 552/11/1
f 553/5/1 554/6/1 555/7/1 556/8/1
f 557/9/1 558/10/1 559/11/1 560/12/1
f 561/10/1 562/5/1 563/8/1 564/11/1
f 565/5/1 566/6/1 567/7/1 568/8/1
f 569/9/1 570/10/1 571/11/1 572/12/1
f 573/10/1 574/5/1 575/8/1 576/11/1
f 577/1/1 578/2/1 579/3/1 580/4/1
f 581/1/1 582/2/1 583/3/1 584/4/1
f 585/1/1 586/2/1 587/3/1 588/4/1
f 589/1/1 590/2/1 591/3/1 592/4/1
f 593/5/1 594/6/1 595/7/1 596/8/1
f 597/9/1 598/10/1 599/11/1 600/12/1
f 601/10/1 602/5/1 603/8/1 604/11/1
f 605/5/1 606/6/1 607/7/1 608/8/1
f 609/9/1 610/10/1 611/11/1 612/12/1
f 613/10/1 614/5/1 615/8/1 616/11/1
f 617/5/1 618/6/1 619/7/1 620/8/1
f 621/9/1 622/10/1 623/11/1 624/12/1
f 625/10/1 626/5/1 627/8/1 628/11/1
f 629/5/1 630/6/1 631/7/1 632/8/1
f 633/9/1 634/10/1 635/11/1 636/12/1
f 637/10/1 638/5/1 639/8/1 640/11/1
f 641/1/1 642/2/1 643/3/1 644/4/1
f 645/1/1 646/2/1 647/3/1 648/4/1
f 649/1/1 650/2/1 651/3/1 652/4/1
f 653/1/1 654/2/1 655/3/1 656/4/1
f 657/13/1 658/14/1 659/15/1 660/16/1
f 661/13/1 662/14/1 663/15/1 664/16/1
f 665/13/1 666/14/1 667/15/1 668/16/1
f 669/13/1 670/14/1 671/15/1 672/16/1
f 673/13/1 674/14/1 675/15/1 676/16/1
f 677/13/1 678/14/1 679/15/1 680/16/1
f 681/13/1 682/14/1 683/15/1 684/16/1
f 685/13/1 686/14/1 687/15/1 688/16/1
f 689/13/1 690/14/1 691/15/1 692/16/1
f 693/13/1 694/14/1 695/15/1 696/16/1
f 697/13/1 698/14/1 699/15/1 700/16/1
f 701/13/1 702/14/1 703/15/1 704/16/1
f 705/1/1 706/2/1 707/3/1 708/4/1
f 709/1/1 710/2/1 711/3/1 712/4/1
f 713/1/1 714/2/1 715/3/1 716/4/1
f 717/1/1 718/2/1 719/3/1 720/4/1
f 721/13/1 722/14/1 723/15/1 724/16/1
f 725/13/1 726/14/1 727/15/1 728/16/1
f 729/13/1 730/14/1 731/15/1 732/16/1
f 733/13/1 734/14/1 735/15/1 736/16/1
f 737/13/1 738/14/1 739/15/1 740/16/1
f 741/13/1 742/14/1 743/15/1 744/16/1
f 745/13/1 746/14/1 747/15/1 748/16/1
f 749/13/1 750/14/1 751/15/1 752/16/1
f 753/13/1 754/14/1 755/15/1 756/16/1
f 757/13/1 758/14/1 759/15/1 760/16/1
f 761/13/1 762/14/1 763/15/1 764/16/1
f 765/13/1 766/14/1 767/15/1 768/16/1
f 769/1/1 770/2/1 771/3/1 772/4/1
f 773/1/1 774/2/1 775/3/1 776/4/1
f 777/1/1 778/2/1 779/3/1 780/4/1
f 781/1/1 782/2/1 783/3/1 784/4/1
f 785/13/1 786/14/1 787/15/1 788/16/1
f 789/13/1 790/14/1 791/15/1 792/16/1
f 793/13/1 794/14/1 795/15/1 796/16/1
f 797/13/1 798/14/1 799/15/1 800/16/1
f 801/13/1 802/14/1 803/15/1 804/16/1
f 805/13/1 806/14/1 807/15/1 808/16/1
f 809/13/1 810/14/1 811/15/1 812/16/1
f 813/13/1 814/14/1 815/15/1 816/16/1
f 817/13/1 818/14/1 819/15/1 820/16/1
f 821/13/1 822/14/1 823/15/1 824/16/1
f 825/13/1 826/14/1 827/15/1 828/16/1
f 829/13/1 830/14/1 831/15/1 832/16/1
f 833/1/1 834/2/1 835/3/1 836/4/1
f 837/1/1 838/2/1 839/3/1 840/4/1
f 841/1/1 842/2/1 843/3/1 844/4/1
f 845/1/1 846/2/1 847/3/1 848/4/1
f 849/13/1 850/14/1 851/15/1 852/16/1
f 853/13/1 854/14/1 855/15/1 856/16/1
f 857/13/1 858/14/1 859/15/1 860/16/1
f 861/13/1 862/14/1 863/15/1 864/16/1
f 865/13/1 866/14/1 867/15/1 868/16/1
f 869/13/1 870/14/1 871/15/1 872/16/1
f 873/13/1 874/14/1 875/15/1 876/16/1
f 877/13/1 878/14/1 879/15/1 880/16/1
f 881/13/1 882/14/1 883/15/1 884/16/1
f 885/13/1 886/14/1 887/15/1 888/16/1
f 889/13/1 890/14/1 891/15/1 892/16/1
f 893/13/1 894/14/1 895/15/1 896/16/1
f 897/1/1 898/2/1 899/3/1 900/4/1
f 901/1/1 902/2/1 903/3/1 904/4/1
f 905/1/1 906/2/1 907/3/1 908/4/1
f 909/1/1 910/2/1 911/3/1 912/4/1
f 913/5/1 914/6/1 915/7/1 916/8/1
f 917/9/1 918/10/1 919/11/1 920/12/1
f 921/10/1 922/5/1 923/8/1 924/11/1
f 925/5/1 926/6/1 927/7/1 928/8/1
f 929/9/1 930/10/1 931/11/1 932/12/1
f 933/10/1 934/5/1 935/8/1 936/11/1
f 937/5/1 938/6/1 939/7/1 940/8/1
f 941/9/1 942/10/1 943/11/1 944/12/1
f 945/10/1 946/5/1 947/8/1 948/11/1
f 949/5/1 950/6/1 951/7/1 952/8/1
f 953/9/1 954/10/1 955/11/1 956/12/1
f 957/10/1 958/5/1 959/8/1 960/11/1
f 961/1/1 962/2/1 963/3/1 964/4/1
f 965/1/1 966/2/1 967/3/1 968/4/1
f 969/1/1 970/2/1 971/3/1 972/4/1
f 973/1/1 974/2/1 975/3/1 976/4/1
f 977/5/1 978/6/1 979/7/1 980/8/1
f 981/9/1 982/10/1 983/11/1 984/12/1
f 985/10/1 986/5/1 987/8/1 988/11/1
f 989/5/1 990/6/1 991/7/1 992/8/1
f 993/9/1 994/10/1 995/11/1 996/12/1
f 997/10/1 998/5/1 999/8/1 1000/11/1
f 1001/5/1 1002/6/1 1003/7/1 1004/8/1
f 1005/9/1 1006/10/1 1007/11/1 1008/12/1
f 1009/10/1 1010/5/1 1011/8/1 1012/11/1
f 1013/5/1 1014/6/1 1015/7/1 1016/8/1
f 1017/9/1 1018/10/1 1019/11/1 1020/12/1
f 1021/10/1 1022/5/1 1023/8/1 1024/11/1

