# Tiled2Unity generated file. Do not modify by hand.
# Wavefront file for 'pueblouwu_mesh_0023.obj'

# Vertices (Count = 644)
v 0 -2 0
v -1 -2 0
v -1 -1 0
v 0 -1 0
v -1 -2 0
v -2 -2 0
v -2 -1 0
v -1 -1 0
v -2 -2 0
v -3 -2 0
v -3 -1 0
v -2 -1 0
v -3 -2 0
v -4 -2 0
v -4 -1 0
v -3 -1 0
v -4 -2 0
v -5 -2 0
v -5 -1 0
v -4 -1 0
v -5 -2 0
v -6 -2 0
v -6 -1 0
v -5 -1 0
v -6 -2 0
v -7 -2 0
v -7 -1 0
v -6 -1 0
v -7 -2 0
v -8 -2 0
v -8 -1 0
v -7 -1 0
v -8 -2 0
v -9 -2 0
v -9 -1 0
v -8 -1 0
v -9 -2 0
v -10 -2 0
v -10 -1 0
v -9 -1 0
v -10 -2 0
v -11 -2 0
v -11 -1 0
v -10 -1 0
v -11 -2 0
v -12 -2 0
v -12 -1 0
v -11 -1 0
v -12 -2 0
v -13 -2 0
v -13 -1 0
v -12 -1 0
v -13 -2 0
v -14 -2 0
v -14 -1 0
v -13 -1 0
v -14 -2 0
v -15 -2 0
v -15 -1 0
v -14 -1 0
v -15 -2 0
v -16 -2 0
v -16 -1 0
v -15 -1 0
v 0 -3 0
v -1 -3 0
v -1 -2 0
v 0 -2 0
v -1 -3 0
v -2 -3 0
v -2 -2 0
v -1 -2 0
v -2 -3 0
v -3 -3 0
v -3 -2 0
v -2 -2 0
v -3 -3 0
v -4 -3 0
v -4 -2 0
v -3 -2 0
v -4 -3 0
v -5 -3 0
v -5 -2 0
v -4 -2 0
v -5 -3 0
v -6 -3 0
v -6 -2 0
v -5 -2 0
v -6 -3 0
v -7 -3 0
v -7 -2 0
v -6 -2 0
v -7 -3 0
v -8 -3 0
v -8 -2 0
v -7 -2 0
v -8 -3 0
v -9 -3 0
v -9 -2 0
v -8 -2 0
v -9 -3 0
v -10 -3 0
v -10 -2 0
v -9 -2 0
v -10 -3 0
v -11 -3 0
v -11 -2 0
v -10 -2 0
v -11 -3 0
v -12 -3 0
v -12 -2 0
v -11 -2 0
v -12 -3 0
v -13 -3 0
v -13 -2 0
v -12 -2 0
v -13 -3 0
v -14 -3 0
v -14 -2 0
v -13 -2 0
v -14 -3 0
v -15 -3 0
v -15 -2 0
v -14 -2 0
v -15 -3 0
v -16 -3 0
v -16 -2 0
v -15 -2 0
v 0 -4 0
v -1 -4 0
v -1 -3 0
v 0 -3 0
v -1 -4 0
v -2 -4 0
v -2 -3 0
v -1 -3 0
v -2 -4 0
v -3 -4 0
v -3 -3 0
v -2 -3 0
v -3 -4 0
v -4 -4 0
v -4 -3 0
v -3 -3 0
v -4 -4 0
v -5 -4 0
v -5 -3 0
v -4 -3 0
v -5 -4 0
v -6 -4 0
v -6 -3 0
v -5 -3 0
v -6 -4 0
v -7 -4 0
v -7 -3 0
v -6 -3 0
v -7 -4 0
v -8 -4 0
v -8 -3 0
v -7 -3 0
v -8 -4 0
v -9 -4 0
v -9 -3 0
v -8 -3 0
v -9 -4 0
v -10 -4 0
v -10 -3 0
v -9 -3 0
v -10 -4 0
v -11 -4 0
v -11 -3 0
v -10 -3 0
v -11 -4 0
v -12 -4 0
v -12 -3 0
v -11 -3 0
v -12 -4 0
v -13 -4 0
v -13 -3 0
v -12 -3 0
v -13 -4 0
v -14 -4 0
v -14 -3 0
v -13 -3 0
v -14 -4 0
v -15 -4 0
v -15 -3 0
v -14 -3 0
v -15 -4 0
v -16 -4 0
v -16 -3 0
v -15 -3 0
v 0 -5 0
v -1 -5 0
v -1 -4 0
v 0 -4 0
v -1 -5 0
v -2 -5 0
v -2 -4 0
v -1 -4 0
v -2 -5 0
v -3 -5 0
v -3 -4 0
v -2 -4 0
v -3 -5 0
v -4 -5 0
v -4 -4 0
v -3 -4 0
v -4 -5 0
v -5 -5 0
v -5 -4 0
v -4 -4 0
v -5 -5 0
v -6 -5 0
v -6 -4 0
v -5 -4 0
v -6 -5 0
v -7 -5 0
v -7 -4 0
v -6 -4 0
v -7 -5 0
v -8 -5 0
v -8 -4 0
v -7 -4 0
v -8 -5 0
v -9 -5 0
v -9 -4 0
v -8 -4 0
v -9 -5 0
v -10 -5 0
v -10 -4 0
v -9 -4 0
v -10 -5 0
v -11 -5 0
v -11 -4 0
v -10 -4 0
v -11 -5 0
v -12 -5 0
v -12 -4 0
v -11 -4 0
v -12 -5 0
v -13 -5 0
v -13 -4 0
v -12 -4 0
v -13 -5 0
v -14 -5 0
v -14 -4 0
v -13 -4 0
v -14 -5 0
v -15 -5 0
v -15 -4 0
v -14 -4 0
v -15 -5 0
v -16 -5 0
v -16 -4 0
v -15 -4 0
v 0 -6 0
v -1 -6 0
v -1 -5 0
v 0 -5 0
v -1 -6 0
v -2 -6 0
v -2 -5 0
v -1 -5 0
v -2 -6 0
v -3 -6 0
v -3 -5 0
v -2 -5 0
v -3 -6 0
v -4 -6 0
v -4 -5 0
v -3 -5 0
v -4 -6 0
v -5 -6 0
v -5 -5 0
v -4 -5 0
v -5 -6 0
v -6 -6 0
v -6 -5 0
v -5 -5 0
v -6 -6 0
v -7 -6 0
v -7 -5 0
v -6 -5 0
v -7 -6 0
v -8 -6 0
v -8 -5 0
v -7 -5 0
v -8 -6 0
v -9 -6 0
v -9 -5 0
v -8 -5 0
v -9 -6 0
v -10 -6 0
v -10 -5 0
v -9 -5 0
v -10 -6 0
v -11 -6 0
v -11 -5 0
v -10 -5 0
v -11 -6 0
v -12 -6 0
v -12 -5 0
v -11 -5 0
v -12 -6 0
v -13 -6 0
v -13 -5 0
v -12 -5 0
v -13 -6 0
v -14 -6 0
v -14 -5 0
v -13 -5 0
v -14 -6 0
v -15 -6 0
v -15 -5 0
v -14 -5 0
v -15 -6 0
v -16 -6 0
v -16 -5 0
v -15 -5 0
v -3 -7 0
v -4 -7 0
v -4 -6 0
v -3 -6 0
v 0 -11 0
v -1 -11 0
v -1 -10 0
v 0 -10 0
v -1 -11 0
v -2 -11 0
v -2 -10 0
v -1 -10 0
v -2 -11 0
v -3 -11 0
v -3 -10 0
v -2 -10 0
v -3 -11 0
v -4 -11 0
v -4 -10 0
v -3 -10 0
v -4 -11 0
v -5 -11 0
v -5 -10 0
v -4 -10 0
v -5 -11 0
v -6 -11 0
v -6 -10 0
v -5 -10 0
v -6 -11 0
v -7 -11 0
v -7 -10 0
v -6 -10 0
v -7 -11 0
v -8 -11 0
v -8 -10 0
v -7 -10 0
v -8 -11 0
v -9 -11 0
v -9 -10 0
v -8 -10 0
v -9 -11 0
v -10 -11 0
v -10 -10 0
v -9 -10 0
v -10 -11 0
v -11 -11 0
v -11 -10 0
v -10 -10 0
v -11 -11 0
v -12 -11 0
v -12 -10 0
v -11 -10 0
v -12 -11 0
v -13 -11 0
v -13 -10 0
v -12 -10 0
v -13 -11 0
v -14 -11 0
v -14 -10 0
v -13 -10 0
v -14 -11 0
v -15 -11 0
v -15 -10 0
v -14 -10 0
v -15 -11 0
v -16 -11 0
v -16 -10 0
v -15 -10 0
v 0 -12 0
v -1 -12 0
v -1 -11 0
v 0 -11 0
v -1 -12 0
v -2 -12 0
v -2 -11 0
v -1 -11 0
v -2 -12 0
v -3 -12 0
v -3 -11 0
v -2 -11 0
v -3 -12 0
v -4 -12 0
v -4 -11 0
v -3 -11 0
v -4 -12 0
v -5 -12 0
v -5 -11 0
v -4 -11 0
v -5 -12 0
v -6 -12 0
v -6 -11 0
v -5 -11 0
v -6 -12 0
v -7 -12 0
v -7 -11 0
v -6 -11 0
v -7 -12 0
v -8 -12 0
v -8 -11 0
v -7 -11 0
v -8 -12 0
v -9 -12 0
v -9 -11 0
v -8 -11 0
v -9 -12 0
v -10 -12 0
v -10 -11 0
v -9 -11 0
v -10 -12 0
v -11 -12 0
v -11 -11 0
v -10 -11 0
v -11 -12 0
v -12 -12 0
v -12 -11 0
v -11 -11 0
v -12 -12 0
v -13 -12 0
v -13 -11 0
v -12 -11 0
v -13 -12 0
v -14 -12 0
v -14 -11 0
v -13 -11 0
v -14 -12 0
v -15 -12 0
v -15 -11 0
v -14 -11 0
v -15 -12 0
v -16 -12 0
v -16 -11 0
v -15 -11 0
v 0 -13 0
v -1 -13 0
v -1 -12 0
v 0 -12 0
v -1 -13 0
v -2 -13 0
v -2 -12 0
v -1 -12 0
v -2 -13 0
v -3 -13 0
v -3 -12 0
v -2 -12 0
v -3 -13 0
v -4 -13 0
v -4 -12 0
v -3 -12 0
v -4 -13 0
v -5 -13 0
v -5 -12 0
v -4 -12 0
v -5 -13 0
v -6 -13 0
v -6 -12 0
v -5 -12 0
v -6 -13 0
v -7 -13 0
v -7 -12 0
v -6 -12 0
v -7 -13 0
v -8 -13 0
v -8 -12 0
v -7 -12 0
v -8 -13 0
v -9 -13 0
v -9 -12 0
v -8 -12 0
v -9 -13 0
v -10 -13 0
v -10 -12 0
v -9 -12 0
v -10 -13 0
v -11 -13 0
v -11 -12 0
v -10 -12 0
v -11 -13 0
v -12 -13 0
v -12 -12 0
v -11 -12 0
v -12 -13 0
v -13 -13 0
v -13 -12 0
v -12 -12 0
v -13 -13 0
v -14 -13 0
v -14 -12 0
v -13 -12 0
v -14 -13 0
v -15 -13 0
v -15 -12 0
v -14 -12 0
v -15 -13 0
v -16 -13 0
v -16 -12 0
v -15 -12 0
v 0 -14 0
v -1 -14 0
v -1 -13 0
v 0 -13 0
v -1 -14 0
v -2 -14 0
v -2 -13 0
v -1 -13 0
v -2 -14 0
v -3 -14 0
v -3 -13 0
v -2 -13 0
v -3 -14 0
v -4 -14 0
v -4 -13 0
v -3 -13 0
v -4 -14 0
v -5 -14 0
v -5 -13 0
v -4 -13 0
v -5 -14 0
v -6 -14 0
v -6 -13 0
v -5 -13 0
v -6 -14 0
v -7 -14 0
v -7 -13 0
v -6 -13 0
v -7 -14 0
v -8 -14 0
v -8 -13 0
v -7 -13 0
v -8 -14 0
v -9 -14 0
v -9 -13 0
v -8 -13 0
v -9 -14 0
v -10 -14 0
v -10 -13 0
v -9 -13 0
v -10 -14 0
v -11 -14 0
v -11 -13 0
v -10 -13 0
v -11 -14 0
v -12 -14 0
v -12 -13 0
v -11 -13 0
v -12 -14 0
v -13 -14 0
v -13 -13 0
v -12 -13 0
v -13 -14 0
v -14 -14 0
v -14 -13 0
v -13 -13 0
v -14 -14 0
v -15 -14 0
v -15 -13 0
v -14 -13 0
v -15 -14 0
v -16 -14 0
v -16 -13 0
v -15 -13 0
v 0 -15 0
v -1 -15 0
v -1 -14 0
v 0 -14 0
v -1 -15 0
v -2 -15 0
v -2 -14 0
v -1 -14 0
v -2 -15 0
v -3 -15 0
v -3 -14 0
v -2 -14 0
v -3 -15 0
v -4 -15 0
v -4 -14 0
v -3 -14 0
v -4 -15 0
v -5 -15 0
v -5 -14 0
v -4 -14 0
v -5 -15 0
v -6 -15 0
v -6 -14 0
v -5 -14 0
v -6 -15 0
v -7 -15 0
v -7 -14 0
v -6 -14 0
v -7 -15 0
v -8 -15 0
v -8 -14 0
v -7 -14 0
v -8 -15 0
v -9 -15 0
v -9 -14 0
v -8 -14 0
v -9 -15 0
v -10 -15 0
v -10 -14 0
v -9 -14 0
v -10 -15 0
v -11 -15 0
v -11 -14 0
v -10 -14 0
v -11 -15 0
v -12 -15 0
v -12 -14 0
v -11 -14 0
v -12 -15 0
v -13 -15 0
v -13 -14 0
v -12 -14 0
v -13 -15 0
v -14 -15 0
v -14 -14 0
v -13 -14 0
v -14 -15 0
v -15 -15 0
v -15 -14 0
v -14 -14 0
v -15 -15 0
v -16 -15 0
v -16 -14 0
v -15 -14 0

# Texture cooridinates (Count = 111)
vt 0.8550724 0.7368421
vt 0.8695652 0.7368421
vt 0.8695652 0.7631579
vt 0.8550724 0.7631579
vt 0.884058 0.7368421
vt 0.884058 0.7631579
vt 0.7826087 0.7368421
vt 0.7971014 0.7368421
vt 0.7971014 0.7631579
vt 0.7826087 0.7631579
vt 0.8115942 0.7368421
vt 0.8115942 0.7631579
vt 0.8260869 0.7368421
vt 0.8260869 0.7631579
vt 0.8405797 0.7368421
vt 0.8405797 0.7631579
vt 0.8550724 0.7105263
vt 0.8695652 0.7105263
vt 0.884058 0.7105263
vt 0.7826087 0.7105263
vt 0.7971014 0.7105263
vt 0.8115942 0.7105263
vt 0.8260869 0.7105263
vt 0.8405797 0.7105263
vt 0.8550724 0.6842105
vt 0.8695652 0.6842105
vt 0.884058 0.6842105
vt 0.7826087 0.6842105
vt 0.7971014 0.6842105
vt 0.8115942 0.6842105
vt 0.8260869 0.6842105
vt 0.8405797 0.6842105
vt 0.8550724 0.5
vt 0.8695652 0.5
vt 0.8695652 0.5263158
vt 0.8550724 0.5263158
vt 0.884058 0.5
vt 0.884058 0.5263158
vt 0.7826087 0.5
vt 0.7971014 0.5
vt 0.7971014 0.5263158
vt 0.7826087 0.5263158
vt 0.8115942 0.5
vt 0.8115942 0.5263158
vt 0.8260869 0.5
vt 0.8260869 0.5263158
vt 0.8405797 0.5
vt 0.8405797 0.5263158
vt 0.8550724 0.4736842
vt 0.8695652 0.4736842
vt 0.884058 0.4736842
vt 0.7826087 0.4736842
vt 0.7971014 0.4736842
vt 0.8115942 0.4736842
vt 0.8260869 0.4736842
vt 0.8405797 0.4736842
vt 0.173913 0.3684211
vt 0.1884058 0.3684211
vt 0.1884058 0.3947368
vt 0.173913 0.3947368
vt 0.7536232 0.7368421
vt 0.7681159 0.7368421
vt 0.7681159 0.7631579
vt 0.7536232 0.7631579
vt 0.6811594 0.7368421
vt 0.6956522 0.7368421
vt 0.6956522 0.7631579
vt 0.6811594 0.7631579
vt 0.7101449 0.7368421
vt 0.7101449 0.7631579
vt 0.7246377 0.7368421
vt 0.7246377 0.7631579
vt 0.7391304 0.7368421
vt 0.7391304 0.7631579
vt 0.7536232 0.7105263
vt 0.7681159 0.7105263
vt 0.6811594 0.7105263
vt 0.6956522 0.7105263
vt 0.7101449 0.7105263
vt 0.7246377 0.7105263
vt 0.7391304 0.7105263
vt 0.7536232 0.6842105
vt 0.7681159 0.6842105
vt 0.6811594 0.6842105
vt 0.6956522 0.6842105
vt 0.7101449 0.6842105
vt 0.7246377 0.6842105
vt 0.7391304 0.6842105
vt 0.7536232 0.5526316
vt 0.7681159 0.5526316
vt 0.7681159 0.5789474
vt 0.7536232 0.5789474
vt 0.7826087 0.5526316
vt 0.7826087 0.5789474
vt 0.6811594 0.5526316
vt 0.6956522 0.5526316
vt 0.6956522 0.5789474
vt 0.6811594 0.5789474
vt 0.7101449 0.5526316
vt 0.7101449 0.5789474
vt 0.7246377 0.5526316
vt 0.7246377 0.5789474
vt 0.7391304 0.5526316
vt 0.7391304 0.5789474
vt 0.7536232 0.5263158
vt 0.7681159 0.5263158
vt 0.6811594 0.5263158
vt 0.6956522 0.5263158
vt 0.7101449 0.5263158
vt 0.7246377 0.5263158
vt 0.7391304 0.5263158

# Normal
vn 0 0 -1

# Mesh description
g pueblouwu_mesh_0023

# Faces
f 1/1/1 2/2/1 3/3/1 4/4/1
f 5/2/1 6/5/1 7/6/1 8/3/1
f 9/7/1 10/8/1 11/9/1 12/10/1
f 13/8/1 14/11/1 15/12/1 16/9/1
f 17/11/1 18/13/1 19/14/1 20/12/1
f 21/13/1 22/15/1 23/16/1 24/14/1
f 25/15/1 26/1/1 27/4/1 28/16/1
f 29/1/1 30/2/1 31/3/1 32/4/1
f 33/2/1 34/5/1 35/6/1 36/3/1
f 37/7/1 38/8/1 39/9/1 40/10/1
f 41/8/1 42/11/1 43/12/1 44/9/1
f 45/11/1 46/13/1 47/14/1 48/12/1
f 49/13/1 50/15/1 51/16/1 52/14/1
f 53/15/1 54/1/1 55/4/1 56/16/1
f 57/1/1 58/2/1 59/3/1 60/4/1
f 61/2/1 62/5/1 63/6/1 64/3/1
f 65/17/1 66/18/1 67/2/1 68/1/1
f 69/18/1 70/19/1 71/5/1 72/2/1
f 73/20/1 74/21/1 75/8/1 76/7/1
f 77/21/1 78/22/1 79/11/1 80/8/1
f 81/22/1 82/23/1 83/13/1 84/11/1
f 85/23/1 86/24/1 87/15/1 88/13/1
f 89/24/1 90/17/1 91/1/1 92/15/1
f 93/17/1 94/18/1 95/2/1 96/1/1
f 97/18/1 98/19/1 99/5/1 100/2/1
f 101/20/1 102/21/1 103/8/1 104/7/1
f 105/21/1 106/22/1 107/11/1 108/8/1
f 109/22/1 110/23/1 111/13/1 112/11/1
f 113/23/1 114/24/1 115/15/1 116/13/1
f 117/24/1 118/17/1 119/1/1 120/15/1
f 121/17/1 122/18/1 123/2/1 124/1/1
f 125/18/1 126/19/1 127/5/1 128/2/1
f 129/25/1 130/26/1 131/18/1 132/17/1
f 133/26/1 134/27/1 135/19/1 136/18/1
f 137/28/1 138/29/1 139/21/1 140/20/1
f 141/29/1 142/30/1 143/22/1 144/21/1
f 145/30/1 146/31/1 147/23/1 148/22/1
f 149/31/1 150/32/1 151/24/1 152/23/1
f 153/32/1 154/25/1 155/17/1 156/24/1
f 157/25/1 158/26/1 159/18/1 160/17/1
f 161/26/1 162/27/1 163/19/1 164/18/1
f 165/28/1 166/29/1 167/21/1 168/20/1
f 169/29/1 170/30/1 171/22/1 172/21/1
f 173/30/1 174/31/1 175/23/1 176/22/1
f 177/31/1 178/32/1 179/24/1 180/23/1
f 181/32/1 182/25/1 183/17/1 184/24/1
f 185/25/1 186/26/1 187/18/1 188/17/1
f 189/26/1 190/27/1 191/19/1 192/18/1
f 193/33/1 194/34/1 195/35/1 196/36/1
f 197/34/1 198/37/1 199/38/1 200/35/1
f 201/39/1 202/40/1 203/41/1 204/42/1
f 205/40/1 206/43/1 207/44/1 208/41/1
f 209/43/1 210/45/1 211/46/1 212/44/1
f 213/45/1 214/47/1 215/48/1 216/46/1
f 217/47/1 218/33/1 219/36/1 220/48/1
f 221/33/1 222/34/1 223/35/1 224/36/1
f 225/34/1 226/37/1 227/38/1 228/35/1
f 229/39/1 230/40/1 231/41/1 232/42/1
f 233/40/1 234/43/1 235/44/1 236/41/1
f 237/43/1 238/45/1 239/46/1 240/44/1
f 241/45/1 242/47/1 243/48/1 244/46/1
f 245/47/1 246/33/1 247/36/1 248/48/1
f 249/33/1 250/34/1 251/35/1 252/36/1
f 253/34/1 254/37/1 255/38/1 256/35/1
f 257/49/1 258/50/1 259/34/1 260/33/1
f 261/50/1 262/51/1 263/37/1 264/34/1
f 265/52/1 266/53/1 267/40/1 268/39/1
f 269/53/1 270/54/1 271/43/1 272/40/1
f 273/54/1 274/55/1 275/45/1 276/43/1
f 277/55/1 278/56/1 279/47/1 280/45/1
f 281/56/1 282/49/1 283/33/1 284/47/1
f 285/49/1 286/50/1 287/34/1 288/33/1
f 289/50/1 290/51/1 291/37/1 292/34/1
f 293/52/1 294/53/1 295/40/1 296/39/1
f 297/53/1 298/54/1 299/43/1 300/40/1
f 301/54/1 302/55/1 303/45/1 304/43/1
f 305/55/1 306/56/1 307/47/1 308/45/1
f 309/56/1 310/49/1 311/33/1 312/47/1
f 313/49/1 314/50/1 315/34/1 316/33/1
f 317/50/1 318/51/1 319/37/1 320/34/1
f 321/57/1 322/58/1 323/59/1 324/60/1
f 325/61/1 326/62/1 327/63/1 328/64/1
f 329/62/1 330/7/1 331/10/1 332/63/1
f 333/65/1 334/66/1 335/67/1 336/68/1
f 337/66/1 338/69/1 339/70/1 340/67/1
f 341/69/1 342/71/1 343/72/1 344/70/1
f 345/71/1 346/73/1 347/74/1 348/72/1
f 349/73/1 350/61/1 351/64/1 352/74/1
f 353/61/1 354/62/1 355/63/1 356/64/1
f 357/62/1 358/7/1 359/10/1 360/63/1
f 361/65/1 362/66/1 363/67/1 364/68/1
f 365/66/1 366/69/1 367/70/1 368/67/1
f 369/69/1 370/71/1 371/72/1 372/70/1
f 373/71/1 374/73/1 375/74/1 376/72/1
f 377/73/1 378/61/1 379/64/1 380/74/1
f 381/61/1 382/62/1 383/63/1 384/64/1
f 385/62/1 386/7/1 387/10/1 388/63/1
f 389/75/1 390/76/1 391/62/1 392/61/1
f 393/76/1 394/20/1 395/7/1 396/62/1
f 397/77/1 398/78/1 399/66/1 400/65/1
f 401/78/1 402/79/1 403/69/1 404/66/1
f 405/79/1 406/80/1 407/71/1 408/69/1
f 409/80/1 410/81/1 411/73/1 412/71/1
f 413/81/1 414/75/1 415/61/1 416/73/1
f 417/75/1 418/76/1 419/62/1 420/61/1
f 421/76/1 422/20/1 423/7/1 424/62/1
f 425/77/1 426/78/1 427/66/1 428/65/1
f 429/78/1 430/79/1 431/69/1 432/66/1
f 433/79/1 434/80/1 435/71/1 436/69/1
f 437/80/1 438/81/1 439/73/1 440/71/1
f 441/81/1 442/75/1 443/61/1 444/73/1
f 445/75/1 446/76/1 447/62/1 448/61/1
f 449/76/1 450/20/1 451/7/1 452/62/1
f 453/82/1 454/83/1 455/76/1 456/75/1
f 457/83/1 458/28/1 459/20/1 460/76/1
f 461/84/1 462/85/1 463/78/1 464/77/1
f 465/85/1 466/86/1 467/79/1 468/78/1
f 469/86/1 470/87/1 471/80/1 472/79/1
f 473/87/1 474/88/1 475/81/1 476/80/1
f 477/88/1 478/82/1 479/75/1 480/81/1
f 481/82/1 482/83/1 483/76/1 484/75/1
f 485/83/1 486/28/1 487/20/1 488/76/1
f 489/84/1 490/85/1 491/78/1 492/77/1
f 493/85/1 494/86/1 495/79/1 496/78/1
f 497/86/1 498/87/1 499/80/1 500/79/1
f 501/87/1 502/88/1 503/81/1 504/80/1
f 505/88/1 506/82/1 507/75/1 508/81/1
f 509/82/1 510/83/1 511/76/1 512/75/1
f 513/83/1 514/28/1 515/20/1 516/76/1
f 517/89/1 518/90/1 519/91/1 520/92/1
f 521/90/1 522/93/1 523/94/1 524/91/1
f 525/95/1 526/96/1 527/97/1 528/98/1
f 529/96/1 530/99/1 531/100/1 532/97/1
f 533/99/1 534/101/1 535/102/1 536/100/1
f 537/101/1 538/103/1 539/104/1 540/102/1
f 541/103/1 542/89/1 543/92/1 544/104/1
f 545/89/1 546/90/1 547/91/1 548/92/1
f 549/90/1 550/93/1 551/94/1 552/91/1
f 553/95/1 554/96/1 555/97/1 556/98/1
f 557/96/1 558/99/1 559/100/1 560/97/1
f 561/99/1 562/101/1 563/102/1 564/100/1
f 565/101/1 566/103/1 567/104/1 568/102/1
f 569/103/1 570/89/1 571/92/1 572/104/1
f 573/89/1 574/90/1 575/91/1 576/92/1
f 577/90/1 578/93/1 579/94/1 580/91/1
f 581/105/1 582/106/1 583/90/1 584/89/1
f 585/106/1 586/42/1 587/93/1 588/90/1
f 589/107/1 590/108/1 591/96/1 592/95/1
f 593/108/1 594/109/1 595/99/1 596/96/1
f 597/109/1 598/110/1 599/101/1 600/99/1
f 601/110/1 602/111/1 603/103/1 604/101/1
f 605/111/1 606/105/1 607/89/1 608/103/1
f 609/105/1 610/106/1 611/90/1 612/89/1
f 613/106/1 614/42/1 615/93/1 616/90/1
f 617/107/1 618/108/1 619/96/1 620/95/1
f 621/108/1 622/109/1 623/99/1 624/96/1
f 625/109/1 626/110/1 627/101/1 628/99/1
f 629/110/1 630/111/1 631/103/1 632/101/1
f 633/111/1 634/105/1 635/89/1 636/103/1
f 637/105/1 638/106/1 639/90/1 640/89/1
f 641/106/1 642/42/1 643/93/1 644/90/1

