# Tiled2Unity generated file. Do not modify by hand.
# Wavefront file for 'pueblouwu_mesh_0014.obj'

# Vertices (Count = 96)
v 0 -13 0
v -1 -13 0
v -1 -12 0
v 0 -12 0
v -1 -13 0
v -2 -13 0
v -2 -12 0
v -1 -12 0
v -2 -13 0
v -3 -13 0
v -3 -12 0
v -2 -12 0
v -3 -13 0
v -4 -13 0
v -4 -12 0
v -3 -12 0
v -4 -13 0
v -5 -13 0
v -5 -12 0
v -4 -12 0
v -5 -13 0
v -6 -13 0
v -6 -12 0
v -5 -12 0
v -6 -13 0
v -7 -13 0
v -7 -12 0
v -6 -12 0
v -7 -13 0
v -8 -13 0
v -8 -12 0
v -7 -12 0
v -8 -13 0
v -9 -13 0
v -9 -12 0
v -8 -12 0
v -9 -13 0
v -10 -13 0
v -10 -12 0
v -9 -12 0
v -10 -13 0
v -11 -13 0
v -11 -12 0
v -10 -12 0
v -11 -13 0
v -12 -13 0
v -12 -12 0
v -11 -12 0
v 0 -14 0
v -1 -14 0
v -1 -13 0
v 0 -13 0
v -1 -14 0
v -2 -14 0
v -2 -13 0
v -1 -13 0
v -2 -14 0
v -3 -14 0
v -3 -13 0
v -2 -13 0
v -3 -14 0
v -4 -14 0
v -4 -13 0
v -3 -13 0
v -4 -14 0
v -5 -14 0
v -5 -13 0
v -4 -13 0
v -5 -14 0
v -6 -14 0
v -6 -13 0
v -5 -13 0
v -6 -14 0
v -7 -14 0
v -7 -13 0
v -6 -13 0
v -7 -14 0
v -8 -14 0
v -8 -13 0
v -7 -13 0
v -8 -14 0
v -9 -14 0
v -9 -13 0
v -8 -13 0
v -9 -14 0
v -10 -14 0
v -10 -13 0
v -9 -13 0
v -10 -14 0
v -11 -14 0
v -11 -13 0
v -10 -13 0
v -11 -14 0
v -12 -14 0
v -12 -13 0
v -11 -13 0

# Texture cooridinates (Count = 45)
vt 0.01449275 0.05263156
vt 0.02898551 0.05263156
vt 0.02898551 0.07894737
vt 0.01449275 0.07894737
vt 0.1884058 0.05263156
vt 0.2028985 0.05263156
vt 0.2028985 0.07894737
vt 0.1884058 0.07894737
vt 0.2173913 0.05263156
vt 0.2173913 0.07894737
vt 0.1304348 0.05263156
vt 0.1449275 0.05263156
vt 0.1449275 0.07894737
vt 0.1304348 0.07894737
vt 0.1594203 0.05263156
vt 0.1594203 0.07894737
vt 0.173913 0.05263156
vt 0.173913 0.07894737
vt 0.05797102 0.05263156
vt 0.07246377 0.05263156
vt 0.07246377 0.07894737
vt 0.05797102 0.07894737
vt 0.08695652 0.05263156
vt 0.08695652 0.07894737
vt 0.1014493 0.05263156
vt 0.1014493 0.07894737
vt 0.115942 0.05263156
vt 0.115942 0.07894737
vt 0.04347826 0.05263156
vt 0.04347826 0.07894737
vt 0.01449275 0.02631581
vt 0.02898551 0.02631581
vt 0.1884058 0.02631581
vt 0.2028985 0.02631581
vt 0.2173913 0.02631581
vt 0.1304348 0.02631581
vt 0.1449275 0.02631581
vt 0.1594203 0.02631581
vt 0.173913 0.02631581
vt 0.05797102 0.02631581
vt 0.07246377 0.02631581
vt 0.08695652 0.02631581
vt 0.1014493 0.02631581
vt 0.115942 0.02631581
vt 0.04347826 0.02631581

# Normal
vn 0 0 -1

# Mesh description
g pueblouwu_mesh_0014

# Faces
f 1/1/1 2/2/1 3/3/1 4/4/1
f 5/5/1 6/6/1 7/7/1 8/8/1
f 9/6/1 10/9/1 11/10/1 12/7/1
f 13/11/1 14/12/1 15/13/1 16/14/1
f 17/12/1 18/15/1 19/16/1 20/13/1
f 21/15/1 22/17/1 23/18/1 24/16/1
f 25/17/1 26/5/1 27/8/1 28/18/1
f 29/19/1 30/20/1 31/21/1 32/22/1
f 33/20/1 34/23/1 35/24/1 36/21/1
f 37/23/1 38/25/1 39/26/1 40/24/1
f 41/25/1 42/27/1 43/28/1 44/26/1
f 45/29/1 46/19/1 47/22/1 48/30/1
f 49/31/1 50/32/1 51/2/1 52/1/1
f 53/33/1 54/34/1 55/6/1 56/5/1
f 57/34/1 58/35/1 59/9/1 60/6/1
f 61/36/1 62/37/1 63/12/1 64/11/1
f 65/37/1 66/38/1 67/15/1 68/12/1
f 69/38/1 70/39/1 71/17/1 72/15/1
f 73/39/1 74/33/1 75/5/1 76/17/1
f 77/40/1 78/41/1 79/20/1 80/19/1
f 81/41/1 82/42/1 83/23/1 84/20/1
f 85/42/1 86/43/1 87/25/1 88/23/1
f 89/43/1 90/44/1 91/27/1 92/25/1
f 93/45/1 94/40/1 95/19/1 96/29/1

