# Tiled2Unity generated file. Do not modify by hand.
# Wavefront file for 'Exterior2_mesh_0001.obj'

# Vertices (Count = 256)
v -88 -8 0
v -96 -8 0
v -96 0 0
v -88 0 0
v -96 -8 0
v -104 -8 0
v -104 0 0
v -96 0 0
v -104 -8 0
v -112 -8 0
v -112 0 0
v -104 0 0
v -112 -8 0
v -120 -8 0
v -120 0 0
v -112 0 0
v -120 -8 0
v -128 -8 0
v -128 0 0
v -120 0 0
v -128 -8 0
v -136 -8 0
v -136 0 0
v -128 0 0
v -136 -8 0
v -144 -8 0
v -144 0 0
v -136 0 0
v -144 -8 0
v -152 -8 0
v -152 0 0
v -144 0 0
v -88 -16 0
v -96 -16 0
v -96 -8 0
v -88 -8 0
v -96 -16 0
v -104 -16 0
v -104 -8 0
v -96 -8 0
v -104 -16 0
v -112 -16 0
v -112 -8 0
v -104 -8 0
v -112 -16 0
v -120 -16 0
v -120 -8 0
v -112 -8 0
v -120 -16 0
v -128 -16 0
v -128 -8 0
v -120 -8 0
v -128 -16 0
v -136 -16 0
v -136 -8 0
v -128 -8 0
v -136 -16 0
v -144 -16 0
v -144 -8 0
v -136 -8 0
v -144 -16 0
v -152 -16 0
v -152 -8 0
v -144 -8 0
v -88 -24 0
v -96 -24 0
v -96 -16 0
v -88 -16 0
v -96 -24 0
v -104 -24 0
v -104 -16 0
v -96 -16 0
v -104 -24 0
v -112 -24 0
v -112 -16 0
v -104 -16 0
v -112 -24 0
v -120 -24 0
v -120 -16 0
v -112 -16 0
v -120 -24 0
v -128 -24 0
v -128 -16 0
v -120 -16 0
v -128 -24 0
v -136 -24 0
v -136 -16 0
v -128 -16 0
v -136 -24 0
v -144 -24 0
v -144 -16 0
v -136 -16 0
v -144 -24 0
v -152 -24 0
v -152 -16 0
v -144 -16 0
v -88 -32 0
v -96 -32 0
v -96 -24 0
v -88 -24 0
v -96 -32 0
v -104 -32 0
v -104 -24 0
v -96 -24 0
v -104 -32 0
v -112 -32 0
v -112 -24 0
v -104 -24 0
v -112 -32 0
v -120 -32 0
v -120 -24 0
v -112 -24 0
v -120 -32 0
v -128 -32 0
v -128 -24 0
v -120 -24 0
v -128 -32 0
v -136 -32 0
v -136 -24 0
v -128 -24 0
v -136 -32 0
v -144 -32 0
v -144 -24 0
v -136 -24 0
v -144 -32 0
v -152 -32 0
v -152 -24 0
v -144 -24 0
v -88 -40 0
v -96 -40 0
v -96 -32 0
v -88 -32 0
v -96 -40 0
v -104 -40 0
v -104 -32 0
v -96 -32 0
v -104 -40 0
v -112 -40 0
v -112 -32 0
v -104 -32 0
v -112 -40 0
v -120 -40 0
v -120 -32 0
v -112 -32 0
v -120 -40 0
v -128 -40 0
v -128 -32 0
v -120 -32 0
v -128 -40 0
v -136 -40 0
v -136 -32 0
v -128 -32 0
v -136 -40 0
v -144 -40 0
v -144 -32 0
v -136 -32 0
v -144 -40 0
v -152 -40 0
v -152 -32 0
v -144 -32 0
v -88 -48 0
v -96 -48 0
v -96 -40 0
v -88 -40 0
v -96 -48 0
v -104 -48 0
v -104 -40 0
v -96 -40 0
v -104 -48 0
v -112 -48 0
v -112 -40 0
v -104 -40 0
v -112 -48 0
v -120 -48 0
v -120 -40 0
v -112 -40 0
v -120 -48 0
v -128 -48 0
v -128 -40 0
v -120 -40 0
v -128 -48 0
v -136 -48 0
v -136 -40 0
v -128 -40 0
v -136 -48 0
v -144 -48 0
v -144 -40 0
v -136 -40 0
v -144 -48 0
v -152 -48 0
v -152 -40 0
v -144 -40 0
v -656 -112 0
v -664 -112 0
v -664 -104 0
v -656 -104 0
v -664 -112 0
v -672 -112 0
v -672 -104 0
v -664 -104 0
v -672 -112 0
v -680 -112 0
v -680 -104 0
v -672 -104 0
v -680 -112 0
v -688 -112 0
v -688 -104 0
v -680 -104 0
v -656 -120 0
v -664 -120 0
v -664 -112 0
v -656 -112 0
v -664 -120 0
v -672 -120 0
v -672 -112 0
v -664 -112 0
v -672 -120 0
v -680 -120 0
v -680 -112 0
v -672 -112 0
v -680 -120 0
v -688 -120 0
v -688 -112 0
v -680 -112 0
v -656 -128 0
v -664 -128 0
v -664 -120 0
v -656 -120 0
v -664 -128 0
v -672 -128 0
v -672 -120 0
v -664 -120 0
v -672 -128 0
v -680 -128 0
v -680 -120 0
v -672 -120 0
v -680 -128 0
v -688 -128 0
v -688 -120 0
v -680 -120 0
v -656 -136 0
v -664 -136 0
v -664 -128 0
v -656 -128 0
v -664 -136 0
v -672 -136 0
v -672 -128 0
v -664 -128 0
v -672 -136 0
v -680 -136 0
v -680 -128 0
v -672 -128 0
v -680 -136 0
v -688 -136 0
v -688 -128 0
v -680 -128 0

# Texture cooridinates (Count = 83)
vt 0 0.75
vt 0.08333334 0.75
vt 0.08333334 0.8333333
vt 0 0.8333333
vt 0.1666667 0.75
vt 0.1666667 0.8333333
vt 0.25 0.75
vt 0.25 0.8333333
vt 0.3333333 0.75
vt 0.3333333 0.8333333
vt 0.4166667 0.75
vt 0.4166667 0.8333333
vt 0.5 0.75
vt 0.5 0.8333333
vt 0.5833333 0.75
vt 0.5833333 0.8333333
vt 0.6666667 0.75
vt 0.6666667 0.8333333
vt 0 0.6666666
vt 0.08333334 0.6666666
vt 0.1666667 0.6666666
vt 0.25 0.6666666
vt 0.3333333 0.6666666
vt 0.4166667 0.6666666
vt 0.5 0.6666666
vt 0.5833333 0.6666666
vt 0.6666667 0.6666666
vt 0 0.5833334
vt 0.08333334 0.5833334
vt 0.1666667 0.5833334
vt 0.25 0.5833334
vt 0.3333333 0.5833334
vt 0.4166667 0.5833334
vt 0.5 0.5833334
vt 0.5833333 0.5833334
vt 0.6666667 0.5833334
vt 0 0.5
vt 0.08333334 0.5
vt 0.1666667 0.5
vt 0.25 0.5
vt 0.3333333 0.5
vt 0.4166667 0.5
vt 0.5 0.5
vt 0.5833333 0.5
vt 0.6666667 0.5
vt 0 0.4166667
vt 0.08333334 0.4166667
vt 0.1666667 0.4166667
vt 0.25 0.4166667
vt 0.3333333 0.4166667
vt 0.4166667 0.4166667
vt 0.5 0.4166667
vt 0.5833333 0.4166667
vt 0.6666667 0.4166667
vt 0 0.3333333
vt 0.08333334 0.3333333
vt 0.1666667 0.3333333
vt 0.25 0.3333333
vt 0.3333333 0.3333333
vt 0.4166667 0.3333333
vt 0.5 0.3333333
vt 0.5833333 0.3333333
vt 0.6666667 0.3333333
vt 0.3333333 0.25
vt 0.4166667 0.25
vt 0.5 0.25
vt 0.5833333 0.25
vt 0.6666667 0.25
vt 0.3333333 0.1666667
vt 0.4166667 0.1666667
vt 0.5 0.1666667
vt 0.5833333 0.1666667
vt 0.6666667 0.1666667
vt 0.3333333 0.08333331
vt 0.4166667 0.08333331
vt 0.5 0.08333331
vt 0.5833333 0.08333331
vt 0.6666667 0.08333331
vt 0.3333333 0
vt 0.4166667 0
vt 0.5 0
vt 0.5833333 0
vt 0.6666667 0

# Normal
vn 0 0 -1

# Mesh description
g Exterior2_mesh_0001

# Faces
f 1/1/1 2/2/1 3/3/1 4/4/1
f 5/2/1 6/5/1 7/6/1 8/3/1
f 9/5/1 10/7/1 11/8/1 12/6/1
f 13/7/1 14/9/1 15/10/1 16/8/1
f 17/9/1 18/11/1 19/12/1 20/10/1
f 21/11/1 22/13/1 23/14/1 24/12/1
f 25/13/1 26/15/1 27/16/1 28/14/1
f 29/15/1 30/17/1 31/18/1 32/16/1
f 33/19/1 34/20/1 35/2/1 36/1/1
f 37/20/1 38/21/1 39/5/1 40/2/1
f 41/21/1 42/22/1 43/7/1 44/5/1
f 45/22/1 46/23/1 47/9/1 48/7/1
f 49/23/1 50/24/1 51/11/1 52/9/1
f 53/24/1 54/25/1 55/13/1 56/11/1
f 57/25/1 58/26/1 59/15/1 60/13/1
f 61/26/1 62/27/1 63/17/1 64/15/1
f 65/28/1 66/29/1 67/20/1 68/19/1
f 69/29/1 70/30/1 71/21/1 72/20/1
f 73/30/1 74/31/1 75/22/1 76/21/1
f 77/31/1 78/32/1 79/23/1 80/22/1
f 81/32/1 82/33/1 83/24/1 84/23/1
f 85/33/1 86/34/1 87/25/1 88/24/1
f 89/34/1 90/35/1 91/26/1 92/25/1
f 93/35/1 94/36/1 95/27/1 96/26/1
f 97/37/1 98/38/1 99/29/1 100/28/1
f 101/38/1 102/39/1 103/30/1 104/29/1
f 105/39/1 106/40/1 107/31/1 108/30/1
f 109/40/1 110/41/1 111/32/1 112/31/1
f 113/41/1 114/42/1 115/33/1 116/32/1
f 117/42/1 118/43/1 119/34/1 120/33/1
f 121/43/1 122/44/1 123/35/1 124/34/1
f 125/44/1 126/45/1 127/36/1 128/35/1
f 129/46/1 130/47/1 131/38/1 132/37/1
f 133/47/1 134/48/1 135/39/1 136/38/1
f 137/48/1 138/49/1 139/40/1 140/39/1
f 141/49/1 142/50/1 143/41/1 144/40/1
f 145/50/1 146/51/1 147/42/1 148/41/1
f 149/51/1 150/52/1 151/43/1 152/42/1
f 153/52/1 154/53/1 155/44/1 156/43/1
f 157/53/1 158/54/1 159/45/1 160/44/1
f 161/55/1 162/56/1 163/47/1 164/46/1
f 165/56/1 166/57/1 167/48/1 168/47/1
f 169/57/1 170/58/1 171/49/1 172/48/1
f 173/58/1 174/59/1 175/50/1 176/49/1
f 177/59/1 178/60/1 179/51/1 180/50/1
f 181/60/1 182/61/1 183/52/1 184/51/1
f 185/61/1 186/62/1 187/53/1 188/52/1
f 189/62/1 190/63/1 191/54/1 192/53/1
f 193/64/1 194/65/1 195/60/1 196/59/1
f 197/65/1 198/66/1 199/61/1 200/60/1
f 201/66/1 202/67/1 203/62/1 204/61/1
f 205/67/1 206/68/1 207/63/1 208/62/1
f 209/69/1 210/70/1 211/65/1 212/64/1
f 213/70/1 214/71/1 215/66/1 216/65/1
f 217/71/1 218/72/1 219/67/1 220/66/1
f 221/72/1 222/73/1 223/68/1 224/67/1
f 225/74/1 226/75/1 227/70/1 228/69/1
f 229/75/1 230/76/1 231/71/1 232/70/1
f 233/76/1 234/77/1 235/72/1 236/71/1
f 237/77/1 238/78/1 239/73/1 240/72/1
f 241/79/1 242/80/1 243/75/1 244/74/1
f 245/80/1 246/81/1 247/76/1 248/75/1
f 249/81/1 250/82/1 251/77/1 252/76/1
f 253/82/1 254/83/1 255/78/1 256/77/1

