# Tiled2Unity generated file. Do not modify by hand.
# Wavefront file for 'casa2_mesh_0006.obj'

# Vertices (Count = 48)
v -54 -37 0
v -55 -37 0
v -55 -36 0
v -54 -36 0
v -55 -37 0
v -56 -37 0
v -56 -36 0
v -55 -36 0
v -56 -37 0
v -57 -37 0
v -57 -36 0
v -56 -36 0
v -57 -37 0
v -58 -37 0
v -58 -36 0
v -57 -36 0
v -54 -38 0
v -55 -38 0
v -55 -37 0
v -54 -37 0
v -55 -38 0
v -56 -38 0
v -56 -37 0
v -55 -37 0
v -56 -38 0
v -57 -38 0
v -57 -37 0
v -56 -37 0
v -57 -38 0
v -58 -38 0
v -58 -37 0
v -57 -37 0
v -43 -50 0
v -44 -50 0
v -44 -49 0
v -43 -49 0
v -44 -50 0
v -45 -50 0
v -45 -49 0
v -44 -49 0
v -43 -51 0
v -44 -51 0
v -44 -50 0
v -43 -50 0
v -44 -51 0
v -45 -51 0
v -45 -50 0
v -44 -50 0

# Texture cooridinates (Count = 24)
vt 0.3 0.55
vt 0.3166667 0.55
vt 0.3166667 0.5666667
vt 0.3 0.5666667
vt 0.3333333 0.55
vt 0.3333333 0.5666667
vt 0.35 0.55
vt 0.35 0.5666667
vt 0.3666667 0.55
vt 0.3666667 0.5666667
vt 0.3 0.5333333
vt 0.3166667 0.5333333
vt 0.3333333 0.5333333
vt 0.35 0.5333333
vt 0.3666667 0.5333333
vt 0.3333333 0.4166667
vt 0.35 0.4166667
vt 0.35 0.4333333
vt 0.3333333 0.4333333
vt 0.3666667 0.4166667
vt 0.3666667 0.4333333
vt 0.3333333 0.4
vt 0.35 0.4
vt 0.3666667 0.4

# Normal
vn 0 0 -1

# Mesh description
g casa2_mesh_0006

# Faces
f 1/1/1 2/2/1 3/3/1 4/4/1
f 5/2/1 6/5/1 7/6/1 8/3/1
f 9/5/1 10/7/1 11/8/1 12/6/1
f 13/7/1 14/9/1 15/10/1 16/8/1
f 17/11/1 18/12/1 19/2/1 20/1/1
f 21/12/1 22/13/1 23/5/1 24/2/1
f 25/13/1 26/14/1 27/7/1 28/5/1
f 29/14/1 30/15/1 31/9/1 32/7/1
f 33/16/1 34/17/1 35/18/1 36/19/1
f 37/17/1 38/20/1 39/21/1 40/18/1
f 41/22/1 42/23/1 43/17/1 44/16/1
f 45/23/1 46/24/1 47/20/1 48/17/1

