# Tiled2Unity generated file. Do not modify by hand.
# Wavefront file for 'casa2_mesh_0004.obj'

# Vertices (Count = 272)
v -59 -48 0
v -60 -48 0
v -60 -47 0
v -59 -47 0
v -60 -48 0
v -61 -48 0
v -61 -47 0
v -60 -47 0
v -61 -48 0
v -62 -48 0
v -62 -47 0
v -61 -47 0
v -62 -48 0
v -63 -48 0
v -63 -47 0
v -62 -47 0
v -59 -49 0
v -60 -49 0
v -60 -48 0
v -59 -48 0
v -60 -49 0
v -61 -49 0
v -61 -48 0
v -60 -48 0
v -61 -49 0
v -62 -49 0
v -62 -48 0
v -61 -48 0
v -62 -49 0
v -63 -49 0
v -63 -48 0
v -62 -48 0
v -59 -50 0
v -60 -50 0
v -60 -49 0
v -59 -49 0
v -60 -50 0
v -61 -50 0
v -61 -49 0
v -60 -49 0
v -61 -50 0
v -62 -50 0
v -62 -49 0
v -61 -49 0
v -62 -50 0
v -63 -50 0
v -63 -49 0
v -62 -49 0
v -59 -51 0
v -60 -51 0
v -60 -50 0
v -59 -50 0
v -60 -51 0
v -61 -51 0
v -61 -50 0
v -60 -50 0
v -61 -51 0
v -62 -51 0
v -62 -50 0
v -61 -50 0
v -62 -51 0
v -63 -51 0
v -63 -50 0
v -62 -50 0
v -42 -65 0
v -43 -65 0
v -43 -64 0
v -42 -64 0
v -43 -65 0
v -44 -65 0
v -44 -64 0
v -43 -64 0
v -50 -65 0
v -51 -65 0
v -51 -64 0
v -50 -64 0
v -51 -65 0
v -52 -65 0
v -52 -64 0
v -51 -64 0
v -40 -66 0
v -41 -66 0
v -41 -65 0
v -40 -65 0
v -41 -66 0
v -42 -66 0
v -42 -65 0
v -41 -65 0
v -42 -66 0
v -43 -66 0
v -43 -65 0
v -42 -65 0
v -43 -66 0
v -44 -66 0
v -44 -65 0
v -43 -65 0
v -45 -66 0
v -46 -66 0
v -46 -65 0
v -45 -65 0
v -46 -66 0
v -47 -66 0
v -47 -65 0
v -46 -65 0
v -47 -66 0
v -48 -66 0
v -48 -65 0
v -47 -65 0
v -48 -66 0
v -49 -66 0
v -49 -65 0
v -48 -65 0
v -50 -66 0
v -51 -66 0
v -51 -65 0
v -50 -65 0
v -51 -66 0
v -52 -66 0
v -52 -65 0
v -51 -65 0
v -52 -66 0
v -53 -66 0
v -53 -65 0
v -52 -65 0
v -53 -66 0
v -54 -66 0
v -54 -65 0
v -53 -65 0
v -38 -67 0
v -39 -67 0
v -39 -66 0
v -38 -66 0
v -39 -67 0
v -40 -67 0
v -40 -66 0
v -39 -66 0
v -40 -67 0
v -41 -67 0
v -41 -66 0
v -40 -66 0
v -41 -67 0
v -42 -67 0
v -42 -66 0
v -41 -66 0
v -42 -67 0
v -43 -67 0
v -43 -66 0
v -42 -66 0
v -43 -67 0
v -44 -67 0
v -44 -66 0
v -43 -66 0
v -45 -67 0
v -46 -67 0
v -46 -66 0
v -45 -66 0
v -46 -67 0
v -47 -67 0
v -47 -66 0
v -46 -66 0
v -47 -67 0
v -48 -67 0
v -48 -66 0
v -47 -66 0
v -48 -67 0
v -49 -67 0
v -49 -66 0
v -48 -66 0
v -50 -67 0
v -51 -67 0
v -51 -66 0
v -50 -66 0
v -51 -67 0
v -52 -67 0
v -52 -66 0
v -51 -66 0
v -52 -67 0
v -53 -67 0
v -53 -66 0
v -52 -66 0
v -53 -67 0
v -54 -67 0
v -54 -66 0
v -53 -66 0
v -54 -67 0
v -55 -67 0
v -55 -66 0
v -54 -66 0
v -55 -67 0
v -56 -67 0
v -56 -66 0
v -55 -66 0
v -38 -68 0
v -39 -68 0
v -39 -67 0
v -38 -67 0
v -39 -68 0
v -40 -68 0
v -40 -67 0
v -39 -67 0
v -40 -68 0
v -41 -68 0
v -41 -67 0
v -40 -67 0
v -41 -68 0
v -42 -68 0
v -42 -67 0
v -41 -67 0
v -45 -68 0
v -46 -68 0
v -46 -67 0
v -45 -67 0
v -46 -68 0
v -47 -68 0
v -47 -67 0
v -46 -67 0
v -47 -68 0
v -48 -68 0
v -48 -67 0
v -47 -67 0
v -48 -68 0
v -49 -68 0
v -49 -67 0
v -48 -67 0
v -52 -68 0
v -53 -68 0
v -53 -67 0
v -52 -67 0
v -53 -68 0
v -54 -68 0
v -54 -67 0
v -53 -67 0
v -54 -68 0
v -55 -68 0
v -55 -67 0
v -54 -67 0
v -55 -68 0
v -56 -68 0
v -56 -67 0
v -55 -67 0
v -38 -69 0
v -39 -69 0
v -39 -68 0
v -38 -68 0
v -39 -69 0
v -40 -69 0
v -40 -68 0
v -39 -68 0
v -45 -69 0
v -46 -69 0
v -46 -68 0
v -45 -68 0
v -46 -69 0
v -47 -69 0
v -47 -68 0
v -46 -68 0
v -47 -69 0
v -48 -69 0
v -48 -68 0
v -47 -68 0
v -48 -69 0
v -49 -69 0
v -49 -68 0
v -48 -68 0
v -54 -69 0
v -55 -69 0
v -55 -68 0
v -54 -68 0
v -55 -69 0
v -56 -69 0
v -56 -68 0
v -55 -68 0

# Texture cooridinates (Count = 52)
vt 0.4 0.25
vt 0.4166667 0.25
vt 0.4166667 0.2666667
vt 0.4 0.2666667
vt 0.4333333 0.25
vt 0.4333333 0.2666667
vt 0.45 0.25
vt 0.45 0.2666667
vt 0.4666667 0.25
vt 0.4666667 0.2666667
vt 0.4 0.2333333
vt 0.4166667 0.2333333
vt 0.4333333 0.2333333
vt 0.45 0.2333333
vt 0.4666667 0.2333333
vt 0.4 0.2166666
vt 0.4166667 0.2166666
vt 0.4333333 0.2166666
vt 0.45 0.2166666
vt 0.4666667 0.2166666
vt 0.4 0.2
vt 0.4166667 0.2
vt 0.4333333 0.2
vt 0.45 0.2
vt 0.4666667 0.2
vt 0 0.6666666
vt 0.01666667 0.6666666
vt 0.01666667 0.6833333
vt 0 0.6833333
vt 0.03333334 0.6666666
vt 0.03333334 0.6833333
vt 0 0.65
vt 0.01666667 0.65
vt 0.03333334 0.65
vt 0.7666667 0.45
vt 0.75 0.45
vt 0.75 0.4333333
vt 0.7666667 0.4333333
vt 0.7333333 0.45
vt 0.7333333 0.4333333
vt 0.7166666 0.45
vt 0.7166666 0.4333333
vt 0.7 0.45
vt 0.7 0.4333333
vt 0 0.6333333
vt 0.01666667 0.6333333
vt 0.03333334 0.6333333
vt 0.7666667 0.4666666
vt 0.75 0.4666666
vt 0.7333333 0.4666666
vt 0.7166666 0.4666666
vt 0.7 0.4666666

# Normal
vn 0 0 -1

# Mesh description
g casa2_mesh_0004

# Faces
f 1/1/1 2/2/1 3/3/1 4/4/1
f 5/2/1 6/5/1 7/6/1 8/3/1
f 9/5/1 10/7/1 11/8/1 12/6/1
f 13/7/1 14/9/1 15/10/1 16/8/1
f 17/11/1 18/12/1 19/2/1 20/1/1
f 21/12/1 22/13/1 23/5/1 24/2/1
f 25/13/1 26/14/1 27/7/1 28/5/1
f 29/14/1 30/15/1 31/9/1 32/7/1
f 33/16/1 34/17/1 35/12/1 36/11/1
f 37/17/1 38/18/1 39/13/1 40/12/1
f 41/18/1 42/19/1 43/14/1 44/13/1
f 45/19/1 46/20/1 47/15/1 48/14/1
f 49/21/1 50/22/1 51/17/1 52/16/1
f 53/22/1 54/23/1 55/18/1 56/17/1
f 57/23/1 58/24/1 59/19/1 60/18/1
f 61/24/1 62/25/1 63/20/1 64/19/1
f 65/26/1 66/27/1 67/28/1 68/29/1
f 69/27/1 70/30/1 71/31/1 72/28/1
f 73/26/1 74/27/1 75/28/1 76/29/1
f 77/27/1 78/30/1 79/31/1 80/28/1
f 81/26/1 82/27/1 83/28/1 84/29/1
f 85/27/1 86/30/1 87/31/1 88/28/1
f 89/32/1 90/33/1 91/27/1 92/26/1
f 93/33/1 94/34/1 95/30/1 96/27/1
f 97/35/1 98/36/1 99/37/1 100/38/1
f 101/36/1 102/39/1 103/40/1 104/37/1
f 105/39/1 106/41/1 107/42/1 108/40/1
f 109/41/1 110/43/1 111/44/1 112/42/1
f 113/32/1 114/33/1 115/27/1 116/26/1
f 117/33/1 118/34/1 119/30/1 120/27/1
f 121/26/1 122/27/1 123/28/1 124/29/1
f 125/27/1 126/30/1 127/31/1 128/28/1
f 129/26/1 130/27/1 131/28/1 132/29/1
f 133/27/1 134/30/1 135/31/1 136/28/1
f 137/32/1 138/33/1 139/27/1 140/26/1
f 141/33/1 142/34/1 143/30/1 144/27/1
f 145/45/1 146/46/1 147/33/1 148/32/1
f 149/46/1 150/47/1 151/34/1 152/33/1
f 153/48/1 154/49/1 155/36/1 156/35/1
f 157/49/1 158/50/1 159/39/1 160/36/1
f 161/50/1 162/51/1 163/41/1 164/39/1
f 165/51/1 166/52/1 167/43/1 168/41/1
f 169/45/1 170/46/1 171/33/1 172/32/1
f 173/46/1 174/47/1 175/34/1 176/33/1
f 177/32/1 178/33/1 179/27/1 180/26/1
f 181/33/1 182/34/1 183/30/1 184/27/1
f 185/26/1 186/27/1 187/28/1 188/29/1
f 189/27/1 190/30/1 191/31/1 192/28/1
f 193/32/1 194/33/1 195/27/1 196/26/1
f 197/33/1 198/34/1 199/30/1 200/27/1
f 201/45/1 202/46/1 203/33/1 204/32/1
f 205/46/1 206/47/1 207/34/1 208/33/1
f 209/43/1 210/41/1 211/51/1 212/52/1
f 213/41/1 214/39/1 215/50/1 216/51/1
f 217/39/1 218/36/1 219/49/1 220/50/1
f 221/36/1 222/35/1 223/48/1 224/49/1
f 225/45/1 226/46/1 227/33/1 228/32/1
f 229/46/1 230/47/1 231/34/1 232/33/1
f 233/32/1 234/33/1 235/27/1 236/26/1
f 237/33/1 238/34/1 239/30/1 240/27/1
f 241/45/1 242/46/1 243/33/1 244/32/1
f 245/46/1 246/47/1 247/34/1 248/33/1
f 249/44/1 250/42/1 251/41/1 252/43/1
f 253/42/1 254/40/1 255/39/1 256/41/1
f 257/40/1 258/37/1 259/36/1 260/39/1
f 261/37/1 262/38/1 263/35/1 264/36/1
f 265/45/1 266/46/1 267/33/1 268/32/1
f 269/46/1 270/47/1 271/34/1 272/33/1

