# Tiled2Unity generated file. Do not modify by hand.
# Wavefront file for 'casa2_mesh_0003.obj'

# Vertices (Count = 128)
v -25 -43 0
v -26 -43 0
v -26 -42 0
v -25 -42 0
v -26 -43 0
v -27 -43 0
v -27 -42 0
v -26 -42 0
v -27 -43 0
v -28 -43 0
v -28 -42 0
v -27 -42 0
v -28 -43 0
v -29 -43 0
v -29 -42 0
v -28 -42 0
v -29 -43 0
v -30 -43 0
v -30 -42 0
v -29 -42 0
v -30 -43 0
v -31 -43 0
v -31 -42 0
v -30 -42 0
v -31 -43 0
v -32 -43 0
v -32 -42 0
v -31 -42 0
v -32 -43 0
v -33 -43 0
v -33 -42 0
v -32 -42 0
v -25 -44 0
v -26 -44 0
v -26 -43 0
v -25 -43 0
v -26 -44 0
v -27 -44 0
v -27 -43 0
v -26 -43 0
v -27 -44 0
v -28 -44 0
v -28 -43 0
v -27 -43 0
v -28 -44 0
v -29 -44 0
v -29 -43 0
v -28 -43 0
v -29 -44 0
v -30 -44 0
v -30 -43 0
v -29 -43 0
v -30 -44 0
v -31 -44 0
v -31 -43 0
v -30 -43 0
v -31 -44 0
v -32 -44 0
v -32 -43 0
v -31 -43 0
v -32 -44 0
v -33 -44 0
v -33 -43 0
v -32 -43 0
v -25 -45 0
v -26 -45 0
v -26 -44 0
v -25 -44 0
v -26 -45 0
v -27 -45 0
v -27 -44 0
v -26 -44 0
v -27 -45 0
v -28 -45 0
v -28 -44 0
v -27 -44 0
v -28 -45 0
v -29 -45 0
v -29 -44 0
v -28 -44 0
v -29 -45 0
v -30 -45 0
v -30 -44 0
v -29 -44 0
v -30 -45 0
v -31 -45 0
v -31 -44 0
v -30 -44 0
v -31 -45 0
v -32 -45 0
v -32 -44 0
v -31 -44 0
v -32 -45 0
v -33 -45 0
v -33 -44 0
v -32 -44 0
v -25 -46 0
v -26 -46 0
v -26 -45 0
v -25 -45 0
v -26 -46 0
v -27 -46 0
v -27 -45 0
v -26 -45 0
v -27 -46 0
v -28 -46 0
v -28 -45 0
v -27 -45 0
v -28 -46 0
v -29 -46 0
v -29 -45 0
v -28 -45 0
v -29 -46 0
v -30 -46 0
v -30 -45 0
v -29 -45 0
v -30 -46 0
v -31 -46 0
v -31 -45 0
v -30 -45 0
v -31 -46 0
v -32 -46 0
v -32 -45 0
v -31 -45 0
v -32 -46 0
v -33 -46 0
v -33 -45 0
v -32 -45 0

# Texture cooridinates (Count = 25)
vt 0.4375 0.09375
vt 0.46875 0.09375
vt 0.46875 0.125
vt 0.4375 0.125
vt 0.5 0.09375
vt 0.5 0.125
vt 0.53125 0.09375
vt 0.53125 0.125
vt 0.5625 0.09375
vt 0.5625 0.125
vt 0.4375 0.0625
vt 0.46875 0.0625
vt 0.5 0.0625
vt 0.53125 0.0625
vt 0.5625 0.0625
vt 0.4375 0.03125
vt 0.46875 0.03125
vt 0.5 0.03125
vt 0.53125 0.03125
vt 0.5625 0.03125
vt 0.4375 0
vt 0.46875 0
vt 0.5 0
vt 0.53125 0
vt 0.5625 0

# Normal
vn 0 0 -1

# Mesh description
g casa2_mesh_0003

# Faces
f 1/1/1 2/2/1 3/3/1 4/4/1
f 5/2/1 6/5/1 7/6/1 8/3/1
f 9/5/1 10/7/1 11/8/1 12/6/1
f 13/7/1 14/9/1 15/10/1 16/8/1
f 17/1/1 18/2/1 19/3/1 20/4/1
f 21/2/1 22/5/1 23/6/1 24/3/1
f 25/5/1 26/7/1 27/8/1 28/6/1
f 29/7/1 30/9/1 31/10/1 32/8/1
f 33/11/1 34/12/1 35/2/1 36/1/1
f 37/12/1 38/13/1 39/5/1 40/2/1
f 41/13/1 42/14/1 43/7/1 44/5/1
f 45/14/1 46/15/1 47/9/1 48/7/1
f 49/11/1 50/12/1 51/2/1 52/1/1
f 53/12/1 54/13/1 55/5/1 56/2/1
f 57/13/1 58/14/1 59/7/1 60/5/1
f 61/14/1 62/15/1 63/9/1 64/7/1
f 65/16/1 66/17/1 67/12/1 68/11/1
f 69/17/1 70/18/1 71/13/1 72/12/1
f 73/18/1 74/19/1 75/14/1 76/13/1
f 77/19/1 78/20/1 79/15/1 80/14/1
f 81/16/1 82/17/1 83/12/1 84/11/1
f 85/17/1 86/18/1 87/13/1 88/12/1
f 89/18/1 90/19/1 91/14/1 92/13/1
f 93/19/1 94/20/1 95/15/1 96/14/1
f 97/21/1 98/22/1 99/17/1 100/16/1
f 101/22/1 102/23/1 103/18/1 104/17/1
f 105/23/1 106/24/1 107/19/1 108/18/1
f 109/24/1 110/25/1 111/20/1 112/19/1
f 113/21/1 114/22/1 115/17/1 116/16/1
f 117/22/1 118/23/1 119/18/1 120/17/1
f 121/23/1 122/24/1 123/19/1 124/18/1
f 125/24/1 126/25/1 127/20/1 128/19/1

