# Tiled2Unity generated file. Do not modify by hand.
# Wavefront file for 'casa2_mesh_0002.obj'

# Vertices (Count = 956)
v -25 -35 0
v -26 -35 0
v -26 -34 0
v -25 -34 0
v -26 -35 0
v -27 -35 0
v -27 -34 0
v -26 -34 0
v -27 -35 0
v -28 -35 0
v -28 -34 0
v -27 -34 0
v -28 -35 0
v -29 -35 0
v -29 -34 0
v -28 -34 0
v -29 -35 0
v -30 -35 0
v -30 -34 0
v -29 -34 0
v -30 -35 0
v -31 -35 0
v -31 -34 0
v -30 -34 0
v -31 -35 0
v -32 -35 0
v -32 -34 0
v -31 -34 0
v -32 -35 0
v -33 -35 0
v -33 -34 0
v -32 -34 0
v -33 -35 0
v -34 -35 0
v -34 -34 0
v -33 -34 0
v -34 -35 0
v -35 -35 0
v -35 -34 0
v -34 -34 0
v -35 -35 0
v -36 -35 0
v -36 -34 0
v -35 -34 0
v -36 -35 0
v -37 -35 0
v -37 -34 0
v -36 -34 0
v -37 -35 0
v -38 -35 0
v -38 -34 0
v -37 -34 0
v -38 -35 0
v -39 -35 0
v -39 -34 0
v -38 -34 0
v -39 -35 0
v -40 -35 0
v -40 -34 0
v -39 -34 0
v -40 -35 0
v -41 -35 0
v -41 -34 0
v -40 -34 0
v -41 -35 0
v -42 -35 0
v -42 -34 0
v -41 -34 0
v -42 -35 0
v -43 -35 0
v -43 -34 0
v -42 -34 0
v -43 -35 0
v -44 -35 0
v -44 -34 0
v -43 -34 0
v -44 -35 0
v -45 -35 0
v -45 -34 0
v -44 -34 0
v -45 -35 0
v -46 -35 0
v -46 -34 0
v -45 -34 0
v -46 -35 0
v -47 -35 0
v -47 -34 0
v -46 -34 0
v -47 -35 0
v -48 -35 0
v -48 -34 0
v -47 -34 0
v -48 -35 0
v -49 -35 0
v -49 -34 0
v -48 -34 0
v -49 -35 0
v -50 -35 0
v -50 -34 0
v -49 -34 0
v -50 -35 0
v -51 -35 0
v -51 -34 0
v -50 -34 0
v -51 -35 0
v -52 -35 0
v -52 -34 0
v -51 -34 0
v -52 -35 0
v -53 -35 0
v -53 -34 0
v -52 -34 0
v -53 -35 0
v -54 -35 0
v -54 -34 0
v -53 -34 0
v -54 -35 0
v -55 -35 0
v -55 -34 0
v -54 -34 0
v -55 -35 0
v -56 -35 0
v -56 -34 0
v -55 -34 0
v -56 -35 0
v -57 -35 0
v -57 -34 0
v -56 -34 0
v -57 -35 0
v -58 -35 0
v -58 -34 0
v -57 -34 0
v -58 -35 0
v -59 -35 0
v -59 -34 0
v -58 -34 0
v -59 -35 0
v -60 -35 0
v -60 -34 0
v -59 -34 0
v -60 -35 0
v -61 -35 0
v -61 -34 0
v -60 -34 0
v -61 -35 0
v -62 -35 0
v -62 -34 0
v -61 -34 0
v -62 -35 0
v -63 -35 0
v -63 -34 0
v -62 -34 0
v -63 -35 0
v -64 -35 0
v -64 -34 0
v -63 -34 0
v -25 -36 0
v -26 -36 0
v -26 -35 0
v -25 -35 0
v -26 -36 0
v -27 -36 0
v -27 -35 0
v -26 -35 0
v -27 -36 0
v -28 -36 0
v -28 -35 0
v -27 -35 0
v -28 -36 0
v -29 -36 0
v -29 -35 0
v -28 -35 0
v -29 -36 0
v -30 -36 0
v -30 -35 0
v -29 -35 0
v -30 -36 0
v -31 -36 0
v -31 -35 0
v -30 -35 0
v -31 -36 0
v -32 -36 0
v -32 -35 0
v -31 -35 0
v -32 -36 0
v -33 -36 0
v -33 -35 0
v -32 -35 0
v -33 -36 0
v -34 -36 0
v -34 -35 0
v -33 -35 0
v -34 -36 0
v -35 -36 0
v -35 -35 0
v -34 -35 0
v -35 -36 0
v -36 -36 0
v -36 -35 0
v -35 -35 0
v -36 -36 0
v -37 -36 0
v -37 -35 0
v -36 -35 0
v -37 -36 0
v -38 -36 0
v -38 -35 0
v -37 -35 0
v -38 -36 0
v -39 -36 0
v -39 -35 0
v -38 -35 0
v -39 -36 0
v -40 -36 0
v -40 -35 0
v -39 -35 0
v -40 -36 0
v -41 -36 0
v -41 -35 0
v -40 -35 0
v -41 -36 0
v -42 -36 0
v -42 -35 0
v -41 -35 0
v -42 -36 0
v -43 -36 0
v -43 -35 0
v -42 -35 0
v -43 -36 0
v -44 -36 0
v -44 -35 0
v -43 -35 0
v -44 -36 0
v -45 -36 0
v -45 -35 0
v -44 -35 0
v -45 -36 0
v -46 -36 0
v -46 -35 0
v -45 -35 0
v -46 -36 0
v -47 -36 0
v -47 -35 0
v -46 -35 0
v -47 -36 0
v -48 -36 0
v -48 -35 0
v -47 -35 0
v -48 -36 0
v -49 -36 0
v -49 -35 0
v -48 -35 0
v -49 -36 0
v -50 -36 0
v -50 -35 0
v -49 -35 0
v -50 -36 0
v -51 -36 0
v -51 -35 0
v -50 -35 0
v -51 -36 0
v -52 -36 0
v -52 -35 0
v -51 -35 0
v -52 -36 0
v -53 -36 0
v -53 -35 0
v -52 -35 0
v -53 -36 0
v -54 -36 0
v -54 -35 0
v -53 -35 0
v -54 -36 0
v -55 -36 0
v -55 -35 0
v -54 -35 0
v -55 -36 0
v -56 -36 0
v -56 -35 0
v -55 -35 0
v -56 -36 0
v -57 -36 0
v -57 -35 0
v -56 -35 0
v -57 -36 0
v -58 -36 0
v -58 -35 0
v -57 -35 0
v -58 -36 0
v -59 -36 0
v -59 -35 0
v -58 -35 0
v -59 -36 0
v -60 -36 0
v -60 -35 0
v -59 -35 0
v -60 -36 0
v -61 -36 0
v -61 -35 0
v -60 -35 0
v -61 -36 0
v -62 -36 0
v -62 -35 0
v -61 -35 0
v -62 -36 0
v -63 -36 0
v -63 -35 0
v -62 -35 0
v -63 -36 0
v -64 -36 0
v -64 -35 0
v -63 -35 0
v -25 -37 0
v -26 -37 0
v -26 -36 0
v -25 -36 0
v -26 -37 0
v -27 -37 0
v -27 -36 0
v -26 -36 0
v -27 -37 0
v -28 -37 0
v -28 -36 0
v -27 -36 0
v -28 -37 0
v -29 -37 0
v -29 -36 0
v -28 -36 0
v -29 -37 0
v -30 -37 0
v -30 -36 0
v -29 -36 0
v -30 -37 0
v -31 -37 0
v -31 -36 0
v -30 -36 0
v -31 -37 0
v -32 -37 0
v -32 -36 0
v -31 -36 0
v -32 -37 0
v -33 -37 0
v -33 -36 0
v -32 -36 0
v -33 -37 0
v -34 -37 0
v -34 -36 0
v -33 -36 0
v -34 -37 0
v -35 -37 0
v -35 -36 0
v -34 -36 0
v -35 -37 0
v -36 -37 0
v -36 -36 0
v -35 -36 0
v -36 -37 0
v -37 -37 0
v -37 -36 0
v -36 -36 0
v -37 -37 0
v -38 -37 0
v -38 -36 0
v -37 -36 0
v -38 -37 0
v -39 -37 0
v -39 -36 0
v -38 -36 0
v -39 -37 0
v -40 -37 0
v -40 -36 0
v -39 -36 0
v -40 -37 0
v -41 -37 0
v -41 -36 0
v -40 -36 0
v -41 -37 0
v -42 -37 0
v -42 -36 0
v -41 -36 0
v -42 -37 0
v -43 -37 0
v -43 -36 0
v -42 -36 0
v -43 -37 0
v -44 -37 0
v -44 -36 0
v -43 -36 0
v -44 -37 0
v -45 -37 0
v -45 -36 0
v -44 -36 0
v -45 -37 0
v -46 -37 0
v -46 -36 0
v -45 -36 0
v -46 -37 0
v -47 -37 0
v -47 -36 0
v -46 -36 0
v -47 -37 0
v -48 -37 0
v -48 -36 0
v -47 -36 0
v -48 -37 0
v -49 -37 0
v -49 -36 0
v -48 -36 0
v -49 -37 0
v -50 -37 0
v -50 -36 0
v -49 -36 0
v -50 -37 0
v -51 -37 0
v -51 -36 0
v -50 -36 0
v -51 -37 0
v -52 -37 0
v -52 -36 0
v -51 -36 0
v -52 -37 0
v -53 -37 0
v -53 -36 0
v -52 -36 0
v -53 -37 0
v -54 -37 0
v -54 -36 0
v -53 -36 0
v -54 -37 0
v -55 -37 0
v -55 -36 0
v -54 -36 0
v -55 -37 0
v -56 -37 0
v -56 -36 0
v -55 -36 0
v -56 -37 0
v -57 -37 0
v -57 -36 0
v -56 -36 0
v -57 -37 0
v -58 -37 0
v -58 -36 0
v -57 -36 0
v -58 -37 0
v -59 -37 0
v -59 -36 0
v -58 -36 0
v -59 -37 0
v -60 -37 0
v -60 -36 0
v -59 -36 0
v -60 -37 0
v -61 -37 0
v -61 -36 0
v -60 -36 0
v -61 -37 0
v -62 -37 0
v -62 -36 0
v -61 -36 0
v -62 -37 0
v -63 -37 0
v -63 -36 0
v -62 -36 0
v -63 -37 0
v -64 -37 0
v -64 -36 0
v -63 -36 0
v -25 -38 0
v -26 -38 0
v -26 -37 0
v -25 -37 0
v -26 -38 0
v -27 -38 0
v -27 -37 0
v -26 -37 0
v -27 -38 0
v -28 -38 0
v -28 -37 0
v -27 -37 0
v -28 -38 0
v -29 -38 0
v -29 -37 0
v -28 -37 0
v -29 -38 0
v -30 -38 0
v -30 -37 0
v -29 -37 0
v -30 -38 0
v -31 -38 0
v -31 -37 0
v -30 -37 0
v -31 -38 0
v -32 -38 0
v -32 -37 0
v -31 -37 0
v -32 -38 0
v -33 -38 0
v -33 -37 0
v -32 -37 0
v -33 -38 0
v -34 -38 0
v -34 -37 0
v -33 -37 0
v -34 -38 0
v -35 -38 0
v -35 -37 0
v -34 -37 0
v -35 -38 0
v -36 -38 0
v -36 -37 0
v -35 -37 0
v -36 -38 0
v -37 -38 0
v -37 -37 0
v -36 -37 0
v -37 -38 0
v -38 -38 0
v -38 -37 0
v -37 -37 0
v -38 -38 0
v -39 -38 0
v -39 -37 0
v -38 -37 0
v -39 -38 0
v -40 -38 0
v -40 -37 0
v -39 -37 0
v -40 -38 0
v -41 -38 0
v -41 -37 0
v -40 -37 0
v -41 -38 0
v -42 -38 0
v -42 -37 0
v -41 -37 0
v -42 -38 0
v -43 -38 0
v -43 -37 0
v -42 -37 0
v -43 -38 0
v -44 -38 0
v -44 -37 0
v -43 -37 0
v -44 -38 0
v -45 -38 0
v -45 -37 0
v -44 -37 0
v -45 -38 0
v -46 -38 0
v -46 -37 0
v -45 -37 0
v -46 -38 0
v -47 -38 0
v -47 -37 0
v -46 -37 0
v -47 -38 0
v -48 -38 0
v -48 -37 0
v -47 -37 0
v -48 -38 0
v -49 -38 0
v -49 -37 0
v -48 -37 0
v -49 -38 0
v -50 -38 0
v -50 -37 0
v -49 -37 0
v -50 -38 0
v -51 -38 0
v -51 -37 0
v -50 -37 0
v -51 -38 0
v -52 -38 0
v -52 -37 0
v -51 -37 0
v -52 -38 0
v -53 -38 0
v -53 -37 0
v -52 -37 0
v -53 -38 0
v -54 -38 0
v -54 -37 0
v -53 -37 0
v -54 -38 0
v -55 -38 0
v -55 -37 0
v -54 -37 0
v -55 -38 0
v -56 -38 0
v -56 -37 0
v -55 -37 0
v -56 -38 0
v -57 -38 0
v -57 -37 0
v -56 -37 0
v -57 -38 0
v -58 -38 0
v -58 -37 0
v -57 -37 0
v -58 -38 0
v -59 -38 0
v -59 -37 0
v -58 -37 0
v -59 -38 0
v -60 -38 0
v -60 -37 0
v -59 -37 0
v -60 -38 0
v -61 -38 0
v -61 -37 0
v -60 -37 0
v -61 -38 0
v -62 -38 0
v -62 -37 0
v -61 -37 0
v -62 -38 0
v -63 -38 0
v -63 -37 0
v -62 -37 0
v -63 -38 0
v -64 -38 0
v -64 -37 0
v -63 -37 0
v -25 -39 0
v -26 -39 0
v -26 -38 0
v -25 -38 0
v -26 -39 0
v -27 -39 0
v -27 -38 0
v -26 -38 0
v -27 -39 0
v -28 -39 0
v -28 -38 0
v -27 -38 0
v -28 -39 0
v -29 -39 0
v -29 -38 0
v -28 -38 0
v -29 -39 0
v -30 -39 0
v -30 -38 0
v -29 -38 0
v -30 -39 0
v -31 -39 0
v -31 -38 0
v -30 -38 0
v -31 -39 0
v -32 -39 0
v -32 -38 0
v -31 -38 0
v -32 -39 0
v -33 -39 0
v -33 -38 0
v -32 -38 0
v -33 -39 0
v -34 -39 0
v -34 -38 0
v -33 -38 0
v -34 -39 0
v -35 -39 0
v -35 -38 0
v -34 -38 0
v -35 -39 0
v -36 -39 0
v -36 -38 0
v -35 -38 0
v -36 -39 0
v -37 -39 0
v -37 -38 0
v -36 -38 0
v -37 -39 0
v -38 -39 0
v -38 -38 0
v -37 -38 0
v -38 -39 0
v -39 -39 0
v -39 -38 0
v -38 -38 0
v -39 -39 0
v -40 -39 0
v -40 -38 0
v -39 -38 0
v -40 -39 0
v -41 -39 0
v -41 -38 0
v -40 -38 0
v -41 -39 0
v -42 -39 0
v -42 -38 0
v -41 -38 0
v -42 -39 0
v -43 -39 0
v -43 -38 0
v -42 -38 0
v -43 -39 0
v -44 -39 0
v -44 -38 0
v -43 -38 0
v -44 -39 0
v -45 -39 0
v -45 -38 0
v -44 -38 0
v -45 -39 0
v -46 -39 0
v -46 -38 0
v -45 -38 0
v -46 -39 0
v -47 -39 0
v -47 -38 0
v -46 -38 0
v -47 -39 0
v -48 -39 0
v -48 -38 0
v -47 -38 0
v -48 -39 0
v -49 -39 0
v -49 -38 0
v -48 -38 0
v -49 -39 0
v -50 -39 0
v -50 -38 0
v -49 -38 0
v -50 -39 0
v -51 -39 0
v -51 -38 0
v -50 -38 0
v -51 -39 0
v -52 -39 0
v -52 -38 0
v -51 -38 0
v -52 -39 0
v -53 -39 0
v -53 -38 0
v -52 -38 0
v -53 -39 0
v -54 -39 0
v -54 -38 0
v -53 -38 0
v -54 -39 0
v -55 -39 0
v -55 -38 0
v -54 -38 0
v -55 -39 0
v -56 -39 0
v -56 -38 0
v -55 -38 0
v -56 -39 0
v -57 -39 0
v -57 -38 0
v -56 -38 0
v -57 -39 0
v -58 -39 0
v -58 -38 0
v -57 -38 0
v -58 -39 0
v -59 -39 0
v -59 -38 0
v -58 -38 0
v -59 -39 0
v -60 -39 0
v -60 -38 0
v -59 -38 0
v -60 -39 0
v -61 -39 0
v -61 -38 0
v -60 -38 0
v -61 -39 0
v -62 -39 0
v -62 -38 0
v -61 -38 0
v -62 -39 0
v -63 -39 0
v -63 -38 0
v -62 -38 0
v -63 -39 0
v -64 -39 0
v -64 -38 0
v -63 -38 0
v -25 -40 0
v -26 -40 0
v -26 -39 0
v -25 -39 0
v -26 -40 0
v -27 -40 0
v -27 -39 0
v -26 -39 0
v -27 -40 0
v -28 -40 0
v -28 -39 0
v -27 -39 0
v -28 -40 0
v -29 -40 0
v -29 -39 0
v -28 -39 0
v -29 -40 0
v -30 -40 0
v -30 -39 0
v -29 -39 0
v -30 -40 0
v -31 -40 0
v -31 -39 0
v -30 -39 0
v -31 -40 0
v -32 -40 0
v -32 -39 0
v -31 -39 0
v -32 -40 0
v -33 -40 0
v -33 -39 0
v -32 -39 0
v -33 -40 0
v -34 -40 0
v -34 -39 0
v -33 -39 0
v -34 -40 0
v -35 -40 0
v -35 -39 0
v -34 -39 0
v -35 -40 0
v -36 -40 0
v -36 -39 0
v -35 -39 0
v -36 -40 0
v -37 -40 0
v -37 -39 0
v -36 -39 0
v -25 -41 0
v -26 -41 0
v -26 -40 0
v -25 -40 0
v -26 -41 0
v -27 -41 0
v -27 -40 0
v -26 -40 0
v -27 -41 0
v -28 -41 0
v -28 -40 0
v -27 -40 0
v -28 -41 0
v -29 -41 0
v -29 -40 0
v -28 -40 0
v -29 -41 0
v -30 -41 0
v -30 -40 0
v -29 -40 0
v -30 -41 0
v -31 -41 0
v -31 -40 0
v -30 -40 0
v -31 -41 0
v -32 -41 0
v -32 -40 0
v -31 -40 0
v -32 -41 0
v -33 -41 0
v -33 -40 0
v -32 -40 0
v -33 -41 0
v -34 -41 0
v -34 -40 0
v -33 -40 0
v -34 -41 0
v -35 -41 0
v -35 -40 0
v -34 -40 0
v -35 -41 0
v -36 -41 0
v -36 -40 0
v -35 -40 0
v -36 -41 0
v -37 -41 0
v -37 -40 0
v -36 -40 0
v -42 -50 0
v -43 -50 0
v -43 -49 0
v -42 -49 0
v -43 -50 0
v -44 -50 0
v -44 -49 0
v -43 -49 0
v -44 -50 0
v -45 -50 0
v -45 -49 0
v -44 -49 0
v -45 -50 0
v -46 -50 0
v -46 -49 0
v -45 -49 0
v -40 -51 0
v -41 -51 0
v -41 -50 0
v -40 -50 0
v -41 -51 0
v -42 -51 0
v -42 -50 0
v -41 -50 0
v -42 -51 0
v -43 -51 0
v -43 -50 0
v -42 -50 0
v -43 -51 0
v -44 -51 0
v -44 -50 0
v -43 -50 0
v -44 -51 0
v -45 -51 0
v -45 -50 0
v -44 -50 0
v -45 -51 0
v -46 -51 0
v -46 -50 0
v -45 -50 0
v -46 -51 0
v -47 -51 0
v -47 -50 0
v -46 -50 0
v -47 -51 0
v -48 -51 0
v -48 -50 0
v -47 -50 0
v -40 -52 0
v -41 -52 0
v -41 -51 0
v -40 -51 0
v -41 -52 0
v -42 -52 0
v -42 -51 0
v -41 -51 0
v -42 -52 0
v -43 -52 0
v -43 -51 0
v -42 -51 0
v -43 -52 0
v -44 -52 0
v -44 -51 0
v -43 -51 0
v -44 -52 0
v -45 -52 0
v -45 -51 0
v -44 -51 0
v -45 -52 0
v -46 -52 0
v -46 -51 0
v -45 -51 0
v -46 -52 0
v -47 -52 0
v -47 -51 0
v -46 -51 0
v -47 -52 0
v -48 -52 0
v -48 -51 0
v -47 -51 0

# Texture cooridinates (Count = 52)
vt 0.6875 0.3931034
vt 0.75 0.3931034
vt 0.75 0.4041379
vt 0.6875 0.4041379
vt 0.8125 0.3931034
vt 0.8125 0.4041379
vt 0.5625 0.3931034
vt 0.625 0.3931034
vt 0.625 0.4041379
vt 0.5625 0.4041379
vt 0.6875 0.382069
vt 0.75 0.382069
vt 0.8125 0.382069
vt 0.5625 0.382069
vt 0.625 0.382069
vt 0.6875 0.3710345
vt 0.75 0.3710345
vt 0.8125 0.3710345
vt 0.5625 0.3710345
vt 0.625 0.3710345
vt 0.5 0.9668965
vt 0.5625 0.9668965
vt 0.5625 0.977931
vt 0.5 0.977931
vt 0.625 0.9668965
vt 0.625 0.977931
vt 0.5 0.955862
vt 0.5625 0.955862
vt 0.625 0.955862
vt 0.6875 0.977931
vt 0.6875 0.9889655
vt 0.625 0.9889655
vt 0.75 0.977931
vt 0.75 0.9889655
vt 0.8125 0.977931
vt 0.8125 0.9889655
vt 0.875 0.977931
vt 0.875 0.9889655
vt 0.875 0.9668965
vt 0.9375 0.9668965
vt 0.9375 0.977931
vt 1 0.9668965
vt 1 0.977931
vt 0.6875 0.9668965
vt 0.75 0.9668965
vt 0.8125 0.9668965
vt 0.875 0.955862
vt 0.9375 0.955862
vt 1 0.955862
vt 0.6875 0.955862
vt 0.75 0.955862
vt 0.8125 0.955862

# Normal
vn 0 0 -1

# Mesh description
g casa2_mesh_0002

# Faces
f 1/1/1 2/2/1 3/3/1 4/4/1
f 5/2/1 6/5/1 7/6/1 8/3/1
f 9/7/1 10/8/1 11/9/1 12/10/1
f 13/8/1 14/1/1 15/4/1 16/9/1
f 17/1/1 18/2/1 19/3/1 20/4/1
f 21/2/1 22/5/1 23/6/1 24/3/1
f 25/7/1 26/8/1 27/9/1 28/10/1
f 29/8/1 30/1/1 31/4/1 32/9/1
f 33/1/1 34/2/1 35/3/1 36/4/1
f 37/2/1 38/5/1 39/6/1 40/3/1
f 41/7/1 42/8/1 43/9/1 44/10/1
f 45/8/1 46/1/1 47/4/1 48/9/1
f 49/1/1 50/2/1 51/3/1 52/4/1
f 53/2/1 54/5/1 55/6/1 56/3/1
f 57/7/1 58/8/1 59/9/1 60/10/1
f 61/8/1 62/1/1 63/4/1 64/9/1
f 65/1/1 66/2/1 67/3/1 68/4/1
f 69/7/1 70/8/1 71/9/1 72/10/1
f 73/8/1 74/1/1 75/4/1 76/9/1
f 77/1/1 78/2/1 79/3/1 80/4/1
f 81/2/1 82/5/1 83/6/1 84/3/1
f 85/7/1 86/8/1 87/9/1 88/10/1
f 89/8/1 90/1/1 91/4/1 92/9/1
f 93/1/1 94/2/1 95/3/1 96/4/1
f 97/2/1 98/5/1 99/6/1 100/3/1
f 101/1/1 102/2/1 103/3/1 104/4/1
f 105/2/1 106/5/1 107/6/1 108/3/1
f 109/7/1 110/8/1 111/9/1 112/10/1
f 113/8/1 114/1/1 115/4/1 116/9/1
f 117/1/1 118/2/1 119/3/1 120/4/1
f 121/2/1 122/5/1 123/6/1 124/3/1
f 125/7/1 126/8/1 127/9/1 128/10/1
f 129/8/1 130/1/1 131/4/1 132/9/1
f 133/1/1 134/2/1 135/3/1 136/4/1
f 137/2/1 138/5/1 139/6/1 140/3/1
f 141/7/1 142/8/1 143/9/1 144/10/1
f 145/8/1 146/1/1 147/4/1 148/9/1
f 149/1/1 150/2/1 151/3/1 152/4/1
f 153/2/1 154/5/1 155/6/1 156/3/1
f 157/11/1 158/12/1 159/2/1 160/1/1
f 161/12/1 162/13/1 163/5/1 164/2/1
f 165/14/1 166/15/1 167/8/1 168/7/1
f 169/15/1 170/11/1 171/1/1 172/8/1
f 173/11/1 174/12/1 175/2/1 176/1/1
f 177/12/1 178/13/1 179/5/1 180/2/1
f 181/14/1 182/15/1 183/8/1 184/7/1
f 185/15/1 186/11/1 187/1/1 188/8/1
f 189/11/1 190/12/1 191/2/1 192/1/1
f 193/12/1 194/13/1 195/5/1 196/2/1
f 197/14/1 198/15/1 199/8/1 200/7/1
f 201/15/1 202/11/1 203/1/1 204/8/1
f 205/11/1 206/12/1 207/2/1 208/1/1
f 209/12/1 210/13/1 211/5/1 212/2/1
f 213/14/1 214/15/1 215/8/1 216/7/1
f 217/15/1 218/11/1 219/1/1 220/8/1
f 221/11/1 222/12/1 223/2/1 224/1/1
f 225/14/1 226/15/1 227/8/1 228/7/1
f 229/15/1 230/11/1 231/1/1 232/8/1
f 233/11/1 234/12/1 235/2/1 236/1/1
f 237/12/1 238/13/1 239/5/1 240/2/1
f 241/14/1 242/15/1 243/8/1 244/7/1
f 245/15/1 246/11/1 247/1/1 248/8/1
f 249/11/1 250/12/1 251/2/1 252/1/1
f 253/12/1 254/13/1 255/5/1 256/2/1
f 257/11/1 258/12/1 259/2/1 260/1/1
f 261/12/1 262/13/1 263/5/1 264/2/1
f 265/14/1 266/15/1 267/8/1 268/7/1
f 269/15/1 270/11/1 271/1/1 272/8/1
f 273/11/1 274/12/1 275/2/1 276/1/1
f 277/12/1 278/13/1 279/5/1 280/2/1
f 281/14/1 282/15/1 283/8/1 284/7/1
f 285/15/1 286/11/1 287/1/1 288/8/1
f 289/11/1 290/12/1 291/2/1 292/1/1
f 293/12/1 294/13/1 295/5/1 296/2/1
f 297/14/1 298/15/1 299/8/1 300/7/1
f 301/15/1 302/11/1 303/1/1 304/8/1
f 305/11/1 306/12/1 307/2/1 308/1/1
f 309/12/1 310/13/1 311/5/1 312/2/1
f 313/16/1 314/17/1 315/12/1 316/11/1
f 317/17/1 318/18/1 319/13/1 320/12/1
f 321/19/1 322/20/1 323/15/1 324/14/1
f 325/20/1 326/16/1 327/11/1 328/15/1
f 329/16/1 330/17/1 331/12/1 332/11/1
f 333/17/1 334/18/1 335/13/1 336/12/1
f 337/19/1 338/20/1 339/15/1 340/14/1
f 341/20/1 342/16/1 343/11/1 344/15/1
f 345/16/1 346/17/1 347/12/1 348/11/1
f 349/17/1 350/18/1 351/13/1 352/12/1
f 353/19/1 354/20/1 355/15/1 356/14/1
f 357/20/1 358/16/1 359/11/1 360/15/1
f 361/16/1 362/17/1 363/12/1 364/11/1
f 365/17/1 366/18/1 367/13/1 368/12/1
f 369/19/1 370/20/1 371/15/1 372/14/1
f 373/20/1 374/16/1 375/11/1 376/15/1
f 377/16/1 378/17/1 379/12/1 380/11/1
f 381/19/1 382/20/1 383/15/1 384/14/1
f 385/20/1 386/16/1 387/11/1 388/15/1
f 389/16/1 390/17/1 391/12/1 392/11/1
f 393/17/1 394/18/1 395/13/1 396/12/1
f 397/19/1 398/20/1 399/15/1 400/14/1
f 401/20/1 402/16/1 403/11/1 404/15/1
f 405/16/1 406/17/1 407/12/1 408/11/1
f 409/17/1 410/18/1 411/13/1 412/12/1
f 413/16/1 414/17/1 415/12/1 416/11/1
f 417/17/1 418/18/1 419/13/1 420/12/1
f 421/19/1 422/20/1 423/15/1 424/14/1
f 425/20/1 426/16/1 427/11/1 428/15/1
f 429/16/1 430/17/1 431/12/1 432/11/1
f 433/17/1 434/18/1 435/13/1 436/12/1
f 437/19/1 438/20/1 439/15/1 440/14/1
f 441/20/1 442/16/1 443/11/1 444/15/1
f 445/16/1 446/17/1 447/12/1 448/11/1
f 449/17/1 450/18/1 451/13/1 452/12/1
f 453/19/1 454/20/1 455/15/1 456/14/1
f 457/20/1 458/16/1 459/11/1 460/15/1
f 461/16/1 462/17/1 463/12/1 464/11/1
f 465/17/1 466/18/1 467/13/1 468/12/1
f 469/14/1 470/15/1 471/8/1 472/7/1
f 473/15/1 474/11/1 475/1/1 476/8/1
f 477/11/1 478/12/1 479/2/1 480/1/1
f 481/12/1 482/13/1 483/5/1 484/2/1
f 485/14/1 486/15/1 487/8/1 488/7/1
f 489/15/1 490/11/1 491/1/1 492/8/1
f 493/14/1 494/15/1 495/8/1 496/7/1
f 497/15/1 498/11/1 499/1/1 500/8/1
f 501/11/1 502/12/1 503/2/1 504/1/1
f 505/12/1 506/13/1 507/5/1 508/2/1
f 509/14/1 510/15/1 511/8/1 512/7/1
f 513/15/1 514/11/1 515/1/1 516/8/1
f 517/11/1 518/12/1 519/2/1 520/1/1
f 521/12/1 522/13/1 523/5/1 524/2/1
f 525/14/1 526/15/1 527/8/1 528/7/1
f 529/15/1 530/11/1 531/1/1 532/8/1
f 533/11/1 534/12/1 535/2/1 536/1/1
f 537/12/1 538/13/1 539/5/1 540/2/1
f 541/14/1 542/15/1 543/8/1 544/7/1
f 545/15/1 546/11/1 547/1/1 548/8/1
f 549/11/1 550/12/1 551/2/1 552/1/1
f 553/12/1 554/13/1 555/5/1 556/2/1
f 557/14/1 558/15/1 559/8/1 560/7/1
f 561/15/1 562/11/1 563/1/1 564/8/1
f 565/11/1 566/12/1 567/2/1 568/1/1
f 569/12/1 570/13/1 571/5/1 572/2/1
f 573/14/1 574/15/1 575/8/1 576/7/1
f 577/15/1 578/11/1 579/1/1 580/8/1
f 581/11/1 582/12/1 583/2/1 584/1/1
f 585/12/1 586/13/1 587/5/1 588/2/1
f 589/14/1 590/15/1 591/8/1 592/7/1
f 593/15/1 594/11/1 595/1/1 596/8/1
f 597/11/1 598/12/1 599/2/1 600/1/1
f 601/12/1 602/13/1 603/5/1 604/2/1
f 605/14/1 606/15/1 607/8/1 608/7/1
f 609/15/1 610/11/1 611/1/1 612/8/1
f 613/11/1 614/12/1 615/2/1 616/1/1
f 617/12/1 618/13/1 619/5/1 620/2/1
f 621/14/1 622/15/1 623/8/1 624/7/1
f 625/19/1 626/20/1 627/15/1 628/14/1
f 629/20/1 630/16/1 631/11/1 632/15/1
f 633/16/1 634/17/1 635/12/1 636/11/1
f 637/17/1 638/18/1 639/13/1 640/12/1
f 641/19/1 642/20/1 643/15/1 644/14/1
f 645/20/1 646/16/1 647/11/1 648/15/1
f 649/19/1 650/20/1 651/15/1 652/14/1
f 653/20/1 654/16/1 655/11/1 656/15/1
f 657/16/1 658/17/1 659/12/1 660/11/1
f 661/17/1 662/18/1 663/13/1 664/12/1
f 665/19/1 666/20/1 667/15/1 668/14/1
f 669/20/1 670/16/1 671/11/1 672/15/1
f 673/16/1 674/17/1 675/12/1 676/11/1
f 677/17/1 678/18/1 679/13/1 680/12/1
f 681/19/1 682/20/1 683/15/1 684/14/1
f 685/20/1 686/16/1 687/11/1 688/15/1
f 689/16/1 690/17/1 691/12/1 692/11/1
f 693/17/1 694/18/1 695/13/1 696/12/1
f 697/19/1 698/20/1 699/15/1 700/14/1
f 701/20/1 702/16/1 703/11/1 704/15/1
f 705/16/1 706/17/1 707/12/1 708/11/1
f 709/17/1 710/18/1 711/13/1 712/12/1
f 713/19/1 714/20/1 715/15/1 716/14/1
f 717/20/1 718/16/1 719/11/1 720/15/1
f 721/16/1 722/17/1 723/12/1 724/11/1
f 725/17/1 726/18/1 727/13/1 728/12/1
f 729/19/1 730/20/1 731/15/1 732/14/1
f 733/20/1 734/16/1 735/11/1 736/15/1
f 737/16/1 738/17/1 739/12/1 740/11/1
f 741/17/1 742/18/1 743/13/1 744/12/1
f 745/19/1 746/20/1 747/15/1 748/14/1
f 749/20/1 750/16/1 751/11/1 752/15/1
f 753/16/1 754/17/1 755/12/1 756/11/1
f 757/17/1 758/18/1 759/13/1 760/12/1
f 761/19/1 762/20/1 763/15/1 764/14/1
f 765/20/1 766/16/1 767/11/1 768/15/1
f 769/16/1 770/17/1 771/12/1 772/11/1
f 773/17/1 774/18/1 775/13/1 776/12/1
f 777/19/1 778/20/1 779/15/1 780/14/1
f 781/21/1 782/22/1 783/23/1 784/24/1
f 785/22/1 786/25/1 787/26/1 788/23/1
f 789/21/1 790/22/1 791/23/1 792/24/1
f 793/22/1 794/25/1 795/26/1 796/23/1
f 797/21/1 798/22/1 799/23/1 800/24/1
f 801/22/1 802/25/1 803/26/1 804/23/1
f 805/21/1 806/22/1 807/23/1 808/24/1
f 809/22/1 810/25/1 811/26/1 812/23/1
f 813/21/1 814/22/1 815/23/1 816/24/1
f 817/22/1 818/25/1 819/26/1 820/23/1
f 821/21/1 822/22/1 823/23/1 824/24/1
f 825/22/1 826/25/1 827/26/1 828/23/1
f 829/27/1 830/28/1 831/22/1 832/21/1
f 833/28/1 834/29/1 835/25/1 836/22/1
f 837/27/1 838/28/1 839/22/1 840/21/1
f 841/28/1 842/29/1 843/25/1 844/22/1
f 845/27/1 846/28/1 847/22/1 848/21/1
f 849/28/1 850/29/1 851/25/1 852/22/1
f 853/27/1 854/28/1 855/22/1 856/21/1
f 857/28/1 858/29/1 859/25/1 860/22/1
f 861/27/1 862/28/1 863/22/1 864/21/1
f 865/28/1 866/29/1 867/25/1 868/22/1
f 869/27/1 870/28/1 871/22/1 872/21/1
f 873/28/1 874/29/1 875/25/1 876/22/1
f 877/26/1 878/30/1 879/31/1 880/32/1
f 881/30/1 882/33/1 883/34/1 884/31/1
f 885/33/1 886/35/1 887/36/1 888/34/1
f 889/35/1 890/37/1 891/38/1 892/36/1
f 893/39/1 894/40/1 895/41/1 896/37/1
f 897/40/1 898/42/1 899/43/1 900/41/1
f 901/25/1 902/44/1 903/30/1 904/26/1
f 905/44/1 906/45/1 907/33/1 908/30/1
f 909/45/1 910/46/1 911/35/1 912/33/1
f 913/46/1 914/39/1 915/37/1 916/35/1
f 917/39/1 918/40/1 919/41/1 920/37/1
f 921/40/1 922/42/1 923/43/1 924/41/1
f 925/47/1 926/48/1 927/40/1 928/39/1
f 929/48/1 930/49/1 931/42/1 932/40/1
f 933/29/1 934/50/1 935/44/1 936/25/1
f 937/50/1 938/51/1 939/45/1 940/44/1
f 941/51/1 942/52/1 943/46/1 944/45/1
f 945/52/1 946/47/1 947/39/1 948/46/1
f 949/47/1 950/48/1 951/40/1 952/39/1
f 953/48/1 954/49/1 955/42/1 956/40/1

