# Tiled2Unity generated file. Do not modify by hand.
# Wavefront file for 'Interior-casa_mesh_0017.obj'

# Vertices (Count = 16)
v -176 -176 0
v -192 -176 0
v -192 -160 0
v -176 -160 0
v -176 -192 0
v -192 -192 0
v -192 -176 0
v -176 -176 0
v -176 -208 0
v -192 -208 0
v -192 -192 0
v -176 -192 0
v -176 -224 0
v -192 -224 0
v -192 -208 0
v -176 -208 0

# Texture cooridinates (Count = 10)
vt 0.3541667 0.1458333
vt 0.375 0.1458333
vt 0.375 0.1666667
vt 0.3541667 0.1666667
vt 0.3541667 0.125
vt 0.375 0.125
vt 0.3541667 0.1041667
vt 0.375 0.1041667
vt 0.3541667 0.08333331
vt 0.375 0.08333331

# Normal
vn 0 0 -1

# Mesh description
g Interior-casa_mesh_0017

# Faces
f 1/1/1 2/2/1 3/3/1 4/4/1
f 5/5/1 6/6/1 7/2/1 8/1/1
f 9/7/1 10/8/1 11/6/1 12/5/1
f 13/9/1 14/10/1 15/8/1 16/7/1

