# Tiled2Unity generated file. Do not modify by hand.
# Wavefront file for 'Interior-casa_mesh_0035.obj'

# Vertices (Count = 132)
v -32 -16 0
v -48 -16 0
v -48 0 0
v -32 0 0
v -48 -16 0
v -64 -16 0
v -64 0 0
v -48 0 0
v -64 -16 0
v -80 -16 0
v -80 0 0
v -64 0 0
v -80 -16 0
v -96 -16 0
v -96 0 0
v -80 0 0
v -96 -16 0
v -112 -16 0
v -112 0 0
v -96 0 0
v -112 -16 0
v -128 -16 0
v -128 0 0
v -112 0 0
v -128 -16 0
v -144 -16 0
v -144 0 0
v -128 0 0
v -144 -16 0
v -160 -16 0
v -160 0 0
v -144 0 0
v -160 -16 0
v -176 -16 0
v -176 0 0
v -160 0 0
v -176 -16 0
v -192 -16 0
v -192 0 0
v -176 0 0
v -192 -16 0
v -208 -16 0
v -208 0 0
v -192 0 0
v -208 -16 0
v -224 -16 0
v -224 0 0
v -208 0 0
v -32 -32 0
v -48 -32 0
v -48 -16 0
v -32 -16 0
v -48 -32 0
v -64 -32 0
v -64 -16 0
v -48 -16 0
v -64 -32 0
v -80 -32 0
v -80 -16 0
v -64 -16 0
v -80 -32 0
v -96 -32 0
v -96 -16 0
v -80 -16 0
v -96 -32 0
v -112 -32 0
v -112 -16 0
v -96 -16 0
v -112 -32 0
v -128 -32 0
v -128 -16 0
v -112 -16 0
v -128 -32 0
v -144 -32 0
v -144 -16 0
v -128 -16 0
v -144 -32 0
v -160 -32 0
v -160 -16 0
v -144 -16 0
v -160 -32 0
v -176 -32 0
v -176 -16 0
v -160 -16 0
v -176 -32 0
v -192 -32 0
v -192 -16 0
v -176 -16 0
v -192 -32 0
v -208 -32 0
v -208 -16 0
v -192 -16 0
v -208 -32 0
v -224 -32 0
v -224 -16 0
v -208 -16 0
v -32 -48 0
v -48 -48 0
v -48 -32 0
v -32 -32 0
v -48 -48 0
v -64 -48 0
v -64 -32 0
v -48 -32 0
v -64 -48 0
v -80 -48 0
v -80 -32 0
v -64 -32 0
v -80 -48 0
v -96 -48 0
v -96 -32 0
v -80 -32 0
v -96 -48 0
v -112 -48 0
v -112 -32 0
v -96 -32 0
v -112 -48 0
v -128 -48 0
v -128 -32 0
v -112 -32 0
v -128 -48 0
v -144 -48 0
v -144 -32 0
v -128 -32 0
v -144 -48 0
v -160 -48 0
v -160 -32 0
v -144 -32 0
v -160 -48 0
v -176 -48 0
v -176 -32 0
v -160 -32 0

# Texture cooridinates (Count = 52)
vt 0.5 0.625
vt 0.5208333 0.625
vt 0.5208333 0.6458334
vt 0.5 0.6458334
vt 0.5416667 0.625
vt 0.5416667 0.6458334
vt 0.5625 0.625
vt 0.5625 0.6458334
vt 0.5833333 0.625
vt 0.5833333 0.6458334
vt 0.6041667 0.625
vt 0.6041667 0.6458334
vt 0.625 0.625
vt 0.625 0.6458334
vt 0.6458333 0.625
vt 0.6458333 0.6458334
vt 0.6666667 0.625
vt 0.6666667 0.6458334
vt 0.6875 0.625
vt 0.6875 0.6458334
vt 0.125 0.8333333
vt 0.1458333 0.8333333
vt 0.1458333 0.8541667
vt 0.125 0.8541667
vt 0.1666667 0.8333333
vt 0.1666667 0.8541667
vt 0.1875 0.8333333
vt 0.1875 0.8541667
vt 0.5 0.6041666
vt 0.5208333 0.6041666
vt 0.5416667 0.6041666
vt 0.5625 0.6041666
vt 0.5833333 0.6041666
vt 0.6041667 0.6041666
vt 0.625 0.6041666
vt 0.6458333 0.6041666
vt 0.6666667 0.6041666
vt 0.6875 0.6041666
vt 0.125 0.8125
vt 0.1458333 0.8125
vt 0.1666667 0.8125
vt 0.1875 0.8125
vt 0.5 0.5833334
vt 0.5208333 0.5833334
vt 0.5416667 0.5833334
vt 0.5625 0.5833334
vt 0.5833333 0.5833334
vt 0.6041667 0.5833334
vt 0.625 0.5833334
vt 0.6458333 0.5833334
vt 0.6666667 0.5833334
vt 0.6875 0.5833334

# Normal
vn 0 0 -1

# Mesh description
g Interior-casa_mesh_0035

# Faces
f 1/1/1 2/2/1 3/3/1 4/4/1
f 5/2/1 6/5/1 7/6/1 8/3/1
f 9/5/1 10/7/1 11/8/1 12/6/1
f 13/7/1 14/9/1 15/10/1 16/8/1
f 17/9/1 18/11/1 19/12/1 20/10/1
f 21/11/1 22/13/1 23/14/1 24/12/1
f 25/13/1 26/15/1 27/16/1 28/14/1
f 29/15/1 30/17/1 31/18/1 32/16/1
f 33/17/1 34/19/1 35/20/1 36/18/1
f 37/21/1 38/22/1 39/23/1 40/24/1
f 41/22/1 42/25/1 43/26/1 44/23/1
f 45/25/1 46/27/1 47/28/1 48/26/1
f 49/29/1 50/30/1 51/2/1 52/1/1
f 53/30/1 54/31/1 55/5/1 56/2/1
f 57/31/1 58/32/1 59/7/1 60/5/1
f 61/32/1 62/33/1 63/9/1 64/7/1
f 65/33/1 66/34/1 67/11/1 68/9/1
f 69/34/1 70/35/1 71/13/1 72/11/1
f 73/35/1 74/36/1 75/15/1 76/13/1
f 77/36/1 78/37/1 79/17/1 80/15/1
f 81/37/1 82/38/1 83/19/1 84/17/1
f 85/39/1 86/40/1 87/22/1 88/21/1
f 89/40/1 90/41/1 91/25/1 92/22/1
f 93/41/1 94/42/1 95/27/1 96/25/1
f 97/43/1 98/44/1 99/30/1 100/29/1
f 101/44/1 102/45/1 103/31/1 104/30/1
f 105/45/1 106/46/1 107/32/1 108/31/1
f 109/46/1 110/47/1 111/33/1 112/32/1
f 113/47/1 114/48/1 115/34/1 116/33/1
f 117/48/1 118/49/1 119/35/1 120/34/1
f 121/49/1 122/50/1 123/36/1 124/35/1
f 125/50/1 126/51/1 127/37/1 128/36/1
f 129/51/1 130/52/1 131/38/1 132/37/1

