# Tiled2Unity generated file. Do not modify by hand.
# Wavefront file for 'Interior-casa_mesh_0005.obj'

# Vertices (Count = 1024)
v 0 -16 0
v -16 -16 0
v -16 0 0
v 0 0 0
v -16 -16 0
v -32 -16 0
v -32 0 0
v -16 0 0
v -32 -16 0
v -48 -16 0
v -48 0 0
v -32 0 0
v -48 -16 0
v -64 -16 0
v -64 0 0
v -48 0 0
v -64 -16 0
v -80 -16 0
v -80 0 0
v -64 0 0
v -80 -16 0
v -96 -16 0
v -96 0 0
v -80 0 0
v -96 -16 0
v -112 -16 0
v -112 0 0
v -96 0 0
v -112 -16 0
v -128 -16 0
v -128 0 0
v -112 0 0
v -128 -16 0
v -144 -16 0
v -144 0 0
v -128 0 0
v -144 -16 0
v -160 -16 0
v -160 0 0
v -144 0 0
v -160 -16 0
v -176 -16 0
v -176 0 0
v -160 0 0
v -176 -16 0
v -192 -16 0
v -192 0 0
v -176 0 0
v -192 -16 0
v -208 -16 0
v -208 0 0
v -192 0 0
v -208 -16 0
v -224 -16 0
v -224 0 0
v -208 0 0
v -224 -16 0
v -240 -16 0
v -240 0 0
v -224 0 0
v -240 -16 0
v -256 -16 0
v -256 0 0
v -240 0 0
v 0 -32 0
v -16 -32 0
v -16 -16 0
v 0 -16 0
v -16 -32 0
v -32 -32 0
v -32 -16 0
v -16 -16 0
v -32 -32 0
v -48 -32 0
v -48 -16 0
v -32 -16 0
v -48 -32 0
v -64 -32 0
v -64 -16 0
v -48 -16 0
v -64 -32 0
v -80 -32 0
v -80 -16 0
v -64 -16 0
v -80 -32 0
v -96 -32 0
v -96 -16 0
v -80 -16 0
v -96 -32 0
v -112 -32 0
v -112 -16 0
v -96 -16 0
v -112 -32 0
v -128 -32 0
v -128 -16 0
v -112 -16 0
v -128 -32 0
v -144 -32 0
v -144 -16 0
v -128 -16 0
v -144 -32 0
v -160 -32 0
v -160 -16 0
v -144 -16 0
v -160 -32 0
v -176 -32 0
v -176 -16 0
v -160 -16 0
v -176 -32 0
v -192 -32 0
v -192 -16 0
v -176 -16 0
v -192 -32 0
v -208 -32 0
v -208 -16 0
v -192 -16 0
v -208 -32 0
v -224 -32 0
v -224 -16 0
v -208 -16 0
v -224 -32 0
v -240 -32 0
v -240 -16 0
v -224 -16 0
v -240 -32 0
v -256 -32 0
v -256 -16 0
v -240 -16 0
v 0 -48 0
v -16 -48 0
v -16 -32 0
v 0 -32 0
v -16 -48 0
v -32 -48 0
v -32 -32 0
v -16 -32 0
v -32 -48 0
v -48 -48 0
v -48 -32 0
v -32 -32 0
v -48 -48 0
v -64 -48 0
v -64 -32 0
v -48 -32 0
v -64 -48 0
v -80 -48 0
v -80 -32 0
v -64 -32 0
v -80 -48 0
v -96 -48 0
v -96 -32 0
v -80 -32 0
v -96 -48 0
v -112 -48 0
v -112 -32 0
v -96 -32 0
v -112 -48 0
v -128 -48 0
v -128 -32 0
v -112 -32 0
v -128 -48 0
v -144 -48 0
v -144 -32 0
v -128 -32 0
v -144 -48 0
v -160 -48 0
v -160 -32 0
v -144 -32 0
v -160 -48 0
v -176 -48 0
v -176 -32 0
v -160 -32 0
v -176 -48 0
v -192 -48 0
v -192 -32 0
v -176 -32 0
v -192 -48 0
v -208 -48 0
v -208 -32 0
v -192 -32 0
v -208 -48 0
v -224 -48 0
v -224 -32 0
v -208 -32 0
v -224 -48 0
v -240 -48 0
v -240 -32 0
v -224 -32 0
v -240 -48 0
v -256 -48 0
v -256 -32 0
v -240 -32 0
v 0 -64 0
v -16 -64 0
v -16 -48 0
v 0 -48 0
v -16 -64 0
v -32 -64 0
v -32 -48 0
v -16 -48 0
v -32 -64 0
v -48 -64 0
v -48 -48 0
v -32 -48 0
v -48 -64 0
v -64 -64 0
v -64 -48 0
v -48 -48 0
v -64 -64 0
v -80 -64 0
v -80 -48 0
v -64 -48 0
v -80 -64 0
v -96 -64 0
v -96 -48 0
v -80 -48 0
v -96 -64 0
v -112 -64 0
v -112 -48 0
v -96 -48 0
v -112 -64 0
v -128 -64 0
v -128 -48 0
v -112 -48 0
v -128 -64 0
v -144 -64 0
v -144 -48 0
v -128 -48 0
v -144 -64 0
v -160 -64 0
v -160 -48 0
v -144 -48 0
v -160 -64 0
v -176 -64 0
v -176 -48 0
v -160 -48 0
v -176 -64 0
v -192 -64 0
v -192 -48 0
v -176 -48 0
v -192 -64 0
v -208 -64 0
v -208 -48 0
v -192 -48 0
v -208 -64 0
v -224 -64 0
v -224 -48 0
v -208 -48 0
v -224 -64 0
v -240 -64 0
v -240 -48 0
v -224 -48 0
v -240 -64 0
v -256 -64 0
v -256 -48 0
v -240 -48 0
v 0 -80 0
v -16 -80 0
v -16 -64 0
v 0 -64 0
v -16 -80 0
v -32 -80 0
v -32 -64 0
v -16 -64 0
v -32 -80 0
v -48 -80 0
v -48 -64 0
v -32 -64 0
v -48 -80 0
v -64 -80 0
v -64 -64 0
v -48 -64 0
v -64 -80 0
v -80 -80 0
v -80 -64 0
v -64 -64 0
v -80 -80 0
v -96 -80 0
v -96 -64 0
v -80 -64 0
v -96 -80 0
v -112 -80 0
v -112 -64 0
v -96 -64 0
v -112 -80 0
v -128 -80 0
v -128 -64 0
v -112 -64 0
v -128 -80 0
v -144 -80 0
v -144 -64 0
v -128 -64 0
v -144 -80 0
v -160 -80 0
v -160 -64 0
v -144 -64 0
v -160 -80 0
v -176 -80 0
v -176 -64 0
v -160 -64 0
v -176 -80 0
v -192 -80 0
v -192 -64 0
v -176 -64 0
v -192 -80 0
v -208 -80 0
v -208 -64 0
v -192 -64 0
v -208 -80 0
v -224 -80 0
v -224 -64 0
v -208 -64 0
v -224 -80 0
v -240 -80 0
v -240 -64 0
v -224 -64 0
v -240 -80 0
v -256 -80 0
v -256 -64 0
v -240 -64 0
v 0 -96 0
v -16 -96 0
v -16 -80 0
v 0 -80 0
v -16 -96 0
v -32 -96 0
v -32 -80 0
v -16 -80 0
v -32 -96 0
v -48 -96 0
v -48 -80 0
v -32 -80 0
v -48 -96 0
v -64 -96 0
v -64 -80 0
v -48 -80 0
v -64 -96 0
v -80 -96 0
v -80 -80 0
v -64 -80 0
v -80 -96 0
v -96 -96 0
v -96 -80 0
v -80 -80 0
v -96 -96 0
v -112 -96 0
v -112 -80 0
v -96 -80 0
v -112 -96 0
v -128 -96 0
v -128 -80 0
v -112 -80 0
v -128 -96 0
v -144 -96 0
v -144 -80 0
v -128 -80 0
v -144 -96 0
v -160 -96 0
v -160 -80 0
v -144 -80 0
v -160 -96 0
v -176 -96 0
v -176 -80 0
v -160 -80 0
v -176 -96 0
v -192 -96 0
v -192 -80 0
v -176 -80 0
v -192 -96 0
v -208 -96 0
v -208 -80 0
v -192 -80 0
v -208 -96 0
v -224 -96 0
v -224 -80 0
v -208 -80 0
v -224 -96 0
v -240 -96 0
v -240 -80 0
v -224 -80 0
v -240 -96 0
v -256 -96 0
v -256 -80 0
v -240 -80 0
v 0 -112 0
v -16 -112 0
v -16 -96 0
v 0 -96 0
v -16 -112 0
v -32 -112 0
v -32 -96 0
v -16 -96 0
v -32 -112 0
v -48 -112 0
v -48 -96 0
v -32 -96 0
v -48 -112 0
v -64 -112 0
v -64 -96 0
v -48 -96 0
v -64 -112 0
v -80 -112 0
v -80 -96 0
v -64 -96 0
v -80 -112 0
v -96 -112 0
v -96 -96 0
v -80 -96 0
v -96 -112 0
v -112 -112 0
v -112 -96 0
v -96 -96 0
v -112 -112 0
v -128 -112 0
v -128 -96 0
v -112 -96 0
v -128 -112 0
v -144 -112 0
v -144 -96 0
v -128 -96 0
v -144 -112 0
v -160 -112 0
v -160 -96 0
v -144 -96 0
v -160 -112 0
v -176 -112 0
v -176 -96 0
v -160 -96 0
v -176 -112 0
v -192 -112 0
v -192 -96 0
v -176 -96 0
v -192 -112 0
v -208 -112 0
v -208 -96 0
v -192 -96 0
v -208 -112 0
v -224 -112 0
v -224 -96 0
v -208 -96 0
v -224 -112 0
v -240 -112 0
v -240 -96 0
v -224 -96 0
v -240 -112 0
v -256 -112 0
v -256 -96 0
v -240 -96 0
v 0 -128 0
v -16 -128 0
v -16 -112 0
v 0 -112 0
v -16 -128 0
v -32 -128 0
v -32 -112 0
v -16 -112 0
v -32 -128 0
v -48 -128 0
v -48 -112 0
v -32 -112 0
v -48 -128 0
v -64 -128 0
v -64 -112 0
v -48 -112 0
v -64 -128 0
v -80 -128 0
v -80 -112 0
v -64 -112 0
v -80 -128 0
v -96 -128 0
v -96 -112 0
v -80 -112 0
v -96 -128 0
v -112 -128 0
v -112 -112 0
v -96 -112 0
v -112 -128 0
v -128 -128 0
v -128 -112 0
v -112 -112 0
v -128 -128 0
v -144 -128 0
v -144 -112 0
v -128 -112 0
v -144 -128 0
v -160 -128 0
v -160 -112 0
v -144 -112 0
v -160 -128 0
v -176 -128 0
v -176 -112 0
v -160 -112 0
v -176 -128 0
v -192 -128 0
v -192 -112 0
v -176 -112 0
v -192 -128 0
v -208 -128 0
v -208 -112 0
v -192 -112 0
v -208 -128 0
v -224 -128 0
v -224 -112 0
v -208 -112 0
v -224 -128 0
v -240 -128 0
v -240 -112 0
v -224 -112 0
v -240 -128 0
v -256 -128 0
v -256 -112 0
v -240 -112 0
v 0 -144 0
v -16 -144 0
v -16 -128 0
v 0 -128 0
v -16 -144 0
v -32 -144 0
v -32 -128 0
v -16 -128 0
v -32 -144 0
v -48 -144 0
v -48 -128 0
v -32 -128 0
v -48 -144 0
v -64 -144 0
v -64 -128 0
v -48 -128 0
v -64 -144 0
v -80 -144 0
v -80 -128 0
v -64 -128 0
v -80 -144 0
v -96 -144 0
v -96 -128 0
v -80 -128 0
v -96 -144 0
v -112 -144 0
v -112 -128 0
v -96 -128 0
v -112 -144 0
v -128 -144 0
v -128 -128 0
v -112 -128 0
v -128 -144 0
v -144 -144 0
v -144 -128 0
v -128 -128 0
v -144 -144 0
v -160 -144 0
v -160 -128 0
v -144 -128 0
v -160 -144 0
v -176 -144 0
v -176 -128 0
v -160 -128 0
v -176 -144 0
v -192 -144 0
v -192 -128 0
v -176 -128 0
v -192 -144 0
v -208 -144 0
v -208 -128 0
v -192 -128 0
v -208 -144 0
v -224 -144 0
v -224 -128 0
v -208 -128 0
v -224 -144 0
v -240 -144 0
v -240 -128 0
v -224 -128 0
v -240 -144 0
v -256 -144 0
v -256 -128 0
v -240 -128 0
v 0 -160 0
v -16 -160 0
v -16 -144 0
v 0 -144 0
v -16 -160 0
v -32 -160 0
v -32 -144 0
v -16 -144 0
v -32 -160 0
v -48 -160 0
v -48 -144 0
v -32 -144 0
v -48 -160 0
v -64 -160 0
v -64 -144 0
v -48 -144 0
v -64 -160 0
v -80 -160 0
v -80 -144 0
v -64 -144 0
v -80 -160 0
v -96 -160 0
v -96 -144 0
v -80 -144 0
v -96 -160 0
v -112 -160 0
v -112 -144 0
v -96 -144 0
v -112 -160 0
v -128 -160 0
v -128 -144 0
v -112 -144 0
v -128 -160 0
v -144 -160 0
v -144 -144 0
v -128 -144 0
v -144 -160 0
v -160 -160 0
v -160 -144 0
v -144 -144 0
v -160 -160 0
v -176 -160 0
v -176 -144 0
v -160 -144 0
v -176 -160 0
v -192 -160 0
v -192 -144 0
v -176 -144 0
v -192 -160 0
v -208 -160 0
v -208 -144 0
v -192 -144 0
v -208 -160 0
v -224 -160 0
v -224 -144 0
v -208 -144 0
v -224 -160 0
v -240 -160 0
v -240 -144 0
v -224 -144 0
v -240 -160 0
v -256 -160 0
v -256 -144 0
v -240 -144 0
v 0 -176 0
v -16 -176 0
v -16 -160 0
v 0 -160 0
v -16 -176 0
v -32 -176 0
v -32 -160 0
v -16 -160 0
v -32 -176 0
v -48 -176 0
v -48 -160 0
v -32 -160 0
v -48 -176 0
v -64 -176 0
v -64 -160 0
v -48 -160 0
v -64 -176 0
v -80 -176 0
v -80 -160 0
v -64 -160 0
v -80 -176 0
v -96 -176 0
v -96 -160 0
v -80 -160 0
v -96 -176 0
v -112 -176 0
v -112 -160 0
v -96 -160 0
v -112 -176 0
v -128 -176 0
v -128 -160 0
v -112 -160 0
v -128 -176 0
v -144 -176 0
v -144 -160 0
v -128 -160 0
v -144 -176 0
v -160 -176 0
v -160 -160 0
v -144 -160 0
v -160 -176 0
v -176 -176 0
v -176 -160 0
v -160 -160 0
v -176 -176 0
v -192 -176 0
v -192 -160 0
v -176 -160 0
v -192 -176 0
v -208 -176 0
v -208 -160 0
v -192 -160 0
v -208 -176 0
v -224 -176 0
v -224 -160 0
v -208 -160 0
v -224 -176 0
v -240 -176 0
v -240 -160 0
v -224 -160 0
v -240 -176 0
v -256 -176 0
v -256 -160 0
v -240 -160 0
v 0 -192 0
v -16 -192 0
v -16 -176 0
v 0 -176 0
v -16 -192 0
v -32 -192 0
v -32 -176 0
v -16 -176 0
v -32 -192 0
v -48 -192 0
v -48 -176 0
v -32 -176 0
v -48 -192 0
v -64 -192 0
v -64 -176 0
v -48 -176 0
v -64 -192 0
v -80 -192 0
v -80 -176 0
v -64 -176 0
v -80 -192 0
v -96 -192 0
v -96 -176 0
v -80 -176 0
v -96 -192 0
v -112 -192 0
v -112 -176 0
v -96 -176 0
v -112 -192 0
v -128 -192 0
v -128 -176 0
v -112 -176 0
v -128 -192 0
v -144 -192 0
v -144 -176 0
v -128 -176 0
v -144 -192 0
v -160 -192 0
v -160 -176 0
v -144 -176 0
v -160 -192 0
v -176 -192 0
v -176 -176 0
v -160 -176 0
v -176 -192 0
v -192 -192 0
v -192 -176 0
v -176 -176 0
v -192 -192 0
v -208 -192 0
v -208 -176 0
v -192 -176 0
v -208 -192 0
v -224 -192 0
v -224 -176 0
v -208 -176 0
v -224 -192 0
v -240 -192 0
v -240 -176 0
v -224 -176 0
v -240 -192 0
v -256 -192 0
v -256 -176 0
v -240 -176 0
v 0 -208 0
v -16 -208 0
v -16 -192 0
v 0 -192 0
v -16 -208 0
v -32 -208 0
v -32 -192 0
v -16 -192 0
v -32 -208 0
v -48 -208 0
v -48 -192 0
v -32 -192 0
v -48 -208 0
v -64 -208 0
v -64 -192 0
v -48 -192 0
v -64 -208 0
v -80 -208 0
v -80 -192 0
v -64 -192 0
v -80 -208 0
v -96 -208 0
v -96 -192 0
v -80 -192 0
v -96 -208 0
v -112 -208 0
v -112 -192 0
v -96 -192 0
v -112 -208 0
v -128 -208 0
v -128 -192 0
v -112 -192 0
v -128 -208 0
v -144 -208 0
v -144 -192 0
v -128 -192 0
v -144 -208 0
v -160 -208 0
v -160 -192 0
v -144 -192 0
v -160 -208 0
v -176 -208 0
v -176 -192 0
v -160 -192 0
v -176 -208 0
v -192 -208 0
v -192 -192 0
v -176 -192 0
v -192 -208 0
v -208 -208 0
v -208 -192 0
v -192 -192 0
v -208 -208 0
v -224 -208 0
v -224 -192 0
v -208 -192 0
v -224 -208 0
v -240 -208 0
v -240 -192 0
v -224 -192 0
v -240 -208 0
v -256 -208 0
v -256 -192 0
v -240 -192 0
v 0 -224 0
v -16 -224 0
v -16 -208 0
v 0 -208 0
v -16 -224 0
v -32 -224 0
v -32 -208 0
v -16 -208 0
v -32 -224 0
v -48 -224 0
v -48 -208 0
v -32 -208 0
v -48 -224 0
v -64 -224 0
v -64 -208 0
v -48 -208 0
v -64 -224 0
v -80 -224 0
v -80 -208 0
v -64 -208 0
v -80 -224 0
v -96 -224 0
v -96 -208 0
v -80 -208 0
v -96 -224 0
v -112 -224 0
v -112 -208 0
v -96 -208 0
v -112 -224 0
v -128 -224 0
v -128 -208 0
v -112 -208 0
v -128 -224 0
v -144 -224 0
v -144 -208 0
v -128 -208 0
v -144 -224 0
v -160 -224 0
v -160 -208 0
v -144 -208 0
v -160 -224 0
v -176 -224 0
v -176 -208 0
v -160 -208 0
v -176 -224 0
v -192 -224 0
v -192 -208 0
v -176 -208 0
v -192 -224 0
v -208 -224 0
v -208 -208 0
v -192 -208 0
v -208 -224 0
v -224 -224 0
v -224 -208 0
v -208 -208 0
v -224 -224 0
v -240 -224 0
v -240 -208 0
v -224 -208 0
v -240 -224 0
v -256 -224 0
v -256 -208 0
v -240 -208 0
v 0 -240 0
v -16 -240 0
v -16 -224 0
v 0 -224 0
v -16 -240 0
v -32 -240 0
v -32 -224 0
v -16 -224 0
v -32 -240 0
v -48 -240 0
v -48 -224 0
v -32 -224 0
v -48 -240 0
v -64 -240 0
v -64 -224 0
v -48 -224 0
v -64 -240 0
v -80 -240 0
v -80 -224 0
v -64 -224 0
v -80 -240 0
v -96 -240 0
v -96 -224 0
v -80 -224 0
v -96 -240 0
v -112 -240 0
v -112 -224 0
v -96 -224 0
v -112 -240 0
v -128 -240 0
v -128 -224 0
v -112 -224 0
v -128 -240 0
v -144 -240 0
v -144 -224 0
v -128 -224 0
v -144 -240 0
v -160 -240 0
v -160 -224 0
v -144 -224 0
v -160 -240 0
v -176 -240 0
v -176 -224 0
v -160 -224 0
v -176 -240 0
v -192 -240 0
v -192 -224 0
v -176 -224 0
v -192 -240 0
v -208 -240 0
v -208 -224 0
v -192 -224 0
v -208 -240 0
v -224 -240 0
v -224 -224 0
v -208 -224 0
v -224 -240 0
v -240 -240 0
v -240 -224 0
v -224 -224 0
v -240 -240 0
v -256 -240 0
v -256 -224 0
v -240 -224 0
v 0 -256 0
v -16 -256 0
v -16 -240 0
v 0 -240 0
v -16 -256 0
v -32 -256 0
v -32 -240 0
v -16 -240 0
v -32 -256 0
v -48 -256 0
v -48 -240 0
v -32 -240 0
v -48 -256 0
v -64 -256 0
v -64 -240 0
v -48 -240 0
v -64 -256 0
v -80 -256 0
v -80 -240 0
v -64 -240 0
v -80 -256 0
v -96 -256 0
v -96 -240 0
v -80 -240 0
v -96 -256 0
v -112 -256 0
v -112 -240 0
v -96 -240 0
v -112 -256 0
v -128 -256 0
v -128 -240 0
v -112 -240 0
v -128 -256 0
v -144 -256 0
v -144 -240 0
v -128 -240 0
v -144 -256 0
v -160 -256 0
v -160 -240 0
v -144 -240 0
v -160 -256 0
v -176 -256 0
v -176 -240 0
v -160 -240 0
v -176 -256 0
v -192 -256 0
v -192 -240 0
v -176 -240 0
v -192 -256 0
v -208 -256 0
v -208 -240 0
v -192 -240 0
v -208 -256 0
v -224 -256 0
v -224 -240 0
v -208 -240 0
v -224 -256 0
v -240 -256 0
v -240 -240 0
v -224 -240 0
v -240 -256 0
v -256 -256 0
v -256 -240 0
v -240 -240 0

# Texture cooridinates (Count = 70)
vt 0 0.7777778
vt 0.02083333 0.7777778
vt 0.02083333 0.8055556
vt 0 0.8055556
vt 0.04166667 0.7777778
vt 0.04166667 0.8055556
vt 0.0625 0.7777778
vt 0.0625 0.8055556
vt 0.08333334 0.7777778
vt 0.08333334 0.8055556
vt 0.1041667 0.7777778
vt 0.1041667 0.8055556
vt 0.125 0.7777778
vt 0.125 0.8055556
vt 0 0.75
vt 0.02083333 0.75
vt 0.04166667 0.75
vt 0.0625 0.75
vt 0.08333334 0.75
vt 0.1041667 0.75
vt 0.125 0.75
vt 0 0.9722222
vt 0.02083333 0.9722222
vt 0.02083333 1
vt 0 1
vt 0.04166667 0.9722222
vt 0.04166667 1
vt 0.0625 0.9722222
vt 0.0625 1
vt 0.08333334 0.9722222
vt 0.08333334 1
vt 0.1041667 0.9722222
vt 0.1041667 1
vt 0.125 0.9722222
vt 0.125 1
vt 0 0.9444444
vt 0.02083333 0.9444444
vt 0.04166667 0.9444444
vt 0.0625 0.9444444
vt 0.08333334 0.9444444
vt 0.1041667 0.9444444
vt 0.125 0.9444444
vt 0 0.9166667
vt 0.02083333 0.9166667
vt 0.04166667 0.9166667
vt 0.0625 0.9166667
vt 0.08333334 0.9166667
vt 0.1041667 0.9166667
vt 0.125 0.9166667
vt 0 0.8888889
vt 0.02083333 0.8888889
vt 0.04166667 0.8888889
vt 0.0625 0.8888889
vt 0.08333334 0.8888889
vt 0.1041667 0.8888889
vt 0.125 0.8888889
vt 0 0.8611111
vt 0.02083333 0.8611111
vt 0.04166667 0.8611111
vt 0.0625 0.8611111
vt 0.08333334 0.8611111
vt 0.1041667 0.8611111
vt 0.125 0.8611111
vt 0 0.8333333
vt 0.02083333 0.8333333
vt 0.04166667 0.8333333
vt 0.0625 0.8333333
vt 0.08333334 0.8333333
vt 0.1041667 0.8333333
vt 0.125 0.8333333

# Normal
vn 0 0 -1

# Mesh description
g Interior-casa_mesh_0005

# Faces
f 1/1/1 2/2/1 3/3/1 4/4/1
f 5/2/1 6/5/1 7/6/1 8/3/1
f 9/5/1 10/7/1 11/8/1 12/6/1
f 13/7/1 14/9/1 15/10/1 16/8/1
f 17/9/1 18/11/1 19/12/1 20/10/1
f 21/11/1 22/13/1 23/14/1 24/12/1
f 25/11/1 26/13/1 27/14/1 28/12/1
f 29/1/1 30/2/1 31/3/1 32/4/1
f 33/2/1 34/5/1 35/6/1 36/3/1
f 37/5/1 38/7/1 39/8/1 40/6/1
f 41/7/1 42/9/1 43/10/1 44/8/1
f 45/9/1 46/11/1 47/12/1 48/10/1
f 49/11/1 50/13/1 51/14/1 52/12/1
f 53/2/1 54/5/1 55/6/1 56/3/1
f 57/5/1 58/7/1 59/8/1 60/6/1
f 61/7/1 62/9/1 63/10/1 64/8/1
f 65/15/1 66/16/1 67/2/1 68/1/1
f 69/16/1 70/17/1 71/5/1 72/2/1
f 73/17/1 74/18/1 75/7/1 76/5/1
f 77/18/1 78/19/1 79/9/1 80/7/1
f 81/19/1 82/20/1 83/11/1 84/9/1
f 85/20/1 86/21/1 87/13/1 88/11/1
f 89/20/1 90/21/1 91/13/1 92/11/1
f 93/15/1 94/16/1 95/2/1 96/1/1
f 97/16/1 98/17/1 99/5/1 100/2/1
f 101/17/1 102/18/1 103/7/1 104/5/1
f 105/18/1 106/19/1 107/9/1 108/7/1
f 109/19/1 110/20/1 111/11/1 112/9/1
f 113/20/1 114/21/1 115/13/1 116/11/1
f 117/16/1 118/17/1 119/5/1 120/2/1
f 121/17/1 122/18/1 123/7/1 124/5/1
f 125/18/1 126/19/1 127/9/1 128/7/1
f 129/22/1 130/23/1 131/24/1 132/25/1
f 133/23/1 134/26/1 135/27/1 136/24/1
f 137/26/1 138/28/1 139/29/1 140/27/1
f 141/28/1 142/30/1 143/31/1 144/29/1
f 145/30/1 146/32/1 147/33/1 148/31/1
f 149/32/1 150/34/1 151/35/1 152/33/1
f 153/30/1 154/32/1 155/33/1 156/31/1
f 157/32/1 158/34/1 159/35/1 160/33/1
f 161/23/1 162/26/1 163/27/1 164/24/1
f 165/26/1 166/28/1 167/29/1 168/27/1
f 169/28/1 170/30/1 171/31/1 172/29/1
f 173/30/1 174/32/1 175/33/1 176/31/1
f 177/32/1 178/34/1 179/35/1 180/33/1
f 181/23/1 182/26/1 183/27/1 184/24/1
f 185/26/1 186/28/1 187/29/1 188/27/1
f 189/28/1 190/30/1 191/31/1 192/29/1
f 193/36/1 194/37/1 195/23/1 196/22/1
f 197/37/1 198/38/1 199/26/1 200/23/1
f 201/38/1 202/39/1 203/28/1 204/26/1
f 205/39/1 206/40/1 207/30/1 208/28/1
f 209/40/1 210/41/1 211/32/1 212/30/1
f 213/41/1 214/42/1 215/34/1 216/32/1
f 217/40/1 218/41/1 219/32/1 220/30/1
f 221/41/1 222/42/1 223/34/1 224/32/1
f 225/37/1 226/38/1 227/26/1 228/23/1
f 229/38/1 230/39/1 231/28/1 232/26/1
f 233/39/1 234/40/1 235/30/1 236/28/1
f 237/40/1 238/41/1 239/32/1 240/30/1
f 241/41/1 242/42/1 243/34/1 244/32/1
f 245/37/1 246/38/1 247/26/1 248/23/1
f 249/38/1 250/39/1 251/28/1 252/26/1
f 253/39/1 254/40/1 255/30/1 256/28/1
f 257/43/1 258/44/1 259/37/1 260/36/1
f 261/44/1 262/45/1 263/38/1 264/37/1
f 265/45/1 266/46/1 267/39/1 268/38/1
f 269/46/1 270/47/1 271/40/1 272/39/1
f 273/47/1 274/48/1 275/41/1 276/40/1
f 277/48/1 278/49/1 279/42/1 280/41/1
f 281/47/1 282/48/1 283/41/1 284/40/1
f 285/48/1 286/49/1 287/42/1 288/41/1
f 289/44/1 290/45/1 291/38/1 292/37/1
f 293/45/1 294/46/1 295/39/1 296/38/1
f 297/46/1 298/47/1 299/40/1 300/39/1
f 301/47/1 302/48/1 303/41/1 304/40/1
f 305/48/1 306/49/1 307/42/1 308/41/1
f 309/44/1 310/45/1 311/38/1 312/37/1
f 313/45/1 314/46/1 315/39/1 316/38/1
f 317/46/1 318/47/1 319/40/1 320/39/1
f 321/50/1 322/51/1 323/44/1 324/43/1
f 325/51/1 326/52/1 327/45/1 328/44/1
f 329/52/1 330/53/1 331/46/1 332/45/1
f 333/53/1 334/54/1 335/47/1 336/46/1
f 337/54/1 338/55/1 339/48/1 340/47/1
f 341/55/1 342/56/1 343/49/1 344/48/1
f 345/54/1 346/55/1 347/48/1 348/47/1
f 349/55/1 350/56/1 351/49/1 352/48/1
f 353/51/1 354/52/1 355/45/1 356/44/1
f 357/52/1 358/53/1 359/46/1 360/45/1
f 361/53/1 362/54/1 363/47/1 364/46/1
f 365/54/1 366/55/1 367/48/1 368/47/1
f 369/55/1 370/56/1 371/49/1 372/48/1
f 373/51/1 374/52/1 375/45/1 376/44/1
f 377/52/1 378/53/1 379/46/1 380/45/1
f 381/53/1 382/54/1 383/47/1 384/46/1
f 385/57/1 386/58/1 387/51/1 388/50/1
f 389/58/1 390/59/1 391/52/1 392/51/1
f 393/59/1 394/60/1 395/53/1 396/52/1
f 397/60/1 398/61/1 399/54/1 400/53/1
f 401/61/1 402/62/1 403/55/1 404/54/1
f 405/62/1 406/63/1 407/56/1 408/55/1
f 409/61/1 410/62/1 411/55/1 412/54/1
f 413/62/1 414/63/1 415/56/1 416/55/1
f 417/58/1 418/59/1 419/52/1 420/51/1
f 421/59/1 422/60/1 423/53/1 424/52/1
f 425/60/1 426/61/1 427/54/1 428/53/1
f 429/61/1 430/62/1 431/55/1 432/54/1
f 433/62/1 434/63/1 435/56/1 436/55/1
f 437/58/1 438/59/1 439/52/1 440/51/1
f 441/59/1 442/60/1 443/53/1 444/52/1
f 445/60/1 446/61/1 447/54/1 448/53/1
f 449/64/1 450/65/1 451/58/1 452/57/1
f 453/65/1 454/66/1 455/59/1 456/58/1
f 457/66/1 458/67/1 459/60/1 460/59/1
f 461/67/1 462/68/1 463/61/1 464/60/1
f 465/68/1 466/69/1 467/62/1 468/61/1
f 469/69/1 470/70/1 471/63/1 472/62/1
f 473/68/1 474/69/1 475/62/1 476/61/1
f 477/69/1 478/70/1 479/63/1 480/62/1
f 481/65/1 482/66/1 483/59/1 484/58/1
f 485/66/1 486/67/1 487/60/1 488/59/1
f 489/67/1 490/68/1 491/61/1 492/60/1
f 493/68/1 494/69/1 495/62/1 496/61/1
f 497/69/1 498/70/1 499/63/1 500/62/1
f 501/65/1 502/66/1 503/59/1 504/58/1
f 505/66/1 506/67/1 507/60/1 508/59/1
f 509/67/1 510/68/1 511/61/1 512/60/1
f 513/22/1 514/23/1 515/24/1 516/25/1
f 517/23/1 518/26/1 519/27/1 520/24/1
f 521/26/1 522/28/1 523/29/1 524/27/1
f 525/28/1 526/30/1 527/31/1 528/29/1
f 529/30/1 530/32/1 531/33/1 532/31/1
f 533/22/1 534/23/1 535/24/1 536/25/1
f 537/23/1 538/26/1 539/27/1 540/24/1
f 541/26/1 542/28/1 543/29/1 544/27/1
f 545/28/1 546/30/1 547/31/1 548/29/1
f 549/30/1 550/32/1 551/33/1 552/31/1
f 553/22/1 554/23/1 555/24/1 556/25/1
f 557/23/1 558/26/1 559/27/1 560/24/1
f 561/26/1 562/28/1 563/29/1 564/27/1
f 565/28/1 566/30/1 567/31/1 568/29/1
f 569/30/1 570/32/1 571/33/1 572/31/1
f 573/32/1 574/34/1 575/35/1 576/33/1
f 577/36/1 578/37/1 579/23/1 580/22/1
f 581/37/1 582/38/1 583/26/1 584/23/1
f 585/38/1 586/39/1 587/28/1 588/26/1
f 589/39/1 590/40/1 591/30/1 592/28/1
f 593/40/1 594/41/1 595/32/1 596/30/1
f 597/36/1 598/37/1 599/23/1 600/22/1
f 601/37/1 602/38/1 603/26/1 604/23/1
f 605/38/1 606/39/1 607/28/1 608/26/1
f 609/39/1 610/40/1 611/30/1 612/28/1
f 613/40/1 614/41/1 615/32/1 616/30/1
f 617/36/1 618/37/1 619/23/1 620/22/1
f 621/37/1 622/38/1 623/26/1 624/23/1
f 625/38/1 626/39/1 627/28/1 628/26/1
f 629/39/1 630/40/1 631/30/1 632/28/1
f 633/40/1 634/41/1 635/32/1 636/30/1
f 637/41/1 638/42/1 639/34/1 640/32/1
f 641/43/1 642/44/1 643/37/1 644/36/1
f 645/44/1 646/45/1 647/38/1 648/37/1
f 649/45/1 650/46/1 651/39/1 652/38/1
f 653/46/1 654/47/1 655/40/1 656/39/1
f 657/47/1 658/48/1 659/41/1 660/40/1
f 661/43/1 662/44/1 663/37/1 664/36/1
f 665/44/1 666/45/1 667/38/1 668/37/1
f 669/45/1 670/46/1 671/39/1 672/38/1
f 673/46/1 674/47/1 675/40/1 676/39/1
f 677/47/1 678/48/1 679/41/1 680/40/1
f 681/43/1 682/44/1 683/37/1 684/36/1
f 685/44/1 686/45/1 687/38/1 688/37/1
f 689/45/1 690/46/1 691/39/1 692/38/1
f 693/46/1 694/47/1 695/40/1 696/39/1
f 697/47/1 698/48/1 699/41/1 700/40/1
f 701/48/1 702/49/1 703/42/1 704/41/1
f 705/50/1 706/51/1 707/44/1 708/43/1
f 709/51/1 710/52/1 711/45/1 712/44/1
f 713/52/1 714/53/1 715/46/1 716/45/1
f 717/53/1 718/54/1 719/47/1 720/46/1
f 721/54/1 722/55/1 723/48/1 724/47/1
f 725/50/1 726/51/1 727/44/1 728/43/1
f 729/51/1 730/52/1 731/45/1 732/44/1
f 733/52/1 734/53/1 735/46/1 736/45/1
f 737/53/1 738/54/1 739/47/1 740/46/1
f 741/54/1 742/55/1 743/48/1 744/47/1
f 745/50/1 746/51/1 747/44/1 748/43/1
f 749/51/1 750/52/1 751/45/1 752/44/1
f 753/52/1 754/53/1 755/46/1 756/45/1
f 757/53/1 758/54/1 759/47/1 760/46/1
f 761/54/1 762/55/1 763/48/1 764/47/1
f 765/55/1 766/56/1 767/49/1 768/48/1
f 769/57/1 770/58/1 771/51/1 772/50/1
f 773/58/1 774/59/1 775/52/1 776/51/1
f 777/59/1 778/60/1 779/53/1 780/52/1
f 781/60/1 782/61/1 783/54/1 784/53/1
f 785/61/1 786/62/1 787/55/1 788/54/1
f 789/57/1 790/58/1 791/51/1 792/50/1
f 793/58/1 794/59/1 795/52/1 796/51/1
f 797/59/1 798/60/1 799/53/1 800/52/1
f 801/60/1 802/61/1 803/54/1 804/53/1
f 805/61/1 806/62/1 807/55/1 808/54/1
f 809/57/1 810/58/1 811/51/1 812/50/1
f 813/58/1 814/59/1 815/52/1 816/51/1
f 817/59/1 818/60/1 819/53/1 820/52/1
f 821/60/1 822/61/1 823/54/1 824/53/1
f 825/61/1 826/62/1 827/55/1 828/54/1
f 829/62/1 830/63/1 831/56/1 832/55/1
f 833/64/1 834/65/1 835/58/1 836/57/1
f 837/65/1 838/66/1 839/59/1 840/58/1
f 841/66/1 842/67/1 843/60/1 844/59/1
f 845/67/1 846/68/1 847/61/1 848/60/1
f 849/68/1 850/69/1 851/62/1 852/61/1
f 853/64/1 854/65/1 855/58/1 856/57/1
f 857/65/1 858/66/1 859/59/1 860/58/1
f 861/66/1 862/67/1 863/60/1 864/59/1
f 865/67/1 866/68/1 867/61/1 868/60/1
f 869/68/1 870/69/1 871/62/1 872/61/1
f 873/64/1 874/65/1 875/58/1 876/57/1
f 877/65/1 878/66/1 879/59/1 880/58/1
f 881/66/1 882/67/1 883/60/1 884/59/1
f 885/67/1 886/68/1 887/61/1 888/60/1
f 889/68/1 890/69/1 891/62/1 892/61/1
f 893/69/1 894/70/1 895/63/1 896/62/1
f 897/4/1 898/3/1 899/65/1 900/64/1
f 901/3/1 902/6/1 903/66/1 904/65/1
f 905/6/1 906/8/1 907/67/1 908/66/1
f 909/8/1 910/10/1 911/68/1 912/67/1
f 913/10/1 914/12/1 915/69/1 916/68/1
f 917/4/1 918/3/1 919/65/1 920/64/1
f 921/3/1 922/6/1 923/66/1 924/65/1
f 925/6/1 926/8/1 927/67/1 928/66/1
f 929/8/1 930/10/1 931/68/1 932/67/1
f 933/10/1 934/12/1 935/69/1 936/68/1
f 937/4/1 938/3/1 939/65/1 940/64/1
f 941/3/1 942/6/1 943/66/1 944/65/1
f 945/6/1 946/8/1 947/67/1 948/66/1
f 949/8/1 950/10/1 951/68/1 952/67/1
f 953/10/1 954/12/1 955/69/1 956/68/1
f 957/12/1 958/14/1 959/70/1 960/69/1
f 961/1/1 962/2/1 963/3/1 964/4/1
f 965/2/1 966/5/1 967/6/1 968/3/1
f 969/5/1 970/7/1 971/8/1 972/6/1
f 973/7/1 974/9/1 975/10/1 976/8/1
f 977/9/1 978/11/1 979/12/1 980/10/1
f 981/1/1 982/2/1 983/3/1 984/4/1
f 985/2/1 986/5/1 987/6/1 988/3/1
f 989/5/1 990/7/1 991/8/1 992/6/1
f 993/7/1 994/9/1 995/10/1 996/8/1
f 997/9/1 998/11/1 999/12/1 1000/10/1
f 1001/1/1 1002/2/1 1003/3/1 1004/4/1
f 1005/2/1 1006/5/1 1007/6/1 1008/3/1
f 1009/5/1 1010/7/1 1011/8/1 1012/6/1
f 1013/7/1 1014/9/1 1015/10/1 1016/8/1
f 1017/9/1 1018/11/1 1019/12/1 1020/10/1
f 1021/11/1 1022/13/1 1023/14/1 1024/12/1

