# Tiled2Unity generated file. Do not modify by hand.
# Wavefront file for 'Interior-casa_mesh_0031.obj'

# Vertices (Count = 292)
v -64 -144 0
v -80 -144 0
v -80 -128 0
v -64 -128 0
v -80 -144 0
v -96 -144 0
v -96 -128 0
v -80 -128 0
v -96 -144 0
v -112 -144 0
v -112 -128 0
v -96 -128 0
v -112 -144 0
v -128 -144 0
v -128 -128 0
v -112 -128 0
v -128 -144 0
v -144 -144 0
v -144 -128 0
v -128 -128 0
v -144 -144 0
v -160 -144 0
v -160 -128 0
v -144 -128 0
v -160 -144 0
v -176 -144 0
v -176 -128 0
v -160 -128 0
v -64 -160 0
v -80 -160 0
v -80 -144 0
v -64 -144 0
v -80 -160 0
v -96 -160 0
v -96 -144 0
v -80 -144 0
v -96 -160 0
v -112 -160 0
v -112 -144 0
v -96 -144 0
v -112 -160 0
v -128 -160 0
v -128 -144 0
v -112 -144 0
v -128 -160 0
v -144 -160 0
v -144 -144 0
v -128 -144 0
v -144 -160 0
v -160 -160 0
v -160 -144 0
v -144 -144 0
v -160 -160 0
v -176 -160 0
v -176 -144 0
v -160 -144 0
v -64 -176 0
v -80 -176 0
v -80 -160 0
v -64 -160 0
v -80 -176 0
v -96 -176 0
v -96 -160 0
v -80 -160 0
v -96 -176 0
v -112 -176 0
v -112 -160 0
v -96 -160 0
v -112 -176 0
v -128 -176 0
v -128 -160 0
v -112 -160 0
v -128 -176 0
v -144 -176 0
v -144 -160 0
v -128 -160 0
v -144 -176 0
v -160 -176 0
v -160 -160 0
v -144 -160 0
v -160 -176 0
v -176 -176 0
v -176 -160 0
v -160 -160 0
v -64 -192 0
v -80 -192 0
v -80 -176 0
v -64 -176 0
v -80 -192 0
v -96 -192 0
v -96 -176 0
v -80 -176 0
v -96 -192 0
v -112 -192 0
v -112 -176 0
v -96 -176 0
v -112 -192 0
v -128 -192 0
v -128 -176 0
v -112 -176 0
v -128 -192 0
v -144 -192 0
v -144 -176 0
v -128 -176 0
v -144 -192 0
v -160 -192 0
v -160 -176 0
v -144 -176 0
v -160 -192 0
v -176 -192 0
v -176 -176 0
v -160 -176 0
v -32 -208 0
v -48 -208 0
v -48 -192 0
v -32 -192 0
v -48 -208 0
v -64 -208 0
v -64 -192 0
v -48 -192 0
v -64 -208 0
v -80 -208 0
v -80 -192 0
v -64 -192 0
v -80 -208 0
v -96 -208 0
v -96 -192 0
v -80 -192 0
v -96 -208 0
v -112 -208 0
v -112 -192 0
v -96 -192 0
v -112 -208 0
v -128 -208 0
v -128 -192 0
v -112 -192 0
v -128 -208 0
v -144 -208 0
v -144 -192 0
v -128 -192 0
v -144 -208 0
v -160 -208 0
v -160 -192 0
v -144 -192 0
v -160 -208 0
v -176 -208 0
v -176 -192 0
v -160 -192 0
v -32 -224 0
v -48 -224 0
v -48 -208 0
v -32 -208 0
v -48 -224 0
v -64 -224 0
v -64 -208 0
v -48 -208 0
v -64 -224 0
v -80 -224 0
v -80 -208 0
v -64 -208 0
v -80 -224 0
v -96 -224 0
v -96 -208 0
v -80 -208 0
v -96 -224 0
v -112 -224 0
v -112 -208 0
v -96 -208 0
v -112 -224 0
v -128 -224 0
v -128 -208 0
v -112 -208 0
v -128 -224 0
v -144 -224 0
v -144 -208 0
v -128 -208 0
v -144 -224 0
v -160 -224 0
v -160 -208 0
v -144 -208 0
v -160 -224 0
v -176 -224 0
v -176 -208 0
v -160 -208 0
v -176 -224 0
v -192 -224 0
v -192 -208 0
v -176 -208 0
v -192 -224 0
v -208 -224 0
v -208 -208 0
v -192 -208 0
v -208 -224 0
v -224 -224 0
v -224 -208 0
v -208 -208 0
v -32 -240 0
v -48 -240 0
v -48 -224 0
v -32 -224 0
v -48 -240 0
v -64 -240 0
v -64 -224 0
v -48 -224 0
v -64 -240 0
v -80 -240 0
v -80 -224 0
v -64 -224 0
v -80 -240 0
v -96 -240 0
v -96 -224 0
v -80 -224 0
v -96 -240 0
v -112 -240 0
v -112 -224 0
v -96 -224 0
v -112 -240 0
v -128 -240 0
v -128 -224 0
v -112 -224 0
v -128 -240 0
v -144 -240 0
v -144 -224 0
v -128 -224 0
v -144 -240 0
v -160 -240 0
v -160 -224 0
v -144 -224 0
v -160 -240 0
v -176 -240 0
v -176 -224 0
v -160 -224 0
v -176 -240 0
v -192 -240 0
v -192 -224 0
v -176 -224 0
v -192 -240 0
v -208 -240 0
v -208 -224 0
v -192 -224 0
v -208 -240 0
v -224 -240 0
v -224 -224 0
v -208 -224 0
v -32 -256 0
v -48 -256 0
v -48 -240 0
v -32 -240 0
v -48 -256 0
v -64 -256 0
v -64 -240 0
v -48 -240 0
v -64 -256 0
v -80 -256 0
v -80 -240 0
v -64 -240 0
v -80 -256 0
v -96 -256 0
v -96 -240 0
v -80 -240 0
v -96 -256 0
v -112 -256 0
v -112 -240 0
v -96 -240 0
v -112 -256 0
v -128 -256 0
v -128 -240 0
v -112 -240 0
v -128 -256 0
v -144 -256 0
v -144 -240 0
v -128 -240 0
v -144 -256 0
v -160 -256 0
v -160 -240 0
v -144 -240 0
v -160 -256 0
v -176 -256 0
v -176 -240 0
v -160 -240 0
v -176 -256 0
v -192 -256 0
v -192 -240 0
v -176 -240 0
v -192 -256 0
v -208 -256 0
v -208 -240 0
v -192 -240 0
v -208 -256 0
v -224 -256 0
v -224 -240 0
v -208 -240 0

# Texture cooridinates (Count = 98)
vt 0.5416667 0.7916667
vt 0.5625 0.7916667
vt 0.5625 0.8125
vt 0.5416667 0.8125
vt 0.5833333 0.7916667
vt 0.5833333 0.8125
vt 0.6041667 0.7916667
vt 0.6041667 0.8125
vt 0.625 0.7916667
vt 0.625 0.8125
vt 0.6458333 0.7916667
vt 0.6458333 0.8125
vt 0.6666667 0.7916667
vt 0.6666667 0.8125
vt 0.6875 0.7916667
vt 0.6875 0.8125
vt 0.5416667 0.7708333
vt 0.5625 0.7708333
vt 0.5833333 0.7708333
vt 0.6041667 0.7708333
vt 0.625 0.7708333
vt 0.6458333 0.7708333
vt 0.6666667 0.7708333
vt 0.6875 0.7708333
vt 0.5416667 0.75
vt 0.5625 0.75
vt 0.5833333 0.75
vt 0.6041667 0.75
vt 0.625 0.75
vt 0.6458333 0.75
vt 0.6666667 0.75
vt 0.6875 0.75
vt 0.5416667 0.7291666
vt 0.5625 0.7291666
vt 0.5833333 0.7291666
vt 0.6041667 0.7291666
vt 0.625 0.7291666
vt 0.6458333 0.7291666
vt 0.6666667 0.7291666
vt 0.6875 0.7291666
vt 0.5 0.7083334
vt 0.5208333 0.7083334
vt 0.5208333 0.7291666
vt 0.5 0.7291666
vt 0.5416667 0.7083334
vt 0.5625 0.7083334
vt 0.5833333 0.7083334
vt 0.6041667 0.7083334
vt 0.625 0.7083334
vt 0.6458333 0.7083334
vt 0.6666667 0.7083334
vt 0.6875 0.7083334
vt 0.5 0.6875
vt 0.5208333 0.6875
vt 0.5416667 0.6875
vt 0.5625 0.6875
vt 0.5833333 0.6875
vt 0.6041667 0.6875
vt 0.625 0.6875
vt 0.6458333 0.6875
vt 0.6666667 0.6875
vt 0.6875 0.6875
vt 0.125 0.8958333
vt 0.1458333 0.8958333
vt 0.1458333 0.9166667
vt 0.125 0.9166667
vt 0.1666667 0.8958333
vt 0.1666667 0.9166667
vt 0.1875 0.8958333
vt 0.1875 0.9166667
vt 0.5 0.6666666
vt 0.5208333 0.6666666
vt 0.5416667 0.6666666
vt 0.5625 0.6666666
vt 0.5833333 0.6666666
vt 0.6041667 0.6666666
vt 0.625 0.6666666
vt 0.6458333 0.6666666
vt 0.6666667 0.6666666
vt 0.6875 0.6666666
vt 0.125 0.875
vt 0.1458333 0.875
vt 0.1666667 0.875
vt 0.1875 0.875
vt 0.5 0.6458334
vt 0.5208333 0.6458334
vt 0.5416667 0.6458334
vt 0.5625 0.6458334
vt 0.5833333 0.6458334
vt 0.6041667 0.6458334
vt 0.625 0.6458334
vt 0.6458333 0.6458334
vt 0.6666667 0.6458334
vt 0.6875 0.6458334
vt 0.125 0.8541667
vt 0.1458333 0.8541667
vt 0.1666667 0.8541667
vt 0.1875 0.8541667

# Normal
vn 0 0 -1

# Mesh description
g Interior-casa_mesh_0031

# Faces
f 1/1/1 2/2/1 3/3/1 4/4/1
f 5/2/1 6/5/1 7/6/1 8/3/1
f 9/5/1 10/7/1 11/8/1 12/6/1
f 13/7/1 14/9/1 15/10/1 16/8/1
f 17/9/1 18/11/1 19/12/1 20/10/1
f 21/11/1 22/13/1 23/14/1 24/12/1
f 25/13/1 26/15/1 27/16/1 28/14/1
f 29/17/1 30/18/1 31/2/1 32/1/1
f 33/18/1 34/19/1 35/5/1 36/2/1
f 37/19/1 38/20/1 39/7/1 40/5/1
f 41/20/1 42/21/1 43/9/1 44/7/1
f 45/21/1 46/22/1 47/11/1 48/9/1
f 49/22/1 50/23/1 51/13/1 52/11/1
f 53/23/1 54/24/1 55/15/1 56/13/1
f 57/25/1 58/26/1 59/18/1 60/17/1
f 61/26/1 62/27/1 63/19/1 64/18/1
f 65/27/1 66/28/1 67/20/1 68/19/1
f 69/28/1 70/29/1 71/21/1 72/20/1
f 73/29/1 74/30/1 75/22/1 76/21/1
f 77/30/1 78/31/1 79/23/1 80/22/1
f 81/31/1 82/32/1 83/24/1 84/23/1
f 85/33/1 86/34/1 87/26/1 88/25/1
f 89/34/1 90/35/1 91/27/1 92/26/1
f 93/35/1 94/36/1 95/28/1 96/27/1
f 97/36/1 98/37/1 99/29/1 100/28/1
f 101/37/1 102/38/1 103/30/1 104/29/1
f 105/38/1 106/39/1 107/31/1 108/30/1
f 109/39/1 110/40/1 111/32/1 112/31/1
f 113/41/1 114/42/1 115/43/1 116/44/1
f 117/42/1 118/45/1 119/33/1 120/43/1
f 121/45/1 122/46/1 123/34/1 124/33/1
f 125/46/1 126/47/1 127/35/1 128/34/1
f 129/47/1 130/48/1 131/36/1 132/35/1
f 133/48/1 134/49/1 135/37/1 136/36/1
f 137/49/1 138/50/1 139/38/1 140/37/1
f 141/50/1 142/51/1 143/39/1 144/38/1
f 145/51/1 146/52/1 147/40/1 148/39/1
f 149/53/1 150/54/1 151/42/1 152/41/1
f 153/54/1 154/55/1 155/45/1 156/42/1
f 157/55/1 158/56/1 159/46/1 160/45/1
f 161/56/1 162/57/1 163/47/1 164/46/1
f 165/57/1 166/58/1 167/48/1 168/47/1
f 169/58/1 170/59/1 171/49/1 172/48/1
f 173/59/1 174/60/1 175/50/1 176/49/1
f 177/60/1 178/61/1 179/51/1 180/50/1
f 181/61/1 182/62/1 183/52/1 184/51/1
f 185/63/1 186/64/1 187/65/1 188/66/1
f 189/64/1 190/67/1 191/68/1 192/65/1
f 193/67/1 194/69/1 195/70/1 196/68/1
f 197/71/1 198/72/1 199/54/1 200/53/1
f 201/72/1 202/73/1 203/55/1 204/54/1
f 205/73/1 206/74/1 207/56/1 208/55/1
f 209/74/1 210/75/1 211/57/1 212/56/1
f 213/75/1 214/76/1 215/58/1 216/57/1
f 217/76/1 218/77/1 219/59/1 220/58/1
f 221/77/1 222/78/1 223/60/1 224/59/1
f 225/78/1 226/79/1 227/61/1 228/60/1
f 229/79/1 230/80/1 231/62/1 232/61/1
f 233/81/1 234/82/1 235/64/1 236/63/1
f 237/82/1 238/83/1 239/67/1 240/64/1
f 241/83/1 242/84/1 243/69/1 244/67/1
f 245/85/1 246/86/1 247/72/1 248/71/1
f 249/86/1 250/87/1 251/73/1 252/72/1
f 253/87/1 254/88/1 255/74/1 256/73/1
f 257/88/1 258/89/1 259/75/1 260/74/1
f 261/89/1 262/90/1 263/76/1 264/75/1
f 265/90/1 266/91/1 267/77/1 268/76/1
f 269/91/1 270/92/1 271/78/1 272/77/1
f 273/92/1 274/93/1 275/79/1 276/78/1
f 277/93/1 278/94/1 279/80/1 280/79/1
f 281/95/1 282/96/1 283/82/1 284/81/1
f 285/96/1 286/97/1 287/83/1 288/82/1
f 289/97/1 290/98/1 291/84/1 292/83/1

