# Tiled2Unity generated file. Do not modify by hand.
# Wavefront file for 'Interior-casa_mesh_0038.obj'

# Vertices (Count = 356)
v -48 -32 0
v -64 -32 0
v -64 -16 0
v -48 -16 0
v -64 -32 0
v -80 -32 0
v -80 -16 0
v -64 -16 0
v -80 -32 0
v -96 -32 0
v -96 -16 0
v -80 -16 0
v -96 -32 0
v -112 -32 0
v -112 -16 0
v -96 -16 0
v -112 -32 0
v -128 -32 0
v -128 -16 0
v -112 -16 0
v -128 -32 0
v -144 -32 0
v -144 -16 0
v -128 -16 0
v -144 -32 0
v -160 -32 0
v -160 -16 0
v -144 -16 0
v -160 -32 0
v -176 -32 0
v -176 -16 0
v -160 -16 0
v -176 -32 0
v -192 -32 0
v -192 -16 0
v -176 -16 0
v -192 -32 0
v -208 -32 0
v -208 -16 0
v -192 -16 0
v -208 -32 0
v -224 -32 0
v -224 -16 0
v -208 -16 0
v -224 -32 0
v -240 -32 0
v -240 -16 0
v -224 -16 0
v -48 -48 0
v -64 -48 0
v -64 -32 0
v -48 -32 0
v -64 -48 0
v -80 -48 0
v -80 -32 0
v -64 -32 0
v -80 -48 0
v -96 -48 0
v -96 -32 0
v -80 -32 0
v -96 -48 0
v -112 -48 0
v -112 -32 0
v -96 -32 0
v -176 -48 0
v -192 -48 0
v -192 -32 0
v -176 -32 0
v -192 -48 0
v -208 -48 0
v -208 -32 0
v -192 -32 0
v -208 -48 0
v -224 -48 0
v -224 -32 0
v -208 -32 0
v -224 -48 0
v -240 -48 0
v -240 -32 0
v -224 -32 0
v -48 -64 0
v -64 -64 0
v -64 -48 0
v -48 -48 0
v -64 -64 0
v -80 -64 0
v -80 -48 0
v -64 -48 0
v -80 -64 0
v -96 -64 0
v -96 -48 0
v -80 -48 0
v -96 -64 0
v -112 -64 0
v -112 -48 0
v -96 -48 0
v -176 -64 0
v -192 -64 0
v -192 -48 0
v -176 -48 0
v -192 -64 0
v -208 -64 0
v -208 -48 0
v -192 -48 0
v -208 -64 0
v -224 -64 0
v -224 -48 0
v -208 -48 0
v -224 -64 0
v -240 -64 0
v -240 -48 0
v -224 -48 0
v -48 -80 0
v -64 -80 0
v -64 -64 0
v -48 -64 0
v -64 -80 0
v -80 -80 0
v -80 -64 0
v -64 -64 0
v -80 -80 0
v -96 -80 0
v -96 -64 0
v -80 -64 0
v -96 -80 0
v -112 -80 0
v -112 -64 0
v -96 -64 0
v -112 -80 0
v -128 -80 0
v -128 -64 0
v -112 -64 0
v -128 -80 0
v -144 -80 0
v -144 -64 0
v -128 -64 0
v -144 -80 0
v -160 -80 0
v -160 -64 0
v -144 -64 0
v -160 -80 0
v -176 -80 0
v -176 -64 0
v -160 -64 0
v -176 -80 0
v -192 -80 0
v -192 -64 0
v -176 -64 0
v -192 -80 0
v -208 -80 0
v -208 -64 0
v -192 -64 0
v -208 -80 0
v -224 -80 0
v -224 -64 0
v -208 -64 0
v -224 -80 0
v -240 -80 0
v -240 -64 0
v -224 -64 0
v -48 -96 0
v -64 -96 0
v -64 -80 0
v -48 -80 0
v -64 -96 0
v -80 -96 0
v -80 -80 0
v -64 -80 0
v -80 -96 0
v -96 -96 0
v -96 -80 0
v -80 -80 0
v -96 -96 0
v -112 -96 0
v -112 -80 0
v -96 -80 0
v -112 -96 0
v -128 -96 0
v -128 -80 0
v -112 -80 0
v -128 -96 0
v -144 -96 0
v -144 -80 0
v -128 -80 0
v -144 -96 0
v -160 -96 0
v -160 -80 0
v -144 -80 0
v -160 -96 0
v -176 -96 0
v -176 -80 0
v -160 -80 0
v -176 -96 0
v -192 -96 0
v -192 -80 0
v -176 -80 0
v -192 -96 0
v -208 -96 0
v -208 -80 0
v -192 -80 0
v -208 -96 0
v -224 -96 0
v -224 -80 0
v -208 -80 0
v -224 -96 0
v -240 -96 0
v -240 -80 0
v -224 -80 0
v -48 -112 0
v -64 -112 0
v -64 -96 0
v -48 -96 0
v -64 -112 0
v -80 -112 0
v -80 -96 0
v -64 -96 0
v -80 -112 0
v -96 -112 0
v -96 -96 0
v -80 -96 0
v -144 -112 0
v -160 -112 0
v -160 -96 0
v -144 -96 0
v -160 -112 0
v -176 -112 0
v -176 -96 0
v -160 -96 0
v -176 -112 0
v -192 -112 0
v -192 -96 0
v -176 -96 0
v -192 -112 0
v -208 -112 0
v -208 -96 0
v -192 -96 0
v -208 -112 0
v -224 -112 0
v -224 -96 0
v -208 -96 0
v -224 -112 0
v -240 -112 0
v -240 -96 0
v -224 -96 0
v -48 -128 0
v -64 -128 0
v -64 -112 0
v -48 -112 0
v -64 -128 0
v -80 -128 0
v -80 -112 0
v -64 -112 0
v -80 -128 0
v -96 -128 0
v -96 -112 0
v -80 -112 0
v -192 -128 0
v -208 -128 0
v -208 -112 0
v -192 -112 0
v -208 -128 0
v -224 -128 0
v -224 -112 0
v -208 -112 0
v -224 -128 0
v -240 -128 0
v -240 -112 0
v -224 -112 0
v -48 -144 0
v -64 -144 0
v -64 -128 0
v -48 -128 0
v -64 -144 0
v -80 -144 0
v -80 -128 0
v -64 -128 0
v -80 -144 0
v -96 -144 0
v -96 -128 0
v -80 -128 0
v -96 -144 0
v -112 -144 0
v -112 -128 0
v -96 -128 0
v -112 -144 0
v -128 -144 0
v -128 -128 0
v -112 -128 0
v -128 -144 0
v -144 -144 0
v -144 -128 0
v -128 -128 0
v -144 -144 0
v -160 -144 0
v -160 -128 0
v -144 -128 0
v -160 -144 0
v -176 -144 0
v -176 -128 0
v -160 -128 0
v -176 -144 0
v -192 -144 0
v -192 -128 0
v -176 -128 0
v -192 -144 0
v -208 -144 0
v -208 -128 0
v -192 -128 0
v -208 -144 0
v -224 -144 0
v -224 -128 0
v -208 -128 0
v -224 -144 0
v -240 -144 0
v -240 -128 0
v -224 -128 0
v -80 -160 0
v -96 -160 0
v -96 -144 0
v -80 -144 0
v -96 -160 0
v -112 -160 0
v -112 -144 0
v -96 -144 0
v -112 -160 0
v -128 -160 0
v -128 -144 0
v -112 -144 0
v -160 -160 0
v -176 -160 0
v -176 -144 0
v -160 -144 0
v -176 -160 0
v -192 -160 0
v -192 -144 0
v -176 -144 0
v -192 -160 0
v -208 -160 0
v -208 -144 0
v -192 -144 0
v -96 -176 0
v -112 -176 0
v -112 -160 0
v -96 -160 0
v -112 -176 0
v -128 -176 0
v -128 -160 0
v -112 -160 0
v -160 -176 0
v -176 -176 0
v -176 -160 0
v -160 -160 0
v -176 -176 0
v -192 -176 0
v -192 -160 0
v -176 -160 0

# Texture cooridinates (Count = 62)
vt 0.0625 0.28125
vt 0.09375 0.28125
vt 0.09375 0.3125
vt 0.0625 0.3125
vt 0.125 0.28125
vt 0.125 0.3125
vt 0.21875 0.125
vt 0.25 0.125
vt 0.25 0.15625
vt 0.21875 0.15625
vt 0.28125 0.125
vt 0.28125 0.15625
vt 0.3125 0.125
vt 0.3125 0.15625
vt 0.34375 0.125
vt 0.34375 0.15625
vt 0 0.28125
vt 0.03125 0.28125
vt 0.03125 0.3125
vt 0 0.3125
vt 0.0625 0.25
vt 0.09375 0.25
vt 0.125 0.25
vt 0.21875 0.09375
vt 0.25 0.09375
vt 0.28125 0.09375
vt 0.3125 0.09375
vt 0.34375 0.09375
vt 0 0.25
vt 0.03125 0.25
vt 0.0625 0.21875
vt 0.09375 0.21875
vt 0.125 0.21875
vt 0.21875 0.0625
vt 0.25 0.0625
vt 0.28125 0.0625
vt 0.3125 0.0625
vt 0.34375 0.0625
vt 0 0.21875
vt 0.03125 0.21875
vt 0.0625 0.1875
vt 0.09375 0.1875
vt 0.125 0.1875
vt 0 0.1875
vt 0.03125 0.1875
vt 0.21875 0.03125
vt 0.25 0.03125
vt 0.15625 0.25
vt 0.15625 0.28125
vt 0.1875 0.25
vt 0.1875 0.28125
vt 0.28125 0.03125
vt 0.3125 0.03125
vt 0.34375 0.03125
vt 0.21875 0
vt 0.25 0
vt 0.15625 0.21875
vt 0.1875 0.21875
vt 0.3125 0
vt 0.34375 0
vt 0.15625 0.1875
vt 0.1875 0.1875

# Normal
vn 0 0 -1

# Mesh description
g Interior-casa_mesh_0038

# Faces
f 1/1/1 2/2/1 3/3/1 4/4/1
f 5/2/1 6/5/1 7/6/1 8/3/1
f 9/7/1 10/8/1 11/9/1 12/10/1
f 13/8/1 14/11/1 15/12/1 16/9/1
f 17/8/1 18/11/1 19/12/1 20/9/1
f 21/11/1 22/13/1 23/14/1 24/12/1
f 25/8/1 26/11/1 27/12/1 28/9/1
f 29/8/1 30/11/1 31/12/1 32/9/1
f 33/11/1 34/13/1 35/14/1 36/12/1
f 37/13/1 38/15/1 39/16/1 40/14/1
f 41/17/1 42/18/1 43/19/1 44/20/1
f 45/18/1 46/1/1 47/4/1 48/19/1
f 49/21/1 50/22/1 51/2/1 52/1/1
f 53/22/1 54/23/1 55/5/1 56/2/1
f 57/24/1 58/25/1 59/8/1 60/7/1
f 61/25/1 62/26/1 63/11/1 64/8/1
f 65/26/1 66/27/1 67/13/1 68/11/1
f 69/27/1 70/28/1 71/15/1 72/13/1
f 73/29/1 74/30/1 75/18/1 76/17/1
f 77/30/1 78/21/1 79/1/1 80/18/1
f 81/31/1 82/32/1 83/22/1 84/21/1
f 85/32/1 86/33/1 87/23/1 88/22/1
f 89/34/1 90/35/1 91/25/1 92/24/1
f 93/35/1 94/36/1 95/26/1 96/25/1
f 97/36/1 98/37/1 99/27/1 100/26/1
f 101/37/1 102/38/1 103/28/1 104/27/1
f 105/39/1 106/40/1 107/30/1 108/29/1
f 109/40/1 110/31/1 111/21/1 112/30/1
f 113/41/1 114/42/1 115/32/1 116/31/1
f 117/42/1 118/43/1 119/33/1 120/32/1
f 121/24/1 122/25/1 123/8/1 124/7/1
f 125/25/1 126/26/1 127/11/1 128/8/1
f 129/26/1 130/27/1 131/13/1 132/11/1
f 133/25/1 134/26/1 135/11/1 136/8/1
f 137/26/1 138/27/1 139/13/1 140/11/1
f 141/25/1 142/26/1 143/11/1 144/8/1
f 145/26/1 146/27/1 147/13/1 148/11/1
f 149/27/1 150/28/1 151/15/1 152/13/1
f 153/44/1 154/45/1 155/40/1 156/39/1
f 157/45/1 158/41/1 159/31/1 160/40/1
f 161/1/1 162/2/1 163/3/1 164/4/1
f 165/2/1 166/5/1 167/6/1 168/3/1
f 169/34/1 170/35/1 171/25/1 172/24/1
f 173/35/1 174/36/1 175/26/1 176/25/1
f 177/36/1 178/37/1 179/27/1 180/26/1
f 181/35/1 182/36/1 183/26/1 184/25/1
f 185/36/1 186/37/1 187/27/1 188/26/1
f 189/35/1 190/36/1 191/26/1 192/25/1
f 193/36/1 194/37/1 195/27/1 196/26/1
f 197/37/1 198/38/1 199/28/1 200/27/1
f 201/17/1 202/18/1 203/19/1 204/20/1
f 205/18/1 206/1/1 207/4/1 208/19/1
f 209/21/1 210/22/1 211/2/1 212/1/1
f 213/22/1 214/23/1 215/5/1 216/2/1
f 217/24/1 218/25/1 219/8/1 220/7/1
f 221/26/1 222/27/1 223/13/1 224/11/1
f 225/25/1 226/26/1 227/11/1 228/8/1
f 229/26/1 230/27/1 231/13/1 232/11/1
f 233/27/1 234/28/1 235/15/1 236/13/1
f 237/29/1 238/30/1 239/18/1 240/17/1
f 241/30/1 242/21/1 243/1/1 244/18/1
f 245/31/1 246/32/1 247/22/1 248/21/1
f 249/32/1 250/33/1 251/23/1 252/22/1
f 253/34/1 254/35/1 255/25/1 256/24/1
f 257/37/1 258/38/1 259/28/1 260/27/1
f 261/39/1 262/40/1 263/30/1 264/29/1
f 265/40/1 266/31/1 267/21/1 268/30/1
f 269/41/1 270/42/1 271/32/1 272/31/1
f 273/42/1 274/43/1 275/33/1 276/32/1
f 277/46/1 278/47/1 279/35/1 280/34/1
f 281/23/1 282/48/1 283/49/1 284/5/1
f 285/48/1 286/50/1 287/51/1 288/49/1
f 289/47/1 290/52/1 291/36/1 292/35/1
f 293/47/1 294/52/1 295/36/1 296/35/1
f 297/23/1 298/48/1 299/49/1 300/5/1
f 301/48/1 302/50/1 303/51/1 304/49/1
f 305/53/1 306/54/1 307/38/1 308/37/1
f 309/44/1 310/45/1 311/40/1 312/39/1
f 313/45/1 314/41/1 315/31/1 316/40/1
f 317/55/1 318/56/1 319/47/1 320/46/1
f 321/33/1 322/57/1 323/48/1 324/23/1
f 325/57/1 326/58/1 327/50/1 328/48/1
f 329/33/1 330/57/1 331/48/1 332/23/1
f 333/57/1 334/58/1 335/50/1 336/48/1
f 337/59/1 338/60/1 339/54/1 340/53/1
f 341/43/1 342/61/1 343/57/1 344/33/1
f 345/61/1 346/62/1 347/58/1 348/57/1
f 349/43/1 350/61/1 351/57/1 352/33/1
f 353/61/1 354/62/1 355/58/1 356/57/1

