# Tiled2Unity generated file. Do not modify by hand.
# Wavefront file for 'Interior-casa_mesh_0020.obj'

# Vertices (Count = 20)
v -16 -224 0
v -32 -224 0
v -32 -208 0
v -16 -208 0
v -32 -224 0
v -48 -224 0
v -48 -208 0
v -32 -208 0
v -48 -224 0
v -64 -224 0
v -64 -208 0
v -48 -208 0
v -64 -224 0
v -80 -224 0
v -80 -208 0
v -64 -208 0
v -80 -224 0
v -96 -224 0
v -96 -208 0
v -80 -208 0

# Texture cooridinates (Count = 12)
vt 0.3125 0.375
vt 0.3333333 0.375
vt 0.3333333 0.3958333
vt 0.3125 0.3958333
vt 0.3541667 0.375
vt 0.3541667 0.3958333
vt 0.375 0.375
vt 0.375 0.3958333
vt 0.3958333 0.375
vt 0.3958333 0.3958333
vt 0.4166667 0.375
vt 0.4166667 0.3958333

# Normal
vn 0 0 -1

# Mesh description
g Interior-casa_mesh_0020

# Faces
f 1/1/1 2/2/1 3/3/1 4/4/1
f 5/2/1 6/5/1 7/6/1 8/3/1
f 9/5/1 10/7/1 11/8/1 12/6/1
f 13/7/1 14/9/1 15/10/1 16/8/1
f 17/9/1 18/11/1 19/12/1 20/10/1

