# Tiled2Unity generated file. Do not modify by hand.
# Wavefront file for 'Interior-casa_mesh_0040.obj'

# Vertices (Count = 84)
v -208 -16 0
v -224 -16 0
v -224 0 0
v -208 0 0
v -224 -16 0
v -240 -16 0
v -240 0 0
v -224 0 0
v -240 -16 0
v -256 -16 0
v -256 0 0
v -240 0 0
v -208 -32 0
v -224 -32 0
v -224 -16 0
v -208 -16 0
v -224 -32 0
v -240 -32 0
v -240 -16 0
v -224 -16 0
v -240 -32 0
v -256 -32 0
v -256 -16 0
v -240 -16 0
v -208 -48 0
v -224 -48 0
v -224 -32 0
v -208 -32 0
v -224 -48 0
v -240 -48 0
v -240 -32 0
v -224 -32 0
v -240 -48 0
v -256 -48 0
v -256 -32 0
v -240 -32 0
v -208 -64 0
v -224 -64 0
v -224 -48 0
v -208 -48 0
v -224 -64 0
v -240 -64 0
v -240 -48 0
v -224 -48 0
v -240 -64 0
v -256 -64 0
v -256 -48 0
v -240 -48 0
v -176 -208 0
v -192 -208 0
v -192 -192 0
v -176 -192 0
v -192 -208 0
v -208 -208 0
v -208 -192 0
v -192 -192 0
v -208 -208 0
v -224 -208 0
v -224 -192 0
v -208 -192 0
v -176 -224 0
v -192 -224 0
v -192 -208 0
v -176 -208 0
v -192 -224 0
v -208 -224 0
v -208 -208 0
v -192 -208 0
v -208 -224 0
v -224 -224 0
v -224 -208 0
v -208 -208 0
v -176 -240 0
v -192 -240 0
v -192 -224 0
v -176 -224 0
v -192 -240 0
v -208 -240 0
v -208 -224 0
v -192 -224 0
v -208 -240 0
v -224 -240 0
v -224 -224 0
v -208 -224 0

# Texture cooridinates (Count = 36)
vt 0.875 0.9166667
vt 0.8958333 0.9166667
vt 0.8958333 0.9375
vt 0.875 0.9375
vt 0.9166667 0.9166667
vt 0.9166667 0.9375
vt 0.9375 0.9166667
vt 0.9375 0.9375
vt 0.875 0.8958333
vt 0.8958333 0.8958333
vt 0.9166667 0.8958333
vt 0.9375 0.8958333
vt 0.875 0.875
vt 0.8958333 0.875
vt 0.9166667 0.875
vt 0.9375 0.875
vt 0.875 0.8541667
vt 0.8958333 0.8541667
vt 0.9166667 0.8541667
vt 0.9375 0.8541667
vt 0.0625 0.4791667
vt 0.08333334 0.4791667
vt 0.08333334 0.5
vt 0.0625 0.5
vt 0.1041667 0.4791667
vt 0.1041667 0.5
vt 0.125 0.4791667
vt 0.125 0.5
vt 0.0625 0.4583333
vt 0.08333334 0.4583333
vt 0.1041667 0.4583333
vt 0.125 0.4583333
vt 0.0625 0.4375
vt 0.08333334 0.4375
vt 0.1041667 0.4375
vt 0.125 0.4375

# Normal
vn 0 0 -1

# Mesh description
g Interior-casa_mesh_0040

# Faces
f 1/1/1 2/2/1 3/3/1 4/4/1
f 5/2/1 6/5/1 7/6/1 8/3/1
f 9/5/1 10/7/1 11/8/1 12/6/1
f 13/9/1 14/10/1 15/2/1 16/1/1
f 17/10/1 18/11/1 19/5/1 20/2/1
f 21/11/1 22/12/1 23/7/1 24/5/1
f 25/13/1 26/14/1 27/10/1 28/9/1
f 29/14/1 30/15/1 31/11/1 32/10/1
f 33/15/1 34/16/1 35/12/1 36/11/1
f 37/17/1 38/18/1 39/14/1 40/13/1
f 41/18/1 42/19/1 43/15/1 44/14/1
f 45/19/1 46/20/1 47/16/1 48/15/1
f 49/21/1 50/22/1 51/23/1 52/24/1
f 53/22/1 54/25/1 55/26/1 56/23/1
f 57/25/1 58/27/1 59/28/1 60/26/1
f 61/29/1 62/30/1 63/22/1 64/21/1
f 65/30/1 66/31/1 67/25/1 68/22/1
f 69/31/1 70/32/1 71/27/1 72/25/1
f 73/33/1 74/34/1 75/30/1 76/29/1
f 77/34/1 78/35/1 79/31/1 80/30/1
f 81/35/1 82/36/1 83/32/1 84/31/1

