# Tiled2Unity generated file. Do not modify by hand.
# Wavefront file for 'Interior-casa_mesh_0027.obj'

# Vertices (Count = 108)
v -80 -16 0
v -96 -16 0
v -96 0 0
v -80 0 0
v -96 -16 0
v -112 -16 0
v -112 0 0
v -96 0 0
v -112 -16 0
v -128 -16 0
v -128 0 0
v -112 0 0
v -128 -16 0
v -144 -16 0
v -144 0 0
v -128 0 0
v -144 -16 0
v -160 -16 0
v -160 0 0
v -144 0 0
v -160 -16 0
v -176 -16 0
v -176 0 0
v -160 0 0
v -176 -16 0
v -192 -16 0
v -192 0 0
v -176 0 0
v -192 -16 0
v -208 -16 0
v -208 0 0
v -192 0 0
v -208 -16 0
v -224 -16 0
v -224 0 0
v -208 0 0
v -224 -16 0
v -240 -16 0
v -240 0 0
v -224 0 0
v -240 -16 0
v -256 -16 0
v -256 0 0
v -240 0 0
v 0 -32 0
v -16 -32 0
v -16 -16 0
v 0 -16 0
v -16 -32 0
v -32 -32 0
v -32 -16 0
v -16 -16 0
v -32 -32 0
v -48 -32 0
v -48 -16 0
v -32 -16 0
v -48 -32 0
v -64 -32 0
v -64 -16 0
v -48 -16 0
v -64 -32 0
v -80 -32 0
v -80 -16 0
v -64 -16 0
v -80 -32 0
v -96 -32 0
v -96 -16 0
v -80 -16 0
v -96 -32 0
v -112 -32 0
v -112 -16 0
v -96 -16 0
v -112 -32 0
v -128 -32 0
v -128 -16 0
v -112 -16 0
v -128 -32 0
v -144 -32 0
v -144 -16 0
v -128 -16 0
v -144 -32 0
v -160 -32 0
v -160 -16 0
v -144 -16 0
v -160 -32 0
v -176 -32 0
v -176 -16 0
v -160 -16 0
v -176 -32 0
v -192 -32 0
v -192 -16 0
v -176 -16 0
v -192 -32 0
v -208 -32 0
v -208 -16 0
v -192 -16 0
v -208 -32 0
v -224 -32 0
v -224 -16 0
v -208 -16 0
v -224 -32 0
v -240 -32 0
v -240 -16 0
v -224 -16 0
v -240 -32 0
v -256 -32 0
v -256 -16 0
v -240 -16 0

# Texture cooridinates (Count = 24)
vt 0.125 0
vt 0.15625 0
vt 0.15625 0.03125
vt 0.125 0.03125
vt 0.1875 0
vt 0.1875 0.03125
vt 0.21875 0
vt 0.21875 0.03125
vt 0.25 0
vt 0.25 0.03125
vt 0.15625 0.90625
vt 0.1875 0.90625
vt 0.1875 0.9375
vt 0.15625 0.9375
vt 0 0.90625
vt 0.03125 0.90625
vt 0.03125 0.9375
vt 0 0.9375
vt 0.0625 0.90625
vt 0.0625 0.9375
vt 0.09375 0.90625
vt 0.09375 0.9375
vt 0.125 0.90625
vt 0.125 0.9375

# Normal
vn 0 0 -1

# Mesh description
g Interior-casa_mesh_0027

# Faces
f 1/1/1 2/2/1 3/3/1 4/4/1
f 5/2/1 6/5/1 7/6/1 8/3/1
f 9/2/1 10/5/1 11/6/1 12/3/1
f 13/2/1 14/5/1 15/6/1 16/3/1
f 17/5/1 18/7/1 19/8/1 20/6/1
f 21/2/1 22/5/1 23/6/1 24/3/1
f 25/5/1 26/7/1 27/8/1 28/6/1
f 29/2/1 30/5/1 31/6/1 32/3/1
f 33/5/1 34/7/1 35/8/1 36/6/1
f 37/5/1 38/7/1 39/8/1 40/6/1
f 41/7/1 42/9/1 43/10/1 44/8/1
f 45/11/1 46/12/1 47/13/1 48/14/1
f 49/15/1 50/16/1 51/17/1 52/18/1
f 53/16/1 54/19/1 55/20/1 56/17/1
f 57/19/1 58/21/1 59/22/1 60/20/1
f 61/21/1 62/23/1 63/24/1 64/22/1
f 65/23/1 66/11/1 67/14/1 68/24/1
f 69/11/1 70/12/1 71/13/1 72/14/1
f 73/15/1 74/16/1 75/17/1 76/18/1
f 77/16/1 78/19/1 79/20/1 80/17/1
f 81/19/1 82/21/1 83/22/1 84/20/1
f 85/15/1 86/16/1 87/17/1 88/18/1
f 89/16/1 90/19/1 91/20/1 92/17/1
f 93/19/1 94/21/1 95/22/1 96/20/1
f 97/21/1 98/23/1 99/24/1 100/22/1
f 101/23/1 102/11/1 103/14/1 104/24/1
f 105/11/1 106/12/1 107/13/1 108/14/1

