# Tiled2Unity generated file. Do not modify by hand.
# Wavefront file for 'Interior-casa_mesh_0037.obj'

# Vertices (Count = 16)
v -192 -16 0
v -208 -16 0
v -208 0 0
v -192 0 0
v -208 -16 0
v -224 -16 0
v -224 0 0
v -208 0 0
v -192 -32 0
v -208 -32 0
v -208 -16 0
v -192 -16 0
v -208 -32 0
v -224 -32 0
v -224 -16 0
v -208 -16 0

# Texture cooridinates (Count = 9)
vt 0.9375 0.71875
vt 0.96875 0.71875
vt 0.96875 0.75
vt 0.9375 0.75
vt 1 0.71875
vt 1 0.75
vt 0.9375 0.6875
vt 0.96875 0.6875
vt 1 0.6875

# Normal
vn 0 0 -1

# Mesh description
g Interior-casa_mesh_0037

# Faces
f 1/1/1 2/2/1 3/3/1 4/4/1
f 5/2/1 6/5/1 7/6/1 8/3/1
f 9/7/1 10/8/1 11/2/1 12/1/1
f 13/8/1 14/9/1 15/5/1 16/2/1

