# Tiled2Unity generated file. Do not modify by hand.
# Wavefront file for 'Interior-casa_mesh_0003.obj'

# Vertices (Count = 1024)
v 0 -16 0
v -16 -16 0
v -16 0 0
v 0 0 0
v -16 -16 0
v -32 -16 0
v -32 0 0
v -16 0 0
v -32 -16 0
v -48 -16 0
v -48 0 0
v -32 0 0
v -48 -16 0
v -64 -16 0
v -64 0 0
v -48 0 0
v -64 -16 0
v -80 -16 0
v -80 0 0
v -64 0 0
v -80 -16 0
v -96 -16 0
v -96 0 0
v -80 0 0
v -96 -16 0
v -112 -16 0
v -112 0 0
v -96 0 0
v -112 -16 0
v -128 -16 0
v -128 0 0
v -112 0 0
v -128 -16 0
v -144 -16 0
v -144 0 0
v -128 0 0
v -144 -16 0
v -160 -16 0
v -160 0 0
v -144 0 0
v -160 -16 0
v -176 -16 0
v -176 0 0
v -160 0 0
v -176 -16 0
v -192 -16 0
v -192 0 0
v -176 0 0
v -192 -16 0
v -208 -16 0
v -208 0 0
v -192 0 0
v -208 -16 0
v -224 -16 0
v -224 0 0
v -208 0 0
v -224 -16 0
v -240 -16 0
v -240 0 0
v -224 0 0
v -240 -16 0
v -256 -16 0
v -256 0 0
v -240 0 0
v 0 -32 0
v -16 -32 0
v -16 -16 0
v 0 -16 0
v -16 -32 0
v -32 -32 0
v -32 -16 0
v -16 -16 0
v -32 -32 0
v -48 -32 0
v -48 -16 0
v -32 -16 0
v -48 -32 0
v -64 -32 0
v -64 -16 0
v -48 -16 0
v -64 -32 0
v -80 -32 0
v -80 -16 0
v -64 -16 0
v -80 -32 0
v -96 -32 0
v -96 -16 0
v -80 -16 0
v -96 -32 0
v -112 -32 0
v -112 -16 0
v -96 -16 0
v -112 -32 0
v -128 -32 0
v -128 -16 0
v -112 -16 0
v -128 -32 0
v -144 -32 0
v -144 -16 0
v -128 -16 0
v -144 -32 0
v -160 -32 0
v -160 -16 0
v -144 -16 0
v -160 -32 0
v -176 -32 0
v -176 -16 0
v -160 -16 0
v -176 -32 0
v -192 -32 0
v -192 -16 0
v -176 -16 0
v -192 -32 0
v -208 -32 0
v -208 -16 0
v -192 -16 0
v -208 -32 0
v -224 -32 0
v -224 -16 0
v -208 -16 0
v -224 -32 0
v -240 -32 0
v -240 -16 0
v -224 -16 0
v -240 -32 0
v -256 -32 0
v -256 -16 0
v -240 -16 0
v 0 -48 0
v -16 -48 0
v -16 -32 0
v 0 -32 0
v -16 -48 0
v -32 -48 0
v -32 -32 0
v -16 -32 0
v -32 -48 0
v -48 -48 0
v -48 -32 0
v -32 -32 0
v -48 -48 0
v -64 -48 0
v -64 -32 0
v -48 -32 0
v -64 -48 0
v -80 -48 0
v -80 -32 0
v -64 -32 0
v -80 -48 0
v -96 -48 0
v -96 -32 0
v -80 -32 0
v -96 -48 0
v -112 -48 0
v -112 -32 0
v -96 -32 0
v -112 -48 0
v -128 -48 0
v -128 -32 0
v -112 -32 0
v -128 -48 0
v -144 -48 0
v -144 -32 0
v -128 -32 0
v -144 -48 0
v -160 -48 0
v -160 -32 0
v -144 -32 0
v -160 -48 0
v -176 -48 0
v -176 -32 0
v -160 -32 0
v -176 -48 0
v -192 -48 0
v -192 -32 0
v -176 -32 0
v -192 -48 0
v -208 -48 0
v -208 -32 0
v -192 -32 0
v -208 -48 0
v -224 -48 0
v -224 -32 0
v -208 -32 0
v -224 -48 0
v -240 -48 0
v -240 -32 0
v -224 -32 0
v -240 -48 0
v -256 -48 0
v -256 -32 0
v -240 -32 0
v 0 -64 0
v -16 -64 0
v -16 -48 0
v 0 -48 0
v -16 -64 0
v -32 -64 0
v -32 -48 0
v -16 -48 0
v -32 -64 0
v -48 -64 0
v -48 -48 0
v -32 -48 0
v -48 -64 0
v -64 -64 0
v -64 -48 0
v -48 -48 0
v -64 -64 0
v -80 -64 0
v -80 -48 0
v -64 -48 0
v -80 -64 0
v -96 -64 0
v -96 -48 0
v -80 -48 0
v -96 -64 0
v -112 -64 0
v -112 -48 0
v -96 -48 0
v -112 -64 0
v -128 -64 0
v -128 -48 0
v -112 -48 0
v -128 -64 0
v -144 -64 0
v -144 -48 0
v -128 -48 0
v -144 -64 0
v -160 -64 0
v -160 -48 0
v -144 -48 0
v -160 -64 0
v -176 -64 0
v -176 -48 0
v -160 -48 0
v -176 -64 0
v -192 -64 0
v -192 -48 0
v -176 -48 0
v -192 -64 0
v -208 -64 0
v -208 -48 0
v -192 -48 0
v -208 -64 0
v -224 -64 0
v -224 -48 0
v -208 -48 0
v -224 -64 0
v -240 -64 0
v -240 -48 0
v -224 -48 0
v -240 -64 0
v -256 -64 0
v -256 -48 0
v -240 -48 0
v 0 -80 0
v -16 -80 0
v -16 -64 0
v 0 -64 0
v -16 -80 0
v -32 -80 0
v -32 -64 0
v -16 -64 0
v -32 -80 0
v -48 -80 0
v -48 -64 0
v -32 -64 0
v -48 -80 0
v -64 -80 0
v -64 -64 0
v -48 -64 0
v -64 -80 0
v -80 -80 0
v -80 -64 0
v -64 -64 0
v -80 -80 0
v -96 -80 0
v -96 -64 0
v -80 -64 0
v -96 -80 0
v -112 -80 0
v -112 -64 0
v -96 -64 0
v -112 -80 0
v -128 -80 0
v -128 -64 0
v -112 -64 0
v -128 -80 0
v -144 -80 0
v -144 -64 0
v -128 -64 0
v -144 -80 0
v -160 -80 0
v -160 -64 0
v -144 -64 0
v -160 -80 0
v -176 -80 0
v -176 -64 0
v -160 -64 0
v -176 -80 0
v -192 -80 0
v -192 -64 0
v -176 -64 0
v -192 -80 0
v -208 -80 0
v -208 -64 0
v -192 -64 0
v -208 -80 0
v -224 -80 0
v -224 -64 0
v -208 -64 0
v -224 -80 0
v -240 -80 0
v -240 -64 0
v -224 -64 0
v -240 -80 0
v -256 -80 0
v -256 -64 0
v -240 -64 0
v 0 -96 0
v -16 -96 0
v -16 -80 0
v 0 -80 0
v -16 -96 0
v -32 -96 0
v -32 -80 0
v -16 -80 0
v -32 -96 0
v -48 -96 0
v -48 -80 0
v -32 -80 0
v -48 -96 0
v -64 -96 0
v -64 -80 0
v -48 -80 0
v -64 -96 0
v -80 -96 0
v -80 -80 0
v -64 -80 0
v -80 -96 0
v -96 -96 0
v -96 -80 0
v -80 -80 0
v -96 -96 0
v -112 -96 0
v -112 -80 0
v -96 -80 0
v -112 -96 0
v -128 -96 0
v -128 -80 0
v -112 -80 0
v -128 -96 0
v -144 -96 0
v -144 -80 0
v -128 -80 0
v -144 -96 0
v -160 -96 0
v -160 -80 0
v -144 -80 0
v -160 -96 0
v -176 -96 0
v -176 -80 0
v -160 -80 0
v -176 -96 0
v -192 -96 0
v -192 -80 0
v -176 -80 0
v -192 -96 0
v -208 -96 0
v -208 -80 0
v -192 -80 0
v -208 -96 0
v -224 -96 0
v -224 -80 0
v -208 -80 0
v -224 -96 0
v -240 -96 0
v -240 -80 0
v -224 -80 0
v -240 -96 0
v -256 -96 0
v -256 -80 0
v -240 -80 0
v 0 -112 0
v -16 -112 0
v -16 -96 0
v 0 -96 0
v -16 -112 0
v -32 -112 0
v -32 -96 0
v -16 -96 0
v -32 -112 0
v -48 -112 0
v -48 -96 0
v -32 -96 0
v -48 -112 0
v -64 -112 0
v -64 -96 0
v -48 -96 0
v -64 -112 0
v -80 -112 0
v -80 -96 0
v -64 -96 0
v -80 -112 0
v -96 -112 0
v -96 -96 0
v -80 -96 0
v -96 -112 0
v -112 -112 0
v -112 -96 0
v -96 -96 0
v -112 -112 0
v -128 -112 0
v -128 -96 0
v -112 -96 0
v -128 -112 0
v -144 -112 0
v -144 -96 0
v -128 -96 0
v -144 -112 0
v -160 -112 0
v -160 -96 0
v -144 -96 0
v -160 -112 0
v -176 -112 0
v -176 -96 0
v -160 -96 0
v -176 -112 0
v -192 -112 0
v -192 -96 0
v -176 -96 0
v -192 -112 0
v -208 -112 0
v -208 -96 0
v -192 -96 0
v -208 -112 0
v -224 -112 0
v -224 -96 0
v -208 -96 0
v -224 -112 0
v -240 -112 0
v -240 -96 0
v -224 -96 0
v -240 -112 0
v -256 -112 0
v -256 -96 0
v -240 -96 0
v 0 -128 0
v -16 -128 0
v -16 -112 0
v 0 -112 0
v -16 -128 0
v -32 -128 0
v -32 -112 0
v -16 -112 0
v -32 -128 0
v -48 -128 0
v -48 -112 0
v -32 -112 0
v -48 -128 0
v -64 -128 0
v -64 -112 0
v -48 -112 0
v -64 -128 0
v -80 -128 0
v -80 -112 0
v -64 -112 0
v -80 -128 0
v -96 -128 0
v -96 -112 0
v -80 -112 0
v -96 -128 0
v -112 -128 0
v -112 -112 0
v -96 -112 0
v -112 -128 0
v -128 -128 0
v -128 -112 0
v -112 -112 0
v -128 -128 0
v -144 -128 0
v -144 -112 0
v -128 -112 0
v -144 -128 0
v -160 -128 0
v -160 -112 0
v -144 -112 0
v -160 -128 0
v -176 -128 0
v -176 -112 0
v -160 -112 0
v -176 -128 0
v -192 -128 0
v -192 -112 0
v -176 -112 0
v -192 -128 0
v -208 -128 0
v -208 -112 0
v -192 -112 0
v -208 -128 0
v -224 -128 0
v -224 -112 0
v -208 -112 0
v -224 -128 0
v -240 -128 0
v -240 -112 0
v -224 -112 0
v -240 -128 0
v -256 -128 0
v -256 -112 0
v -240 -112 0
v 0 -144 0
v -16 -144 0
v -16 -128 0
v 0 -128 0
v -16 -144 0
v -32 -144 0
v -32 -128 0
v -16 -128 0
v -32 -144 0
v -48 -144 0
v -48 -128 0
v -32 -128 0
v -48 -144 0
v -64 -144 0
v -64 -128 0
v -48 -128 0
v -64 -144 0
v -80 -144 0
v -80 -128 0
v -64 -128 0
v -80 -144 0
v -96 -144 0
v -96 -128 0
v -80 -128 0
v -96 -144 0
v -112 -144 0
v -112 -128 0
v -96 -128 0
v -112 -144 0
v -128 -144 0
v -128 -128 0
v -112 -128 0
v -128 -144 0
v -144 -144 0
v -144 -128 0
v -128 -128 0
v -144 -144 0
v -160 -144 0
v -160 -128 0
v -144 -128 0
v -160 -144 0
v -176 -144 0
v -176 -128 0
v -160 -128 0
v -176 -144 0
v -192 -144 0
v -192 -128 0
v -176 -128 0
v -192 -144 0
v -208 -144 0
v -208 -128 0
v -192 -128 0
v -208 -144 0
v -224 -144 0
v -224 -128 0
v -208 -128 0
v -224 -144 0
v -240 -144 0
v -240 -128 0
v -224 -128 0
v -240 -144 0
v -256 -144 0
v -256 -128 0
v -240 -128 0
v 0 -160 0
v -16 -160 0
v -16 -144 0
v 0 -144 0
v -16 -160 0
v -32 -160 0
v -32 -144 0
v -16 -144 0
v -32 -160 0
v -48 -160 0
v -48 -144 0
v -32 -144 0
v -48 -160 0
v -64 -160 0
v -64 -144 0
v -48 -144 0
v -64 -160 0
v -80 -160 0
v -80 -144 0
v -64 -144 0
v -80 -160 0
v -96 -160 0
v -96 -144 0
v -80 -144 0
v -96 -160 0
v -112 -160 0
v -112 -144 0
v -96 -144 0
v -112 -160 0
v -128 -160 0
v -128 -144 0
v -112 -144 0
v -128 -160 0
v -144 -160 0
v -144 -144 0
v -128 -144 0
v -144 -160 0
v -160 -160 0
v -160 -144 0
v -144 -144 0
v -160 -160 0
v -176 -160 0
v -176 -144 0
v -160 -144 0
v -176 -160 0
v -192 -160 0
v -192 -144 0
v -176 -144 0
v -192 -160 0
v -208 -160 0
v -208 -144 0
v -192 -144 0
v -208 -160 0
v -224 -160 0
v -224 -144 0
v -208 -144 0
v -224 -160 0
v -240 -160 0
v -240 -144 0
v -224 -144 0
v -240 -160 0
v -256 -160 0
v -256 -144 0
v -240 -144 0
v 0 -176 0
v -16 -176 0
v -16 -160 0
v 0 -160 0
v -16 -176 0
v -32 -176 0
v -32 -160 0
v -16 -160 0
v -32 -176 0
v -48 -176 0
v -48 -160 0
v -32 -160 0
v -48 -176 0
v -64 -176 0
v -64 -160 0
v -48 -160 0
v -64 -176 0
v -80 -176 0
v -80 -160 0
v -64 -160 0
v -80 -176 0
v -96 -176 0
v -96 -160 0
v -80 -160 0
v -96 -176 0
v -112 -176 0
v -112 -160 0
v -96 -160 0
v -112 -176 0
v -128 -176 0
v -128 -160 0
v -112 -160 0
v -128 -176 0
v -144 -176 0
v -144 -160 0
v -128 -160 0
v -144 -176 0
v -160 -176 0
v -160 -160 0
v -144 -160 0
v -160 -176 0
v -176 -176 0
v -176 -160 0
v -160 -160 0
v -176 -176 0
v -192 -176 0
v -192 -160 0
v -176 -160 0
v -192 -176 0
v -208 -176 0
v -208 -160 0
v -192 -160 0
v -208 -176 0
v -224 -176 0
v -224 -160 0
v -208 -160 0
v -224 -176 0
v -240 -176 0
v -240 -160 0
v -224 -160 0
v -240 -176 0
v -256 -176 0
v -256 -160 0
v -240 -160 0
v 0 -192 0
v -16 -192 0
v -16 -176 0
v 0 -176 0
v -16 -192 0
v -32 -192 0
v -32 -176 0
v -16 -176 0
v -32 -192 0
v -48 -192 0
v -48 -176 0
v -32 -176 0
v -48 -192 0
v -64 -192 0
v -64 -176 0
v -48 -176 0
v -64 -192 0
v -80 -192 0
v -80 -176 0
v -64 -176 0
v -80 -192 0
v -96 -192 0
v -96 -176 0
v -80 -176 0
v -96 -192 0
v -112 -192 0
v -112 -176 0
v -96 -176 0
v -112 -192 0
v -128 -192 0
v -128 -176 0
v -112 -176 0
v -128 -192 0
v -144 -192 0
v -144 -176 0
v -128 -176 0
v -144 -192 0
v -160 -192 0
v -160 -176 0
v -144 -176 0
v -160 -192 0
v -176 -192 0
v -176 -176 0
v -160 -176 0
v -176 -192 0
v -192 -192 0
v -192 -176 0
v -176 -176 0
v -192 -192 0
v -208 -192 0
v -208 -176 0
v -192 -176 0
v -208 -192 0
v -224 -192 0
v -224 -176 0
v -208 -176 0
v -224 -192 0
v -240 -192 0
v -240 -176 0
v -224 -176 0
v -240 -192 0
v -256 -192 0
v -256 -176 0
v -240 -176 0
v 0 -208 0
v -16 -208 0
v -16 -192 0
v 0 -192 0
v -16 -208 0
v -32 -208 0
v -32 -192 0
v -16 -192 0
v -32 -208 0
v -48 -208 0
v -48 -192 0
v -32 -192 0
v -48 -208 0
v -64 -208 0
v -64 -192 0
v -48 -192 0
v -64 -208 0
v -80 -208 0
v -80 -192 0
v -64 -192 0
v -80 -208 0
v -96 -208 0
v -96 -192 0
v -80 -192 0
v -96 -208 0
v -112 -208 0
v -112 -192 0
v -96 -192 0
v -112 -208 0
v -128 -208 0
v -128 -192 0
v -112 -192 0
v -128 -208 0
v -144 -208 0
v -144 -192 0
v -128 -192 0
v -144 -208 0
v -160 -208 0
v -160 -192 0
v -144 -192 0
v -160 -208 0
v -176 -208 0
v -176 -192 0
v -160 -192 0
v -176 -208 0
v -192 -208 0
v -192 -192 0
v -176 -192 0
v -192 -208 0
v -208 -208 0
v -208 -192 0
v -192 -192 0
v -208 -208 0
v -224 -208 0
v -224 -192 0
v -208 -192 0
v -224 -208 0
v -240 -208 0
v -240 -192 0
v -224 -192 0
v -240 -208 0
v -256 -208 0
v -256 -192 0
v -240 -192 0
v 0 -224 0
v -16 -224 0
v -16 -208 0
v 0 -208 0
v -16 -224 0
v -32 -224 0
v -32 -208 0
v -16 -208 0
v -32 -224 0
v -48 -224 0
v -48 -208 0
v -32 -208 0
v -48 -224 0
v -64 -224 0
v -64 -208 0
v -48 -208 0
v -64 -224 0
v -80 -224 0
v -80 -208 0
v -64 -208 0
v -80 -224 0
v -96 -224 0
v -96 -208 0
v -80 -208 0
v -96 -224 0
v -112 -224 0
v -112 -208 0
v -96 -208 0
v -112 -224 0
v -128 -224 0
v -128 -208 0
v -112 -208 0
v -128 -224 0
v -144 -224 0
v -144 -208 0
v -128 -208 0
v -144 -224 0
v -160 -224 0
v -160 -208 0
v -144 -208 0
v -160 -224 0
v -176 -224 0
v -176 -208 0
v -160 -208 0
v -176 -224 0
v -192 -224 0
v -192 -208 0
v -176 -208 0
v -192 -224 0
v -208 -224 0
v -208 -208 0
v -192 -208 0
v -208 -224 0
v -224 -224 0
v -224 -208 0
v -208 -208 0
v -224 -224 0
v -240 -224 0
v -240 -208 0
v -224 -208 0
v -240 -224 0
v -256 -224 0
v -256 -208 0
v -240 -208 0
v 0 -240 0
v -16 -240 0
v -16 -224 0
v 0 -224 0
v -16 -240 0
v -32 -240 0
v -32 -224 0
v -16 -224 0
v -32 -240 0
v -48 -240 0
v -48 -224 0
v -32 -224 0
v -48 -240 0
v -64 -240 0
v -64 -224 0
v -48 -224 0
v -64 -240 0
v -80 -240 0
v -80 -224 0
v -64 -224 0
v -80 -240 0
v -96 -240 0
v -96 -224 0
v -80 -224 0
v -96 -240 0
v -112 -240 0
v -112 -224 0
v -96 -224 0
v -112 -240 0
v -128 -240 0
v -128 -224 0
v -112 -224 0
v -128 -240 0
v -144 -240 0
v -144 -224 0
v -128 -224 0
v -144 -240 0
v -160 -240 0
v -160 -224 0
v -144 -224 0
v -160 -240 0
v -176 -240 0
v -176 -224 0
v -160 -224 0
v -176 -240 0
v -192 -240 0
v -192 -224 0
v -176 -224 0
v -192 -240 0
v -208 -240 0
v -208 -224 0
v -192 -224 0
v -208 -240 0
v -224 -240 0
v -224 -224 0
v -208 -224 0
v -224 -240 0
v -240 -240 0
v -240 -224 0
v -224 -224 0
v -240 -240 0
v -256 -240 0
v -256 -224 0
v -240 -224 0
v 0 -256 0
v -16 -256 0
v -16 -240 0
v 0 -240 0
v -16 -256 0
v -32 -256 0
v -32 -240 0
v -16 -240 0
v -32 -256 0
v -48 -256 0
v -48 -240 0
v -32 -240 0
v -48 -256 0
v -64 -256 0
v -64 -240 0
v -48 -240 0
v -64 -256 0
v -80 -256 0
v -80 -240 0
v -64 -240 0
v -80 -256 0
v -96 -256 0
v -96 -240 0
v -80 -240 0
v -96 -256 0
v -112 -256 0
v -112 -240 0
v -96 -240 0
v -112 -256 0
v -128 -256 0
v -128 -240 0
v -112 -240 0
v -128 -256 0
v -144 -256 0
v -144 -240 0
v -128 -240 0
v -144 -256 0
v -160 -256 0
v -160 -240 0
v -144 -240 0
v -160 -256 0
v -176 -256 0
v -176 -240 0
v -160 -240 0
v -176 -256 0
v -192 -256 0
v -192 -240 0
v -176 -240 0
v -192 -256 0
v -208 -256 0
v -208 -240 0
v -192 -240 0
v -208 -256 0
v -224 -256 0
v -224 -240 0
v -208 -240 0
v -224 -256 0
v -240 -256 0
v -240 -240 0
v -224 -240 0
v -240 -256 0
v -256 -256 0
v -256 -240 0
v -240 -240 0

# Texture cooridinates (Count = 70)
vt 0.08333334 0.9722222
vt 0.1041667 0.9722222
vt 0.1041667 1
vt 0.08333334 1
vt 0 0.9722222
vt 0.02083333 0.9722222
vt 0.02083333 1
vt 0 1
vt 0.04166667 0.9722222
vt 0.04166667 1
vt 0.0625 0.9722222
vt 0.0625 1
vt 0.125 0.9722222
vt 0.125 1
vt 0.08333334 0.9444444
vt 0.1041667 0.9444444
vt 0 0.9444444
vt 0.02083333 0.9444444
vt 0.04166667 0.9444444
vt 0.0625 0.9444444
vt 0.125 0.9444444
vt 0.08333334 0.9166667
vt 0.1041667 0.9166667
vt 0 0.9166667
vt 0.02083333 0.9166667
vt 0.04166667 0.9166667
vt 0.0625 0.9166667
vt 0.125 0.9166667
vt 0.08333334 0.8888889
vt 0.1041667 0.8888889
vt 0 0.8888889
vt 0.02083333 0.8888889
vt 0.04166667 0.8888889
vt 0.0625 0.8888889
vt 0.125 0.8888889
vt 0.08333334 0.8611111
vt 0.1041667 0.8611111
vt 0 0.8611111
vt 0.02083333 0.8611111
vt 0.04166667 0.8611111
vt 0.0625 0.8611111
vt 0.125 0.8611111
vt 0.08333334 0.8333333
vt 0.1041667 0.8333333
vt 0 0.8333333
vt 0.02083333 0.8333333
vt 0.04166667 0.8333333
vt 0.0625 0.8333333
vt 0.125 0.8333333
vt 0.08333334 0.8055556
vt 0.1041667 0.8055556
vt 0 0.8055556
vt 0.02083333 0.8055556
vt 0.04166667 0.8055556
vt 0.0625 0.8055556
vt 0.125 0.8055556
vt 0.08333334 0.7777778
vt 0.1041667 0.7777778
vt 0 0.7777778
vt 0.02083333 0.7777778
vt 0.04166667 0.7777778
vt 0.0625 0.7777778
vt 0.125 0.7777778
vt 0.08333334 0.75
vt 0.1041667 0.75
vt 0 0.75
vt 0.02083333 0.75
vt 0.04166667 0.75
vt 0.0625 0.75
vt 0.125 0.75

# Normal
vn 0 0 -1

# Mesh description
g Interior-casa_mesh_0003

# Faces
f 1/1/1 2/2/1 3/3/1 4/4/1
f 5/5/1 6/6/1 7/7/1 8/8/1
f 9/6/1 10/9/1 11/10/1 12/7/1
f 13/9/1 14/11/1 15/12/1 16/10/1
f 17/11/1 18/1/1 19/4/1 20/12/1
f 21/1/1 22/2/1 23/3/1 24/4/1
f 25/2/1 26/13/1 27/14/1 28/3/1
f 29/5/1 30/6/1 31/7/1 32/8/1
f 33/6/1 34/9/1 35/10/1 36/7/1
f 37/9/1 38/11/1 39/12/1 40/10/1
f 41/5/1 42/6/1 43/7/1 44/8/1
f 45/6/1 46/9/1 47/10/1 48/7/1
f 49/9/1 50/11/1 51/12/1 52/10/1
f 53/11/1 54/1/1 55/4/1 56/12/1
f 57/1/1 58/2/1 59/3/1 60/4/1
f 61/2/1 62/13/1 63/14/1 64/3/1
f 65/15/1 66/16/1 67/2/1 68/1/1
f 69/17/1 70/18/1 71/6/1 72/5/1
f 73/18/1 74/19/1 75/9/1 76/6/1
f 77/19/1 78/20/1 79/11/1 80/9/1
f 81/20/1 82/15/1 83/1/1 84/11/1
f 85/15/1 86/16/1 87/2/1 88/1/1
f 89/16/1 90/21/1 91/13/1 92/2/1
f 93/17/1 94/18/1 95/6/1 96/5/1
f 97/18/1 98/19/1 99/9/1 100/6/1
f 101/19/1 102/20/1 103/11/1 104/9/1
f 105/17/1 106/18/1 107/6/1 108/5/1
f 109/18/1 110/19/1 111/9/1 112/6/1
f 113/19/1 114/20/1 115/11/1 116/9/1
f 117/20/1 118/15/1 119/1/1 120/11/1
f 121/15/1 122/16/1 123/2/1 124/1/1
f 125/16/1 126/21/1 127/13/1 128/2/1
f 129/22/1 130/23/1 131/16/1 132/15/1
f 133/24/1 134/25/1 135/18/1 136/17/1
f 137/25/1 138/26/1 139/19/1 140/18/1
f 141/26/1 142/27/1 143/20/1 144/19/1
f 145/27/1 146/22/1 147/15/1 148/20/1
f 149/22/1 150/23/1 151/16/1 152/15/1
f 153/23/1 154/28/1 155/21/1 156/16/1
f 157/24/1 158/25/1 159/18/1 160/17/1
f 161/25/1 162/26/1 163/19/1 164/18/1
f 165/26/1 166/27/1 167/20/1 168/19/1
f 169/24/1 170/25/1 171/18/1 172/17/1
f 173/25/1 174/26/1 175/19/1 176/18/1
f 177/26/1 178/27/1 179/20/1 180/19/1
f 181/27/1 182/22/1 183/15/1 184/20/1
f 185/22/1 186/23/1 187/16/1 188/15/1
f 189/23/1 190/28/1 191/21/1 192/16/1
f 193/29/1 194/30/1 195/23/1 196/22/1
f 197/31/1 198/32/1 199/25/1 200/24/1
f 201/32/1 202/33/1 203/26/1 204/25/1
f 205/33/1 206/34/1 207/27/1 208/26/1
f 209/34/1 210/29/1 211/22/1 212/27/1
f 213/29/1 214/30/1 215/23/1 216/22/1
f 217/30/1 218/35/1 219/28/1 220/23/1
f 221/31/1 222/32/1 223/25/1 224/24/1
f 225/32/1 226/33/1 227/26/1 228/25/1
f 229/33/1 230/34/1 231/27/1 232/26/1
f 233/31/1 234/32/1 235/25/1 236/24/1
f 237/32/1 238/33/1 239/26/1 240/25/1
f 241/33/1 242/34/1 243/27/1 244/26/1
f 245/34/1 246/29/1 247/22/1 248/27/1
f 249/29/1 250/30/1 251/23/1 252/22/1
f 253/30/1 254/35/1 255/28/1 256/23/1
f 257/36/1 258/37/1 259/30/1 260/29/1
f 261/38/1 262/39/1 263/32/1 264/31/1
f 265/39/1 266/40/1 267/33/1 268/32/1
f 269/40/1 270/41/1 271/34/1 272/33/1
f 273/41/1 274/36/1 275/29/1 276/34/1
f 277/36/1 278/37/1 279/30/1 280/29/1
f 281/37/1 282/42/1 283/35/1 284/30/1
f 285/38/1 286/39/1 287/32/1 288/31/1
f 289/39/1 290/40/1 291/33/1 292/32/1
f 293/40/1 294/41/1 295/34/1 296/33/1
f 297/38/1 298/39/1 299/32/1 300/31/1
f 301/39/1 302/40/1 303/33/1 304/32/1
f 305/40/1 306/41/1 307/34/1 308/33/1
f 309/41/1 310/36/1 311/29/1 312/34/1
f 313/36/1 314/37/1 315/30/1 316/29/1
f 317/37/1 318/42/1 319/35/1 320/30/1
f 321/43/1 322/44/1 323/37/1 324/36/1
f 325/45/1 326/46/1 327/39/1 328/38/1
f 329/46/1 330/47/1 331/40/1 332/39/1
f 333/47/1 334/48/1 335/41/1 336/40/1
f 337/48/1 338/43/1 339/36/1 340/41/1
f 341/43/1 342/44/1 343/37/1 344/36/1
f 345/44/1 346/49/1 347/42/1 348/37/1
f 349/45/1 350/46/1 351/39/1 352/38/1
f 353/46/1 354/47/1 355/40/1 356/39/1
f 357/47/1 358/48/1 359/41/1 360/40/1
f 361/45/1 362/46/1 363/39/1 364/38/1
f 365/46/1 366/47/1 367/40/1 368/39/1
f 369/47/1 370/48/1 371/41/1 372/40/1
f 373/48/1 374/43/1 375/36/1 376/41/1
f 377/43/1 378/44/1 379/37/1 380/36/1
f 381/44/1 382/49/1 383/42/1 384/37/1
f 385/50/1 386/51/1 387/44/1 388/43/1
f 389/52/1 390/53/1 391/46/1 392/45/1
f 393/53/1 394/54/1 395/47/1 396/46/1
f 397/54/1 398/55/1 399/48/1 400/47/1
f 401/55/1 402/50/1 403/43/1 404/48/1
f 405/50/1 406/51/1 407/44/1 408/43/1
f 409/51/1 410/56/1 411/49/1 412/44/1
f 413/52/1 414/53/1 415/46/1 416/45/1
f 417/53/1 418/54/1 419/47/1 420/46/1
f 421/54/1 422/55/1 423/48/1 424/47/1
f 425/52/1 426/53/1 427/46/1 428/45/1
f 429/53/1 430/54/1 431/47/1 432/46/1
f 433/54/1 434/55/1 435/48/1 436/47/1
f 437/55/1 438/50/1 439/43/1 440/48/1
f 441/50/1 442/51/1 443/44/1 444/43/1
f 445/51/1 446/56/1 447/49/1 448/44/1
f 449/57/1 450/58/1 451/51/1 452/50/1
f 453/59/1 454/60/1 455/53/1 456/52/1
f 457/60/1 458/61/1 459/54/1 460/53/1
f 461/61/1 462/62/1 463/55/1 464/54/1
f 465/62/1 466/57/1 467/50/1 468/55/1
f 469/57/1 470/58/1 471/51/1 472/50/1
f 473/58/1 474/63/1 475/56/1 476/51/1
f 477/59/1 478/60/1 479/53/1 480/52/1
f 481/60/1 482/61/1 483/54/1 484/53/1
f 485/61/1 486/62/1 487/55/1 488/54/1
f 489/59/1 490/60/1 491/53/1 492/52/1
f 493/60/1 494/61/1 495/54/1 496/53/1
f 497/61/1 498/62/1 499/55/1 500/54/1
f 501/62/1 502/57/1 503/50/1 504/55/1
f 505/57/1 506/58/1 507/51/1 508/50/1
f 509/58/1 510/63/1 511/56/1 512/51/1
f 513/64/1 514/65/1 515/58/1 516/57/1
f 517/66/1 518/67/1 519/60/1 520/59/1
f 521/67/1 522/68/1 523/61/1 524/60/1
f 525/68/1 526/69/1 527/62/1 528/61/1
f 529/69/1 530/64/1 531/57/1 532/62/1
f 533/64/1 534/65/1 535/58/1 536/57/1
f 537/65/1 538/70/1 539/63/1 540/58/1
f 541/66/1 542/67/1 543/60/1 544/59/1
f 545/67/1 546/68/1 547/61/1 548/60/1
f 549/68/1 550/69/1 551/62/1 552/61/1
f 553/66/1 554/67/1 555/60/1 556/59/1
f 557/67/1 558/68/1 559/61/1 560/60/1
f 561/68/1 562/69/1 563/62/1 564/61/1
f 565/69/1 566/64/1 567/57/1 568/62/1
f 569/64/1 570/65/1 571/58/1 572/57/1
f 573/65/1 574/70/1 575/63/1 576/58/1
f 577/9/1 578/11/1 579/12/1 580/10/1
f 581/11/1 582/1/1 583/4/1 584/12/1
f 585/1/1 586/2/1 587/3/1 588/4/1
f 589/2/1 590/13/1 591/14/1 592/3/1
f 593/5/1 594/6/1 595/7/1 596/8/1
f 597/6/1 598/9/1 599/10/1 600/7/1
f 601/9/1 602/11/1 603/12/1 604/10/1
f 605/11/1 606/1/1 607/4/1 608/12/1
f 609/1/1 610/2/1 611/3/1 612/4/1
f 613/2/1 614/13/1 615/14/1 616/3/1
f 617/5/1 618/6/1 619/7/1 620/8/1
f 621/6/1 622/9/1 623/10/1 624/7/1
f 625/9/1 626/11/1 627/12/1 628/10/1
f 629/11/1 630/1/1 631/4/1 632/12/1
f 633/1/1 634/2/1 635/3/1 636/4/1
f 637/2/1 638/13/1 639/14/1 640/3/1
f 641/19/1 642/20/1 643/11/1 644/9/1
f 645/20/1 646/15/1 647/1/1 648/11/1
f 649/15/1 650/16/1 651/2/1 652/1/1
f 653/16/1 654/21/1 655/13/1 656/2/1
f 657/17/1 658/18/1 659/6/1 660/5/1
f 661/18/1 662/19/1 663/9/1 664/6/1
f 665/19/1 666/20/1 667/11/1 668/9/1
f 669/20/1 670/15/1 671/1/1 672/11/1
f 673/15/1 674/16/1 675/2/1 676/1/1
f 677/16/1 678/21/1 679/13/1 680/2/1
f 681/17/1 682/18/1 683/6/1 684/5/1
f 685/18/1 686/19/1 687/9/1 688/6/1
f 689/19/1 690/20/1 691/11/1 692/9/1
f 693/20/1 694/15/1 695/1/1 696/11/1
f 697/15/1 698/16/1 699/2/1 700/1/1
f 701/16/1 702/21/1 703/13/1 704/2/1
f 705/26/1 706/27/1 707/20/1 708/19/1
f 709/27/1 710/22/1 711/15/1 712/20/1
f 713/22/1 714/23/1 715/16/1 716/15/1
f 717/23/1 718/28/1 719/21/1 720/16/1
f 721/24/1 722/25/1 723/18/1 724/17/1
f 725/25/1 726/26/1 727/19/1 728/18/1
f 729/26/1 730/27/1 731/20/1 732/19/1
f 733/27/1 734/22/1 735/15/1 736/20/1
f 737/22/1 738/23/1 739/16/1 740/15/1
f 741/23/1 742/28/1 743/21/1 744/16/1
f 745/24/1 746/25/1 747/18/1 748/17/1
f 749/25/1 750/26/1 751/19/1 752/18/1
f 753/26/1 754/27/1 755/20/1 756/19/1
f 757/27/1 758/22/1 759/15/1 760/20/1
f 761/22/1 762/23/1 763/16/1 764/15/1
f 765/23/1 766/28/1 767/21/1 768/16/1
f 769/33/1 770/34/1 771/27/1 772/26/1
f 773/34/1 774/29/1 775/22/1 776/27/1
f 777/29/1 778/30/1 779/23/1 780/22/1
f 781/30/1 782/35/1 783/28/1 784/23/1
f 785/31/1 786/32/1 787/25/1 788/24/1
f 789/32/1 790/33/1 791/26/1 792/25/1
f 793/33/1 794/34/1 795/27/1 796/26/1
f 797/34/1 798/29/1 799/22/1 800/27/1
f 801/29/1 802/30/1 803/23/1 804/22/1
f 805/30/1 806/35/1 807/28/1 808/23/1
f 809/31/1 810/32/1 811/25/1 812/24/1
f 813/32/1 814/33/1 815/26/1 816/25/1
f 817/33/1 818/34/1 819/27/1 820/26/1
f 821/34/1 822/29/1 823/22/1 824/27/1
f 825/29/1 826/30/1 827/23/1 828/22/1
f 829/30/1 830/35/1 831/28/1 832/23/1
f 833/40/1 834/41/1 835/34/1 836/33/1
f 837/41/1 838/36/1 839/29/1 840/34/1
f 841/36/1 842/37/1 843/30/1 844/29/1
f 845/37/1 846/42/1 847/35/1 848/30/1
f 849/38/1 850/39/1 851/32/1 852/31/1
f 853/39/1 854/40/1 855/33/1 856/32/1
f 857/40/1 858/41/1 859/34/1 860/33/1
f 861/41/1 862/36/1 863/29/1 864/34/1
f 865/36/1 866/37/1 867/30/1 868/29/1
f 869/37/1 870/42/1 871/35/1 872/30/1
f 873/38/1 874/39/1 875/32/1 876/31/1
f 877/39/1 878/40/1 879/33/1 880/32/1
f 881/40/1 882/41/1 883/34/1 884/33/1
f 885/41/1 886/36/1 887/29/1 888/34/1
f 889/36/1 890/37/1 891/30/1 892/29/1
f 893/37/1 894/42/1 895/35/1 896/30/1
f 897/47/1 898/48/1 899/41/1 900/40/1
f 901/48/1 902/43/1 903/36/1 904/41/1
f 905/43/1 906/44/1 907/37/1 908/36/1
f 909/44/1 910/49/1 911/42/1 912/37/1
f 913/45/1 914/46/1 915/39/1 916/38/1
f 917/46/1 918/47/1 919/40/1 920/39/1
f 921/47/1 922/48/1 923/41/1 924/40/1
f 925/48/1 926/43/1 927/36/1 928/41/1
f 929/43/1 930/44/1 931/37/1 932/36/1
f 933/44/1 934/49/1 935/42/1 936/37/1
f 937/45/1 938/46/1 939/39/1 940/38/1
f 941/46/1 942/47/1 943/40/1 944/39/1
f 945/47/1 946/48/1 947/41/1 948/40/1
f 949/48/1 950/43/1 951/36/1 952/41/1
f 953/43/1 954/44/1 955/37/1 956/36/1
f 957/44/1 958/49/1 959/42/1 960/37/1
f 961/54/1 962/55/1 963/48/1 964/47/1
f 965/55/1 966/50/1 967/43/1 968/48/1
f 969/50/1 970/51/1 971/44/1 972/43/1
f 973/51/1 974/56/1 975/49/1 976/44/1
f 977/52/1 978/53/1 979/46/1 980/45/1
f 981/53/1 982/54/1 983/47/1 984/46/1
f 985/54/1 986/55/1 987/48/1 988/47/1
f 989/55/1 990/50/1 991/43/1 992/48/1
f 993/50/1 994/51/1 995/44/1 996/43/1
f 997/51/1 998/56/1 999/49/1 1000/44/1
f 1001/52/1 1002/53/1 1003/46/1 1004/45/1
f 1005/53/1 1006/54/1 1007/47/1 1008/46/1
f 1009/54/1 1010/55/1 1011/48/1 1012/47/1
f 1013/55/1 1014/50/1 1015/43/1 1016/48/1
f 1017/50/1 1018/51/1 1019/44/1 1020/43/1
f 1021/51/1 1022/56/1 1023/49/1 1024/44/1

