# Tiled2Unity generated file. Do not modify by hand.
# Wavefront file for 'Interior-casa_mesh_0041.obj'

# Vertices (Count = 32)
v -208 -80 0
v -224 -80 0
v -224 -64 0
v -208 -64 0
v -224 -80 0
v -240 -80 0
v -240 -64 0
v -224 -64 0
v -208 -96 0
v -224 -96 0
v -224 -80 0
v -208 -80 0
v -176 -112 0
v -192 -112 0
v -192 -96 0
v -176 -96 0
v -144 -144 0
v -160 -144 0
v -160 -128 0
v -144 -128 0
v -112 -176 0
v -128 -176 0
v -128 -160 0
v -112 -160 0
v -128 -176 0
v -144 -176 0
v -144 -160 0
v -128 -160 0
v -112 -192 0
v -128 -192 0
v -128 -176 0
v -112 -176 0

# Texture cooridinates (Count = 8)
vt 0.15625 0.15625
vt 0.1875 0.15625
vt 0.1875 0.1875
vt 0.15625 0.1875
vt 0.15625 0.125
vt 0.1875 0.125
vt 0.21875 0.15625
vt 0.21875 0.1875

# Normal
vn 0 0 -1

# Mesh description
g Interior-casa_mesh_0041

# Faces
f 1/1/1 2/2/1 3/3/1 4/4/1
f 5/5/1 6/6/1 7/2/1 8/1/1
f 9/2/1 10/7/1 11/8/1 12/3/1
f 13/1/1 14/2/1 15/3/1 16/4/1
f 17/1/1 18/2/1 19/3/1 20/4/1
f 21/1/1 22/2/1 23/3/1 24/4/1
f 25/2/1 26/7/1 27/8/1 28/3/1
f 29/5/1 30/6/1 31/2/1 32/1/1

