# Tiled2Unity generated file. Do not modify by hand.
# Wavefront file for 'Interior-casa_mesh_0006.obj'

# Vertices (Count = 1024)
v 0 -16 0
v -16 -16 0
v -16 0 0
v 0 0 0
v -16 -16 0
v -32 -16 0
v -32 0 0
v -16 0 0
v -32 -16 0
v -48 -16 0
v -48 0 0
v -32 0 0
v -48 -16 0
v -64 -16 0
v -64 0 0
v -48 0 0
v -64 -16 0
v -80 -16 0
v -80 0 0
v -64 0 0
v -80 -16 0
v -96 -16 0
v -96 0 0
v -80 0 0
v -96 -16 0
v -112 -16 0
v -112 0 0
v -96 0 0
v -112 -16 0
v -128 -16 0
v -128 0 0
v -112 0 0
v -128 -16 0
v -144 -16 0
v -144 0 0
v -128 0 0
v -144 -16 0
v -160 -16 0
v -160 0 0
v -144 0 0
v -160 -16 0
v -176 -16 0
v -176 0 0
v -160 0 0
v -176 -16 0
v -192 -16 0
v -192 0 0
v -176 0 0
v -192 -16 0
v -208 -16 0
v -208 0 0
v -192 0 0
v -208 -16 0
v -224 -16 0
v -224 0 0
v -208 0 0
v -224 -16 0
v -240 -16 0
v -240 0 0
v -224 0 0
v -240 -16 0
v -256 -16 0
v -256 0 0
v -240 0 0
v 0 -32 0
v -16 -32 0
v -16 -16 0
v 0 -16 0
v -16 -32 0
v -32 -32 0
v -32 -16 0
v -16 -16 0
v -32 -32 0
v -48 -32 0
v -48 -16 0
v -32 -16 0
v -48 -32 0
v -64 -32 0
v -64 -16 0
v -48 -16 0
v -64 -32 0
v -80 -32 0
v -80 -16 0
v -64 -16 0
v -80 -32 0
v -96 -32 0
v -96 -16 0
v -80 -16 0
v -96 -32 0
v -112 -32 0
v -112 -16 0
v -96 -16 0
v -112 -32 0
v -128 -32 0
v -128 -16 0
v -112 -16 0
v -128 -32 0
v -144 -32 0
v -144 -16 0
v -128 -16 0
v -144 -32 0
v -160 -32 0
v -160 -16 0
v -144 -16 0
v -160 -32 0
v -176 -32 0
v -176 -16 0
v -160 -16 0
v -176 -32 0
v -192 -32 0
v -192 -16 0
v -176 -16 0
v -192 -32 0
v -208 -32 0
v -208 -16 0
v -192 -16 0
v -208 -32 0
v -224 -32 0
v -224 -16 0
v -208 -16 0
v -224 -32 0
v -240 -32 0
v -240 -16 0
v -224 -16 0
v -240 -32 0
v -256 -32 0
v -256 -16 0
v -240 -16 0
v 0 -48 0
v -16 -48 0
v -16 -32 0
v 0 -32 0
v -16 -48 0
v -32 -48 0
v -32 -32 0
v -16 -32 0
v -32 -48 0
v -48 -48 0
v -48 -32 0
v -32 -32 0
v -48 -48 0
v -64 -48 0
v -64 -32 0
v -48 -32 0
v -64 -48 0
v -80 -48 0
v -80 -32 0
v -64 -32 0
v -80 -48 0
v -96 -48 0
v -96 -32 0
v -80 -32 0
v -96 -48 0
v -112 -48 0
v -112 -32 0
v -96 -32 0
v -112 -48 0
v -128 -48 0
v -128 -32 0
v -112 -32 0
v -128 -48 0
v -144 -48 0
v -144 -32 0
v -128 -32 0
v -144 -48 0
v -160 -48 0
v -160 -32 0
v -144 -32 0
v -160 -48 0
v -176 -48 0
v -176 -32 0
v -160 -32 0
v -176 -48 0
v -192 -48 0
v -192 -32 0
v -176 -32 0
v -192 -48 0
v -208 -48 0
v -208 -32 0
v -192 -32 0
v -208 -48 0
v -224 -48 0
v -224 -32 0
v -208 -32 0
v -224 -48 0
v -240 -48 0
v -240 -32 0
v -224 -32 0
v -240 -48 0
v -256 -48 0
v -256 -32 0
v -240 -32 0
v 0 -64 0
v -16 -64 0
v -16 -48 0
v 0 -48 0
v -16 -64 0
v -32 -64 0
v -32 -48 0
v -16 -48 0
v -32 -64 0
v -48 -64 0
v -48 -48 0
v -32 -48 0
v -48 -64 0
v -64 -64 0
v -64 -48 0
v -48 -48 0
v -64 -64 0
v -80 -64 0
v -80 -48 0
v -64 -48 0
v -80 -64 0
v -96 -64 0
v -96 -48 0
v -80 -48 0
v -96 -64 0
v -112 -64 0
v -112 -48 0
v -96 -48 0
v -112 -64 0
v -128 -64 0
v -128 -48 0
v -112 -48 0
v -128 -64 0
v -144 -64 0
v -144 -48 0
v -128 -48 0
v -144 -64 0
v -160 -64 0
v -160 -48 0
v -144 -48 0
v -160 -64 0
v -176 -64 0
v -176 -48 0
v -160 -48 0
v -176 -64 0
v -192 -64 0
v -192 -48 0
v -176 -48 0
v -192 -64 0
v -208 -64 0
v -208 -48 0
v -192 -48 0
v -208 -64 0
v -224 -64 0
v -224 -48 0
v -208 -48 0
v -224 -64 0
v -240 -64 0
v -240 -48 0
v -224 -48 0
v -240 -64 0
v -256 -64 0
v -256 -48 0
v -240 -48 0
v 0 -80 0
v -16 -80 0
v -16 -64 0
v 0 -64 0
v -16 -80 0
v -32 -80 0
v -32 -64 0
v -16 -64 0
v -32 -80 0
v -48 -80 0
v -48 -64 0
v -32 -64 0
v -48 -80 0
v -64 -80 0
v -64 -64 0
v -48 -64 0
v -64 -80 0
v -80 -80 0
v -80 -64 0
v -64 -64 0
v -80 -80 0
v -96 -80 0
v -96 -64 0
v -80 -64 0
v -96 -80 0
v -112 -80 0
v -112 -64 0
v -96 -64 0
v -112 -80 0
v -128 -80 0
v -128 -64 0
v -112 -64 0
v -128 -80 0
v -144 -80 0
v -144 -64 0
v -128 -64 0
v -144 -80 0
v -160 -80 0
v -160 -64 0
v -144 -64 0
v -160 -80 0
v -176 -80 0
v -176 -64 0
v -160 -64 0
v -176 -80 0
v -192 -80 0
v -192 -64 0
v -176 -64 0
v -192 -80 0
v -208 -80 0
v -208 -64 0
v -192 -64 0
v -208 -80 0
v -224 -80 0
v -224 -64 0
v -208 -64 0
v -224 -80 0
v -240 -80 0
v -240 -64 0
v -224 -64 0
v -240 -80 0
v -256 -80 0
v -256 -64 0
v -240 -64 0
v 0 -96 0
v -16 -96 0
v -16 -80 0
v 0 -80 0
v -16 -96 0
v -32 -96 0
v -32 -80 0
v -16 -80 0
v -32 -96 0
v -48 -96 0
v -48 -80 0
v -32 -80 0
v -48 -96 0
v -64 -96 0
v -64 -80 0
v -48 -80 0
v -64 -96 0
v -80 -96 0
v -80 -80 0
v -64 -80 0
v -80 -96 0
v -96 -96 0
v -96 -80 0
v -80 -80 0
v -96 -96 0
v -112 -96 0
v -112 -80 0
v -96 -80 0
v -112 -96 0
v -128 -96 0
v -128 -80 0
v -112 -80 0
v -128 -96 0
v -144 -96 0
v -144 -80 0
v -128 -80 0
v -144 -96 0
v -160 -96 0
v -160 -80 0
v -144 -80 0
v -160 -96 0
v -176 -96 0
v -176 -80 0
v -160 -80 0
v -176 -96 0
v -192 -96 0
v -192 -80 0
v -176 -80 0
v -192 -96 0
v -208 -96 0
v -208 -80 0
v -192 -80 0
v -208 -96 0
v -224 -96 0
v -224 -80 0
v -208 -80 0
v -224 -96 0
v -240 -96 0
v -240 -80 0
v -224 -80 0
v -240 -96 0
v -256 -96 0
v -256 -80 0
v -240 -80 0
v 0 -112 0
v -16 -112 0
v -16 -96 0
v 0 -96 0
v -16 -112 0
v -32 -112 0
v -32 -96 0
v -16 -96 0
v -32 -112 0
v -48 -112 0
v -48 -96 0
v -32 -96 0
v -48 -112 0
v -64 -112 0
v -64 -96 0
v -48 -96 0
v -64 -112 0
v -80 -112 0
v -80 -96 0
v -64 -96 0
v -80 -112 0
v -96 -112 0
v -96 -96 0
v -80 -96 0
v -96 -112 0
v -112 -112 0
v -112 -96 0
v -96 -96 0
v -112 -112 0
v -128 -112 0
v -128 -96 0
v -112 -96 0
v -128 -112 0
v -144 -112 0
v -144 -96 0
v -128 -96 0
v -144 -112 0
v -160 -112 0
v -160 -96 0
v -144 -96 0
v -160 -112 0
v -176 -112 0
v -176 -96 0
v -160 -96 0
v -176 -112 0
v -192 -112 0
v -192 -96 0
v -176 -96 0
v -192 -112 0
v -208 -112 0
v -208 -96 0
v -192 -96 0
v -208 -112 0
v -224 -112 0
v -224 -96 0
v -208 -96 0
v -224 -112 0
v -240 -112 0
v -240 -96 0
v -224 -96 0
v -240 -112 0
v -256 -112 0
v -256 -96 0
v -240 -96 0
v 0 -128 0
v -16 -128 0
v -16 -112 0
v 0 -112 0
v -16 -128 0
v -32 -128 0
v -32 -112 0
v -16 -112 0
v -32 -128 0
v -48 -128 0
v -48 -112 0
v -32 -112 0
v -48 -128 0
v -64 -128 0
v -64 -112 0
v -48 -112 0
v -64 -128 0
v -80 -128 0
v -80 -112 0
v -64 -112 0
v -80 -128 0
v -96 -128 0
v -96 -112 0
v -80 -112 0
v -96 -128 0
v -112 -128 0
v -112 -112 0
v -96 -112 0
v -112 -128 0
v -128 -128 0
v -128 -112 0
v -112 -112 0
v -128 -128 0
v -144 -128 0
v -144 -112 0
v -128 -112 0
v -144 -128 0
v -160 -128 0
v -160 -112 0
v -144 -112 0
v -160 -128 0
v -176 -128 0
v -176 -112 0
v -160 -112 0
v -176 -128 0
v -192 -128 0
v -192 -112 0
v -176 -112 0
v -192 -128 0
v -208 -128 0
v -208 -112 0
v -192 -112 0
v -208 -128 0
v -224 -128 0
v -224 -112 0
v -208 -112 0
v -224 -128 0
v -240 -128 0
v -240 -112 0
v -224 -112 0
v -240 -128 0
v -256 -128 0
v -256 -112 0
v -240 -112 0
v 0 -144 0
v -16 -144 0
v -16 -128 0
v 0 -128 0
v -16 -144 0
v -32 -144 0
v -32 -128 0
v -16 -128 0
v -32 -144 0
v -48 -144 0
v -48 -128 0
v -32 -128 0
v -48 -144 0
v -64 -144 0
v -64 -128 0
v -48 -128 0
v -64 -144 0
v -80 -144 0
v -80 -128 0
v -64 -128 0
v -80 -144 0
v -96 -144 0
v -96 -128 0
v -80 -128 0
v -96 -144 0
v -112 -144 0
v -112 -128 0
v -96 -128 0
v -112 -144 0
v -128 -144 0
v -128 -128 0
v -112 -128 0
v -128 -144 0
v -144 -144 0
v -144 -128 0
v -128 -128 0
v -144 -144 0
v -160 -144 0
v -160 -128 0
v -144 -128 0
v -160 -144 0
v -176 -144 0
v -176 -128 0
v -160 -128 0
v -176 -144 0
v -192 -144 0
v -192 -128 0
v -176 -128 0
v -192 -144 0
v -208 -144 0
v -208 -128 0
v -192 -128 0
v -208 -144 0
v -224 -144 0
v -224 -128 0
v -208 -128 0
v -224 -144 0
v -240 -144 0
v -240 -128 0
v -224 -128 0
v -240 -144 0
v -256 -144 0
v -256 -128 0
v -240 -128 0
v 0 -160 0
v -16 -160 0
v -16 -144 0
v 0 -144 0
v -16 -160 0
v -32 -160 0
v -32 -144 0
v -16 -144 0
v -32 -160 0
v -48 -160 0
v -48 -144 0
v -32 -144 0
v -48 -160 0
v -64 -160 0
v -64 -144 0
v -48 -144 0
v -64 -160 0
v -80 -160 0
v -80 -144 0
v -64 -144 0
v -80 -160 0
v -96 -160 0
v -96 -144 0
v -80 -144 0
v -96 -160 0
v -112 -160 0
v -112 -144 0
v -96 -144 0
v -112 -160 0
v -128 -160 0
v -128 -144 0
v -112 -144 0
v -128 -160 0
v -144 -160 0
v -144 -144 0
v -128 -144 0
v -144 -160 0
v -160 -160 0
v -160 -144 0
v -144 -144 0
v -160 -160 0
v -176 -160 0
v -176 -144 0
v -160 -144 0
v -176 -160 0
v -192 -160 0
v -192 -144 0
v -176 -144 0
v -192 -160 0
v -208 -160 0
v -208 -144 0
v -192 -144 0
v -208 -160 0
v -224 -160 0
v -224 -144 0
v -208 -144 0
v -224 -160 0
v -240 -160 0
v -240 -144 0
v -224 -144 0
v -240 -160 0
v -256 -160 0
v -256 -144 0
v -240 -144 0
v 0 -176 0
v -16 -176 0
v -16 -160 0
v 0 -160 0
v -16 -176 0
v -32 -176 0
v -32 -160 0
v -16 -160 0
v -32 -176 0
v -48 -176 0
v -48 -160 0
v -32 -160 0
v -48 -176 0
v -64 -176 0
v -64 -160 0
v -48 -160 0
v -64 -176 0
v -80 -176 0
v -80 -160 0
v -64 -160 0
v -80 -176 0
v -96 -176 0
v -96 -160 0
v -80 -160 0
v -96 -176 0
v -112 -176 0
v -112 -160 0
v -96 -160 0
v -112 -176 0
v -128 -176 0
v -128 -160 0
v -112 -160 0
v -128 -176 0
v -144 -176 0
v -144 -160 0
v -128 -160 0
v -144 -176 0
v -160 -176 0
v -160 -160 0
v -144 -160 0
v -160 -176 0
v -176 -176 0
v -176 -160 0
v -160 -160 0
v -176 -176 0
v -192 -176 0
v -192 -160 0
v -176 -160 0
v -192 -176 0
v -208 -176 0
v -208 -160 0
v -192 -160 0
v -208 -176 0
v -224 -176 0
v -224 -160 0
v -208 -160 0
v -224 -176 0
v -240 -176 0
v -240 -160 0
v -224 -160 0
v -240 -176 0
v -256 -176 0
v -256 -160 0
v -240 -160 0
v 0 -192 0
v -16 -192 0
v -16 -176 0
v 0 -176 0
v -16 -192 0
v -32 -192 0
v -32 -176 0
v -16 -176 0
v -32 -192 0
v -48 -192 0
v -48 -176 0
v -32 -176 0
v -48 -192 0
v -64 -192 0
v -64 -176 0
v -48 -176 0
v -64 -192 0
v -80 -192 0
v -80 -176 0
v -64 -176 0
v -80 -192 0
v -96 -192 0
v -96 -176 0
v -80 -176 0
v -96 -192 0
v -112 -192 0
v -112 -176 0
v -96 -176 0
v -112 -192 0
v -128 -192 0
v -128 -176 0
v -112 -176 0
v -128 -192 0
v -144 -192 0
v -144 -176 0
v -128 -176 0
v -144 -192 0
v -160 -192 0
v -160 -176 0
v -144 -176 0
v -160 -192 0
v -176 -192 0
v -176 -176 0
v -160 -176 0
v -176 -192 0
v -192 -192 0
v -192 -176 0
v -176 -176 0
v -192 -192 0
v -208 -192 0
v -208 -176 0
v -192 -176 0
v -208 -192 0
v -224 -192 0
v -224 -176 0
v -208 -176 0
v -224 -192 0
v -240 -192 0
v -240 -176 0
v -224 -176 0
v -240 -192 0
v -256 -192 0
v -256 -176 0
v -240 -176 0
v 0 -208 0
v -16 -208 0
v -16 -192 0
v 0 -192 0
v -16 -208 0
v -32 -208 0
v -32 -192 0
v -16 -192 0
v -32 -208 0
v -48 -208 0
v -48 -192 0
v -32 -192 0
v -48 -208 0
v -64 -208 0
v -64 -192 0
v -48 -192 0
v -64 -208 0
v -80 -208 0
v -80 -192 0
v -64 -192 0
v -80 -208 0
v -96 -208 0
v -96 -192 0
v -80 -192 0
v -96 -208 0
v -112 -208 0
v -112 -192 0
v -96 -192 0
v -112 -208 0
v -128 -208 0
v -128 -192 0
v -112 -192 0
v -128 -208 0
v -144 -208 0
v -144 -192 0
v -128 -192 0
v -144 -208 0
v -160 -208 0
v -160 -192 0
v -144 -192 0
v -160 -208 0
v -176 -208 0
v -176 -192 0
v -160 -192 0
v -176 -208 0
v -192 -208 0
v -192 -192 0
v -176 -192 0
v -192 -208 0
v -208 -208 0
v -208 -192 0
v -192 -192 0
v -208 -208 0
v -224 -208 0
v -224 -192 0
v -208 -192 0
v -224 -208 0
v -240 -208 0
v -240 -192 0
v -224 -192 0
v -240 -208 0
v -256 -208 0
v -256 -192 0
v -240 -192 0
v 0 -224 0
v -16 -224 0
v -16 -208 0
v 0 -208 0
v -16 -224 0
v -32 -224 0
v -32 -208 0
v -16 -208 0
v -32 -224 0
v -48 -224 0
v -48 -208 0
v -32 -208 0
v -48 -224 0
v -64 -224 0
v -64 -208 0
v -48 -208 0
v -64 -224 0
v -80 -224 0
v -80 -208 0
v -64 -208 0
v -80 -224 0
v -96 -224 0
v -96 -208 0
v -80 -208 0
v -96 -224 0
v -112 -224 0
v -112 -208 0
v -96 -208 0
v -112 -224 0
v -128 -224 0
v -128 -208 0
v -112 -208 0
v -128 -224 0
v -144 -224 0
v -144 -208 0
v -128 -208 0
v -144 -224 0
v -160 -224 0
v -160 -208 0
v -144 -208 0
v -160 -224 0
v -176 -224 0
v -176 -208 0
v -160 -208 0
v -176 -224 0
v -192 -224 0
v -192 -208 0
v -176 -208 0
v -192 -224 0
v -208 -224 0
v -208 -208 0
v -192 -208 0
v -208 -224 0
v -224 -224 0
v -224 -208 0
v -208 -208 0
v -224 -224 0
v -240 -224 0
v -240 -208 0
v -224 -208 0
v -240 -224 0
v -256 -224 0
v -256 -208 0
v -240 -208 0
v 0 -240 0
v -16 -240 0
v -16 -224 0
v 0 -224 0
v -16 -240 0
v -32 -240 0
v -32 -224 0
v -16 -224 0
v -32 -240 0
v -48 -240 0
v -48 -224 0
v -32 -224 0
v -48 -240 0
v -64 -240 0
v -64 -224 0
v -48 -224 0
v -64 -240 0
v -80 -240 0
v -80 -224 0
v -64 -224 0
v -80 -240 0
v -96 -240 0
v -96 -224 0
v -80 -224 0
v -96 -240 0
v -112 -240 0
v -112 -224 0
v -96 -224 0
v -112 -240 0
v -128 -240 0
v -128 -224 0
v -112 -224 0
v -128 -240 0
v -144 -240 0
v -144 -224 0
v -128 -224 0
v -144 -240 0
v -160 -240 0
v -160 -224 0
v -144 -224 0
v -160 -240 0
v -176 -240 0
v -176 -224 0
v -160 -224 0
v -176 -240 0
v -192 -240 0
v -192 -224 0
v -176 -224 0
v -192 -240 0
v -208 -240 0
v -208 -224 0
v -192 -224 0
v -208 -240 0
v -224 -240 0
v -224 -224 0
v -208 -224 0
v -224 -240 0
v -240 -240 0
v -240 -224 0
v -224 -224 0
v -240 -240 0
v -256 -240 0
v -256 -224 0
v -240 -224 0
v 0 -256 0
v -16 -256 0
v -16 -240 0
v 0 -240 0
v -16 -256 0
v -32 -256 0
v -32 -240 0
v -16 -240 0
v -32 -256 0
v -48 -256 0
v -48 -240 0
v -32 -240 0
v -48 -256 0
v -64 -256 0
v -64 -240 0
v -48 -240 0
v -64 -256 0
v -80 -256 0
v -80 -240 0
v -64 -240 0
v -80 -256 0
v -96 -256 0
v -96 -240 0
v -80 -240 0
v -96 -256 0
v -112 -256 0
v -112 -240 0
v -96 -240 0
v -112 -256 0
v -128 -256 0
v -128 -240 0
v -112 -240 0
v -128 -256 0
v -144 -256 0
v -144 -240 0
v -128 -240 0
v -144 -256 0
v -160 -256 0
v -160 -240 0
v -144 -240 0
v -160 -256 0
v -176 -256 0
v -176 -240 0
v -160 -240 0
v -176 -256 0
v -192 -256 0
v -192 -240 0
v -176 -240 0
v -192 -256 0
v -208 -256 0
v -208 -240 0
v -192 -240 0
v -208 -256 0
v -224 -256 0
v -224 -240 0
v -208 -240 0
v -224 -256 0
v -240 -256 0
v -240 -240 0
v -224 -240 0
v -240 -256 0
v -256 -256 0
v -256 -240 0
v -240 -240 0

# Texture cooridinates (Count = 84)
vt 0.08333334 0.7777778
vt 0.1041667 0.7777778
vt 0.1041667 0.8055556
vt 0.08333334 0.8055556
vt 0.7083333 0.9166667
vt 0.7291667 0.9166667
vt 0.7291667 0.9444444
vt 0.7083333 0.9444444
vt 0.6666667 0.8333333
vt 0.6875 0.8333333
vt 0.6875 0.8611111
vt 0.6666667 0.8611111
vt 0.7083333 0.8333333
vt 0.7083333 0.8611111
vt 0.6875 0.8055556
vt 0.7083333 0.8055556
vt 0.02083333 0.7777778
vt 0.04166667 0.7777778
vt 0.04166667 0.8055556
vt 0.02083333 0.8055556
vt 0.08333334 0.75
vt 0.1041667 0.75
vt 0.6666667 0.8055556
vt 0.02083333 0.75
vt 0.04166667 0.75
vt 0.08333334 0.9722222
vt 0.1041667 0.9722222
vt 0.1041667 1
vt 0.08333334 1
vt 0.04166667 0.9722222
vt 0.0625 0.9722222
vt 0.0625 1
vt 0.04166667 1
vt 0.08333334 0.9444444
vt 0.1041667 0.9444444
vt 0.04166667 0.9444444
vt 0.0625 0.9444444
vt 0.08333334 0.9166667
vt 0.1041667 0.9166667
vt 0.04166667 0.9166667
vt 0.0625 0.9166667
vt 0.08333334 0.8888889
vt 0.1041667 0.8888889
vt 0.7291667 0.9722222
vt 0.7083333 0.9722222
vt 0.75 0.9444444
vt 0.75 0.9722222
vt 0.04166667 0.8888889
vt 0.0625 0.8888889
vt 0.08333334 0.8611111
vt 0.1041667 0.8611111
vt 0.125 0.8611111
vt 0.125 0.8888889
vt 0 0.8611111
vt 0.02083333 0.8611111
vt 0.02083333 0.8888889
vt 0 0.8888889
vt 0.04166667 0.8611111
vt 0.0625 0.8611111
vt 0.08333334 0.8333333
vt 0.1041667 0.8333333
vt 0.125 0.8333333
vt 0 0.8333333
vt 0.02083333 0.8333333
vt 0.04166667 0.8333333
vt 0.0625 0.8333333
vt 0 0.9722222
vt 0.02083333 0.9722222
vt 0.02083333 1
vt 0 1
vt 0.125 0.9722222
vt 0.125 1
vt 0 0.9444444
vt 0.02083333 0.9444444
vt 0.125 0.9444444
vt 0 0.9166667
vt 0.02083333 0.9166667
vt 0.125 0.9166667
vt 0 0.8055556
vt 0.0625 0.8055556
vt 0.125 0.8055556
vt 0 0.7777778
vt 0.0625 0.7777778
vt 0.125 0.7777778

# Normal
vn 0 0 -1

# Mesh description
g Interior-casa_mesh_0006

# Faces
f 1/1/1 2/2/1 3/3/1 4/4/1
f 5/5/1 6/6/1 7/7/1 8/8/1
f 9/9/1 10/10/1 11/11/1 12/12/1
f 13/9/1 14/10/1 15/11/1 16/12/1
f 17/10/1 18/13/1 19/14/1 20/11/1
f 21/9/1 22/10/1 23/11/1 24/12/1
f 25/10/1 26/13/1 27/14/1 28/11/1
f 29/9/1 30/10/1 31/11/1 32/12/1
f 33/9/1 34/10/1 35/11/1 36/12/1
f 37/10/1 38/13/1 39/14/1 40/11/1
f 41/9/1 42/10/1 43/11/1 44/12/1
f 45/10/1 46/13/1 47/14/1 48/11/1
f 49/15/1 50/16/1 51/13/1 52/10/1
f 53/10/1 54/13/1 55/14/1 56/11/1
f 57/5/1 58/6/1 59/7/1 60/8/1
f 61/17/1 62/18/1 63/19/1 64/20/1
f 65/21/1 66/22/1 67/2/1 68/1/1
f 69/5/1 70/6/1 71/7/1 72/8/1
f 73/23/1 74/15/1 75/10/1 76/9/1
f 77/23/1 78/15/1 79/10/1 80/9/1
f 81/15/1 82/16/1 83/13/1 84/10/1
f 85/23/1 86/15/1 87/10/1 88/9/1
f 89/15/1 90/16/1 91/13/1 92/10/1
f 93/10/1 94/13/1 95/14/1 96/11/1
f 97/23/1 98/15/1 99/10/1 100/9/1
f 101/15/1 102/16/1 103/13/1 104/10/1
f 105/23/1 106/15/1 107/10/1 108/9/1
f 109/15/1 110/16/1 111/13/1 112/10/1
f 113/15/1 114/16/1 115/13/1 116/10/1
f 117/15/1 118/16/1 119/13/1 120/10/1
f 121/5/1 122/6/1 123/7/1 124/8/1
f 125/24/1 126/25/1 127/18/1 128/17/1
f 129/26/1 130/27/1 131/28/1 132/29/1
f 133/5/1 134/6/1 135/7/1 136/8/1
f 137/9/1 138/10/1 139/11/1 140/12/1
f 141/10/1 142/13/1 143/14/1 144/11/1
f 145/9/1 146/10/1 147/11/1 148/12/1
f 149/10/1 150/13/1 151/14/1 152/11/1
f 153/15/1 154/16/1 155/13/1 156/10/1
f 157/15/1 158/16/1 159/13/1 160/10/1
f 161/15/1 162/16/1 163/13/1 164/10/1
f 165/15/1 166/16/1 167/13/1 168/10/1
f 169/9/1 170/10/1 171/11/1 172/12/1
f 173/10/1 174/13/1 175/14/1 176/11/1
f 177/23/1 178/15/1 179/10/1 180/9/1
f 181/15/1 182/16/1 183/13/1 184/10/1
f 185/5/1 186/6/1 187/7/1 188/8/1
f 189/30/1 190/31/1 191/32/1 192/33/1
f 193/34/1 194/35/1 195/27/1 196/26/1
f 197/5/1 198/6/1 199/7/1 200/8/1
f 201/9/1 202/10/1 203/11/1 204/12/1
f 205/10/1 206/13/1 207/14/1 208/11/1
f 209/23/1 210/15/1 211/10/1 212/9/1
f 213/15/1 214/16/1 215/13/1 216/10/1
f 217/9/1 218/10/1 219/11/1 220/12/1
f 221/10/1 222/13/1 223/14/1 224/11/1
f 225/9/1 226/10/1 227/11/1 228/12/1
f 229/9/1 230/10/1 231/11/1 232/12/1
f 233/10/1 234/13/1 235/14/1 236/11/1
f 237/15/1 238/16/1 239/13/1 240/10/1
f 241/23/1 242/15/1 243/10/1 244/9/1
f 245/15/1 246/16/1 247/13/1 248/10/1
f 249/5/1 250/6/1 251/7/1 252/8/1
f 253/36/1 254/37/1 255/31/1 256/30/1
f 257/38/1 258/39/1 259/35/1 260/34/1
f 261/5/1 262/6/1 263/7/1 264/8/1
f 265/23/1 266/15/1 267/10/1 268/9/1
f 269/15/1 270/16/1 271/13/1 272/10/1
f 273/23/1 274/15/1 275/10/1 276/9/1
f 277/23/1 278/15/1 279/10/1 280/9/1
f 281/23/1 282/15/1 283/10/1 284/9/1
f 285/15/1 286/16/1 287/13/1 288/10/1
f 289/23/1 290/15/1 291/10/1 292/9/1
f 293/23/1 294/15/1 295/10/1 296/9/1
f 297/15/1 298/16/1 299/13/1 300/10/1
f 301/23/1 302/15/1 303/10/1 304/9/1
f 305/23/1 306/15/1 307/10/1 308/9/1
f 309/15/1 310/16/1 311/13/1 312/10/1
f 313/5/1 314/6/1 315/7/1 316/8/1
f 317/40/1 318/41/1 319/37/1 320/36/1
f 321/42/1 322/43/1 323/39/1 324/38/1
f 325/8/1 326/7/1 327/44/1 328/45/1
f 329/7/1 330/46/1 331/47/1 332/44/1
f 333/7/1 334/46/1 335/47/1 336/44/1
f 337/7/1 338/46/1 339/47/1 340/44/1
f 341/7/1 342/46/1 343/47/1 344/44/1
f 345/7/1 346/46/1 347/47/1 348/44/1
f 349/7/1 350/46/1 351/47/1 352/44/1
f 353/7/1 354/46/1 355/47/1 356/44/1
f 357/7/1 358/46/1 359/47/1 360/44/1
f 361/7/1 362/46/1 363/47/1 364/44/1
f 365/7/1 366/46/1 367/47/1 368/44/1
f 369/7/1 370/46/1 371/47/1 372/44/1
f 373/7/1 374/46/1 375/47/1 376/44/1
f 377/8/1 378/7/1 379/44/1 380/45/1
f 381/48/1 382/49/1 383/41/1 384/40/1
f 385/50/1 386/51/1 387/43/1 388/42/1
f 389/51/1 390/52/1 391/53/1 392/43/1
f 393/54/1 394/55/1 395/56/1 396/57/1
f 397/55/1 398/58/1 399/48/1 400/56/1
f 401/58/1 402/59/1 403/49/1 404/48/1
f 405/59/1 406/50/1 407/42/1 408/49/1
f 409/50/1 410/51/1 411/43/1 412/42/1
f 413/51/1 414/52/1 415/53/1 416/43/1
f 417/54/1 418/55/1 419/56/1 420/57/1
f 421/55/1 422/58/1 423/48/1 424/56/1
f 425/58/1 426/59/1 427/49/1 428/48/1
f 429/59/1 430/50/1 431/42/1 432/49/1
f 433/50/1 434/51/1 435/43/1 436/42/1
f 437/51/1 438/52/1 439/53/1 440/43/1
f 441/55/1 442/58/1 443/48/1 444/56/1
f 445/58/1 446/59/1 447/49/1 448/48/1
f 449/60/1 450/61/1 451/51/1 452/50/1
f 453/61/1 454/62/1 455/52/1 456/51/1
f 457/63/1 458/64/1 459/55/1 460/54/1
f 461/64/1 462/65/1 463/58/1 464/55/1
f 465/65/1 466/66/1 467/59/1 468/58/1
f 469/66/1 470/60/1 471/50/1 472/59/1
f 473/60/1 474/61/1 475/51/1 476/50/1
f 477/61/1 478/62/1 479/52/1 480/51/1
f 481/63/1 482/64/1 483/55/1 484/54/1
f 485/64/1 486/65/1 487/58/1 488/55/1
f 489/65/1 490/66/1 491/59/1 492/58/1
f 493/66/1 494/60/1 495/50/1 496/59/1
f 497/60/1 498/61/1 499/51/1 500/50/1
f 501/61/1 502/62/1 503/52/1 504/51/1
f 505/64/1 506/65/1 507/58/1 508/55/1
f 509/65/1 510/66/1 511/59/1 512/58/1
f 513/67/1 514/68/1 515/69/1 516/70/1
f 517/68/1 518/30/1 519/33/1 520/69/1
f 521/30/1 522/31/1 523/32/1 524/33/1
f 525/31/1 526/26/1 527/29/1 528/32/1
f 529/26/1 530/27/1 531/28/1 532/29/1
f 533/67/1 534/68/1 535/69/1 536/70/1
f 537/68/1 538/30/1 539/33/1 540/69/1
f 541/30/1 542/31/1 543/32/1 544/33/1
f 545/31/1 546/26/1 547/29/1 548/32/1
f 549/26/1 550/27/1 551/28/1 552/29/1
f 553/67/1 554/68/1 555/69/1 556/70/1
f 557/68/1 558/30/1 559/33/1 560/69/1
f 561/30/1 562/31/1 563/32/1 564/33/1
f 565/31/1 566/26/1 567/29/1 568/32/1
f 569/26/1 570/27/1 571/28/1 572/29/1
f 573/27/1 574/71/1 575/72/1 576/28/1
f 577/73/1 578/74/1 579/68/1 580/67/1
f 581/74/1 582/36/1 583/30/1 584/68/1
f 585/36/1 586/37/1 587/31/1 588/30/1
f 589/37/1 590/34/1 591/26/1 592/31/1
f 593/34/1 594/35/1 595/27/1 596/26/1
f 597/73/1 598/74/1 599/68/1 600/67/1
f 601/74/1 602/36/1 603/30/1 604/68/1
f 605/36/1 606/37/1 607/31/1 608/30/1
f 609/37/1 610/34/1 611/26/1 612/31/1
f 613/34/1 614/35/1 615/27/1 616/26/1
f 617/73/1 618/74/1 619/68/1 620/67/1
f 621/74/1 622/36/1 623/30/1 624/68/1
f 625/36/1 626/37/1 627/31/1 628/30/1
f 629/37/1 630/34/1 631/26/1 632/31/1
f 633/34/1 634/35/1 635/27/1 636/26/1
f 637/35/1 638/75/1 639/71/1 640/27/1
f 641/76/1 642/77/1 643/74/1 644/73/1
f 645/77/1 646/40/1 647/36/1 648/74/1
f 649/40/1 650/41/1 651/37/1 652/36/1
f 653/41/1 654/38/1 655/34/1 656/37/1
f 657/38/1 658/39/1 659/35/1 660/34/1
f 661/76/1 662/77/1 663/74/1 664/73/1
f 665/77/1 666/40/1 667/36/1 668/74/1
f 669/40/1 670/41/1 671/37/1 672/36/1
f 673/41/1 674/38/1 675/34/1 676/37/1
f 677/38/1 678/39/1 679/35/1 680/34/1
f 681/76/1 682/77/1 683/74/1 684/73/1
f 685/77/1 686/40/1 687/36/1 688/74/1
f 689/40/1 690/41/1 691/37/1 692/36/1
f 693/41/1 694/38/1 695/34/1 696/37/1
f 697/38/1 698/39/1 699/35/1 700/34/1
f 701/39/1 702/78/1 703/75/1 704/35/1
f 705/57/1 706/56/1 707/77/1 708/76/1
f 709/56/1 710/48/1 711/40/1 712/77/1
f 713/48/1 714/49/1 715/41/1 716/40/1
f 717/49/1 718/42/1 719/38/1 720/41/1
f 721/42/1 722/43/1 723/39/1 724/38/1
f 725/57/1 726/56/1 727/77/1 728/76/1
f 729/56/1 730/48/1 731/40/1 732/77/1
f 733/48/1 734/49/1 735/41/1 736/40/1
f 737/49/1 738/42/1 739/38/1 740/41/1
f 741/42/1 742/43/1 743/39/1 744/38/1
f 745/57/1 746/56/1 747/77/1 748/76/1
f 749/56/1 750/48/1 751/40/1 752/77/1
f 753/48/1 754/49/1 755/41/1 756/40/1
f 757/49/1 758/42/1 759/38/1 760/41/1
f 761/42/1 762/43/1 763/39/1 764/38/1
f 765/43/1 766/53/1 767/78/1 768/39/1
f 769/54/1 770/55/1 771/56/1 772/57/1
f 773/55/1 774/58/1 775/48/1 776/56/1
f 777/58/1 778/59/1 779/49/1 780/48/1
f 781/59/1 782/50/1 783/42/1 784/49/1
f 785/50/1 786/51/1 787/43/1 788/42/1
f 789/54/1 790/55/1 791/56/1 792/57/1
f 793/55/1 794/58/1 795/48/1 796/56/1
f 797/58/1 798/59/1 799/49/1 800/48/1
f 801/59/1 802/50/1 803/42/1 804/49/1
f 805/50/1 806/51/1 807/43/1 808/42/1
f 809/54/1 810/55/1 811/56/1 812/57/1
f 813/55/1 814/58/1 815/48/1 816/56/1
f 817/58/1 818/59/1 819/49/1 820/48/1
f 821/59/1 822/50/1 823/42/1 824/49/1
f 825/50/1 826/51/1 827/43/1 828/42/1
f 829/51/1 830/52/1 831/53/1 832/43/1
f 833/63/1 834/64/1 835/55/1 836/54/1
f 837/64/1 838/65/1 839/58/1 840/55/1
f 841/65/1 842/66/1 843/59/1 844/58/1
f 845/66/1 846/60/1 847/50/1 848/59/1
f 849/60/1 850/61/1 851/51/1 852/50/1
f 853/63/1 854/64/1 855/55/1 856/54/1
f 857/64/1 858/65/1 859/58/1 860/55/1
f 861/65/1 862/66/1 863/59/1 864/58/1
f 865/66/1 866/60/1 867/50/1 868/59/1
f 869/60/1 870/61/1 871/51/1 872/50/1
f 873/63/1 874/64/1 875/55/1 876/54/1
f 877/64/1 878/65/1 879/58/1 880/55/1
f 881/65/1 882/66/1 883/59/1 884/58/1
f 885/66/1 886/60/1 887/50/1 888/59/1
f 889/60/1 890/61/1 891/51/1 892/50/1
f 893/61/1 894/62/1 895/52/1 896/51/1
f 897/79/1 898/20/1 899/64/1 900/63/1
f 901/20/1 902/19/1 903/65/1 904/64/1
f 905/19/1 906/80/1 907/66/1 908/65/1
f 909/80/1 910/4/1 911/60/1 912/66/1
f 913/4/1 914/3/1 915/61/1 916/60/1
f 917/79/1 918/20/1 919/64/1 920/63/1
f 921/20/1 922/19/1 923/65/1 924/64/1
f 925/19/1 926/80/1 927/66/1 928/65/1
f 929/80/1 930/4/1 931/60/1 932/66/1
f 933/4/1 934/3/1 935/61/1 936/60/1
f 937/79/1 938/20/1 939/64/1 940/63/1
f 941/20/1 942/19/1 943/65/1 944/64/1
f 945/19/1 946/80/1 947/66/1 948/65/1
f 949/80/1 950/4/1 951/60/1 952/66/1
f 953/4/1 954/3/1 955/61/1 956/60/1
f 957/3/1 958/81/1 959/62/1 960/61/1
f 961/82/1 962/17/1 963/20/1 964/79/1
f 965/17/1 966/18/1 967/19/1 968/20/1
f 969/18/1 970/83/1 971/80/1 972/19/1
f 973/83/1 974/1/1 975/4/1 976/80/1
f 977/1/1 978/2/1 979/3/1 980/4/1
f 981/82/1 982/17/1 983/20/1 984/79/1
f 985/17/1 986/18/1 987/19/1 988/20/1
f 989/18/1 990/83/1 991/80/1 992/19/1
f 993/83/1 994/1/1 995/4/1 996/80/1
f 997/1/1 998/2/1 999/3/1 1000/4/1
f 1001/82/1 1002/17/1 1003/20/1 1004/79/1
f 1005/17/1 1006/18/1 1007/19/1 1008/20/1
f 1009/18/1 1010/83/1 1011/80/1 1012/19/1
f 1013/83/1 1014/1/1 1015/4/1 1016/80/1
f 1017/1/1 1018/2/1 1019/3/1 1020/4/1
f 1021/2/1 1022/84/1 1023/81/1 1024/3/1

