# Tiled2Unity generated file. Do not modify by hand.
# Wavefront file for 'Pruebax_mesh_0017.obj'

# Vertices (Count = 164)
v -6 -4 0
v -7 -4 0
v -7 -3 0
v -6 -3 0
v -7 -4 0
v -8 -4 0
v -8 -3 0
v -7 -3 0
v -8 -4 0
v -9 -4 0
v -9 -3 0
v -8 -3 0
v -9 -4 0
v -10 -4 0
v -10 -3 0
v -9 -3 0
v -10 -4 0
v -11 -4 0
v -11 -3 0
v -10 -3 0
v -11 -4 0
v -12 -4 0
v -12 -3 0
v -11 -3 0
v -14 -4 0
v -15 -4 0
v -15 -3 0
v -14 -3 0
v -6 -5 0
v -7 -5 0
v -7 -4 0
v -6 -4 0
v -7 -5 0
v -8 -5 0
v -8 -4 0
v -7 -4 0
v -8 -5 0
v -9 -5 0
v -9 -4 0
v -8 -4 0
v -9 -5 0
v -10 -5 0
v -10 -4 0
v -9 -4 0
v -10 -5 0
v -11 -5 0
v -11 -4 0
v -10 -4 0
v -11 -5 0
v -12 -5 0
v -12 -4 0
v -11 -4 0
v -6 -6 0
v -7 -6 0
v -7 -5 0
v -6 -5 0
v -7 -6 0
v -8 -6 0
v -8 -5 0
v -7 -5 0
v -8 -6 0
v -9 -6 0
v -9 -5 0
v -8 -5 0
v -9 -6 0
v -10 -6 0
v -10 -5 0
v -9 -5 0
v -10 -6 0
v -11 -6 0
v -11 -5 0
v -10 -5 0
v -11 -6 0
v -12 -6 0
v -12 -5 0
v -11 -5 0
v -6 -7 0
v -7 -7 0
v -7 -6 0
v -6 -6 0
v -7 -7 0
v -8 -7 0
v -8 -6 0
v -7 -6 0
v -8 -7 0
v -9 -7 0
v -9 -6 0
v -8 -6 0
v -9 -7 0
v -10 -7 0
v -10 -6 0
v -9 -6 0
v -10 -7 0
v -11 -7 0
v -11 -6 0
v -10 -6 0
v -11 -7 0
v -12 -7 0
v -12 -6 0
v -11 -6 0
v -6 -8 0
v -7 -8 0
v -7 -7 0
v -6 -7 0
v -7 -8 0
v -8 -8 0
v -8 -7 0
v -7 -7 0
v -8 -8 0
v -9 -8 0
v -9 -7 0
v -8 -7 0
v -9 -8 0
v -10 -8 0
v -10 -7 0
v -9 -7 0
v -10 -8 0
v -11 -8 0
v -11 -7 0
v -10 -7 0
v -11 -8 0
v -12 -8 0
v -12 -7 0
v -11 -7 0
v -8 -9 0
v -9 -9 0
v -9 -8 0
v -8 -8 0
v -9 -9 0
v -10 -9 0
v -10 -8 0
v -9 -8 0
v -8 -10 0
v -9 -10 0
v -9 -9 0
v -8 -9 0
v -9 -10 0
v -10 -10 0
v -10 -9 0
v -9 -9 0
v -4 -15 0
v -5 -15 0
v -5 -14 0
v -4 -14 0
v -5 -15 0
v -6 -15 0
v -6 -14 0
v -5 -14 0
v -6 -15 0
v -7 -15 0
v -7 -14 0
v -6 -14 0
v -4 -16 0
v -5 -16 0
v -5 -15 0
v -4 -15 0
v -5 -16 0
v -6 -16 0
v -6 -15 0
v -5 -15 0
v -6 -16 0
v -7 -16 0
v -7 -15 0
v -6 -15 0

# Texture cooridinates (Count = 62)
vt 0.75 0.5833334
vt 0.7692308 0.5833334
vt 0.7692308 0.625
vt 0.75 0.625
vt 0.7884616 0.5833334
vt 0.7884616 0.625
vt 0.8076923 0.5833334
vt 0.8076923 0.625
vt 0.8269231 0.5833334
vt 0.8269231 0.625
vt 0.8461539 0.5833334
vt 0.8461539 0.625
vt 0.8653846 0.5833334
vt 0.8653846 0.625
vt 0.8461539 0.375
vt 0.8653846 0.375
vt 0.8653846 0.4166667
vt 0.8461539 0.4166667
vt 0.75 0.5416666
vt 0.7692308 0.5416666
vt 0.7884616 0.5416666
vt 0.8076923 0.5416666
vt 0.8269231 0.5416666
vt 0.8461539 0.5416666
vt 0.8653846 0.5416666
vt 0.75 0.5
vt 0.7692308 0.5
vt 0.7884616 0.5
vt 0.8076923 0.5
vt 0.8269231 0.5
vt 0.8461539 0.5
vt 0.8653846 0.5
vt 0.75 0.4583333
vt 0.7692308 0.4583333
vt 0.7884616 0.4583333
vt 0.8076923 0.4583333
vt 0.8269231 0.4583333
vt 0.8461539 0.4583333
vt 0.8653846 0.4583333
vt 0.75 0.4166667
vt 0.7692308 0.4166667
vt 0.7884616 0.4166667
vt 0.8076923 0.4166667
vt 0.8269231 0.4166667
vt 0.7884616 0.375
vt 0.8076923 0.375
vt 0.8269231 0.375
vt 0.7884616 0.3333333
vt 0.8076923 0.3333333
vt 0.8269231 0.3333333
vt 0.01923077 0.4583333
vt 0.03846154 0.4583333
vt 0.03846154 0.5
vt 0.01923077 0.5
vt 0.05769231 0.4583333
vt 0.05769231 0.5
vt 0.07692308 0.4583333
vt 0.07692308 0.5
vt 0.01923077 0.4166667
vt 0.03846154 0.4166667
vt 0.05769231 0.4166667
vt 0.07692308 0.4166667

# Normal
vn 0 0 -1

# Mesh description
g Pruebax_mesh_0017

# Faces
f 1/1/1 2/2/1 3/3/1 4/4/1
f 5/2/1 6/5/1 7/6/1 8/3/1
f 9/5/1 10/7/1 11/8/1 12/6/1
f 13/7/1 14/9/1 15/10/1 16/8/1
f 17/9/1 18/11/1 19/12/1 20/10/1
f 21/11/1 22/13/1 23/14/1 24/12/1
f 25/15/1 26/16/1 27/17/1 28/18/1
f 29/19/1 30/20/1 31/2/1 32/1/1
f 33/20/1 34/21/1 35/5/1 36/2/1
f 37/21/1 38/22/1 39/7/1 40/5/1
f 41/22/1 42/23/1 43/9/1 44/7/1
f 45/23/1 46/24/1 47/11/1 48/9/1
f 49/24/1 50/25/1 51/13/1 52/11/1
f 53/26/1 54/27/1 55/20/1 56/19/1
f 57/27/1 58/28/1 59/21/1 60/20/1
f 61/28/1 62/29/1 63/22/1 64/21/1
f 65/29/1 66/30/1 67/23/1 68/22/1
f 69/30/1 70/31/1 71/24/1 72/23/1
f 73/31/1 74/32/1 75/25/1 76/24/1
f 77/33/1 78/34/1 79/27/1 80/26/1
f 81/34/1 82/35/1 83/28/1 84/27/1
f 85/35/1 86/36/1 87/29/1 88/28/1
f 89/36/1 90/37/1 91/30/1 92/29/1
f 93/37/1 94/38/1 95/31/1 96/30/1
f 97/38/1 98/39/1 99/32/1 100/31/1
f 101/40/1 102/41/1 103/34/1 104/33/1
f 105/41/1 106/42/1 107/35/1 108/34/1
f 109/42/1 110/43/1 111/36/1 112/35/1
f 113/43/1 114/44/1 115/37/1 116/36/1
f 117/44/1 118/18/1 119/38/1 120/37/1
f 121/18/1 122/17/1 123/39/1 124/38/1
f 125/45/1 126/46/1 127/43/1 128/42/1
f 129/46/1 130/47/1 131/44/1 132/43/1
f 133/48/1 134/49/1 135/46/1 136/45/1
f 137/49/1 138/50/1 139/47/1 140/46/1
f 141/51/1 142/52/1 143/53/1 144/54/1
f 145/52/1 146/55/1 147/56/1 148/53/1
f 149/55/1 150/57/1 151/58/1 152/56/1
f 153/59/1 154/60/1 155/52/1 156/51/1
f 157/60/1 158/61/1 159/55/1 160/52/1
f 161/61/1 162/62/1 163/57/1 164/55/1

