# Tiled2Unity generated file. Do not modify by hand.
# Wavefront file for 'Pruebax_mesh_0008.obj'

# Vertices (Count = 72)
v 0 -2 0
v -1 -2 0
v -1 -1 0
v 0 -1 0
v -1 -2 0
v -2 -2 0
v -2 -1 0
v -1 -1 0
v -2 -2 0
v -3 -2 0
v -3 -1 0
v -2 -1 0
v 0 -3 0
v -1 -3 0
v -1 -2 0
v 0 -2 0
v -1 -3 0
v -2 -3 0
v -2 -2 0
v -1 -2 0
v -2 -3 0
v -3 -3 0
v -3 -2 0
v -2 -2 0
v 0 -4 0
v -1 -4 0
v -1 -3 0
v 0 -3 0
v -1 -4 0
v -2 -4 0
v -2 -3 0
v -1 -3 0
v -2 -4 0
v -3 -4 0
v -3 -3 0
v -2 -3 0
v 0 -5 0
v -1 -5 0
v -1 -4 0
v 0 -4 0
v -1 -5 0
v -2 -5 0
v -2 -4 0
v -1 -4 0
v -2 -5 0
v -3 -5 0
v -3 -4 0
v -2 -4 0
v 0 -6 0
v -1 -6 0
v -1 -5 0
v 0 -5 0
v -1 -6 0
v -2 -6 0
v -2 -5 0
v -1 -5 0
v -2 -6 0
v -3 -6 0
v -3 -5 0
v -2 -5 0
v 0 -7 0
v -1 -7 0
v -1 -6 0
v 0 -6 0
v -1 -7 0
v -2 -7 0
v -2 -6 0
v -1 -6 0
v -2 -7 0
v -3 -7 0
v -3 -6 0
v -2 -6 0

# Texture cooridinates (Count = 35)
vt 0.3333333 0.8684211
vt 0.3478261 0.8684211
vt 0.3478261 0.8947368
vt 0.3333333 0.8947368
vt 0.3623188 0.8684211
vt 0.3623188 0.8947368
vt 0.3768116 0.8684211
vt 0.3768116 0.8947368
vt 0.3333333 0.8421053
vt 0.3478261 0.8421053
vt 0.3623188 0.8421053
vt 0.3768116 0.8421053
vt 0.3333333 0.8157895
vt 0.3478261 0.8157895
vt 0.3623188 0.8157895
vt 0.3768116 0.8157895
vt 0.3333333 0.7894737
vt 0.3478261 0.7894737
vt 0.3623188 0.7894737
vt 0.3768116 0.7894737
vt 0.02898551 0.5
vt 0.04347826 0.5
vt 0.04347826 0.5263158
vt 0.02898551 0.5263158
vt 0.1304348 0.05263156
vt 0.1449275 0.05263156
vt 0.1449275 0.07894737
vt 0.1304348 0.07894737
vt 0.05797102 0.5
vt 0.05797102 0.5263158
vt 0.02898551 0.4736842
vt 0.04347826 0.4736842
vt 0.1304348 0.02631581
vt 0.1449275 0.02631581
vt 0.05797102 0.4736842

# Normal
vn 0 0 -1

# Mesh description
g Pruebax_mesh_0008

# Faces
f 1/1/1 2/2/1 3/3/1 4/4/1
f 5/2/1 6/5/1 7/6/1 8/3/1
f 9/5/1 10/7/1 11/8/1 12/6/1
f 13/9/1 14/10/1 15/2/1 16/1/1
f 17/10/1 18/11/1 19/5/1 20/2/1
f 21/11/1 22/12/1 23/7/1 24/5/1
f 25/13/1 26/14/1 27/10/1 28/9/1
f 29/14/1 30/15/1 31/11/1 32/10/1
f 33/15/1 34/16/1 35/12/1 36/11/1
f 37/17/1 38/18/1 39/14/1 40/13/1
f 41/18/1 42/19/1 43/15/1 44/14/1
f 45/19/1 46/20/1 47/16/1 48/15/1
f 49/21/1 50/22/1 51/23/1 52/24/1
f 53/25/1 54/26/1 55/27/1 56/28/1
f 57/22/1 58/29/1 59/30/1 60/23/1
f 61/31/1 62/32/1 63/22/1 64/21/1
f 65/33/1 66/34/1 67/26/1 68/25/1
f 69/32/1 70/35/1 71/29/1 72/22/1

