# Tiled2Unity generated file. Do not modify by hand.
# Wavefront file for 'Pruebax_mesh_0003.obj'

# Vertices (Count = 1024)
v 0 -1 0
v -1 -1 0
v -1 0 0
v 0 0 0
v -1 -1 0
v -2 -1 0
v -2 0 0
v -1 0 0
v -2 -1 0
v -3 -1 0
v -3 0 0
v -2 0 0
v -3 -1 0
v -4 -1 0
v -4 0 0
v -3 0 0
v -4 -1 0
v -5 -1 0
v -5 0 0
v -4 0 0
v -5 -1 0
v -6 -1 0
v -6 0 0
v -5 0 0
v -6 -1 0
v -7 -1 0
v -7 0 0
v -6 0 0
v -7 -1 0
v -8 -1 0
v -8 0 0
v -7 0 0
v -8 -1 0
v -9 -1 0
v -9 0 0
v -8 0 0
v -9 -1 0
v -10 -1 0
v -10 0 0
v -9 0 0
v -10 -1 0
v -11 -1 0
v -11 0 0
v -10 0 0
v -11 -1 0
v -12 -1 0
v -12 0 0
v -11 0 0
v -12 -1 0
v -13 -1 0
v -13 0 0
v -12 0 0
v -13 -1 0
v -14 -1 0
v -14 0 0
v -13 0 0
v -14 -1 0
v -15 -1 0
v -15 0 0
v -14 0 0
v -15 -1 0
v -16 -1 0
v -16 0 0
v -15 0 0
v 0 -2 0
v -1 -2 0
v -1 -1 0
v 0 -1 0
v -1 -2 0
v -2 -2 0
v -2 -1 0
v -1 -1 0
v -2 -2 0
v -3 -2 0
v -3 -1 0
v -2 -1 0
v -3 -2 0
v -4 -2 0
v -4 -1 0
v -3 -1 0
v -4 -2 0
v -5 -2 0
v -5 -1 0
v -4 -1 0
v -5 -2 0
v -6 -2 0
v -6 -1 0
v -5 -1 0
v -6 -2 0
v -7 -2 0
v -7 -1 0
v -6 -1 0
v -7 -2 0
v -8 -2 0
v -8 -1 0
v -7 -1 0
v -8 -2 0
v -9 -2 0
v -9 -1 0
v -8 -1 0
v -9 -2 0
v -10 -2 0
v -10 -1 0
v -9 -1 0
v -10 -2 0
v -11 -2 0
v -11 -1 0
v -10 -1 0
v -11 -2 0
v -12 -2 0
v -12 -1 0
v -11 -1 0
v -12 -2 0
v -13 -2 0
v -13 -1 0
v -12 -1 0
v -13 -2 0
v -14 -2 0
v -14 -1 0
v -13 -1 0
v -14 -2 0
v -15 -2 0
v -15 -1 0
v -14 -1 0
v -15 -2 0
v -16 -2 0
v -16 -1 0
v -15 -1 0
v 0 -3 0
v -1 -3 0
v -1 -2 0
v 0 -2 0
v -1 -3 0
v -2 -3 0
v -2 -2 0
v -1 -2 0
v -2 -3 0
v -3 -3 0
v -3 -2 0
v -2 -2 0
v -3 -3 0
v -4 -3 0
v -4 -2 0
v -3 -2 0
v -4 -3 0
v -5 -3 0
v -5 -2 0
v -4 -2 0
v -5 -3 0
v -6 -3 0
v -6 -2 0
v -5 -2 0
v -6 -3 0
v -7 -3 0
v -7 -2 0
v -6 -2 0
v -7 -3 0
v -8 -3 0
v -8 -2 0
v -7 -2 0
v -8 -3 0
v -9 -3 0
v -9 -2 0
v -8 -2 0
v -9 -3 0
v -10 -3 0
v -10 -2 0
v -9 -2 0
v -10 -3 0
v -11 -3 0
v -11 -2 0
v -10 -2 0
v -11 -3 0
v -12 -3 0
v -12 -2 0
v -11 -2 0
v -12 -3 0
v -13 -3 0
v -13 -2 0
v -12 -2 0
v -13 -3 0
v -14 -3 0
v -14 -2 0
v -13 -2 0
v -14 -3 0
v -15 -3 0
v -15 -2 0
v -14 -2 0
v -15 -3 0
v -16 -3 0
v -16 -2 0
v -15 -2 0
v 0 -4 0
v -1 -4 0
v -1 -3 0
v 0 -3 0
v -1 -4 0
v -2 -4 0
v -2 -3 0
v -1 -3 0
v -2 -4 0
v -3 -4 0
v -3 -3 0
v -2 -3 0
v -3 -4 0
v -4 -4 0
v -4 -3 0
v -3 -3 0
v -4 -4 0
v -5 -4 0
v -5 -3 0
v -4 -3 0
v -5 -4 0
v -6 -4 0
v -6 -3 0
v -5 -3 0
v -6 -4 0
v -7 -4 0
v -7 -3 0
v -6 -3 0
v -7 -4 0
v -8 -4 0
v -8 -3 0
v -7 -3 0
v -8 -4 0
v -9 -4 0
v -9 -3 0
v -8 -3 0
v -9 -4 0
v -10 -4 0
v -10 -3 0
v -9 -3 0
v -10 -4 0
v -11 -4 0
v -11 -3 0
v -10 -3 0
v -11 -4 0
v -12 -4 0
v -12 -3 0
v -11 -3 0
v -12 -4 0
v -13 -4 0
v -13 -3 0
v -12 -3 0
v -13 -4 0
v -14 -4 0
v -14 -3 0
v -13 -3 0
v -14 -4 0
v -15 -4 0
v -15 -3 0
v -14 -3 0
v -15 -4 0
v -16 -4 0
v -16 -3 0
v -15 -3 0
v 0 -5 0
v -1 -5 0
v -1 -4 0
v 0 -4 0
v -1 -5 0
v -2 -5 0
v -2 -4 0
v -1 -4 0
v -2 -5 0
v -3 -5 0
v -3 -4 0
v -2 -4 0
v -3 -5 0
v -4 -5 0
v -4 -4 0
v -3 -4 0
v -4 -5 0
v -5 -5 0
v -5 -4 0
v -4 -4 0
v -5 -5 0
v -6 -5 0
v -6 -4 0
v -5 -4 0
v -6 -5 0
v -7 -5 0
v -7 -4 0
v -6 -4 0
v -7 -5 0
v -8 -5 0
v -8 -4 0
v -7 -4 0
v -8 -5 0
v -9 -5 0
v -9 -4 0
v -8 -4 0
v -9 -5 0
v -10 -5 0
v -10 -4 0
v -9 -4 0
v -10 -5 0
v -11 -5 0
v -11 -4 0
v -10 -4 0
v -11 -5 0
v -12 -5 0
v -12 -4 0
v -11 -4 0
v -12 -5 0
v -13 -5 0
v -13 -4 0
v -12 -4 0
v -13 -5 0
v -14 -5 0
v -14 -4 0
v -13 -4 0
v -14 -5 0
v -15 -5 0
v -15 -4 0
v -14 -4 0
v -15 -5 0
v -16 -5 0
v -16 -4 0
v -15 -4 0
v 0 -6 0
v -1 -6 0
v -1 -5 0
v 0 -5 0
v -1 -6 0
v -2 -6 0
v -2 -5 0
v -1 -5 0
v -2 -6 0
v -3 -6 0
v -3 -5 0
v -2 -5 0
v -3 -6 0
v -4 -6 0
v -4 -5 0
v -3 -5 0
v -4 -6 0
v -5 -6 0
v -5 -5 0
v -4 -5 0
v -5 -6 0
v -6 -6 0
v -6 -5 0
v -5 -5 0
v -6 -6 0
v -7 -6 0
v -7 -5 0
v -6 -5 0
v -7 -6 0
v -8 -6 0
v -8 -5 0
v -7 -5 0
v -8 -6 0
v -9 -6 0
v -9 -5 0
v -8 -5 0
v -9 -6 0
v -10 -6 0
v -10 -5 0
v -9 -5 0
v -10 -6 0
v -11 -6 0
v -11 -5 0
v -10 -5 0
v -11 -6 0
v -12 -6 0
v -12 -5 0
v -11 -5 0
v -12 -6 0
v -13 -6 0
v -13 -5 0
v -12 -5 0
v -13 -6 0
v -14 -6 0
v -14 -5 0
v -13 -5 0
v -14 -6 0
v -15 -6 0
v -15 -5 0
v -14 -5 0
v -15 -6 0
v -16 -6 0
v -16 -5 0
v -15 -5 0
v 0 -7 0
v -1 -7 0
v -1 -6 0
v 0 -6 0
v -1 -7 0
v -2 -7 0
v -2 -6 0
v -1 -6 0
v -2 -7 0
v -3 -7 0
v -3 -6 0
v -2 -6 0
v -3 -7 0
v -4 -7 0
v -4 -6 0
v -3 -6 0
v -4 -7 0
v -5 -7 0
v -5 -6 0
v -4 -6 0
v -5 -7 0
v -6 -7 0
v -6 -6 0
v -5 -6 0
v -6 -7 0
v -7 -7 0
v -7 -6 0
v -6 -6 0
v -7 -7 0
v -8 -7 0
v -8 -6 0
v -7 -6 0
v -8 -7 0
v -9 -7 0
v -9 -6 0
v -8 -6 0
v -9 -7 0
v -10 -7 0
v -10 -6 0
v -9 -6 0
v -10 -7 0
v -11 -7 0
v -11 -6 0
v -10 -6 0
v -11 -7 0
v -12 -7 0
v -12 -6 0
v -11 -6 0
v -12 -7 0
v -13 -7 0
v -13 -6 0
v -12 -6 0
v -13 -7 0
v -14 -7 0
v -14 -6 0
v -13 -6 0
v -14 -7 0
v -15 -7 0
v -15 -6 0
v -14 -6 0
v -15 -7 0
v -16 -7 0
v -16 -6 0
v -15 -6 0
v 0 -8 0
v -1 -8 0
v -1 -7 0
v 0 -7 0
v -1 -8 0
v -2 -8 0
v -2 -7 0
v -1 -7 0
v -2 -8 0
v -3 -8 0
v -3 -7 0
v -2 -7 0
v -3 -8 0
v -4 -8 0
v -4 -7 0
v -3 -7 0
v -4 -8 0
v -5 -8 0
v -5 -7 0
v -4 -7 0
v -5 -8 0
v -6 -8 0
v -6 -7 0
v -5 -7 0
v -6 -8 0
v -7 -8 0
v -7 -7 0
v -6 -7 0
v -7 -8 0
v -8 -8 0
v -8 -7 0
v -7 -7 0
v -8 -8 0
v -9 -8 0
v -9 -7 0
v -8 -7 0
v -9 -8 0
v -10 -8 0
v -10 -7 0
v -9 -7 0
v -10 -8 0
v -11 -8 0
v -11 -7 0
v -10 -7 0
v -11 -8 0
v -12 -8 0
v -12 -7 0
v -11 -7 0
v -12 -8 0
v -13 -8 0
v -13 -7 0
v -12 -7 0
v -13 -8 0
v -14 -8 0
v -14 -7 0
v -13 -7 0
v -14 -8 0
v -15 -8 0
v -15 -7 0
v -14 -7 0
v -15 -8 0
v -16 -8 0
v -16 -7 0
v -15 -7 0
v 0 -9 0
v -1 -9 0
v -1 -8 0
v 0 -8 0
v -1 -9 0
v -2 -9 0
v -2 -8 0
v -1 -8 0
v -2 -9 0
v -3 -9 0
v -3 -8 0
v -2 -8 0
v -3 -9 0
v -4 -9 0
v -4 -8 0
v -3 -8 0
v -4 -9 0
v -5 -9 0
v -5 -8 0
v -4 -8 0
v -5 -9 0
v -6 -9 0
v -6 -8 0
v -5 -8 0
v -6 -9 0
v -7 -9 0
v -7 -8 0
v -6 -8 0
v -7 -9 0
v -8 -9 0
v -8 -8 0
v -7 -8 0
v -8 -9 0
v -9 -9 0
v -9 -8 0
v -8 -8 0
v -9 -9 0
v -10 -9 0
v -10 -8 0
v -9 -8 0
v -10 -9 0
v -11 -9 0
v -11 -8 0
v -10 -8 0
v -11 -9 0
v -12 -9 0
v -12 -8 0
v -11 -8 0
v -12 -9 0
v -13 -9 0
v -13 -8 0
v -12 -8 0
v -13 -9 0
v -14 -9 0
v -14 -8 0
v -13 -8 0
v -14 -9 0
v -15 -9 0
v -15 -8 0
v -14 -8 0
v -15 -9 0
v -16 -9 0
v -16 -8 0
v -15 -8 0
v 0 -10 0
v -1 -10 0
v -1 -9 0
v 0 -9 0
v -1 -10 0
v -2 -10 0
v -2 -9 0
v -1 -9 0
v -2 -10 0
v -3 -10 0
v -3 -9 0
v -2 -9 0
v -3 -10 0
v -4 -10 0
v -4 -9 0
v -3 -9 0
v -4 -10 0
v -5 -10 0
v -5 -9 0
v -4 -9 0
v -5 -10 0
v -6 -10 0
v -6 -9 0
v -5 -9 0
v -6 -10 0
v -7 -10 0
v -7 -9 0
v -6 -9 0
v -7 -10 0
v -8 -10 0
v -8 -9 0
v -7 -9 0
v -8 -10 0
v -9 -10 0
v -9 -9 0
v -8 -9 0
v -9 -10 0
v -10 -10 0
v -10 -9 0
v -9 -9 0
v -10 -10 0
v -11 -10 0
v -11 -9 0
v -10 -9 0
v -11 -10 0
v -12 -10 0
v -12 -9 0
v -11 -9 0
v -12 -10 0
v -13 -10 0
v -13 -9 0
v -12 -9 0
v -13 -10 0
v -14 -10 0
v -14 -9 0
v -13 -9 0
v -14 -10 0
v -15 -10 0
v -15 -9 0
v -14 -9 0
v -15 -10 0
v -16 -10 0
v -16 -9 0
v -15 -9 0
v 0 -11 0
v -1 -11 0
v -1 -10 0
v 0 -10 0
v -1 -11 0
v -2 -11 0
v -2 -10 0
v -1 -10 0
v -2 -11 0
v -3 -11 0
v -3 -10 0
v -2 -10 0
v -3 -11 0
v -4 -11 0
v -4 -10 0
v -3 -10 0
v -4 -11 0
v -5 -11 0
v -5 -10 0
v -4 -10 0
v -5 -11 0
v -6 -11 0
v -6 -10 0
v -5 -10 0
v -6 -11 0
v -7 -11 0
v -7 -10 0
v -6 -10 0
v -7 -11 0
v -8 -11 0
v -8 -10 0
v -7 -10 0
v -8 -11 0
v -9 -11 0
v -9 -10 0
v -8 -10 0
v -9 -11 0
v -10 -11 0
v -10 -10 0
v -9 -10 0
v -10 -11 0
v -11 -11 0
v -11 -10 0
v -10 -10 0
v -11 -11 0
v -12 -11 0
v -12 -10 0
v -11 -10 0
v -12 -11 0
v -13 -11 0
v -13 -10 0
v -12 -10 0
v -13 -11 0
v -14 -11 0
v -14 -10 0
v -13 -10 0
v -14 -11 0
v -15 -11 0
v -15 -10 0
v -14 -10 0
v -15 -11 0
v -16 -11 0
v -16 -10 0
v -15 -10 0
v 0 -12 0
v -1 -12 0
v -1 -11 0
v 0 -11 0
v -1 -12 0
v -2 -12 0
v -2 -11 0
v -1 -11 0
v -2 -12 0
v -3 -12 0
v -3 -11 0
v -2 -11 0
v -3 -12 0
v -4 -12 0
v -4 -11 0
v -3 -11 0
v -4 -12 0
v -5 -12 0
v -5 -11 0
v -4 -11 0
v -5 -12 0
v -6 -12 0
v -6 -11 0
v -5 -11 0
v -6 -12 0
v -7 -12 0
v -7 -11 0
v -6 -11 0
v -7 -12 0
v -8 -12 0
v -8 -11 0
v -7 -11 0
v -8 -12 0
v -9 -12 0
v -9 -11 0
v -8 -11 0
v -9 -12 0
v -10 -12 0
v -10 -11 0
v -9 -11 0
v -10 -12 0
v -11 -12 0
v -11 -11 0
v -10 -11 0
v -11 -12 0
v -12 -12 0
v -12 -11 0
v -11 -11 0
v -12 -12 0
v -13 -12 0
v -13 -11 0
v -12 -11 0
v -13 -12 0
v -14 -12 0
v -14 -11 0
v -13 -11 0
v -14 -12 0
v -15 -12 0
v -15 -11 0
v -14 -11 0
v -15 -12 0
v -16 -12 0
v -16 -11 0
v -15 -11 0
v 0 -13 0
v -1 -13 0
v -1 -12 0
v 0 -12 0
v -1 -13 0
v -2 -13 0
v -2 -12 0
v -1 -12 0
v -2 -13 0
v -3 -13 0
v -3 -12 0
v -2 -12 0
v -3 -13 0
v -4 -13 0
v -4 -12 0
v -3 -12 0
v -4 -13 0
v -5 -13 0
v -5 -12 0
v -4 -12 0
v -5 -13 0
v -6 -13 0
v -6 -12 0
v -5 -12 0
v -6 -13 0
v -7 -13 0
v -7 -12 0
v -6 -12 0
v -7 -13 0
v -8 -13 0
v -8 -12 0
v -7 -12 0
v -8 -13 0
v -9 -13 0
v -9 -12 0
v -8 -12 0
v -9 -13 0
v -10 -13 0
v -10 -12 0
v -9 -12 0
v -10 -13 0
v -11 -13 0
v -11 -12 0
v -10 -12 0
v -11 -13 0
v -12 -13 0
v -12 -12 0
v -11 -12 0
v -12 -13 0
v -13 -13 0
v -13 -12 0
v -12 -12 0
v -13 -13 0
v -14 -13 0
v -14 -12 0
v -13 -12 0
v -14 -13 0
v -15 -13 0
v -15 -12 0
v -14 -12 0
v -15 -13 0
v -16 -13 0
v -16 -12 0
v -15 -12 0
v 0 -14 0
v -1 -14 0
v -1 -13 0
v 0 -13 0
v -1 -14 0
v -2 -14 0
v -2 -13 0
v -1 -13 0
v -2 -14 0
v -3 -14 0
v -3 -13 0
v -2 -13 0
v -3 -14 0
v -4 -14 0
v -4 -13 0
v -3 -13 0
v -4 -14 0
v -5 -14 0
v -5 -13 0
v -4 -13 0
v -5 -14 0
v -6 -14 0
v -6 -13 0
v -5 -13 0
v -6 -14 0
v -7 -14 0
v -7 -13 0
v -6 -13 0
v -7 -14 0
v -8 -14 0
v -8 -13 0
v -7 -13 0
v -8 -14 0
v -9 -14 0
v -9 -13 0
v -8 -13 0
v -9 -14 0
v -10 -14 0
v -10 -13 0
v -9 -13 0
v -10 -14 0
v -11 -14 0
v -11 -13 0
v -10 -13 0
v -11 -14 0
v -12 -14 0
v -12 -13 0
v -11 -13 0
v -12 -14 0
v -13 -14 0
v -13 -13 0
v -12 -13 0
v -13 -14 0
v -14 -14 0
v -14 -13 0
v -13 -13 0
v -14 -14 0
v -15 -14 0
v -15 -13 0
v -14 -13 0
v -15 -14 0
v -16 -14 0
v -16 -13 0
v -15 -13 0
v 0 -15 0
v -1 -15 0
v -1 -14 0
v 0 -14 0
v -1 -15 0
v -2 -15 0
v -2 -14 0
v -1 -14 0
v -2 -15 0
v -3 -15 0
v -3 -14 0
v -2 -14 0
v -3 -15 0
v -4 -15 0
v -4 -14 0
v -3 -14 0
v -4 -15 0
v -5 -15 0
v -5 -14 0
v -4 -14 0
v -5 -15 0
v -6 -15 0
v -6 -14 0
v -5 -14 0
v -6 -15 0
v -7 -15 0
v -7 -14 0
v -6 -14 0
v -7 -15 0
v -8 -15 0
v -8 -14 0
v -7 -14 0
v -8 -15 0
v -9 -15 0
v -9 -14 0
v -8 -14 0
v -9 -15 0
v -10 -15 0
v -10 -14 0
v -9 -14 0
v -10 -15 0
v -11 -15 0
v -11 -14 0
v -10 -14 0
v -11 -15 0
v -12 -15 0
v -12 -14 0
v -11 -14 0
v -12 -15 0
v -13 -15 0
v -13 -14 0
v -12 -14 0
v -13 -15 0
v -14 -15 0
v -14 -14 0
v -13 -14 0
v -14 -15 0
v -15 -15 0
v -15 -14 0
v -14 -14 0
v -15 -15 0
v -16 -15 0
v -16 -14 0
v -15 -14 0
v 0 -16 0
v -1 -16 0
v -1 -15 0
v 0 -15 0
v -1 -16 0
v -2 -16 0
v -2 -15 0
v -1 -15 0
v -2 -16 0
v -3 -16 0
v -3 -15 0
v -2 -15 0
v -3 -16 0
v -4 -16 0
v -4 -15 0
v -3 -15 0
v -4 -16 0
v -5 -16 0
v -5 -15 0
v -4 -15 0
v -5 -16 0
v -6 -16 0
v -6 -15 0
v -5 -15 0
v -6 -16 0
v -7 -16 0
v -7 -15 0
v -6 -15 0
v -7 -16 0
v -8 -16 0
v -8 -15 0
v -7 -15 0
v -8 -16 0
v -9 -16 0
v -9 -15 0
v -8 -15 0
v -9 -16 0
v -10 -16 0
v -10 -15 0
v -9 -15 0
v -10 -16 0
v -11 -16 0
v -11 -15 0
v -10 -15 0
v -11 -16 0
v -12 -16 0
v -12 -15 0
v -11 -15 0
v -12 -16 0
v -13 -16 0
v -13 -15 0
v -12 -15 0
v -13 -16 0
v -14 -16 0
v -14 -15 0
v -13 -15 0
v -14 -16 0
v -15 -16 0
v -15 -15 0
v -14 -15 0
v -15 -16 0
v -16 -16 0
v -16 -15 0
v -15 -15 0

# Texture cooridinates (Count = 32)
vt 0.07692308 0.9210526
vt 0.1025641 0.9210526
vt 0.1025641 0.9473684
vt 0.07692308 0.9473684
vt 0.1282051 0.9473684
vt 0.1282051 0.9736842
vt 0.1025641 0.9736842
vt 0.07692308 0.9736842
vt 0.1282051 0.9210526
vt 0.2307692 0.8947368
vt 0.2564103 0.8947368
vt 0.2564103 0.9210526
vt 0.2307692 0.9210526
vt 0.05128205 0.5
vt 0.07692308 0.5
vt 0.07692308 0.5263158
vt 0.05128205 0.5263158
vt 0.05128205 0.9473684
vt 0.05128205 0.9736842
vt 0.05128205 0.8947368
vt 0.07692308 0.8947368
vt 0.05128205 0.9210526
vt 0.05128205 0.4736842
vt 0.07692308 0.4736842
vt 0.3333333 0.8947368
vt 0.3589744 0.8947368
vt 0.3589744 0.9210526
vt 0.3333333 0.9210526
vt 0.1025641 0.8947368
vt 0.3076923 0.8947368
vt 0.3076923 0.9210526
vt 0.1282051 0.8947368

# Normal
vn 0 0 -1

# Mesh description
g Pruebax_mesh_0003

# Faces
f 1/1/1 2/2/1 3/3/1 4/4/1
f 5/3/1 6/5/1 7/6/1 8/7/1
f 9/3/1 10/5/1 11/6/1 12/7/1
f 13/4/1 14/3/1 15/7/1 16/8/1
f 17/4/1 18/3/1 19/7/1 20/8/1
f 21/2/1 22/9/1 23/5/1 24/3/1
f 25/2/1 26/9/1 27/5/1 28/3/1
f 29/3/1 30/5/1 31/6/1 32/7/1
f 33/4/1 34/3/1 35/7/1 36/8/1
f 37/1/1 38/2/1 39/3/1 40/4/1
f 41/4/1 42/3/1 43/7/1 44/8/1
f 45/3/1 46/5/1 47/6/1 48/7/1
f 49/2/1 50/9/1 51/5/1 52/3/1
f 53/3/1 54/5/1 55/6/1 56/7/1
f 57/4/1 58/3/1 59/7/1 60/8/1
f 61/4/1 62/3/1 63/7/1 64/8/1
f 65/2/1 66/9/1 67/5/1 68/3/1
f 69/4/1 70/3/1 71/7/1 72/8/1
f 73/3/1 74/5/1 75/6/1 76/7/1
f 77/4/1 78/3/1 79/7/1 80/8/1
f 81/3/1 82/5/1 83/6/1 84/7/1
f 85/4/1 86/3/1 87/7/1 88/8/1
f 89/3/1 90/5/1 91/6/1 92/7/1
f 93/4/1 94/3/1 95/7/1 96/8/1
f 97/4/1 98/3/1 99/7/1 100/8/1
f 101/4/1 102/3/1 103/7/1 104/8/1
f 105/1/1 106/2/1 107/3/1 108/4/1
f 109/2/1 110/9/1 111/5/1 112/3/1
f 113/2/1 114/9/1 115/5/1 116/3/1
f 117/1/1 118/2/1 119/3/1 120/4/1
f 121/4/1 122/3/1 123/7/1 124/8/1
f 125/1/1 126/2/1 127/3/1 128/4/1
f 129/2/1 130/9/1 131/5/1 132/3/1
f 133/3/1 134/5/1 135/6/1 136/7/1
f 137/4/1 138/3/1 139/7/1 140/8/1
f 141/3/1 142/5/1 143/6/1 144/7/1
f 145/2/1 146/9/1 147/5/1 148/3/1
f 149/2/1 150/9/1 151/5/1 152/3/1
f 153/4/1 154/3/1 155/7/1 156/8/1
f 157/4/1 158/3/1 159/7/1 160/8/1
f 161/4/1 162/3/1 163/7/1 164/8/1
f 165/3/1 166/5/1 167/6/1 168/7/1
f 169/3/1 170/5/1 171/6/1 172/7/1
f 173/3/1 174/5/1 175/6/1 176/7/1
f 177/2/1 178/9/1 179/5/1 180/3/1
f 181/1/1 182/2/1 183/3/1 184/4/1
f 185/2/1 186/9/1 187/5/1 188/3/1
f 189/3/1 190/5/1 191/6/1 192/7/1
f 193/4/1 194/3/1 195/7/1 196/8/1
f 197/10/1 198/11/1 199/12/1 200/13/1
f 201/2/1 202/9/1 203/5/1 204/3/1
f 205/3/1 206/5/1 207/6/1 208/7/1
f 209/1/1 210/2/1 211/3/1 212/4/1
f 213/1/1 214/2/1 215/3/1 216/4/1
f 217/1/1 218/2/1 219/3/1 220/4/1
f 221/1/1 222/2/1 223/3/1 224/4/1
f 225/4/1 226/3/1 227/7/1 228/8/1
f 229/2/1 230/9/1 231/5/1 232/3/1
f 233/1/1 234/2/1 235/3/1 236/4/1
f 237/2/1 238/9/1 239/5/1 240/3/1
f 241/2/1 242/9/1 243/5/1 244/3/1
f 245/1/1 246/2/1 247/3/1 248/4/1
f 249/1/1 250/2/1 251/3/1 252/4/1
f 253/1/1 254/2/1 255/3/1 256/4/1
f 257/2/1 258/9/1 259/5/1 260/3/1
f 261/1/1 262/2/1 263/3/1 264/4/1
f 265/2/1 266/9/1 267/5/1 268/3/1
f 269/1/1 270/2/1 271/3/1 272/4/1
f 273/1/1 274/2/1 275/3/1 276/4/1
f 277/4/1 278/3/1 279/7/1 280/8/1
f 281/1/1 282/2/1 283/3/1 284/4/1
f 285/3/1 286/5/1 287/6/1 288/7/1
f 289/3/1 290/5/1 291/6/1 292/7/1
f 293/4/1 294/3/1 295/7/1 296/8/1
f 297/1/1 298/2/1 299/3/1 300/4/1
f 301/1/1 302/2/1 303/3/1 304/4/1
f 305/4/1 306/3/1 307/7/1 308/8/1
f 309/3/1 310/5/1 311/6/1 312/7/1
f 313/4/1 314/3/1 315/7/1 316/8/1
f 317/2/1 318/9/1 319/5/1 320/3/1
f 321/3/1 322/5/1 323/6/1 324/7/1
f 325/2/1 326/9/1 327/5/1 328/3/1
f 329/2/1 330/9/1 331/5/1 332/3/1
f 333/4/1 334/3/1 335/7/1 336/8/1
f 337/2/1 338/9/1 339/5/1 340/3/1
f 341/1/1 342/2/1 343/3/1 344/4/1
f 345/3/1 346/5/1 347/6/1 348/7/1
f 349/4/1 350/3/1 351/7/1 352/8/1
f 353/3/1 354/5/1 355/6/1 356/7/1
f 357/3/1 358/5/1 359/6/1 360/7/1
f 361/3/1 362/5/1 363/6/1 364/7/1
f 365/4/1 366/3/1 367/7/1 368/8/1
f 369/4/1 370/3/1 371/7/1 372/8/1
f 373/4/1 374/3/1 375/7/1 376/8/1
f 377/4/1 378/3/1 379/7/1 380/8/1
f 381/1/1 382/2/1 383/3/1 384/4/1
f 385/3/1 386/5/1 387/6/1 388/7/1
f 389/2/1 390/9/1 391/5/1 392/3/1
f 393/2/1 394/9/1 395/5/1 396/3/1
f 397/1/1 398/2/1 399/3/1 400/4/1
f 401/2/1 402/9/1 403/5/1 404/3/1
f 405/1/1 406/2/1 407/3/1 408/4/1
f 409/1/1 410/2/1 411/3/1 412/4/1
f 413/1/1 414/2/1 415/3/1 416/4/1
f 417/14/1 418/15/1 419/16/1 420/17/1
f 421/14/1 422/15/1 423/16/1 424/17/1
f 425/14/1 426/15/1 427/16/1 428/17/1
f 429/4/1 430/3/1 431/7/1 432/8/1
f 433/3/1 434/5/1 435/6/1 436/7/1
f 437/1/1 438/2/1 439/3/1 440/4/1
f 441/3/1 442/5/1 443/6/1 444/7/1
f 445/1/1 446/2/1 447/3/1 448/4/1
f 449/4/1 450/3/1 451/7/1 452/8/1
f 453/1/1 454/2/1 455/3/1 456/4/1
f 457/2/1 458/9/1 459/5/1 460/3/1
f 461/4/1 462/3/1 463/7/1 464/8/1
f 465/18/1 466/4/1 467/8/1 468/19/1
f 469/20/1 470/21/1 471/1/1 472/22/1
f 473/4/1 474/3/1 475/7/1 476/8/1
f 477/4/1 478/3/1 479/7/1 480/8/1
f 481/23/1 482/24/1 483/15/1 484/14/1
f 485/23/1 486/24/1 487/15/1 488/14/1
f 489/23/1 490/24/1 491/15/1 492/14/1
f 493/1/1 494/2/1 495/3/1 496/4/1
f 497/2/1 498/9/1 499/5/1 500/3/1
f 501/4/1 502/3/1 503/7/1 504/8/1
f 505/1/1 506/2/1 507/3/1 508/4/1
f 509/3/1 510/5/1 511/6/1 512/7/1
f 513/3/1 514/5/1 515/6/1 516/7/1
f 517/2/1 518/9/1 519/5/1 520/3/1
f 521/3/1 522/5/1 523/6/1 524/7/1
f 525/2/1 526/9/1 527/5/1 528/3/1
f 529/1/1 530/2/1 531/3/1 532/4/1
f 533/4/1 534/3/1 535/7/1 536/8/1
f 537/3/1 538/5/1 539/6/1 540/7/1
f 541/2/1 542/9/1 543/5/1 544/3/1
f 545/1/1 546/2/1 547/3/1 548/4/1
f 549/3/1 550/5/1 551/6/1 552/7/1
f 553/2/1 554/9/1 555/5/1 556/3/1
f 557/4/1 558/3/1 559/7/1 560/8/1
f 561/2/1 562/9/1 563/5/1 564/3/1
f 565/3/1 566/5/1 567/6/1 568/7/1
f 569/3/1 570/5/1 571/6/1 572/7/1
f 573/4/1 574/3/1 575/7/1 576/8/1
f 577/3/1 578/5/1 579/6/1 580/7/1
f 581/3/1 582/5/1 583/6/1 584/7/1
f 585/3/1 586/5/1 587/6/1 588/7/1
f 589/25/1 590/26/1 591/27/1 592/28/1
f 593/1/1 594/2/1 595/3/1 596/4/1
f 597/2/1 598/9/1 599/5/1 600/3/1
f 601/3/1 602/5/1 603/6/1 604/7/1
f 605/21/1 606/29/1 607/2/1 608/1/1
f 609/2/1 610/9/1 611/5/1 612/3/1
f 613/4/1 614/3/1 615/7/1 616/8/1
f 617/3/1 618/5/1 619/6/1 620/7/1
f 621/1/1 622/2/1 623/3/1 624/4/1
f 625/3/1 626/5/1 627/6/1 628/7/1
f 629/1/1 630/2/1 631/3/1 632/4/1
f 633/1/1 634/2/1 635/3/1 636/4/1
f 637/4/1 638/3/1 639/7/1 640/8/1
f 641/4/1 642/3/1 643/7/1 644/8/1
f 645/2/1 646/9/1 647/5/1 648/3/1
f 649/2/1 650/9/1 651/5/1 652/3/1
f 653/1/1 654/2/1 655/3/1 656/4/1
f 657/1/1 658/2/1 659/3/1 660/4/1
f 661/1/1 662/2/1 663/3/1 664/4/1
f 665/2/1 666/9/1 667/5/1 668/3/1
f 669/1/1 670/2/1 671/3/1 672/4/1
f 673/1/1 674/2/1 675/3/1 676/4/1
f 677/2/1 678/9/1 679/5/1 680/3/1
f 681/4/1 682/3/1 683/7/1 684/8/1
f 685/1/1 686/2/1 687/3/1 688/4/1
f 689/1/1 690/2/1 691/3/1 692/4/1
f 693/4/1 694/3/1 695/7/1 696/8/1
f 697/20/1 698/21/1 699/1/1 700/22/1
f 701/4/1 702/3/1 703/7/1 704/8/1
f 705/4/1 706/3/1 707/7/1 708/8/1
f 709/2/1 710/9/1 711/5/1 712/3/1
f 713/3/1 714/5/1 715/6/1 716/7/1
f 717/3/1 718/5/1 719/6/1 720/7/1
f 721/4/1 722/3/1 723/7/1 724/8/1
f 725/1/1 726/2/1 727/3/1 728/4/1
f 729/3/1 730/5/1 731/6/1 732/7/1
f 733/2/1 734/9/1 735/5/1 736/3/1
f 737/1/1 738/2/1 739/3/1 740/4/1
f 741/30/1 742/25/1 743/28/1 744/31/1
f 745/1/1 746/2/1 747/3/1 748/4/1
f 749/1/1 750/2/1 751/3/1 752/4/1
f 753/3/1 754/5/1 755/6/1 756/7/1
f 757/1/1 758/2/1 759/3/1 760/4/1
f 761/2/1 762/9/1 763/5/1 764/3/1
f 765/2/1 766/9/1 767/5/1 768/3/1
f 769/3/1 770/5/1 771/6/1 772/7/1
f 773/4/1 774/3/1 775/7/1 776/8/1
f 777/3/1 778/5/1 779/6/1 780/7/1
f 781/1/1 782/2/1 783/3/1 784/4/1
f 785/2/1 786/9/1 787/5/1 788/3/1
f 789/3/1 790/5/1 791/6/1 792/7/1
f 793/2/1 794/9/1 795/5/1 796/3/1
f 797/1/1 798/2/1 799/3/1 800/4/1
f 801/1/1 802/2/1 803/3/1 804/4/1
f 805/4/1 806/3/1 807/7/1 808/8/1
f 809/2/1 810/9/1 811/5/1 812/3/1
f 813/2/1 814/9/1 815/5/1 816/3/1
f 817/4/1 818/3/1 819/7/1 820/8/1
f 821/1/1 822/2/1 823/3/1 824/4/1
f 825/2/1 826/9/1 827/5/1 828/3/1
f 829/2/1 830/9/1 831/5/1 832/3/1
f 833/1/1 834/2/1 835/3/1 836/4/1
f 837/3/1 838/5/1 839/6/1 840/7/1
f 841/3/1 842/5/1 843/6/1 844/7/1
f 845/4/1 846/3/1 847/7/1 848/8/1
f 849/4/1 850/3/1 851/7/1 852/8/1
f 853/2/1 854/9/1 855/5/1 856/3/1
f 857/29/1 858/32/1 859/9/1 860/2/1
f 861/3/1 862/5/1 863/6/1 864/7/1
f 865/2/1 866/9/1 867/5/1 868/3/1
f 869/2/1 870/9/1 871/5/1 872/3/1
f 873/1/1 874/2/1 875/3/1 876/4/1
f 877/2/1 878/9/1 879/5/1 880/3/1
f 881/2/1 882/9/1 883/5/1 884/3/1
f 885/2/1 886/9/1 887/5/1 888/3/1
f 889/3/1 890/5/1 891/6/1 892/7/1
f 893/3/1 894/5/1 895/6/1 896/7/1
f 897/1/1 898/2/1 899/3/1 900/4/1
f 901/2/1 902/9/1 903/5/1 904/3/1
f 905/3/1 906/5/1 907/6/1 908/7/1
f 909/3/1 910/5/1 911/6/1 912/7/1
f 913/4/1 914/3/1 915/7/1 916/8/1
f 917/4/1 918/3/1 919/7/1 920/8/1
f 921/1/1 922/2/1 923/3/1 924/4/1
f 925/3/1 926/5/1 927/6/1 928/7/1
f 929/3/1 930/5/1 931/6/1 932/7/1
f 933/2/1 934/9/1 935/5/1 936/3/1
f 937/3/1 938/5/1 939/6/1 940/7/1
f 941/3/1 942/5/1 943/6/1 944/7/1
f 945/4/1 946/3/1 947/7/1 948/8/1
f 949/3/1 950/5/1 951/6/1 952/7/1
f 953/3/1 954/5/1 955/6/1 956/7/1
f 957/4/1 958/3/1 959/7/1 960/8/1
f 961/2/1 962/9/1 963/5/1 964/3/1
f 965/3/1 966/5/1 967/6/1 968/7/1
f 969/2/1 970/9/1 971/5/1 972/3/1
f 973/1/1 974/2/1 975/3/1 976/4/1
f 977/3/1 978/5/1 979/6/1 980/7/1
f 981/2/1 982/9/1 983/5/1 984/3/1
f 985/1/1 986/2/1 987/3/1 988/4/1
f 989/4/1 990/3/1 991/7/1 992/8/1
f 993/4/1 994/3/1 995/7/1 996/8/1
f 997/3/1 998/5/1 999/6/1 1000/7/1
f 1001/4/1 1002/3/1 1003/7/1 1004/8/1
f 1005/2/1 1006/9/1 1007/5/1 1008/3/1
f 1009/4/1 1010/3/1 1011/7/1 1012/8/1
f 1013/4/1 1014/3/1 1015/7/1 1016/8/1
f 1017/2/1 1018/9/1 1019/5/1 1020/3/1
f 1021/1/1 1022/2/1 1023/3/1 1024/4/1

