# Tiled2Unity generated file. Do not modify by hand.
# Wavefront file for 'Pruebax_mesh_0012.obj'

# Vertices (Count = 16)
v -1 -6 0
v -2 -6 0
v -2 -5 0
v -1 -5 0
v -2 -6 0
v -3 -6 0
v -3 -5 0
v -2 -5 0
v -3 -6 0
v -4 -6 0
v -4 -5 0
v -3 -5 0
v -4 -6 0
v -5 -6 0
v -5 -5 0
v -4 -5 0

# Texture cooridinates (Count = 10)
vt 0.6538461 0.7083334
vt 0.6730769 0.7083334
vt 0.6730769 0.75
vt 0.6538461 0.75
vt 0.6923077 0.7083334
vt 0.6923077 0.75
vt 0.7115384 0.7083334
vt 0.7115384 0.75
vt 0.7307692 0.7083334
vt 0.7307692 0.75

# Normal
vn 0 0 -1

# Mesh description
g Pruebax_mesh_0012

# Faces
f 1/1/1 2/2/1 3/3/1 4/4/1
f 5/2/1 6/5/1 7/6/1 8/3/1
f 9/5/1 10/7/1 11/8/1 12/6/1
f 13/7/1 14/9/1 15/10/1 16/8/1

