# Tiled2Unity generated file. Do not modify by hand.
# Wavefront file for 'Pruebax_mesh_0019.obj'

# Vertices (Count = 48)
v -5 -3 0
v -6 -3 0
v -6 -2 0
v -5 -2 0
v -6 -3 0
v -7 -3 0
v -7 -2 0
v -6 -2 0
v -7 -3 0
v -8 -3 0
v -8 -2 0
v -7 -2 0
v -5 -4 0
v -6 -4 0
v -6 -3 0
v -5 -3 0
v -6 -4 0
v -7 -4 0
v -7 -3 0
v -6 -3 0
v -7 -4 0
v -8 -4 0
v -8 -3 0
v -7 -3 0
v -6 -12 0
v -7 -12 0
v -7 -11 0
v -6 -11 0
v -7 -12 0
v -8 -12 0
v -8 -11 0
v -7 -11 0
v -8 -12 0
v -9 -12 0
v -9 -11 0
v -8 -11 0
v -6 -13 0
v -7 -13 0
v -7 -12 0
v -6 -12 0
v -7 -13 0
v -8 -13 0
v -8 -12 0
v -7 -12 0
v -8 -13 0
v -9 -13 0
v -9 -12 0
v -8 -12 0

# Texture cooridinates (Count = 24)
vt 0.01923077 0.2916667
vt 0.03846154 0.2916667
vt 0.03846154 0.3333333
vt 0.01923077 0.3333333
vt 0.05769231 0.2916667
vt 0.05769231 0.3333333
vt 0.07692308 0.2916667
vt 0.07692308 0.3333333
vt 0.01923077 0.25
vt 0.03846154 0.25
vt 0.05769231 0.25
vt 0.07692308 0.25
vt 0.3461539 0.9166667
vt 0.3653846 0.9166667
vt 0.3653846 0.9583333
vt 0.3461539 0.9583333
vt 0.3846154 0.9166667
vt 0.3846154 0.9583333
vt 0.4038461 0.9166667
vt 0.4038461 0.9583333
vt 0.3461539 0.875
vt 0.3653846 0.875
vt 0.3846154 0.875
vt 0.4038461 0.875

# Normal
vn 0 0 -1

# Mesh description
g Pruebax_mesh_0019

# Faces
f 1/1/1 2/2/1 3/3/1 4/4/1
f 5/2/1 6/5/1 7/6/1 8/3/1
f 9/5/1 10/7/1 11/8/1 12/6/1
f 13/9/1 14/10/1 15/2/1 16/1/1
f 17/10/1 18/11/1 19/5/1 20/2/1
f 21/11/1 22/12/1 23/7/1 24/5/1
f 25/13/1 26/14/1 27/15/1 28/16/1
f 29/14/1 30/17/1 31/18/1 32/15/1
f 33/17/1 34/19/1 35/20/1 36/18/1
f 37/21/1 38/22/1 39/14/1 40/13/1
f 41/22/1 42/23/1 43/17/1 44/14/1
f 45/23/1 46/24/1 47/19/1 48/17/1

