# Tiled2Unity generated file. Do not modify by hand.
# Wavefront file for 'Pruebax_mesh_0015.obj'

# Vertices (Count = 136)
v -6 -4 0
v -7 -4 0
v -7 -3 0
v -6 -3 0
v -7 -4 0
v -8 -4 0
v -8 -3 0
v -7 -3 0
v -6 -5 0
v -7 -5 0
v -7 -4 0
v -6 -4 0
v -7 -5 0
v -8 -5 0
v -8 -4 0
v -7 -4 0
v 0 -7 0
v -1 -7 0
v -1 -6 0
v 0 -6 0
v -1 -7 0
v -2 -7 0
v -2 -6 0
v -1 -6 0
v -2 -7 0
v -3 -7 0
v -3 -6 0
v -2 -6 0
v -3 -7 0
v -4 -7 0
v -4 -6 0
v -3 -6 0
v -4 -7 0
v -5 -7 0
v -5 -6 0
v -4 -6 0
v 0 -8 0
v -1 -8 0
v -1 -7 0
v 0 -7 0
v -1 -8 0
v -2 -8 0
v -2 -7 0
v -1 -7 0
v -2 -8 0
v -3 -8 0
v -3 -7 0
v -2 -7 0
v -3 -8 0
v -4 -8 0
v -4 -7 0
v -3 -7 0
v -4 -8 0
v -5 -8 0
v -5 -7 0
v -4 -7 0
v -8 -8 0
v -9 -8 0
v -9 -7 0
v -8 -7 0
v -9 -8 0
v -10 -8 0
v -10 -7 0
v -9 -7 0
v -10 -8 0
v -11 -8 0
v -11 -7 0
v -10 -7 0
v 0 -9 0
v -1 -9 0
v -1 -8 0
v 0 -8 0
v -1 -9 0
v -2 -9 0
v -2 -8 0
v -1 -8 0
v -2 -9 0
v -3 -9 0
v -3 -8 0
v -2 -8 0
v -3 -9 0
v -4 -9 0
v -4 -8 0
v -3 -8 0
v -4 -9 0
v -5 -9 0
v -5 -8 0
v -4 -8 0
v -8 -9 0
v -9 -9 0
v -9 -8 0
v -8 -8 0
v -9 -9 0
v -10 -9 0
v -10 -8 0
v -9 -8 0
v -10 -9 0
v -11 -9 0
v -11 -8 0
v -10 -8 0
v 0 -10 0
v -1 -10 0
v -1 -9 0
v 0 -9 0
v -1 -10 0
v -2 -10 0
v -2 -9 0
v -1 -9 0
v -2 -10 0
v -3 -10 0
v -3 -9 0
v -2 -9 0
v -3 -10 0
v -4 -10 0
v -4 -9 0
v -3 -9 0
v -4 -10 0
v -5 -10 0
v -5 -9 0
v -4 -9 0
v -1 -11 0
v -2 -11 0
v -2 -10 0
v -1 -10 0
v -2 -11 0
v -3 -11 0
v -3 -10 0
v -2 -10 0
v -3 -11 0
v -4 -11 0
v -4 -10 0
v -3 -10 0
v -4 -11 0
v -5 -11 0
v -5 -10 0
v -4 -10 0

# Texture cooridinates (Count = 53)
vt 0.2884615 0.8333333
vt 0.3076923 0.8333333
vt 0.3076923 0.875
vt 0.2884615 0.875
vt 0.2884615 0.7916667
vt 0.3076923 0.7916667
vt 0.6346154 0.9166667
vt 0.6538461 0.9166667
vt 0.6538461 0.9583333
vt 0.6346154 0.9583333
vt 0.6730769 0.9166667
vt 0.6730769 0.9583333
vt 0.6923077 0.9166667
vt 0.6923077 0.9583333
vt 0.7115384 0.9166667
vt 0.7115384 0.9583333
vt 0.7307692 0.9166667
vt 0.7307692 0.9583333
vt 0.6346154 0.875
vt 0.6538461 0.875
vt 0.6730769 0.875
vt 0.6923077 0.875
vt 0.7115384 0.875
vt 0.7307692 0.875
vt 0.01923077 0.2916667
vt 0.03846154 0.2916667
vt 0.03846154 0.3333333
vt 0.01923077 0.3333333
vt 0.05769231 0.2916667
vt 0.05769231 0.3333333
vt 0.07692308 0.2916667
vt 0.07692308 0.3333333
vt 0.6346154 0.8333333
vt 0.6538461 0.8333333
vt 0.6730769 0.8333333
vt 0.6923077 0.8333333
vt 0.7115384 0.8333333
vt 0.7307692 0.8333333
vt 0.01923077 0.25
vt 0.03846154 0.25
vt 0.05769231 0.25
vt 0.07692308 0.25
vt 0.6346154 0.7916667
vt 0.6538461 0.7916667
vt 0.6730769 0.7916667
vt 0.6923077 0.7916667
vt 0.7115384 0.7916667
vt 0.7307692 0.7916667
vt 0.6538461 0.75
vt 0.6730769 0.75
vt 0.6923077 0.75
vt 0.7115384 0.75
vt 0.7307692 0.75

# Normal
vn 0 0 -1

# Mesh description
g Pruebax_mesh_0015

# Faces
f 1/1/1 2/2/1 3/3/1 4/4/1
f 5/1/1 6/2/1 7/3/1 8/4/1
f 9/5/1 10/6/1 11/2/1 12/1/1
f 13/5/1 14/6/1 15/2/1 16/1/1
f 17/7/1 18/8/1 19/9/1 20/10/1
f 21/8/1 22/11/1 23/12/1 24/9/1
f 25/11/1 26/13/1 27/14/1 28/12/1
f 29/13/1 30/15/1 31/16/1 32/14/1
f 33/15/1 34/17/1 35/18/1 36/16/1
f 37/19/1 38/20/1 39/8/1 40/7/1
f 41/20/1 42/21/1 43/11/1 44/8/1
f 45/21/1 46/22/1 47/13/1 48/11/1
f 49/22/1 50/23/1 51/15/1 52/13/1
f 53/23/1 54/24/1 55/17/1 56/15/1
f 57/25/1 58/26/1 59/27/1 60/28/1
f 61/26/1 62/29/1 63/30/1 64/27/1
f 65/29/1 66/31/1 67/32/1 68/30/1
f 69/33/1 70/34/1 71/20/1 72/19/1
f 73/34/1 74/35/1 75/21/1 76/20/1
f 77/35/1 78/36/1 79/22/1 80/21/1
f 81/36/1 82/37/1 83/23/1 84/22/1
f 85/37/1 86/38/1 87/24/1 88/23/1
f 89/39/1 90/40/1 91/26/1 92/25/1
f 93/40/1 94/41/1 95/29/1 96/26/1
f 97/41/1 98/42/1 99/31/1 100/29/1
f 101/43/1 102/44/1 103/34/1 104/33/1
f 105/44/1 106/45/1 107/35/1 108/34/1
f 109/45/1 110/46/1 111/36/1 112/35/1
f 113/46/1 114/47/1 115/37/1 116/36/1
f 117/47/1 118/48/1 119/38/1 120/37/1
f 121/49/1 122/50/1 123/45/1 124/44/1
f 125/50/1 126/51/1 127/46/1 128/45/1
f 129/51/1 130/52/1 131/47/1 132/46/1
f 133/52/1 134/53/1 135/48/1 136/47/1

