# Tiled2Unity generated file. Do not modify by hand.
# Wavefront file for 'RPG---Escena_mesh_0034.obj'

# Vertices (Count = 288)
v -5 -1 0
v -6 -1 0
v -6 0 0
v -5 0 0
v -6 -1 0
v -7 -1 0
v -7 0 0
v -6 0 0
v -7 -1 0
v -8 -1 0
v -8 0 0
v -7 0 0
v -8 -1 0
v -9 -1 0
v -9 0 0
v -8 0 0
v -9 -1 0
v -10 -1 0
v -10 0 0
v -9 0 0
v -10 -1 0
v -11 -1 0
v -11 0 0
v -10 0 0
v -5 -2 0
v -6 -2 0
v -6 -1 0
v -5 -1 0
v -6 -2 0
v -7 -2 0
v -7 -1 0
v -6 -1 0
v -7 -2 0
v -8 -2 0
v -8 -1 0
v -7 -1 0
v -8 -2 0
v -9 -2 0
v -9 -1 0
v -8 -1 0
v -9 -2 0
v -10 -2 0
v -10 -1 0
v -9 -1 0
v -10 -2 0
v -11 -2 0
v -11 -1 0
v -10 -1 0
v -11 -2 0
v -12 -2 0
v -12 -1 0
v -11 -1 0
v -5 -3 0
v -6 -3 0
v -6 -2 0
v -5 -2 0
v -6 -3 0
v -7 -3 0
v -7 -2 0
v -6 -2 0
v -7 -3 0
v -8 -3 0
v -8 -2 0
v -7 -2 0
v -8 -3 0
v -9 -3 0
v -9 -2 0
v -8 -2 0
v -9 -3 0
v -10 -3 0
v -10 -2 0
v -9 -2 0
v -10 -3 0
v -11 -3 0
v -11 -2 0
v -10 -2 0
v -11 -3 0
v -12 -3 0
v -12 -2 0
v -11 -2 0
v -5 -4 0
v -6 -4 0
v -6 -3 0
v -5 -3 0
v -6 -4 0
v -7 -4 0
v -7 -3 0
v -6 -3 0
v -7 -4 0
v -8 -4 0
v -8 -3 0
v -7 -3 0
v -8 -4 0
v -9 -4 0
v -9 -3 0
v -8 -3 0
v -9 -4 0
v -10 -4 0
v -10 -3 0
v -9 -3 0
v -10 -4 0
v -11 -4 0
v -11 -3 0
v -10 -3 0
v -11 -4 0
v -12 -4 0
v -12 -3 0
v -11 -3 0
v -5 -5 0
v -6 -5 0
v -6 -4 0
v -5 -4 0
v -6 -5 0
v -7 -5 0
v -7 -4 0
v -6 -4 0
v -7 -5 0
v -8 -5 0
v -8 -4 0
v -7 -4 0
v -8 -5 0
v -9 -5 0
v -9 -4 0
v -8 -4 0
v -9 -5 0
v -10 -5 0
v -10 -4 0
v -9 -4 0
v -10 -5 0
v -11 -5 0
v -11 -4 0
v -10 -4 0
v -11 -5 0
v -12 -5 0
v -12 -4 0
v -11 -4 0
v -13 -5 0
v -14 -5 0
v -14 -4 0
v -13 -4 0
v -14 -5 0
v -15 -5 0
v -15 -4 0
v -14 -4 0
v -15 -5 0
v -16 -5 0
v -16 -4 0
v -15 -4 0
v -5 -6 0
v -6 -6 0
v -6 -5 0
v -5 -5 0
v -6 -6 0
v -7 -6 0
v -7 -5 0
v -6 -5 0
v -7 -6 0
v -8 -6 0
v -8 -5 0
v -7 -5 0
v -8 -6 0
v -9 -6 0
v -9 -5 0
v -8 -5 0
v -9 -6 0
v -10 -6 0
v -10 -5 0
v -9 -5 0
v -10 -6 0
v -11 -6 0
v -11 -5 0
v -10 -5 0
v -11 -6 0
v -12 -6 0
v -12 -5 0
v -11 -5 0
v -13 -6 0
v -14 -6 0
v -14 -5 0
v -13 -5 0
v -14 -6 0
v -15 -6 0
v -15 -5 0
v -14 -5 0
v -15 -6 0
v -16 -6 0
v -16 -5 0
v -15 -5 0
v 0 -7 0
v -1 -7 0
v -1 -6 0
v 0 -6 0
v -1 -7 0
v -2 -7 0
v -2 -6 0
v -1 -6 0
v -2 -7 0
v -3 -7 0
v -3 -6 0
v -2 -6 0
v -3 -7 0
v -4 -7 0
v -4 -6 0
v -3 -6 0
v -4 -7 0
v -5 -7 0
v -5 -6 0
v -4 -6 0
v -5 -7 0
v -6 -7 0
v -6 -6 0
v -5 -6 0
v -6 -7 0
v -7 -7 0
v -7 -6 0
v -6 -6 0
v -7 -7 0
v -8 -7 0
v -8 -6 0
v -7 -6 0
v -8 -7 0
v -9 -7 0
v -9 -6 0
v -8 -6 0
v -9 -7 0
v -10 -7 0
v -10 -6 0
v -9 -6 0
v -10 -7 0
v -11 -7 0
v -11 -6 0
v -10 -6 0
v -11 -7 0
v -12 -7 0
v -12 -6 0
v -11 -6 0
v -12 -7 0
v -13 -7 0
v -13 -6 0
v -12 -6 0
v -13 -7 0
v -14 -7 0
v -14 -6 0
v -13 -6 0
v -14 -7 0
v -15 -7 0
v -15 -6 0
v -14 -6 0
v -15 -7 0
v -16 -7 0
v -16 -6 0
v -15 -6 0
v 0 -8 0
v -1 -8 0
v -1 -7 0
v 0 -7 0
v 0 -9 0
v -1 -9 0
v -1 -8 0
v 0 -8 0
v 0 -10 0
v -1 -10 0
v -1 -9 0
v 0 -9 0
v 0 -11 0
v -1 -11 0
v -1 -10 0
v 0 -10 0
v 0 -12 0
v -1 -12 0
v -1 -11 0
v 0 -11 0
v 0 -13 0
v -1 -13 0
v -1 -12 0
v 0 -12 0
v 0 -14 0
v -1 -14 0
v -1 -13 0
v 0 -13 0
v 0 -15 0
v -1 -15 0
v -1 -14 0
v 0 -14 0
v 0 -16 0
v -1 -16 0
v -1 -15 0
v 0 -15 0

# Texture cooridinates (Count = 94)
vt 0.5128205 0.4736842
vt 0.5384616 0.4736842
vt 0.5384616 0.5
vt 0.5128205 0.5
vt 0.1025641 0.6052631
vt 0.1282051 0.6052631
vt 0.1282051 0.6315789
vt 0.1025641 0.6315789
vt 0.1538462 0.6052631
vt 0.1538462 0.6315789
vt 0.1794872 0.6052631
vt 0.1794872 0.6315789
vt 0.1025641 0.5263158
vt 0.1282051 0.5263158
vt 0.1282051 0.5526316
vt 0.1025641 0.5526316
vt 0.1538462 0.5263158
vt 0.1538462 0.5526316
vt 0.1794872 0.5263158
vt 0.1794872 0.5526316
vt 0.02564103 0.1842105
vt 0.05128205 0.1842105
vt 0.05128205 0.2105263
vt 0.02564103 0.2105263
vt 0.1025641 0.5
vt 0.1282051 0.5
vt 0.07692308 0.1842105
vt 0.1025641 0.1842105
vt 0.1025641 0.2105263
vt 0.07692308 0.2105263
vt 0.7179487 0.6052631
vt 0.7435898 0.6052631
vt 0.7435898 0.6315789
vt 0.7179487 0.6315789
vt 0.02564103 0.1315789
vt 0.05128205 0.1315789
vt 0.05128205 0.1578947
vt 0.02564103 0.1578947
vt 0.1025641 0.1315789
vt 0.1282051 0.1315789
vt 0.1282051 0.1578947
vt 0.1025641 0.1578947
vt 0.07692308 0.1315789
vt 0.07692308 0.1578947
vt 0.7948718 0.6052631
vt 0.8205128 0.6052631
vt 0.8205128 0.6315789
vt 0.7948718 0.6315789
vt 0.8461539 0.6052631
vt 0.8717949 0.6052631
vt 0.8717949 0.6315789
vt 0.8461539 0.6315789
vt 0.1282051 0.07894737
vt 0.1538462 0.07894737
vt 0.1538462 0.1052632
vt 0.1282051 0.1052632
vt 0.1794872 0.07894737
vt 0.1794872 0.1052632
vt 0.2051282 0.07894737
vt 0.2051282 0.1052632
vt 0.7692308 0.6052631
vt 0.7692308 0.6315789
vt 0.8205128 0.7894737
vt 0.8461539 0.7894737
vt 0.8461539 0.8157895
vt 0.8205128 0.8157895
vt 0.1282051 0.3684211
vt 0.1538462 0.3684211
vt 0.1538462 0.3947368
vt 0.1282051 0.3947368
vt 0.1794872 0.3684211
vt 0.1794872 0.3947368
vt 0.2051282 0.3684211
vt 0.2051282 0.3947368
vt 0.6923077 0.7894737
vt 0.7179487 0.7894737
vt 0.7179487 0.8157895
vt 0.6923077 0.8157895
vt 0.8717949 0.7894737
vt 0.8974359 0.7894737
vt 0.8974359 0.8157895
vt 0.8717949 0.8157895
vt 0.9230769 0.7894737
vt 0.948718 0.7894737
vt 0.948718 0.8157895
vt 0.9230769 0.8157895
vt 0.1282051 0.3421053
vt 0.1538462 0.3421053
vt 0.1794872 0.3421053
vt 0.2051282 0.3421053
vt 0.1538462 0.9736842
vt 0.1794872 0.9736842
vt 0.1794872 1
vt 0.1538462 1

# Normal
vn 0 0 -1

# Mesh description
g RPG---Escena_mesh_0034

# Faces
f 1/1/1 2/2/1 3/3/1 4/4/1
f 5/1/1 6/2/1 7/3/1 8/4/1
f 9/5/1 10/6/1 11/7/1 12/8/1
f 13/6/1 14/9/1 15/10/1 16/7/1
f 17/9/1 18/11/1 19/12/1 20/10/1
f 21/1/1 22/2/1 23/3/1 24/4/1
f 25/1/1 26/2/1 27/3/1 28/4/1
f 29/1/1 30/2/1 31/3/1 32/4/1
f 33/13/1 34/14/1 35/15/1 36/16/1
f 37/14/1 38/17/1 39/18/1 40/15/1
f 41/17/1 42/19/1 43/20/1 44/18/1
f 45/1/1 46/2/1 47/3/1 48/4/1
f 49/1/1 50/2/1 51/3/1 52/4/1
f 53/1/1 54/2/1 55/3/1 56/4/1
f 57/1/1 58/2/1 59/3/1 60/4/1
f 61/21/1 62/22/1 63/23/1 64/24/1
f 65/25/1 66/26/1 67/14/1 68/13/1
f 69/27/1 70/28/1 71/29/1 72/30/1
f 73/1/1 74/2/1 75/3/1 76/4/1
f 77/1/1 78/2/1 79/3/1 80/4/1
f 81/1/1 82/2/1 83/3/1 84/4/1
f 85/31/1 86/32/1 87/33/1 88/34/1
f 89/35/1 90/36/1 91/37/1 92/38/1
f 93/39/1 94/40/1 95/41/1 96/42/1
f 97/43/1 98/39/1 99/42/1 100/44/1
f 101/45/1 102/46/1 103/47/1 104/48/1
f 105/1/1 106/2/1 107/3/1 108/4/1
f 109/1/1 110/2/1 111/3/1 112/4/1
f 113/49/1 114/50/1 115/51/1 116/52/1
f 117/53/1 118/54/1 119/55/1 120/56/1
f 121/54/1 122/57/1 123/58/1 124/55/1
f 125/57/1 126/59/1 127/60/1 128/58/1
f 129/32/1 130/61/1 131/62/1 132/33/1
f 133/1/1 134/2/1 135/3/1 136/4/1
f 137/1/1 138/2/1 139/3/1 140/4/1
f 141/1/1 142/2/1 143/3/1 144/4/1
f 145/1/1 146/2/1 147/3/1 148/4/1
f 149/1/1 150/2/1 151/3/1 152/4/1
f 153/63/1 154/64/1 155/65/1 156/66/1
f 157/67/1 158/68/1 159/69/1 160/70/1
f 161/68/1 162/71/1 163/72/1 164/69/1
f 165/71/1 166/73/1 167/74/1 168/72/1
f 169/75/1 170/76/1 171/77/1 172/78/1
f 173/1/1 174/2/1 175/3/1 176/4/1
f 177/1/1 178/2/1 179/3/1 180/4/1
f 181/1/1 182/2/1 183/3/1 184/4/1
f 185/1/1 186/2/1 187/3/1 188/4/1
f 189/79/1 190/80/1 191/81/1 192/82/1
f 193/79/1 194/80/1 195/81/1 196/82/1
f 197/79/1 198/80/1 199/81/1 200/82/1
f 201/79/1 202/80/1 203/81/1 204/82/1
f 205/79/1 206/80/1 207/81/1 208/82/1
f 209/79/1 210/80/1 211/81/1 212/82/1
f 213/83/1 214/84/1 215/85/1 216/86/1
f 217/87/1 218/88/1 219/68/1 220/67/1
f 221/88/1 222/89/1 223/71/1 224/68/1
f 225/89/1 226/90/1 227/73/1 228/71/1
f 229/80/1 230/83/1 231/86/1 232/81/1
f 233/79/1 234/80/1 235/81/1 236/82/1
f 237/79/1 238/80/1 239/81/1 240/82/1
f 241/79/1 242/80/1 243/81/1 244/82/1
f 245/79/1 246/80/1 247/81/1 248/82/1
f 249/79/1 250/80/1 251/81/1 252/82/1
f 253/91/1 254/92/1 255/93/1 256/94/1
f 257/91/1 258/92/1 259/93/1 260/94/1
f 261/91/1 262/92/1 263/93/1 264/94/1
f 265/91/1 266/92/1 267/93/1 268/94/1
f 269/91/1 270/92/1 271/93/1 272/94/1
f 273/91/1 274/92/1 275/93/1 276/94/1
f 277/91/1 278/92/1 279/93/1 280/94/1
f 281/91/1 282/92/1 283/93/1 284/94/1
f 285/91/1 286/92/1 287/93/1 288/94/1

