# Tiled2Unity generated file. Do not modify by hand.
# Wavefront file for 'RPG---Escena_mesh_0052.obj'

# Vertices (Count = 16)
v -15 -2 0
v -16 -2 0
v -16 -1 0
v -15 -1 0
v -13 -7 0
v -14 -7 0
v -14 -6 0
v -13 -6 0
v -14 -7 0
v -15 -7 0
v -15 -6 0
v -14 -6 0
v -15 -7 0
v -16 -7 0
v -16 -6 0
v -15 -6 0

# Texture cooridinates (Count = 4)
vt 0.5128205 0.4736842
vt 0.5384616 0.4736842
vt 0.5384616 0.5
vt 0.5128205 0.5

# Normal
vn 0 0 -1

# Mesh description
g RPG---Escena_mesh_0052

# Faces
f 1/1/1 2/2/1 3/3/1 4/4/1
f 5/1/1 6/2/1 7/3/1 8/4/1
f 9/1/1 10/2/1 11/3/1 12/4/1
f 13/1/1 14/2/1 15/3/1 16/4/1

