# Tiled2Unity generated file. Do not modify by hand.
# Wavefront file for 'RPG---Escena_mesh_0005.obj'

# Vertices (Count = 1024)
v 0 -1 0
v -1 -1 0
v -1 0 0
v 0 0 0
v -1 -1 0
v -2 -1 0
v -2 0 0
v -1 0 0
v -2 -1 0
v -3 -1 0
v -3 0 0
v -2 0 0
v -3 -1 0
v -4 -1 0
v -4 0 0
v -3 0 0
v -4 -1 0
v -5 -1 0
v -5 0 0
v -4 0 0
v -5 -1 0
v -6 -1 0
v -6 0 0
v -5 0 0
v -6 -1 0
v -7 -1 0
v -7 0 0
v -6 0 0
v -7 -1 0
v -8 -1 0
v -8 0 0
v -7 0 0
v -8 -1 0
v -9 -1 0
v -9 0 0
v -8 0 0
v -9 -1 0
v -10 -1 0
v -10 0 0
v -9 0 0
v -10 -1 0
v -11 -1 0
v -11 0 0
v -10 0 0
v -11 -1 0
v -12 -1 0
v -12 0 0
v -11 0 0
v -12 -1 0
v -13 -1 0
v -13 0 0
v -12 0 0
v -13 -1 0
v -14 -1 0
v -14 0 0
v -13 0 0
v -14 -1 0
v -15 -1 0
v -15 0 0
v -14 0 0
v -15 -1 0
v -16 -1 0
v -16 0 0
v -15 0 0
v 0 -2 0
v -1 -2 0
v -1 -1 0
v 0 -1 0
v -1 -2 0
v -2 -2 0
v -2 -1 0
v -1 -1 0
v -2 -2 0
v -3 -2 0
v -3 -1 0
v -2 -1 0
v -3 -2 0
v -4 -2 0
v -4 -1 0
v -3 -1 0
v -4 -2 0
v -5 -2 0
v -5 -1 0
v -4 -1 0
v -5 -2 0
v -6 -2 0
v -6 -1 0
v -5 -1 0
v -6 -2 0
v -7 -2 0
v -7 -1 0
v -6 -1 0
v -7 -2 0
v -8 -2 0
v -8 -1 0
v -7 -1 0
v -8 -2 0
v -9 -2 0
v -9 -1 0
v -8 -1 0
v -9 -2 0
v -10 -2 0
v -10 -1 0
v -9 -1 0
v -10 -2 0
v -11 -2 0
v -11 -1 0
v -10 -1 0
v -11 -2 0
v -12 -2 0
v -12 -1 0
v -11 -1 0
v -12 -2 0
v -13 -2 0
v -13 -1 0
v -12 -1 0
v -13 -2 0
v -14 -2 0
v -14 -1 0
v -13 -1 0
v -14 -2 0
v -15 -2 0
v -15 -1 0
v -14 -1 0
v -15 -2 0
v -16 -2 0
v -16 -1 0
v -15 -1 0
v 0 -3 0
v -1 -3 0
v -1 -2 0
v 0 -2 0
v -1 -3 0
v -2 -3 0
v -2 -2 0
v -1 -2 0
v -2 -3 0
v -3 -3 0
v -3 -2 0
v -2 -2 0
v -3 -3 0
v -4 -3 0
v -4 -2 0
v -3 -2 0
v -4 -3 0
v -5 -3 0
v -5 -2 0
v -4 -2 0
v -5 -3 0
v -6 -3 0
v -6 -2 0
v -5 -2 0
v -6 -3 0
v -7 -3 0
v -7 -2 0
v -6 -2 0
v -7 -3 0
v -8 -3 0
v -8 -2 0
v -7 -2 0
v -8 -3 0
v -9 -3 0
v -9 -2 0
v -8 -2 0
v -9 -3 0
v -10 -3 0
v -10 -2 0
v -9 -2 0
v -10 -3 0
v -11 -3 0
v -11 -2 0
v -10 -2 0
v -11 -3 0
v -12 -3 0
v -12 -2 0
v -11 -2 0
v -12 -3 0
v -13 -3 0
v -13 -2 0
v -12 -2 0
v -13 -3 0
v -14 -3 0
v -14 -2 0
v -13 -2 0
v -14 -3 0
v -15 -3 0
v -15 -2 0
v -14 -2 0
v -15 -3 0
v -16 -3 0
v -16 -2 0
v -15 -2 0
v 0 -4 0
v -1 -4 0
v -1 -3 0
v 0 -3 0
v -1 -4 0
v -2 -4 0
v -2 -3 0
v -1 -3 0
v -2 -4 0
v -3 -4 0
v -3 -3 0
v -2 -3 0
v -3 -4 0
v -4 -4 0
v -4 -3 0
v -3 -3 0
v -4 -4 0
v -5 -4 0
v -5 -3 0
v -4 -3 0
v -5 -4 0
v -6 -4 0
v -6 -3 0
v -5 -3 0
v -6 -4 0
v -7 -4 0
v -7 -3 0
v -6 -3 0
v -7 -4 0
v -8 -4 0
v -8 -3 0
v -7 -3 0
v -8 -4 0
v -9 -4 0
v -9 -3 0
v -8 -3 0
v -9 -4 0
v -10 -4 0
v -10 -3 0
v -9 -3 0
v -10 -4 0
v -11 -4 0
v -11 -3 0
v -10 -3 0
v -11 -4 0
v -12 -4 0
v -12 -3 0
v -11 -3 0
v -12 -4 0
v -13 -4 0
v -13 -3 0
v -12 -3 0
v -13 -4 0
v -14 -4 0
v -14 -3 0
v -13 -3 0
v -14 -4 0
v -15 -4 0
v -15 -3 0
v -14 -3 0
v -15 -4 0
v -16 -4 0
v -16 -3 0
v -15 -3 0
v 0 -5 0
v -1 -5 0
v -1 -4 0
v 0 -4 0
v -1 -5 0
v -2 -5 0
v -2 -4 0
v -1 -4 0
v -2 -5 0
v -3 -5 0
v -3 -4 0
v -2 -4 0
v -3 -5 0
v -4 -5 0
v -4 -4 0
v -3 -4 0
v -4 -5 0
v -5 -5 0
v -5 -4 0
v -4 -4 0
v -5 -5 0
v -6 -5 0
v -6 -4 0
v -5 -4 0
v -6 -5 0
v -7 -5 0
v -7 -4 0
v -6 -4 0
v -7 -5 0
v -8 -5 0
v -8 -4 0
v -7 -4 0
v -8 -5 0
v -9 -5 0
v -9 -4 0
v -8 -4 0
v -9 -5 0
v -10 -5 0
v -10 -4 0
v -9 -4 0
v -10 -5 0
v -11 -5 0
v -11 -4 0
v -10 -4 0
v -11 -5 0
v -12 -5 0
v -12 -4 0
v -11 -4 0
v -12 -5 0
v -13 -5 0
v -13 -4 0
v -12 -4 0
v -13 -5 0
v -14 -5 0
v -14 -4 0
v -13 -4 0
v -14 -5 0
v -15 -5 0
v -15 -4 0
v -14 -4 0
v -15 -5 0
v -16 -5 0
v -16 -4 0
v -15 -4 0
v 0 -6 0
v -1 -6 0
v -1 -5 0
v 0 -5 0
v -1 -6 0
v -2 -6 0
v -2 -5 0
v -1 -5 0
v -2 -6 0
v -3 -6 0
v -3 -5 0
v -2 -5 0
v -3 -6 0
v -4 -6 0
v -4 -5 0
v -3 -5 0
v -4 -6 0
v -5 -6 0
v -5 -5 0
v -4 -5 0
v -5 -6 0
v -6 -6 0
v -6 -5 0
v -5 -5 0
v -6 -6 0
v -7 -6 0
v -7 -5 0
v -6 -5 0
v -7 -6 0
v -8 -6 0
v -8 -5 0
v -7 -5 0
v -8 -6 0
v -9 -6 0
v -9 -5 0
v -8 -5 0
v -9 -6 0
v -10 -6 0
v -10 -5 0
v -9 -5 0
v -10 -6 0
v -11 -6 0
v -11 -5 0
v -10 -5 0
v -11 -6 0
v -12 -6 0
v -12 -5 0
v -11 -5 0
v -12 -6 0
v -13 -6 0
v -13 -5 0
v -12 -5 0
v -13 -6 0
v -14 -6 0
v -14 -5 0
v -13 -5 0
v -14 -6 0
v -15 -6 0
v -15 -5 0
v -14 -5 0
v -15 -6 0
v -16 -6 0
v -16 -5 0
v -15 -5 0
v 0 -7 0
v -1 -7 0
v -1 -6 0
v 0 -6 0
v -1 -7 0
v -2 -7 0
v -2 -6 0
v -1 -6 0
v -2 -7 0
v -3 -7 0
v -3 -6 0
v -2 -6 0
v -3 -7 0
v -4 -7 0
v -4 -6 0
v -3 -6 0
v -4 -7 0
v -5 -7 0
v -5 -6 0
v -4 -6 0
v -5 -7 0
v -6 -7 0
v -6 -6 0
v -5 -6 0
v -6 -7 0
v -7 -7 0
v -7 -6 0
v -6 -6 0
v -7 -7 0
v -8 -7 0
v -8 -6 0
v -7 -6 0
v -8 -7 0
v -9 -7 0
v -9 -6 0
v -8 -6 0
v -9 -7 0
v -10 -7 0
v -10 -6 0
v -9 -6 0
v -10 -7 0
v -11 -7 0
v -11 -6 0
v -10 -6 0
v -11 -7 0
v -12 -7 0
v -12 -6 0
v -11 -6 0
v -12 -7 0
v -13 -7 0
v -13 -6 0
v -12 -6 0
v -13 -7 0
v -14 -7 0
v -14 -6 0
v -13 -6 0
v -14 -7 0
v -15 -7 0
v -15 -6 0
v -14 -6 0
v -15 -7 0
v -16 -7 0
v -16 -6 0
v -15 -6 0
v 0 -8 0
v -1 -8 0
v -1 -7 0
v 0 -7 0
v -1 -8 0
v -2 -8 0
v -2 -7 0
v -1 -7 0
v -2 -8 0
v -3 -8 0
v -3 -7 0
v -2 -7 0
v -3 -8 0
v -4 -8 0
v -4 -7 0
v -3 -7 0
v -4 -8 0
v -5 -8 0
v -5 -7 0
v -4 -7 0
v -5 -8 0
v -6 -8 0
v -6 -7 0
v -5 -7 0
v -6 -8 0
v -7 -8 0
v -7 -7 0
v -6 -7 0
v -7 -8 0
v -8 -8 0
v -8 -7 0
v -7 -7 0
v -8 -8 0
v -9 -8 0
v -9 -7 0
v -8 -7 0
v -9 -8 0
v -10 -8 0
v -10 -7 0
v -9 -7 0
v -10 -8 0
v -11 -8 0
v -11 -7 0
v -10 -7 0
v -11 -8 0
v -12 -8 0
v -12 -7 0
v -11 -7 0
v -12 -8 0
v -13 -8 0
v -13 -7 0
v -12 -7 0
v -13 -8 0
v -14 -8 0
v -14 -7 0
v -13 -7 0
v -14 -8 0
v -15 -8 0
v -15 -7 0
v -14 -7 0
v -15 -8 0
v -16 -8 0
v -16 -7 0
v -15 -7 0
v 0 -9 0
v -1 -9 0
v -1 -8 0
v 0 -8 0
v -1 -9 0
v -2 -9 0
v -2 -8 0
v -1 -8 0
v -2 -9 0
v -3 -9 0
v -3 -8 0
v -2 -8 0
v -3 -9 0
v -4 -9 0
v -4 -8 0
v -3 -8 0
v -4 -9 0
v -5 -9 0
v -5 -8 0
v -4 -8 0
v -5 -9 0
v -6 -9 0
v -6 -8 0
v -5 -8 0
v -6 -9 0
v -7 -9 0
v -7 -8 0
v -6 -8 0
v -7 -9 0
v -8 -9 0
v -8 -8 0
v -7 -8 0
v -8 -9 0
v -9 -9 0
v -9 -8 0
v -8 -8 0
v -9 -9 0
v -10 -9 0
v -10 -8 0
v -9 -8 0
v -10 -9 0
v -11 -9 0
v -11 -8 0
v -10 -8 0
v -11 -9 0
v -12 -9 0
v -12 -8 0
v -11 -8 0
v -12 -9 0
v -13 -9 0
v -13 -8 0
v -12 -8 0
v -13 -9 0
v -14 -9 0
v -14 -8 0
v -13 -8 0
v -14 -9 0
v -15 -9 0
v -15 -8 0
v -14 -8 0
v -15 -9 0
v -16 -9 0
v -16 -8 0
v -15 -8 0
v 0 -10 0
v -1 -10 0
v -1 -9 0
v 0 -9 0
v -1 -10 0
v -2 -10 0
v -2 -9 0
v -1 -9 0
v -2 -10 0
v -3 -10 0
v -3 -9 0
v -2 -9 0
v -3 -10 0
v -4 -10 0
v -4 -9 0
v -3 -9 0
v -4 -10 0
v -5 -10 0
v -5 -9 0
v -4 -9 0
v -5 -10 0
v -6 -10 0
v -6 -9 0
v -5 -9 0
v -6 -10 0
v -7 -10 0
v -7 -9 0
v -6 -9 0
v -7 -10 0
v -8 -10 0
v -8 -9 0
v -7 -9 0
v -8 -10 0
v -9 -10 0
v -9 -9 0
v -8 -9 0
v -9 -10 0
v -10 -10 0
v -10 -9 0
v -9 -9 0
v -10 -10 0
v -11 -10 0
v -11 -9 0
v -10 -9 0
v -11 -10 0
v -12 -10 0
v -12 -9 0
v -11 -9 0
v -12 -10 0
v -13 -10 0
v -13 -9 0
v -12 -9 0
v -13 -10 0
v -14 -10 0
v -14 -9 0
v -13 -9 0
v -14 -10 0
v -15 -10 0
v -15 -9 0
v -14 -9 0
v -15 -10 0
v -16 -10 0
v -16 -9 0
v -15 -9 0
v 0 -11 0
v -1 -11 0
v -1 -10 0
v 0 -10 0
v -1 -11 0
v -2 -11 0
v -2 -10 0
v -1 -10 0
v -2 -11 0
v -3 -11 0
v -3 -10 0
v -2 -10 0
v -3 -11 0
v -4 -11 0
v -4 -10 0
v -3 -10 0
v -4 -11 0
v -5 -11 0
v -5 -10 0
v -4 -10 0
v -5 -11 0
v -6 -11 0
v -6 -10 0
v -5 -10 0
v -6 -11 0
v -7 -11 0
v -7 -10 0
v -6 -10 0
v -7 -11 0
v -8 -11 0
v -8 -10 0
v -7 -10 0
v -8 -11 0
v -9 -11 0
v -9 -10 0
v -8 -10 0
v -9 -11 0
v -10 -11 0
v -10 -10 0
v -9 -10 0
v -10 -11 0
v -11 -11 0
v -11 -10 0
v -10 -10 0
v -11 -11 0
v -12 -11 0
v -12 -10 0
v -11 -10 0
v -12 -11 0
v -13 -11 0
v -13 -10 0
v -12 -10 0
v -13 -11 0
v -14 -11 0
v -14 -10 0
v -13 -10 0
v -14 -11 0
v -15 -11 0
v -15 -10 0
v -14 -10 0
v -15 -11 0
v -16 -11 0
v -16 -10 0
v -15 -10 0
v 0 -12 0
v -1 -12 0
v -1 -11 0
v 0 -11 0
v -1 -12 0
v -2 -12 0
v -2 -11 0
v -1 -11 0
v -2 -12 0
v -3 -12 0
v -3 -11 0
v -2 -11 0
v -3 -12 0
v -4 -12 0
v -4 -11 0
v -3 -11 0
v -4 -12 0
v -5 -12 0
v -5 -11 0
v -4 -11 0
v -5 -12 0
v -6 -12 0
v -6 -11 0
v -5 -11 0
v -6 -12 0
v -7 -12 0
v -7 -11 0
v -6 -11 0
v -7 -12 0
v -8 -12 0
v -8 -11 0
v -7 -11 0
v -8 -12 0
v -9 -12 0
v -9 -11 0
v -8 -11 0
v -9 -12 0
v -10 -12 0
v -10 -11 0
v -9 -11 0
v -10 -12 0
v -11 -12 0
v -11 -11 0
v -10 -11 0
v -11 -12 0
v -12 -12 0
v -12 -11 0
v -11 -11 0
v -12 -12 0
v -13 -12 0
v -13 -11 0
v -12 -11 0
v -13 -12 0
v -14 -12 0
v -14 -11 0
v -13 -11 0
v -14 -12 0
v -15 -12 0
v -15 -11 0
v -14 -11 0
v -15 -12 0
v -16 -12 0
v -16 -11 0
v -15 -11 0
v 0 -13 0
v -1 -13 0
v -1 -12 0
v 0 -12 0
v -1 -13 0
v -2 -13 0
v -2 -12 0
v -1 -12 0
v -2 -13 0
v -3 -13 0
v -3 -12 0
v -2 -12 0
v -3 -13 0
v -4 -13 0
v -4 -12 0
v -3 -12 0
v -4 -13 0
v -5 -13 0
v -5 -12 0
v -4 -12 0
v -5 -13 0
v -6 -13 0
v -6 -12 0
v -5 -12 0
v -6 -13 0
v -7 -13 0
v -7 -12 0
v -6 -12 0
v -7 -13 0
v -8 -13 0
v -8 -12 0
v -7 -12 0
v -8 -13 0
v -9 -13 0
v -9 -12 0
v -8 -12 0
v -9 -13 0
v -10 -13 0
v -10 -12 0
v -9 -12 0
v -10 -13 0
v -11 -13 0
v -11 -12 0
v -10 -12 0
v -11 -13 0
v -12 -13 0
v -12 -12 0
v -11 -12 0
v -12 -13 0
v -13 -13 0
v -13 -12 0
v -12 -12 0
v -13 -13 0
v -14 -13 0
v -14 -12 0
v -13 -12 0
v -14 -13 0
v -15 -13 0
v -15 -12 0
v -14 -12 0
v -15 -13 0
v -16 -13 0
v -16 -12 0
v -15 -12 0
v 0 -14 0
v -1 -14 0
v -1 -13 0
v 0 -13 0
v -1 -14 0
v -2 -14 0
v -2 -13 0
v -1 -13 0
v -2 -14 0
v -3 -14 0
v -3 -13 0
v -2 -13 0
v -3 -14 0
v -4 -14 0
v -4 -13 0
v -3 -13 0
v -4 -14 0
v -5 -14 0
v -5 -13 0
v -4 -13 0
v -5 -14 0
v -6 -14 0
v -6 -13 0
v -5 -13 0
v -6 -14 0
v -7 -14 0
v -7 -13 0
v -6 -13 0
v -7 -14 0
v -8 -14 0
v -8 -13 0
v -7 -13 0
v -8 -14 0
v -9 -14 0
v -9 -13 0
v -8 -13 0
v -9 -14 0
v -10 -14 0
v -10 -13 0
v -9 -13 0
v -10 -14 0
v -11 -14 0
v -11 -13 0
v -10 -13 0
v -11 -14 0
v -12 -14 0
v -12 -13 0
v -11 -13 0
v -12 -14 0
v -13 -14 0
v -13 -13 0
v -12 -13 0
v -13 -14 0
v -14 -14 0
v -14 -13 0
v -13 -13 0
v -14 -14 0
v -15 -14 0
v -15 -13 0
v -14 -13 0
v -15 -14 0
v -16 -14 0
v -16 -13 0
v -15 -13 0
v 0 -15 0
v -1 -15 0
v -1 -14 0
v 0 -14 0
v -1 -15 0
v -2 -15 0
v -2 -14 0
v -1 -14 0
v -2 -15 0
v -3 -15 0
v -3 -14 0
v -2 -14 0
v -3 -15 0
v -4 -15 0
v -4 -14 0
v -3 -14 0
v -4 -15 0
v -5 -15 0
v -5 -14 0
v -4 -14 0
v -5 -15 0
v -6 -15 0
v -6 -14 0
v -5 -14 0
v -6 -15 0
v -7 -15 0
v -7 -14 0
v -6 -14 0
v -7 -15 0
v -8 -15 0
v -8 -14 0
v -7 -14 0
v -8 -15 0
v -9 -15 0
v -9 -14 0
v -8 -14 0
v -9 -15 0
v -10 -15 0
v -10 -14 0
v -9 -14 0
v -10 -15 0
v -11 -15 0
v -11 -14 0
v -10 -14 0
v -11 -15 0
v -12 -15 0
v -12 -14 0
v -11 -14 0
v -12 -15 0
v -13 -15 0
v -13 -14 0
v -12 -14 0
v -13 -15 0
v -14 -15 0
v -14 -14 0
v -13 -14 0
v -14 -15 0
v -15 -15 0
v -15 -14 0
v -14 -14 0
v -15 -15 0
v -16 -15 0
v -16 -14 0
v -15 -14 0
v 0 -16 0
v -1 -16 0
v -1 -15 0
v 0 -15 0
v -1 -16 0
v -2 -16 0
v -2 -15 0
v -1 -15 0
v -2 -16 0
v -3 -16 0
v -3 -15 0
v -2 -15 0
v -3 -16 0
v -4 -16 0
v -4 -15 0
v -3 -15 0
v -4 -16 0
v -5 -16 0
v -5 -15 0
v -4 -15 0
v -5 -16 0
v -6 -16 0
v -6 -15 0
v -5 -15 0
v -6 -16 0
v -7 -16 0
v -7 -15 0
v -6 -15 0
v -7 -16 0
v -8 -16 0
v -8 -15 0
v -7 -15 0
v -8 -16 0
v -9 -16 0
v -9 -15 0
v -8 -15 0
v -9 -16 0
v -10 -16 0
v -10 -15 0
v -9 -15 0
v -10 -16 0
v -11 -16 0
v -11 -15 0
v -10 -15 0
v -11 -16 0
v -12 -16 0
v -12 -15 0
v -11 -15 0
v -12 -16 0
v -13 -16 0
v -13 -15 0
v -12 -15 0
v -13 -16 0
v -14 -16 0
v -14 -15 0
v -13 -15 0
v -14 -16 0
v -15 -16 0
v -15 -15 0
v -14 -15 0
v -15 -16 0
v -16 -16 0
v -16 -15 0
v -15 -15 0

# Texture cooridinates (Count = 64)
vt 0.05128205 0.9473684
vt 0.07692308 0.9473684
vt 0.07692308 0.9736842
vt 0.05128205 0.9736842
vt 0.1025641 0.9473684
vt 0.1025641 0.9736842
vt 0.1538462 0.8947368
vt 0.1794872 0.8947368
vt 0.1794872 0.9210526
vt 0.1538462 0.9210526
vt 0.1538462 0.9473684
vt 0.1794872 0.9473684
vt 0.1794872 0.9736842
vt 0.1538462 0.9736842
vt 0.2051282 0.8947368
vt 0.2307692 0.8947368
vt 0.2307692 0.9210526
vt 0.2051282 0.9210526
vt 0.07692308 0.9210526
vt 0.1025641 0.9210526
vt 0.5641026 0.2894737
vt 0.5897436 0.2894737
vt 0.5897436 0.3157895
vt 0.5641026 0.3157895
vt 0.5641026 0.9210526
vt 0.5897436 0.9210526
vt 0.5897436 0.9473684
vt 0.5641026 0.9473684
vt 0.6153846 0.7894737
vt 0.6410257 0.7894737
vt 0.6410257 0.8157895
vt 0.6153846 0.8157895
vt 0.8461539 0.7894737
vt 0.8717949 0.7894737
vt 0.8717949 0.8157895
vt 0.8461539 0.8157895
vt 0.6923077 0.9210526
vt 0.7179487 0.9210526
vt 0.7179487 0.9473684
vt 0.6923077 0.9473684
vt 0.1282051 0.05263156
vt 0.1538462 0.05263156
vt 0.1538462 0.07894737
vt 0.1282051 0.07894737
vt 0.1794872 0.05263156
vt 0.1794872 0.07894737
vt 0.2051282 0.05263156
vt 0.2051282 0.07894737
vt 0.8205128 0.9210526
vt 0.8461539 0.9210526
vt 0.8461539 0.9473684
vt 0.8205128 0.9473684
vt 0.7435898 0.7894737
vt 0.7692308 0.7894737
vt 0.7692308 0.8157895
vt 0.7435898 0.8157895
vt 0.5897436 0.7894737
vt 0.5897436 0.8157895
vt 0.8205128 0.7894737
vt 0.8205128 0.8157895
vt 0.6923077 0.7894737
vt 0.7179487 0.7894737
vt 0.7179487 0.8157895
vt 0.6923077 0.8157895

# Normal
vn 0 0 -1

# Mesh description
g RPG---Escena_mesh_0005

# Faces
f 1/1/1 2/2/1 3/3/1 4/4/1
f 5/1/1 6/2/1 7/3/1 8/4/1
f 9/1/1 10/2/1 11/3/1 12/4/1
f 13/1/1 14/2/1 15/3/1 16/4/1
f 17/1/1 18/2/1 19/3/1 20/4/1
f 21/1/1 22/2/1 23/3/1 24/4/1
f 25/1/1 26/2/1 27/3/1 28/4/1
f 29/2/1 30/5/1 31/6/1 32/3/1
f 33/1/1 34/2/1 35/3/1 36/4/1
f 37/1/1 38/2/1 39/3/1 40/4/1
f 41/7/1 42/8/1 43/9/1 44/10/1
f 45/1/1 46/2/1 47/3/1 48/4/1
f 49/1/1 50/2/1 51/3/1 52/4/1
f 53/1/1 54/2/1 55/3/1 56/4/1
f 57/1/1 58/2/1 59/3/1 60/4/1
f 61/1/1 62/2/1 63/3/1 64/4/1
f 65/1/1 66/2/1 67/3/1 68/4/1
f 69/11/1 70/12/1 71/13/1 72/14/1
f 73/1/1 74/2/1 75/3/1 76/4/1
f 77/7/1 78/8/1 79/9/1 80/10/1
f 81/1/1 82/2/1 83/3/1 84/4/1
f 85/1/1 86/2/1 87/3/1 88/4/1
f 89/2/1 90/5/1 91/6/1 92/3/1
f 93/2/1 94/5/1 95/6/1 96/3/1
f 97/15/1 98/16/1 99/17/1 100/18/1
f 101/1/1 102/2/1 103/3/1 104/4/1
f 105/1/1 106/2/1 107/3/1 108/4/1
f 109/1/1 110/2/1 111/3/1 112/4/1
f 113/1/1 114/2/1 115/3/1 116/4/1
f 117/7/1 118/8/1 119/9/1 120/10/1
f 121/1/1 122/2/1 123/3/1 124/4/1
f 125/1/1 126/2/1 127/3/1 128/4/1
f 129/1/1 130/2/1 131/3/1 132/4/1
f 133/1/1 134/2/1 135/3/1 136/4/1
f 137/1/1 138/2/1 139/3/1 140/4/1
f 141/1/1 142/2/1 143/3/1 144/4/1
f 145/1/1 146/2/1 147/3/1 148/4/1
f 149/1/1 150/2/1 151/3/1 152/4/1
f 153/2/1 154/5/1 155/6/1 156/3/1
f 157/2/1 158/5/1 159/6/1 160/3/1
f 161/2/1 162/5/1 163/6/1 164/3/1
f 165/2/1 166/5/1 167/6/1 168/3/1
f 169/1/1 170/2/1 171/3/1 172/4/1
f 173/1/1 174/2/1 175/3/1 176/4/1
f 177/2/1 178/5/1 179/6/1 180/3/1
f 181/1/1 182/2/1 183/3/1 184/4/1
f 185/1/1 186/2/1 187/3/1 188/4/1
f 189/1/1 190/2/1 191/3/1 192/4/1
f 193/1/1 194/2/1 195/3/1 196/4/1
f 197/1/1 198/2/1 199/3/1 200/4/1
f 201/1/1 202/2/1 203/3/1 204/4/1
f 205/1/1 206/2/1 207/3/1 208/4/1
f 209/1/1 210/2/1 211/3/1 212/4/1
f 213/1/1 214/2/1 215/3/1 216/4/1
f 217/1/1 218/2/1 219/3/1 220/4/1
f 221/2/1 222/5/1 223/6/1 224/3/1
f 225/2/1 226/5/1 227/6/1 228/3/1
f 229/19/1 230/20/1 231/5/1 232/2/1
f 233/2/1 234/5/1 235/6/1 236/3/1
f 237/1/1 238/2/1 239/3/1 240/4/1
f 241/2/1 242/5/1 243/6/1 244/3/1
f 245/1/1 246/2/1 247/3/1 248/4/1
f 249/11/1 250/12/1 251/13/1 252/14/1
f 253/1/1 254/2/1 255/3/1 256/4/1
f 257/21/1 258/22/1 259/23/1 260/24/1
f 261/1/1 262/2/1 263/3/1 264/4/1
f 265/1/1 266/2/1 267/3/1 268/4/1
f 269/1/1 270/2/1 271/3/1 272/4/1
f 273/1/1 274/2/1 275/3/1 276/4/1
f 277/11/1 278/12/1 279/13/1 280/14/1
f 281/1/1 282/2/1 283/3/1 284/4/1
f 285/1/1 286/2/1 287/3/1 288/4/1
f 289/1/1 290/2/1 291/3/1 292/4/1
f 293/1/1 294/2/1 295/3/1 296/4/1
f 297/2/1 298/5/1 299/6/1 300/3/1
f 301/11/1 302/12/1 303/13/1 304/14/1
f 305/2/1 306/5/1 307/6/1 308/3/1
f 309/1/1 310/2/1 311/3/1 312/4/1
f 313/1/1 314/2/1 315/3/1 316/4/1
f 317/1/1 318/2/1 319/3/1 320/4/1
f 321/21/1 322/22/1 323/23/1 324/24/1
f 325/21/1 326/22/1 327/23/1 328/24/1
f 329/21/1 330/22/1 331/23/1 332/24/1
f 333/21/1 334/22/1 335/23/1 336/24/1
f 337/21/1 338/22/1 339/23/1 340/24/1
f 341/25/1 342/26/1 343/27/1 344/28/1
f 345/25/1 346/26/1 347/27/1 348/28/1
f 349/25/1 350/26/1 351/27/1 352/28/1
f 353/25/1 354/26/1 355/27/1 356/28/1
f 357/25/1 358/26/1 359/27/1 360/28/1
f 361/25/1 362/26/1 363/27/1 364/28/1
f 365/25/1 366/26/1 367/27/1 368/28/1
f 369/21/1 370/22/1 371/23/1 372/24/1
f 373/21/1 374/22/1 375/23/1 376/24/1
f 377/21/1 378/22/1 379/23/1 380/24/1
f 381/21/1 382/22/1 383/23/1 384/24/1
f 385/21/1 386/22/1 387/23/1 388/24/1
f 389/21/1 390/22/1 391/23/1 392/24/1
f 393/21/1 394/22/1 395/23/1 396/24/1
f 397/21/1 398/22/1 399/23/1 400/24/1
f 401/29/1 402/30/1 403/31/1 404/32/1
f 405/33/1 406/34/1 407/35/1 408/36/1
f 409/37/1 410/38/1 411/39/1 412/40/1
f 413/41/1 414/42/1 415/43/1 416/44/1
f 417/42/1 418/45/1 419/46/1 420/43/1
f 421/45/1 422/47/1 423/48/1 424/46/1
f 425/49/1 426/50/1 427/51/1 428/52/1
f 429/53/1 430/54/1 431/55/1 432/56/1
f 433/57/1 434/29/1 435/32/1 436/58/1
f 437/21/1 438/22/1 439/23/1 440/24/1
f 441/21/1 442/22/1 443/23/1 444/24/1
f 445/21/1 446/22/1 447/23/1 448/24/1
f 449/21/1 450/22/1 451/23/1 452/24/1
f 453/21/1 454/22/1 455/23/1 456/24/1
f 457/21/1 458/22/1 459/23/1 460/24/1
f 461/21/1 462/22/1 463/23/1 464/24/1
f 465/21/1 466/22/1 467/23/1 468/24/1
f 469/59/1 470/33/1 471/36/1 472/60/1
f 473/37/1 474/38/1 475/39/1 476/40/1
f 477/41/1 478/42/1 479/43/1 480/44/1
f 481/42/1 482/45/1 483/46/1 484/43/1
f 485/45/1 486/47/1 487/48/1 488/46/1
f 489/49/1 490/50/1 491/51/1 492/52/1
f 493/61/1 494/62/1 495/63/1 496/64/1
f 497/21/1 498/22/1 499/23/1 500/24/1
f 501/21/1 502/22/1 503/23/1 504/24/1
f 505/21/1 506/22/1 507/23/1 508/24/1
f 509/21/1 510/22/1 511/23/1 512/24/1
f 513/21/1 514/22/1 515/23/1 516/24/1
f 517/21/1 518/22/1 519/23/1 520/24/1
f 521/21/1 522/22/1 523/23/1 524/24/1
f 525/21/1 526/22/1 527/23/1 528/24/1
f 529/21/1 530/22/1 531/23/1 532/24/1
f 533/59/1 534/33/1 535/36/1 536/60/1
f 537/37/1 538/38/1 539/39/1 540/40/1
f 541/41/1 542/42/1 543/43/1 544/44/1
f 545/42/1 546/45/1 547/46/1 548/43/1
f 549/45/1 550/47/1 551/48/1 552/46/1
f 553/49/1 554/50/1 555/51/1 556/52/1
f 557/61/1 558/62/1 559/63/1 560/64/1
f 561/21/1 562/22/1 563/23/1 564/24/1
f 565/21/1 566/22/1 567/23/1 568/24/1
f 569/21/1 570/22/1 571/23/1 572/24/1
f 573/21/1 574/22/1 575/23/1 576/24/1
f 577/21/1 578/22/1 579/23/1 580/24/1
f 581/21/1 582/22/1 583/23/1 584/24/1
f 585/21/1 586/22/1 587/23/1 588/24/1
f 589/21/1 590/22/1 591/23/1 592/24/1
f 593/21/1 594/22/1 595/23/1 596/24/1
f 597/59/1 598/33/1 599/36/1 600/60/1
f 601/37/1 602/38/1 603/39/1 604/40/1
f 605/41/1 606/42/1 607/43/1 608/44/1
f 609/42/1 610/45/1 611/46/1 612/43/1
f 613/45/1 614/47/1 615/48/1 616/46/1
f 617/49/1 618/50/1 619/51/1 620/52/1
f 621/61/1 622/62/1 623/63/1 624/64/1
f 625/21/1 626/22/1 627/23/1 628/24/1
f 629/21/1 630/22/1 631/23/1 632/24/1
f 633/21/1 634/22/1 635/23/1 636/24/1
f 637/21/1 638/22/1 639/23/1 640/24/1
f 641/21/1 642/22/1 643/23/1 644/24/1
f 645/21/1 646/22/1 647/23/1 648/24/1
f 649/21/1 650/22/1 651/23/1 652/24/1
f 653/21/1 654/22/1 655/23/1 656/24/1
f 657/21/1 658/22/1 659/23/1 660/24/1
f 661/59/1 662/33/1 663/36/1 664/60/1
f 665/37/1 666/38/1 667/39/1 668/40/1
f 669/41/1 670/42/1 671/43/1 672/44/1
f 673/42/1 674/45/1 675/46/1 676/43/1
f 677/45/1 678/47/1 679/48/1 680/46/1
f 681/49/1 682/50/1 683/51/1 684/52/1
f 685/61/1 686/62/1 687/63/1 688/64/1
f 689/21/1 690/22/1 691/23/1 692/24/1
f 693/21/1 694/22/1 695/23/1 696/24/1
f 697/21/1 698/22/1 699/23/1 700/24/1
f 701/21/1 702/22/1 703/23/1 704/24/1
f 705/21/1 706/22/1 707/23/1 708/24/1
f 709/21/1 710/22/1 711/23/1 712/24/1
f 713/21/1 714/22/1 715/23/1 716/24/1
f 717/21/1 718/22/1 719/23/1 720/24/1
f 721/21/1 722/22/1 723/23/1 724/24/1
f 725/59/1 726/33/1 727/36/1 728/60/1
f 729/37/1 730/38/1 731/39/1 732/40/1
f 733/41/1 734/42/1 735/43/1 736/44/1
f 737/42/1 738/45/1 739/46/1 740/43/1
f 741/45/1 742/47/1 743/48/1 744/46/1
f 745/49/1 746/50/1 747/51/1 748/52/1
f 749/61/1 750/62/1 751/63/1 752/64/1
f 753/21/1 754/22/1 755/23/1 756/24/1
f 757/21/1 758/22/1 759/23/1 760/24/1
f 761/21/1 762/22/1 763/23/1 764/24/1
f 765/21/1 766/22/1 767/23/1 768/24/1
f 769/21/1 770/22/1 771/23/1 772/24/1
f 773/21/1 774/22/1 775/23/1 776/24/1
f 777/21/1 778/22/1 779/23/1 780/24/1
f 781/21/1 782/22/1 783/23/1 784/24/1
f 785/21/1 786/22/1 787/23/1 788/24/1
f 789/59/1 790/33/1 791/36/1 792/60/1
f 793/37/1 794/38/1 795/39/1 796/40/1
f 797/41/1 798/42/1 799/43/1 800/44/1
f 801/42/1 802/45/1 803/46/1 804/43/1
f 805/45/1 806/47/1 807/48/1 808/46/1
f 809/49/1 810/50/1 811/51/1 812/52/1
f 813/61/1 814/62/1 815/63/1 816/64/1
f 817/21/1 818/22/1 819/23/1 820/24/1
f 821/21/1 822/22/1 823/23/1 824/24/1
f 825/21/1 826/22/1 827/23/1 828/24/1
f 829/21/1 830/22/1 831/23/1 832/24/1
f 833/21/1 834/22/1 835/23/1 836/24/1
f 837/21/1 838/22/1 839/23/1 840/24/1
f 841/21/1 842/22/1 843/23/1 844/24/1
f 845/21/1 846/22/1 847/23/1 848/24/1
f 849/21/1 850/22/1 851/23/1 852/24/1
f 853/59/1 854/33/1 855/36/1 856/60/1
f 857/37/1 858/38/1 859/39/1 860/40/1
f 861/41/1 862/42/1 863/43/1 864/44/1
f 865/42/1 866/45/1 867/46/1 868/43/1
f 869/45/1 870/47/1 871/48/1 872/46/1
f 873/49/1 874/50/1 875/51/1 876/52/1
f 877/61/1 878/62/1 879/63/1 880/64/1
f 881/21/1 882/22/1 883/23/1 884/24/1
f 885/21/1 886/22/1 887/23/1 888/24/1
f 889/21/1 890/22/1 891/23/1 892/24/1
f 893/21/1 894/22/1 895/23/1 896/24/1
f 897/21/1 898/22/1 899/23/1 900/24/1
f 901/21/1 902/22/1 903/23/1 904/24/1
f 905/21/1 906/22/1 907/23/1 908/24/1
f 909/21/1 910/22/1 911/23/1 912/24/1
f 913/21/1 914/22/1 915/23/1 916/24/1
f 917/59/1 918/33/1 919/36/1 920/60/1
f 921/37/1 922/38/1 923/39/1 924/40/1
f 925/41/1 926/42/1 927/43/1 928/44/1
f 929/42/1 930/45/1 931/46/1 932/43/1
f 933/45/1 934/47/1 935/48/1 936/46/1
f 937/49/1 938/50/1 939/51/1 940/52/1
f 941/61/1 942/62/1 943/63/1 944/64/1
f 945/21/1 946/22/1 947/23/1 948/24/1
f 949/21/1 950/22/1 951/23/1 952/24/1
f 953/21/1 954/22/1 955/23/1 956/24/1
f 957/21/1 958/22/1 959/23/1 960/24/1
f 961/21/1 962/22/1 963/23/1 964/24/1
f 965/21/1 966/22/1 967/23/1 968/24/1
f 969/21/1 970/22/1 971/23/1 972/24/1
f 973/21/1 974/22/1 975/23/1 976/24/1
f 977/21/1 978/22/1 979/23/1 980/24/1
f 981/59/1 982/33/1 983/36/1 984/60/1
f 985/37/1 986/38/1 987/39/1 988/40/1
f 989/41/1 990/42/1 991/43/1 992/44/1
f 993/42/1 994/45/1 995/46/1 996/43/1
f 997/45/1 998/47/1 999/48/1 1000/46/1
f 1001/49/1 1002/50/1 1003/51/1 1004/52/1
f 1005/61/1 1006/62/1 1007/63/1 1008/64/1
f 1009/21/1 1010/22/1 1011/23/1 1012/24/1
f 1013/21/1 1014/22/1 1015/23/1 1016/24/1
f 1017/21/1 1018/22/1 1019/23/1 1020/24/1
f 1021/21/1 1022/22/1 1023/23/1 1024/24/1

