# Tiled2Unity generated file. Do not modify by hand.
# Wavefront file for 'RPG---Escena_mesh_0029.obj'

# Vertices (Count = 448)
v -5 -1 0
v -6 -1 0
v -6 0 0
v -5 0 0
v -6 -1 0
v -7 -1 0
v -7 0 0
v -6 0 0
v -7 -1 0
v -8 -1 0
v -8 0 0
v -7 0 0
v -8 -1 0
v -9 -1 0
v -9 0 0
v -8 0 0
v -9 -1 0
v -10 -1 0
v -10 0 0
v -9 0 0
v -10 -1 0
v -11 -1 0
v -11 0 0
v -10 0 0
v -11 -1 0
v -12 -1 0
v -12 0 0
v -11 0 0
v -5 -2 0
v -6 -2 0
v -6 -1 0
v -5 -1 0
v -6 -2 0
v -7 -2 0
v -7 -1 0
v -6 -1 0
v -7 -2 0
v -8 -2 0
v -8 -1 0
v -7 -1 0
v -8 -2 0
v -9 -2 0
v -9 -1 0
v -8 -1 0
v -9 -2 0
v -10 -2 0
v -10 -1 0
v -9 -1 0
v -10 -2 0
v -11 -2 0
v -11 -1 0
v -10 -1 0
v -11 -2 0
v -12 -2 0
v -12 -1 0
v -11 -1 0
v -5 -3 0
v -6 -3 0
v -6 -2 0
v -5 -2 0
v -6 -3 0
v -7 -3 0
v -7 -2 0
v -6 -2 0
v -7 -3 0
v -8 -3 0
v -8 -2 0
v -7 -2 0
v -8 -3 0
v -9 -3 0
v -9 -2 0
v -8 -2 0
v -9 -3 0
v -10 -3 0
v -10 -2 0
v -9 -2 0
v -10 -3 0
v -11 -3 0
v -11 -2 0
v -10 -2 0
v -11 -3 0
v -12 -3 0
v -12 -2 0
v -11 -2 0
v -5 -4 0
v -6 -4 0
v -6 -3 0
v -5 -3 0
v -6 -4 0
v -7 -4 0
v -7 -3 0
v -6 -3 0
v -7 -4 0
v -8 -4 0
v -8 -3 0
v -7 -3 0
v -8 -4 0
v -9 -4 0
v -9 -3 0
v -8 -3 0
v -9 -4 0
v -10 -4 0
v -10 -3 0
v -9 -3 0
v -10 -4 0
v -11 -4 0
v -11 -3 0
v -10 -3 0
v -11 -4 0
v -12 -4 0
v -12 -3 0
v -11 -3 0
v -5 -5 0
v -6 -5 0
v -6 -4 0
v -5 -4 0
v -6 -5 0
v -7 -5 0
v -7 -4 0
v -6 -4 0
v -7 -5 0
v -8 -5 0
v -8 -4 0
v -7 -4 0
v -8 -5 0
v -9 -5 0
v -9 -4 0
v -8 -4 0
v -9 -5 0
v -10 -5 0
v -10 -4 0
v -9 -4 0
v -10 -5 0
v -11 -5 0
v -11 -4 0
v -10 -4 0
v -11 -5 0
v -12 -5 0
v -12 -4 0
v -11 -4 0
v -5 -6 0
v -6 -6 0
v -6 -5 0
v -5 -5 0
v -6 -6 0
v -7 -6 0
v -7 -5 0
v -6 -5 0
v -7 -6 0
v -8 -6 0
v -8 -5 0
v -7 -5 0
v -8 -6 0
v -9 -6 0
v -9 -5 0
v -8 -5 0
v -9 -6 0
v -10 -6 0
v -10 -5 0
v -9 -5 0
v -10 -6 0
v -11 -6 0
v -11 -5 0
v -10 -5 0
v -11 -6 0
v -12 -6 0
v -12 -5 0
v -11 -5 0
v -5 -7 0
v -6 -7 0
v -6 -6 0
v -5 -6 0
v -6 -7 0
v -7 -7 0
v -7 -6 0
v -6 -6 0
v -7 -7 0
v -8 -7 0
v -8 -6 0
v -7 -6 0
v -8 -7 0
v -9 -7 0
v -9 -6 0
v -8 -6 0
v -9 -7 0
v -10 -7 0
v -10 -6 0
v -9 -6 0
v -10 -7 0
v -11 -7 0
v -11 -6 0
v -10 -6 0
v -11 -7 0
v -12 -7 0
v -12 -6 0
v -11 -6 0
v -5 -8 0
v -6 -8 0
v -6 -7 0
v -5 -7 0
v -6 -8 0
v -7 -8 0
v -7 -7 0
v -6 -7 0
v -7 -8 0
v -8 -8 0
v -8 -7 0
v -7 -7 0
v -8 -8 0
v -9 -8 0
v -9 -7 0
v -8 -7 0
v -9 -8 0
v -10 -8 0
v -10 -7 0
v -9 -7 0
v -10 -8 0
v -11 -8 0
v -11 -7 0
v -10 -7 0
v -11 -8 0
v -12 -8 0
v -12 -7 0
v -11 -7 0
v -5 -9 0
v -6 -9 0
v -6 -8 0
v -5 -8 0
v -6 -9 0
v -7 -9 0
v -7 -8 0
v -6 -8 0
v -7 -9 0
v -8 -9 0
v -8 -8 0
v -7 -8 0
v -8 -9 0
v -9 -9 0
v -9 -8 0
v -8 -8 0
v -9 -9 0
v -10 -9 0
v -10 -8 0
v -9 -8 0
v -10 -9 0
v -11 -9 0
v -11 -8 0
v -10 -8 0
v -11 -9 0
v -12 -9 0
v -12 -8 0
v -11 -8 0
v -5 -10 0
v -6 -10 0
v -6 -9 0
v -5 -9 0
v -6 -10 0
v -7 -10 0
v -7 -9 0
v -6 -9 0
v -7 -10 0
v -8 -10 0
v -8 -9 0
v -7 -9 0
v -8 -10 0
v -9 -10 0
v -9 -9 0
v -8 -9 0
v -9 -10 0
v -10 -10 0
v -10 -9 0
v -9 -9 0
v -10 -10 0
v -11 -10 0
v -11 -9 0
v -10 -9 0
v -11 -10 0
v -12 -10 0
v -12 -9 0
v -11 -9 0
v -5 -11 0
v -6 -11 0
v -6 -10 0
v -5 -10 0
v -6 -11 0
v -7 -11 0
v -7 -10 0
v -6 -10 0
v -7 -11 0
v -8 -11 0
v -8 -10 0
v -7 -10 0
v -8 -11 0
v -9 -11 0
v -9 -10 0
v -8 -10 0
v -9 -11 0
v -10 -11 0
v -10 -10 0
v -9 -10 0
v -10 -11 0
v -11 -11 0
v -11 -10 0
v -10 -10 0
v -11 -11 0
v -12 -11 0
v -12 -10 0
v -11 -10 0
v -5 -12 0
v -6 -12 0
v -6 -11 0
v -5 -11 0
v -6 -12 0
v -7 -12 0
v -7 -11 0
v -6 -11 0
v -7 -12 0
v -8 -12 0
v -8 -11 0
v -7 -11 0
v -8 -12 0
v -9 -12 0
v -9 -11 0
v -8 -11 0
v -9 -12 0
v -10 -12 0
v -10 -11 0
v -9 -11 0
v -10 -12 0
v -11 -12 0
v -11 -11 0
v -10 -11 0
v -11 -12 0
v -12 -12 0
v -12 -11 0
v -11 -11 0
v -5 -13 0
v -6 -13 0
v -6 -12 0
v -5 -12 0
v -6 -13 0
v -7 -13 0
v -7 -12 0
v -6 -12 0
v -7 -13 0
v -8 -13 0
v -8 -12 0
v -7 -12 0
v -8 -13 0
v -9 -13 0
v -9 -12 0
v -8 -12 0
v -9 -13 0
v -10 -13 0
v -10 -12 0
v -9 -12 0
v -10 -13 0
v -11 -13 0
v -11 -12 0
v -10 -12 0
v -11 -13 0
v -12 -13 0
v -12 -12 0
v -11 -12 0
v -5 -14 0
v -6 -14 0
v -6 -13 0
v -5 -13 0
v -6 -14 0
v -7 -14 0
v -7 -13 0
v -6 -13 0
v -7 -14 0
v -8 -14 0
v -8 -13 0
v -7 -13 0
v -8 -14 0
v -9 -14 0
v -9 -13 0
v -8 -13 0
v -9 -14 0
v -10 -14 0
v -10 -13 0
v -9 -13 0
v -10 -14 0
v -11 -14 0
v -11 -13 0
v -10 -13 0
v -11 -14 0
v -12 -14 0
v -12 -13 0
v -11 -13 0
v -5 -15 0
v -6 -15 0
v -6 -14 0
v -5 -14 0
v -6 -15 0
v -7 -15 0
v -7 -14 0
v -6 -14 0
v -7 -15 0
v -8 -15 0
v -8 -14 0
v -7 -14 0
v -8 -15 0
v -9 -15 0
v -9 -14 0
v -8 -14 0
v -9 -15 0
v -10 -15 0
v -10 -14 0
v -9 -14 0
v -10 -15 0
v -11 -15 0
v -11 -14 0
v -10 -14 0
v -11 -15 0
v -12 -15 0
v -12 -14 0
v -11 -14 0
v -5 -16 0
v -6 -16 0
v -6 -15 0
v -5 -15 0
v -6 -16 0
v -7 -16 0
v -7 -15 0
v -6 -15 0
v -7 -16 0
v -8 -16 0
v -8 -15 0
v -7 -15 0
v -8 -16 0
v -9 -16 0
v -9 -15 0
v -8 -15 0
v -9 -16 0
v -10 -16 0
v -10 -15 0
v -9 -15 0
v -10 -16 0
v -11 -16 0
v -11 -15 0
v -10 -15 0
v -11 -16 0
v -12 -16 0
v -12 -15 0
v -11 -15 0

# Texture cooridinates (Count = 20)
vt 0.7179487 0.6315789
vt 0.6923077 0.6315789
vt 0.6923077 0.6052631
vt 0.7179487 0.6052631
vt 0.6923077 0.7368421
vt 0.7179487 0.7368421
vt 0.7179487 0.7631579
vt 0.6923077 0.7631579
vt 0.1282051 0.05263156
vt 0.1538462 0.05263156
vt 0.1538462 0.07894737
vt 0.1282051 0.07894737
vt 0.1794872 0.05263156
vt 0.1794872 0.07894737
vt 0.2051282 0.05263156
vt 0.2051282 0.07894737
vt 0.8205128 0.7368421
vt 0.8461539 0.7368421
vt 0.8461539 0.7631579
vt 0.8205128 0.7631579

# Normal
vn 0 0 -1

# Mesh description
g RPG---Escena_mesh_0029

# Faces
f 1/1/1 2/2/1 3/3/1 4/4/1
f 5/5/1 6/6/1 7/7/1 8/8/1
f 9/9/1 10/10/1 11/11/1 12/12/1
f 13/10/1 14/13/1 15/14/1 16/11/1
f 17/13/1 18/15/1 19/16/1 20/14/1
f 21/17/1 22/18/1 23/19/1 24/20/1
f 25/3/1 26/4/1 27/1/1 28/2/1
f 29/1/1 30/2/1 31/3/1 32/4/1
f 33/5/1 34/6/1 35/7/1 36/8/1
f 37/9/1 38/10/1 39/11/1 40/12/1
f 41/10/1 42/13/1 43/14/1 44/11/1
f 45/13/1 46/15/1 47/16/1 48/14/1
f 49/17/1 50/18/1 51/19/1 52/20/1
f 53/3/1 54/4/1 55/1/1 56/2/1
f 57/1/1 58/2/1 59/3/1 60/4/1
f 61/5/1 62/6/1 63/7/1 64/8/1
f 65/9/1 66/10/1 67/11/1 68/12/1
f 69/10/1 70/13/1 71/14/1 72/11/1
f 73/13/1 74/15/1 75/16/1 76/14/1
f 77/17/1 78/18/1 79/19/1 80/20/1
f 81/3/1 82/4/1 83/1/1 84/2/1
f 85/1/1 86/2/1 87/3/1 88/4/1
f 89/5/1 90/6/1 91/7/1 92/8/1
f 93/9/1 94/10/1 95/11/1 96/12/1
f 97/10/1 98/13/1 99/14/1 100/11/1
f 101/13/1 102/15/1 103/16/1 104/14/1
f 105/17/1 106/18/1 107/19/1 108/20/1
f 109/3/1 110/4/1 111/1/1 112/2/1
f 113/1/1 114/2/1 115/3/1 116/4/1
f 117/5/1 118/6/1 119/7/1 120/8/1
f 121/9/1 122/10/1 123/11/1 124/12/1
f 125/10/1 126/13/1 127/14/1 128/11/1
f 129/13/1 130/15/1 131/16/1 132/14/1
f 133/17/1 134/18/1 135/19/1 136/20/1
f 137/3/1 138/4/1 139/1/1 140/2/1
f 141/1/1 142/2/1 143/3/1 144/4/1
f 145/5/1 146/6/1 147/7/1 148/8/1
f 149/9/1 150/10/1 151/11/1 152/12/1
f 153/10/1 154/13/1 155/14/1 156/11/1
f 157/13/1 158/15/1 159/16/1 160/14/1
f 161/17/1 162/18/1 163/19/1 164/20/1
f 165/3/1 166/4/1 167/1/1 168/2/1
f 169/1/1 170/2/1 171/3/1 172/4/1
f 173/5/1 174/6/1 175/7/1 176/8/1
f 177/9/1 178/10/1 179/11/1 180/12/1
f 181/10/1 182/13/1 183/14/1 184/11/1
f 185/13/1 186/15/1 187/16/1 188/14/1
f 189/17/1 190/18/1 191/19/1 192/20/1
f 193/3/1 194/4/1 195/1/1 196/2/1
f 197/1/1 198/2/1 199/3/1 200/4/1
f 201/5/1 202/6/1 203/7/1 204/8/1
f 205/9/1 206/10/1 207/11/1 208/12/1
f 209/10/1 210/13/1 211/14/1 212/11/1
f 213/13/1 214/15/1 215/16/1 216/14/1
f 217/17/1 218/18/1 219/19/1 220/20/1
f 221/3/1 222/4/1 223/1/1 224/2/1
f 225/1/1 226/2/1 227/3/1 228/4/1
f 229/5/1 230/6/1 231/7/1 232/8/1
f 233/9/1 234/10/1 235/11/1 236/12/1
f 237/10/1 238/13/1 239/14/1 240/11/1
f 241/13/1 242/15/1 243/16/1 244/14/1
f 245/17/1 246/18/1 247/19/1 248/20/1
f 249/3/1 250/4/1 251/1/1 252/2/1
f 253/1/1 254/2/1 255/3/1 256/4/1
f 257/5/1 258/6/1 259/7/1 260/8/1
f 261/9/1 262/10/1 263/11/1 264/12/1
f 265/10/1 266/13/1 267/14/1 268/11/1
f 269/13/1 270/15/1 271/16/1 272/14/1
f 273/17/1 274/18/1 275/19/1 276/20/1
f 277/3/1 278/4/1 279/1/1 280/2/1
f 281/1/1 282/2/1 283/3/1 284/4/1
f 285/5/1 286/6/1 287/7/1 288/8/1
f 289/9/1 290/10/1 291/11/1 292/12/1
f 293/10/1 294/13/1 295/14/1 296/11/1
f 297/13/1 298/15/1 299/16/1 300/14/1
f 301/17/1 302/18/1 303/19/1 304/20/1
f 305/3/1 306/4/1 307/1/1 308/2/1
f 309/1/1 310/2/1 311/3/1 312/4/1
f 313/5/1 314/6/1 315/7/1 316/8/1
f 317/9/1 318/10/1 319/11/1 320/12/1
f 321/10/1 322/13/1 323/14/1 324/11/1
f 325/13/1 326/15/1 327/16/1 328/14/1
f 329/17/1 330/18/1 331/19/1 332/20/1
f 333/3/1 334/4/1 335/1/1 336/2/1
f 337/1/1 338/2/1 339/3/1 340/4/1
f 341/5/1 342/6/1 343/7/1 344/8/1
f 345/9/1 346/10/1 347/11/1 348/12/1
f 349/10/1 350/13/1 351/14/1 352/11/1
f 353/13/1 354/15/1 355/16/1 356/14/1
f 357/17/1 358/18/1 359/19/1 360/20/1
f 361/3/1 362/4/1 363/1/1 364/2/1
f 365/1/1 366/2/1 367/3/1 368/4/1
f 369/5/1 370/6/1 371/7/1 372/8/1
f 373/9/1 374/10/1 375/11/1 376/12/1
f 377/10/1 378/13/1 379/14/1 380/11/1
f 381/13/1 382/15/1 383/16/1 384/14/1
f 385/17/1 386/18/1 387/19/1 388/20/1
f 389/3/1 390/4/1 391/1/1 392/2/1
f 393/1/1 394/2/1 395/3/1 396/4/1
f 397/5/1 398/6/1 399/7/1 400/8/1
f 401/9/1 402/10/1 403/11/1 404/12/1
f 405/10/1 406/13/1 407/14/1 408/11/1
f 409/13/1 410/15/1 411/16/1 412/14/1
f 413/17/1 414/18/1 415/19/1 416/20/1
f 417/3/1 418/4/1 419/1/1 420/2/1
f 421/1/1 422/2/1 423/3/1 424/4/1
f 425/5/1 426/6/1 427/7/1 428/8/1
f 429/9/1 430/10/1 431/11/1 432/12/1
f 433/10/1 434/13/1 435/14/1 436/11/1
f 437/13/1 438/15/1 439/16/1 440/14/1
f 441/17/1 442/18/1 443/19/1 444/20/1
f 445/3/1 446/4/1 447/1/1 448/2/1

