# Tiled2Unity generated file. Do not modify by hand.
# Wavefront file for 'Casa1_mesh_0003.obj'

# Vertices (Count = 72)
v -31 -41 0
v -32 -41 0
v -32 -40 0
v -31 -40 0
v -32 -41 0
v -33 -41 0
v -33 -40 0
v -32 -40 0
v -33 -41 0
v -34 -41 0
v -34 -40 0
v -33 -40 0
v -34 -41 0
v -35 -41 0
v -35 -40 0
v -34 -40 0
v -31 -42 0
v -32 -42 0
v -32 -41 0
v -31 -41 0
v -32 -42 0
v -33 -42 0
v -33 -41 0
v -32 -41 0
v -33 -42 0
v -34 -42 0
v -34 -41 0
v -33 -41 0
v -34 -42 0
v -35 -42 0
v -35 -41 0
v -34 -41 0
v -31 -43 0
v -32 -43 0
v -32 -42 0
v -31 -42 0
v -32 -43 0
v -33 -43 0
v -33 -42 0
v -32 -42 0
v -33 -43 0
v -34 -43 0
v -34 -42 0
v -33 -42 0
v -34 -43 0
v -35 -43 0
v -35 -42 0
v -34 -42 0
v -31 -44 0
v -32 -44 0
v -32 -43 0
v -31 -43 0
v -32 -44 0
v -33 -44 0
v -33 -43 0
v -32 -43 0
v -33 -44 0
v -34 -44 0
v -34 -43 0
v -33 -43 0
v -34 -44 0
v -35 -44 0
v -35 -43 0
v -34 -43 0
v -55 -52 0
v -56 -52 0
v -56 -51 0
v -55 -51 0
v -56 -52 0
v -57 -52 0
v -57 -51 0
v -56 -51 0

# Texture cooridinates (Count = 31)
vt 0.2666667 0.2833334
vt 0.2833333 0.2833334
vt 0.2833333 0.3
vt 0.2666667 0.3
vt 0.3 0.2833334
vt 0.3 0.3
vt 0.3166667 0.2833334
vt 0.3166667 0.3
vt 0.3333333 0.2833334
vt 0.3333333 0.3
vt 0.2666667 0.2666667
vt 0.2833333 0.2666667
vt 0.3 0.2666667
vt 0.3166667 0.2666667
vt 0.3333333 0.2666667
vt 0.2666667 0.25
vt 0.2833333 0.25
vt 0.3 0.25
vt 0.3166667 0.25
vt 0.3333333 0.25
vt 0.2666667 0.2333333
vt 0.2833333 0.2333333
vt 0.3 0.2333333
vt 0.3166667 0.2333333
vt 0.3333333 0.2333333
vt 0.5 0.2
vt 0.5166667 0.2
vt 0.5166667 0.2166666
vt 0.5 0.2166666
vt 0.5333334 0.2
vt 0.5333334 0.2166666

# Normal
vn 0 0 -1

# Mesh description
g Casa1_mesh_0003

# Faces
f 1/1/1 2/2/1 3/3/1 4/4/1
f 5/2/1 6/5/1 7/6/1 8/3/1
f 9/5/1 10/7/1 11/8/1 12/6/1
f 13/7/1 14/9/1 15/10/1 16/8/1
f 17/11/1 18/12/1 19/2/1 20/1/1
f 21/12/1 22/13/1 23/5/1 24/2/1
f 25/13/1 26/14/1 27/7/1 28/5/1
f 29/14/1 30/15/1 31/9/1 32/7/1
f 33/16/1 34/17/1 35/12/1 36/11/1
f 37/17/1 38/18/1 39/13/1 40/12/1
f 41/18/1 42/19/1 43/14/1 44/13/1
f 45/19/1 46/20/1 47/15/1 48/14/1
f 49/21/1 50/22/1 51/17/1 52/16/1
f 53/22/1 54/23/1 55/18/1 56/17/1
f 57/23/1 58/24/1 59/19/1 60/18/1
f 61/24/1 62/25/1 63/20/1 64/19/1
f 65/26/1 66/27/1 67/28/1 68/29/1
f 69/27/1 70/30/1 71/31/1 72/28/1

