# Tiled2Unity generated file. Do not modify by hand.
# Wavefront file for 'Nono_mesh_0008.obj'

# Vertices (Count = 152)
v -2 -1 0
v -3 -1 0
v -3 0 0
v -2 0 0
v -2 -2 0
v -3 -2 0
v -3 -1 0
v -2 -1 0
v 0 -3 0
v -1 -3 0
v -1 -2 0
v 0 -2 0
v -1 -3 0
v -2 -3 0
v -2 -2 0
v -1 -2 0
v -2 -3 0
v -3 -3 0
v -3 -2 0
v -2 -2 0
v -15 -3 0
v -16 -3 0
v -16 -2 0
v -15 -2 0
v 0 -4 0
v -1 -4 0
v -1 -3 0
v 0 -3 0
v -1 -4 0
v -2 -4 0
v -2 -3 0
v -1 -3 0
v -2 -4 0
v -3 -4 0
v -3 -3 0
v -2 -3 0
v -15 -4 0
v -16 -4 0
v -16 -3 0
v -15 -3 0
v 0 -5 0
v -1 -5 0
v -1 -4 0
v 0 -4 0
v -1 -5 0
v -2 -5 0
v -2 -4 0
v -1 -4 0
v -2 -5 0
v -3 -5 0
v -3 -4 0
v -2 -4 0
v -15 -5 0
v -16 -5 0
v -16 -4 0
v -15 -4 0
v 0 -6 0
v -1 -6 0
v -1 -5 0
v 0 -5 0
v -15 -6 0
v -16 -6 0
v -16 -5 0
v -15 -5 0
v 0 -7 0
v -1 -7 0
v -1 -6 0
v 0 -6 0
v -15 -7 0
v -16 -7 0
v -16 -6 0
v -15 -6 0
v 0 -8 0
v -1 -8 0
v -1 -7 0
v 0 -7 0
v -15 -8 0
v -16 -8 0
v -16 -7 0
v -15 -7 0
v 0 -9 0
v -1 -9 0
v -1 -8 0
v 0 -8 0
v -15 -9 0
v -16 -9 0
v -16 -8 0
v -15 -8 0
v 0 -10 0
v -1 -10 0
v -1 -9 0
v 0 -9 0
v -15 -10 0
v -16 -10 0
v -16 -9 0
v -15 -9 0
v 0 -11 0
v -1 -11 0
v -1 -10 0
v 0 -10 0
v -15 -11 0
v -16 -11 0
v -16 -10 0
v -15 -10 0
v 0 -12 0
v -1 -12 0
v -1 -11 0
v 0 -11 0
v 0 -13 0
v -1 -13 0
v -1 -12 0
v 0 -12 0
v 0 -14 0
v -1 -14 0
v -1 -13 0
v 0 -13 0
v 0 -15 0
v -1 -15 0
v -1 -14 0
v 0 -14 0
v 0 -16 0
v -1 -16 0
v -1 -15 0
v 0 -15 0
v -1 -16 0
v -2 -16 0
v -2 -15 0
v -1 -15 0
v -5 -16 0
v -6 -16 0
v -6 -15 0
v -5 -15 0
v -6 -16 0
v -7 -16 0
v -7 -15 0
v -6 -15 0
v -7 -16 0
v -8 -16 0
v -8 -15 0
v -7 -15 0
v -8 -16 0
v -9 -16 0
v -9 -15 0
v -8 -15 0
v -9 -16 0
v -10 -16 0
v -10 -15 0
v -9 -15 0
v -10 -16 0
v -11 -16 0
v -11 -15 0
v -10 -15 0

# Texture cooridinates (Count = 33)
vt 0.02564103 0.5789474
vt 0.05128205 0.5789474
vt 0.05128205 0.6052631
vt 0.02564103 0.6052631
vt 0.05128205 0.5263158
vt 0.07692308 0.5263158
vt 0.07692308 0.5526316
vt 0.05128205 0.5526316
vt 0.1025641 0.5263158
vt 0.1025641 0.5526316
vt 0.1025641 0.5789474
vt 0.07692308 0.5789474
vt 0.1794872 0.4736842
vt 0.2051282 0.4736842
vt 0.2051282 0.5
vt 0.1794872 0.5
vt 0.1538462 0.5
vt 0.1794872 0.5263158
vt 0.1538462 0.5263158
vt 0.2307692 0.5
vt 0.2307692 0.5263158
vt 0.2051282 0.5263158
vt 0.07692308 0.4210526
vt 0.1025641 0.4210526
vt 0.1025641 0.4473684
vt 0.07692308 0.4473684
vt 0.1538462 0.4736842
vt 0.07692308 0.4736842
vt 0.1025641 0.4736842
vt 0.1025641 0.5
vt 0.07692308 0.5
vt 0.02564103 0.5526316
vt 0.02564103 0.5263158

# Normal
vn 0 0 -1

# Mesh description
g Nono_mesh_0008

# Faces
f 1/1/1 2/2/1 3/3/1 4/4/1
f 5/1/1 6/2/1 7/3/1 8/4/1
f 9/5/1 10/6/1 11/7/1 12/8/1
f 13/5/1 14/6/1 15/7/1 16/8/1
f 17/6/1 18/9/1 19/10/1 20/7/1
f 21/7/1 22/10/1 23/11/1 24/12/1
f 25/13/1 26/14/1 27/15/1 28/16/1
f 29/17/1 30/16/1 31/18/1 32/19/1
f 33/15/1 34/20/1 35/21/1 36/22/1
f 37/1/1 38/2/1 39/3/1 40/4/1
f 41/23/1 42/24/1 43/25/1 44/26/1
f 45/27/1 46/13/1 47/16/1 48/17/1
f 49/28/1 50/29/1 51/30/1 52/31/1
f 53/1/1 54/2/1 55/3/1 56/4/1
f 57/32/1 58/8/1 59/2/1 60/1/1
f 61/1/1 62/2/1 63/3/1 64/4/1
f 65/32/1 66/8/1 67/2/1 68/1/1
f 69/1/1 70/2/1 71/3/1 72/4/1
f 73/32/1 74/8/1 75/2/1 76/1/1
f 77/1/1 78/2/1 79/3/1 80/4/1
f 81/32/1 82/8/1 83/2/1 84/1/1
f 85/1/1 86/2/1 87/3/1 88/4/1
f 89/32/1 90/8/1 91/2/1 92/1/1
f 93/1/1 94/2/1 95/3/1 96/4/1
f 97/32/1 98/8/1 99/2/1 100/1/1
f 101/12/1 102/2/1 103/8/1 104/7/1
f 105/32/1 106/8/1 107/2/1 108/1/1
f 109/32/1 110/8/1 111/2/1 112/1/1
f 113/32/1 114/8/1 115/2/1 116/1/1
f 117/32/1 118/8/1 119/2/1 120/1/1
f 121/33/1 122/5/1 123/8/1 124/32/1
f 125/5/1 126/6/1 127/7/1 128/8/1
f 129/5/1 130/6/1 131/7/1 132/8/1
f 133/5/1 134/6/1 135/7/1 136/8/1
f 137/5/1 138/6/1 139/7/1 140/8/1
f 141/5/1 142/6/1 143/7/1 144/8/1
f 145/5/1 146/6/1 147/7/1 148/8/1
f 149/5/1 150/6/1 151/7/1 152/8/1

