# Tiled2Unity generated file. Do not modify by hand.
# Wavefront file for 'Nono_mesh_0009.obj'

# Vertices (Count = 56)
v -12 -14 0
v -13 -14 0
v -13 -13 0
v -12 -13 0
v -13 -14 0
v -14 -14 0
v -14 -13 0
v -13 -13 0
v -14 -14 0
v -15 -14 0
v -15 -13 0
v -14 -13 0
v -15 -14 0
v -16 -14 0
v -16 -13 0
v -15 -13 0
v -11 -15 0
v -12 -15 0
v -12 -14 0
v -11 -14 0
v -12 -15 0
v -13 -15 0
v -13 -14 0
v -12 -14 0
v -13 -15 0
v -14 -15 0
v -14 -14 0
v -13 -14 0
v -14 -15 0
v -15 -15 0
v -15 -14 0
v -14 -14 0
v -15 -15 0
v -16 -15 0
v -16 -14 0
v -15 -14 0
v -11 -16 0
v -12 -16 0
v -12 -15 0
v -11 -15 0
v -12 -16 0
v -13 -16 0
v -13 -15 0
v -12 -15 0
v -13 -16 0
v -14 -16 0
v -14 -15 0
v -13 -15 0
v -14 -16 0
v -15 -16 0
v -15 -15 0
v -14 -15 0
v -15 -16 0
v -16 -16 0
v -16 -15 0
v -15 -15 0

# Texture cooridinates (Count = 33)
vt 0.07843138 0.8181818
vt 0.09803922 0.8181818
vt 0.09803922 0.8363637
vt 0.07843138 0.8363637
vt 0.09803922 0.7090909
vt 0.1176471 0.7090909
vt 0.1176471 0.7272727
vt 0.09803922 0.7272727
vt 0.1176471 0.8181818
vt 0.1176471 0.8363637
vt 0.1372549 0.8181818
vt 0.1372549 0.8363637
vt 0.01960784 0.8545455
vt 0.03921569 0.8545455
vt 0.03921569 0.8727273
vt 0.01960784 0.8727273
vt 0.07843138 0.8
vt 0.09803922 0.8
vt 0.1176471 0.8
vt 0.2745098 0.9090909
vt 0.2941177 0.9090909
vt 0.2941177 0.9272727
vt 0.2745098 0.9272727
vt 0.1176471 0.8545455
vt 0.1372549 0.8545455
vt 0.1372549 0.8727273
vt 0.1176471 0.8727273
vt 0.6862745 0.5090909
vt 0.7058824 0.5090909
vt 0.7058824 0.5272727
vt 0.6862745 0.5272727
vt 0.05882353 0.8545455
vt 0.05882353 0.8727273

# Normal
vn 0 0 -1

# Mesh description
g Nono_mesh_0009

# Faces
f 1/1/1 2/2/1 3/3/1 4/4/1
f 5/5/1 6/6/1 7/7/1 8/8/1
f 9/2/1 10/9/1 11/10/1 12/3/1
f 13/9/1 14/11/1 15/12/1 16/10/1
f 17/13/1 18/14/1 19/15/1 20/16/1
f 21/17/1 22/18/1 23/2/1 24/1/1
f 25/18/1 26/19/1 27/9/1 28/2/1
f 29/20/1 30/21/1 31/22/1 32/23/1
f 33/24/1 34/25/1 35/26/1 36/27/1
f 37/28/1 38/29/1 39/30/1 40/31/1
f 41/14/1 42/32/1 43/33/1 44/15/1
f 45/18/1 46/19/1 47/9/1 48/2/1
f 49/18/1 50/19/1 51/9/1 52/2/1
f 53/18/1 54/19/1 55/9/1 56/2/1

