# Tiled2Unity generated file. Do not modify by hand.
# Wavefront file for 'Nono_mesh_0024.obj'

# Vertices (Count = 8)
v -4 -6 0
v -5 -6 0
v -5 -5 0
v -4 -5 0
v -1 -10 0
v -2 -10 0
v -2 -9 0
v -1 -9 0

# Texture cooridinates (Count = 8)
vt 0.3076923 0.75
vt 0.3269231 0.75
vt 0.3269231 0.7916667
vt 0.3076923 0.7916667
vt 0.25 0.75
vt 0.2692308 0.75
vt 0.2692308 0.7916667
vt 0.25 0.7916667

# Normal
vn 0 0 -1

# Mesh description
g Nono_mesh_0024

# Faces
f 1/1/1 2/2/1 3/3/1 4/4/1
f 5/5/1 6/6/1 7/7/1 8/8/1

