# Tiled2Unity generated file. Do not modify by hand.
# Wavefront file for 'Nono_mesh_0010.obj'

# Vertices (Count = 252)
v -4 -2 0
v -5 -2 0
v -5 -1 0
v -4 -1 0
v -5 -2 0
v -6 -2 0
v -6 -1 0
v -5 -1 0
v -6 -2 0
v -7 -2 0
v -7 -1 0
v -6 -1 0
v -7 -2 0
v -8 -2 0
v -8 -1 0
v -7 -1 0
v -8 -2 0
v -9 -2 0
v -9 -1 0
v -8 -1 0
v -9 -2 0
v -10 -2 0
v -10 -1 0
v -9 -1 0
v -10 -2 0
v -11 -2 0
v -11 -1 0
v -10 -1 0
v -11 -2 0
v -12 -2 0
v -12 -1 0
v -11 -1 0
v -12 -2 0
v -13 -2 0
v -13 -1 0
v -12 -1 0
v -13 -2 0
v -14 -2 0
v -14 -1 0
v -13 -1 0
v -14 -2 0
v -15 -2 0
v -15 -1 0
v -14 -1 0
v -15 -2 0
v -16 -2 0
v -16 -1 0
v -15 -1 0
v 0 -3 0
v -1 -3 0
v -1 -2 0
v 0 -2 0
v -1 -3 0
v -2 -3 0
v -2 -2 0
v -1 -2 0
v -2 -3 0
v -3 -3 0
v -3 -2 0
v -2 -2 0
v -3 -3 0
v -4 -3 0
v -4 -2 0
v -3 -2 0
v -4 -3 0
v -5 -3 0
v -5 -2 0
v -4 -2 0
v -5 -3 0
v -6 -3 0
v -6 -2 0
v -5 -2 0
v -6 -3 0
v -7 -3 0
v -7 -2 0
v -6 -2 0
v -7 -3 0
v -8 -3 0
v -8 -2 0
v -7 -2 0
v -8 -3 0
v -9 -3 0
v -9 -2 0
v -8 -2 0
v -9 -3 0
v -10 -3 0
v -10 -2 0
v -9 -2 0
v -10 -3 0
v -11 -3 0
v -11 -2 0
v -10 -2 0
v -11 -3 0
v -12 -3 0
v -12 -2 0
v -11 -2 0
v -12 -3 0
v -13 -3 0
v -13 -2 0
v -12 -2 0
v -13 -3 0
v -14 -3 0
v -14 -2 0
v -13 -2 0
v -14 -3 0
v -15 -3 0
v -15 -2 0
v -14 -2 0
v -15 -3 0
v -16 -3 0
v -16 -2 0
v -15 -2 0
v 0 -4 0
v -1 -4 0
v -1 -3 0
v 0 -3 0
v -1 -4 0
v -2 -4 0
v -2 -3 0
v -1 -3 0
v -2 -4 0
v -3 -4 0
v -3 -3 0
v -2 -3 0
v -3 -4 0
v -4 -4 0
v -4 -3 0
v -3 -3 0
v -4 -4 0
v -5 -4 0
v -5 -3 0
v -4 -3 0
v -5 -4 0
v -6 -4 0
v -6 -3 0
v -5 -3 0
v -6 -4 0
v -7 -4 0
v -7 -3 0
v -6 -3 0
v -7 -4 0
v -8 -4 0
v -8 -3 0
v -7 -3 0
v -8 -4 0
v -9 -4 0
v -9 -3 0
v -8 -3 0
v -9 -4 0
v -10 -4 0
v -10 -3 0
v -9 -3 0
v -10 -4 0
v -11 -4 0
v -11 -3 0
v -10 -3 0
v -11 -4 0
v -12 -4 0
v -12 -3 0
v -11 -3 0
v -12 -4 0
v -13 -4 0
v -13 -3 0
v -12 -3 0
v -13 -4 0
v -14 -4 0
v -14 -3 0
v -13 -3 0
v -14 -4 0
v -15 -4 0
v -15 -3 0
v -14 -3 0
v -15 -4 0
v -16 -4 0
v -16 -3 0
v -15 -3 0
v 0 -5 0
v -1 -5 0
v -1 -4 0
v 0 -4 0
v -1 -5 0
v -2 -5 0
v -2 -4 0
v -1 -4 0
v -2 -5 0
v -3 -5 0
v -3 -4 0
v -2 -4 0
v -3 -5 0
v -4 -5 0
v -4 -4 0
v -3 -4 0
v -4 -5 0
v -5 -5 0
v -5 -4 0
v -4 -4 0
v 0 -11 0
v -1 -11 0
v -1 -10 0
v 0 -10 0
v -1 -11 0
v -2 -11 0
v -2 -10 0
v -1 -10 0
v -2 -11 0
v -3 -11 0
v -3 -10 0
v -2 -10 0
v -3 -11 0
v -4 -11 0
v -4 -10 0
v -3 -10 0
v -4 -11 0
v -5 -11 0
v -5 -10 0
v -4 -10 0
v -5 -11 0
v -6 -11 0
v -6 -10 0
v -5 -10 0
v -6 -11 0
v -7 -11 0
v -7 -10 0
v -6 -10 0
v -6 -12 0
v -7 -12 0
v -7 -11 0
v -6 -11 0
v -6 -13 0
v -7 -13 0
v -7 -12 0
v -6 -12 0
v -6 -14 0
v -7 -14 0
v -7 -13 0
v -6 -13 0
v -6 -15 0
v -7 -15 0
v -7 -14 0
v -6 -14 0
v -4 -16 0
v -5 -16 0
v -5 -15 0
v -4 -15 0
v -5 -16 0
v -6 -16 0
v -6 -15 0
v -5 -15 0
v -6 -16 0
v -7 -16 0
v -7 -15 0
v -6 -15 0

# Texture cooridinates (Count = 32)
vt 0.07692308 0.5526316
vt 0.1025641 0.5526316
vt 0.1025641 0.5789474
vt 0.07692308 0.5789474
vt 0.05128205 0.5263158
vt 0.07692308 0.5263158
vt 0.05128205 0.5526316
vt 0.1025641 0.5263158
vt 0.05128205 0.5
vt 0.07692308 0.5
vt 0.1538462 0.5
vt 0.1794872 0.5
vt 0.1794872 0.5263158
vt 0.1538462 0.5263158
vt 0.1025641 0.5
vt 0.1282051 0.5
vt 0.1282051 0.5263158
vt 0.05128205 0.4736842
vt 0.07692308 0.4736842
vt 0.1538462 0.4736842
vt 0.1794872 0.4736842
vt 0.1025641 0.4736842
vt 0.1282051 0.4736842
vt 0.05128205 0.6052631
vt 0.07692308 0.6052631
vt 0.07692308 0.6315789
vt 0.05128205 0.6315789
vt 0.1025641 0.6052631
vt 0.1025641 0.6315789
vt 0.02564103 0.5789474
vt 0.05128205 0.5789474
vt 0.02564103 0.6052631

# Normal
vn 0 0 -1

# Mesh description
g Nono_mesh_0010

# Faces
f 1/1/1 2/2/1 3/3/1 4/4/1
f 5/5/1 6/6/1 7/1/1 8/7/1
f 9/5/1 10/6/1 11/1/1 12/7/1
f 13/5/1 14/6/1 15/1/1 16/7/1
f 17/5/1 18/6/1 19/1/1 20/7/1
f 21/5/1 22/6/1 23/1/1 24/7/1
f 25/5/1 26/6/1 27/1/1 28/7/1
f 29/5/1 30/6/1 31/1/1 32/7/1
f 33/5/1 34/6/1 35/1/1 36/7/1
f 37/5/1 38/6/1 39/1/1 40/7/1
f 41/5/1 42/6/1 43/1/1 44/7/1
f 45/5/1 46/6/1 47/1/1 48/7/1
f 49/5/1 50/6/1 51/1/1 52/7/1
f 53/5/1 54/6/1 55/1/1 56/7/1
f 57/5/1 58/6/1 59/1/1 60/7/1
f 61/5/1 62/6/1 63/1/1 64/7/1
f 65/6/1 66/8/1 67/2/1 68/1/1
f 69/9/1 70/10/1 71/6/1 72/5/1
f 73/9/1 74/10/1 75/6/1 76/5/1
f 77/9/1 78/10/1 79/6/1 80/5/1
f 81/9/1 82/10/1 83/6/1 84/5/1
f 85/9/1 86/10/1 87/6/1 88/5/1
f 89/11/1 90/12/1 91/13/1 92/14/1
f 93/9/1 94/10/1 95/6/1 96/5/1
f 97/15/1 98/16/1 99/17/1 100/8/1
f 101/9/1 102/10/1 103/6/1 104/5/1
f 105/9/1 106/10/1 107/6/1 108/5/1
f 109/9/1 110/10/1 111/6/1 112/5/1
f 113/11/1 114/12/1 115/13/1 116/14/1
f 117/11/1 118/12/1 119/13/1 120/14/1
f 121/9/1 122/10/1 123/6/1 124/5/1
f 125/9/1 126/10/1 127/6/1 128/5/1
f 129/10/1 130/15/1 131/8/1 132/6/1
f 133/18/1 134/19/1 135/10/1 136/9/1
f 137/18/1 138/19/1 139/10/1 140/9/1
f 141/18/1 142/19/1 143/10/1 144/9/1
f 145/18/1 146/19/1 147/10/1 148/9/1
f 149/18/1 150/19/1 151/10/1 152/9/1
f 153/20/1 154/21/1 155/12/1 156/11/1
f 157/18/1 158/19/1 159/10/1 160/9/1
f 161/22/1 162/23/1 163/16/1 164/15/1
f 165/18/1 166/19/1 167/10/1 168/9/1
f 169/18/1 170/19/1 171/10/1 172/9/1
f 173/18/1 174/19/1 175/10/1 176/9/1
f 177/20/1 178/21/1 179/12/1 180/11/1
f 181/20/1 182/21/1 183/12/1 184/11/1
f 185/18/1 186/19/1 187/10/1 188/9/1
f 189/18/1 190/19/1 191/10/1 192/9/1
f 193/19/1 194/22/1 195/15/1 196/10/1
f 197/24/1 198/25/1 199/26/1 200/27/1
f 201/24/1 202/25/1 203/26/1 204/27/1
f 205/24/1 206/25/1 207/26/1 208/27/1
f 209/24/1 210/25/1 211/26/1 212/27/1
f 213/24/1 214/25/1 215/26/1 216/27/1
f 217/24/1 218/25/1 219/26/1 220/27/1
f 221/25/1 222/28/1 223/29/1 224/26/1
f 225/30/1 226/31/1 227/24/1 228/32/1
f 229/30/1 230/31/1 231/24/1 232/32/1
f 233/30/1 234/31/1 235/24/1 236/32/1
f 237/30/1 238/31/1 239/24/1 240/32/1
f 241/5/1 242/6/1 243/1/1 244/7/1
f 245/5/1 246/6/1 247/1/1 248/7/1
f 249/6/1 250/8/1 251/2/1 252/1/1

