# Tiled2Unity generated file. Do not modify by hand.
# Wavefront file for 'Nono_mesh_0017.obj'

# Vertices (Count = 40)
v -4 -1 0
v -5 -1 0
v -5 0 0
v -4 0 0
v -5 -1 0
v -6 -1 0
v -6 0 0
v -5 0 0
v -6 -1 0
v -7 -1 0
v -7 0 0
v -6 0 0
v -4 -2 0
v -5 -2 0
v -5 -1 0
v -4 -1 0
v -5 -2 0
v -6 -2 0
v -6 -1 0
v -5 -1 0
v -6 -2 0
v -7 -2 0
v -7 -1 0
v -6 -1 0
v -4 -3 0
v -5 -3 0
v -5 -2 0
v -4 -2 0
v -5 -3 0
v -6 -3 0
v -6 -2 0
v -5 -2 0
v -6 -3 0
v -7 -3 0
v -7 -2 0
v -6 -2 0
v -3 -6 0
v -4 -6 0
v -4 -5 0
v -3 -5 0

# Texture cooridinates (Count = 13)
vt 0.05128205 0.5
vt 0.07692308 0.5
vt 0.07692308 0.5263158
vt 0.05128205 0.5263158
vt 0.1025641 0.5
vt 0.1025641 0.5263158
vt 0.05128205 0.4736842
vt 0.07692308 0.4736842
vt 0.1025641 0.4736842
vt 0.05128205 0.9473684
vt 0.07692308 0.9473684
vt 0.07692308 0.9736842
vt 0.05128205 0.9736842

# Normal
vn 0 0 -1

# Mesh description
g Nono_mesh_0017

# Faces
f 1/1/1 2/2/1 3/3/1 4/4/1
f 5/1/1 6/2/1 7/3/1 8/4/1
f 9/2/1 10/5/1 11/6/1 12/3/1
f 13/1/1 14/2/1 15/3/1 16/4/1
f 17/1/1 18/2/1 19/3/1 20/4/1
f 21/2/1 22/5/1 23/6/1 24/3/1
f 25/7/1 26/8/1 27/2/1 28/1/1
f 29/7/1 30/8/1 31/2/1 32/1/1
f 33/8/1 34/9/1 35/5/1 36/2/1
f 37/10/1 38/11/1 39/12/1 40/13/1

