# Tiled2Unity generated file. Do not modify by hand.
# Wavefront file for 'Pueblo_mesh_0050.obj'

# Vertices (Count = 16)
v -13 -4 0
v -14 -4 0
v -14 -3 0
v -13 -3 0
v -14 -4 0
v -15 -4 0
v -15 -3 0
v -14 -3 0
v -13 -5 0
v -14 -5 0
v -14 -4 0
v -13 -4 0
v -14 -5 0
v -15 -5 0
v -15 -4 0
v -14 -4 0

# Texture cooridinates (Count = 9)
vt 0.3269231 0.25
vt 0.3461539 0.25
vt 0.3461539 0.2916667
vt 0.3269231 0.2916667
vt 0.3653846 0.25
vt 0.3653846 0.2916667
vt 0.3269231 0.2083333
vt 0.3461539 0.2083333
vt 0.3653846 0.2083333

# Normal
vn 0 0 -1

# Mesh description
g Pueblo_mesh_0050

# Faces
f 1/1/1 2/2/1 3/3/1 4/4/1
f 5/2/1 6/5/1 7/6/1 8/3/1
f 9/7/1 10/8/1 11/2/1 12/1/1
f 13/8/1 14/9/1 15/5/1 16/2/1

