# Tiled2Unity generated file. Do not modify by hand.
# Wavefront file for 'Pueblo_mesh_0087.obj'

# Vertices (Count = 16)
v -1 -1 0
v -2 -1 0
v -2 0 0
v -1 0 0
v -1 -2 0
v -2 -2 0
v -2 -1 0
v -1 -1 0
v -1 -3 0
v -2 -3 0
v -2 -2 0
v -1 -2 0
v -1 -4 0
v -2 -4 0
v -2 -3 0
v -1 -3 0

# Texture cooridinates (Count = 14)
vt 0.7971014 0.9210526
vt 0.8115942 0.9210526
vt 0.8115942 0.9473684
vt 0.7971014 0.9473684
vt 0.2608696 0.6578947
vt 0.2463768 0.6578947
vt 0.2463768 0.6842105
vt 0.2608696 0.6842105
vt 0.2608696 0.6315789
vt 0.2463768 0.6315789
vt 0.05797102 0.6052631
vt 0.04347826 0.6052631
vt 0.04347826 0.6315789
vt 0.05797102 0.6315789

# Normal
vn 0 0 -1

# Mesh description
g Pueblo_mesh_0087

# Faces
f 1/1/1 2/2/1 3/3/1 4/4/1
f 5/5/1 6/6/1 7/7/1 8/8/1
f 9/9/1 10/10/1 11/6/1 12/5/1
f 13/11/1 14/12/1 15/13/1 16/14/1

