# Tiled2Unity generated file. Do not modify by hand.
# Wavefront file for 'Pueblo_mesh_0080.obj'

# Vertices (Count = 12)
v -13 -2 0
v -14 -2 0
v -14 -1 0
v -13 -1 0
v -12 -3 0
v -13 -3 0
v -13 -2 0
v -12 -2 0
v -13 -3 0
v -14 -3 0
v -14 -2 0
v -13 -2 0

# Texture cooridinates (Count = 6)
vt 0.5555556 0.8260869
vt 0.6111111 0.8260869
vt 0.6111111 0.8695652
vt 0.5555556 0.8695652
vt 0.6666667 0.8260869
vt 0.6666667 0.8695652

# Normal
vn 0 0 -1

# Mesh description
g Pueblo_mesh_0080

# Faces
f 1/1/1 2/2/1 3/3/1 4/4/1
f 5/2/1 6/5/1 7/6/1 8/3/1
f 9/1/1 10/2/1 11/3/1 12/4/1

