# Tiled2Unity generated file. Do not modify by hand.
# Wavefront file for 'Pueblo_mesh_0069.obj'

# Vertices (Count = 152)
v 0 -1 0
v -1 -1 0
v -1 0 0
v 0 0 0
v -2 -1 0
v -3 -1 0
v -3 0 0
v -2 0 0
v -3 -1 0
v -4 -1 0
v -4 0 0
v -3 0 0
v -4 -1 0
v -5 -1 0
v -5 0 0
v -4 0 0
v -5 -1 0
v -6 -1 0
v -6 0 0
v -5 0 0
v -6 -1 0
v -7 -1 0
v -7 0 0
v -6 0 0
v -7 -1 0
v -8 -1 0
v -8 0 0
v -7 0 0
v 0 -2 0
v -1 -2 0
v -1 -1 0
v 0 -1 0
v -1 -2 0
v -2 -2 0
v -2 -1 0
v -1 -1 0
v -2 -2 0
v -3 -2 0
v -3 -1 0
v -2 -1 0
v -3 -2 0
v -4 -2 0
v -4 -1 0
v -3 -1 0
v -4 -2 0
v -5 -2 0
v -5 -1 0
v -4 -1 0
v -5 -2 0
v -6 -2 0
v -6 -1 0
v -5 -1 0
v -6 -2 0
v -7 -2 0
v -7 -1 0
v -6 -1 0
v -7 -2 0
v -8 -2 0
v -8 -1 0
v -7 -1 0
v 0 -3 0
v -1 -3 0
v -1 -2 0
v 0 -2 0
v -1 -3 0
v -2 -3 0
v -2 -2 0
v -1 -2 0
v -2 -3 0
v -3 -3 0
v -3 -2 0
v -2 -2 0
v -3 -3 0
v -4 -3 0
v -4 -2 0
v -3 -2 0
v -4 -3 0
v -5 -3 0
v -5 -2 0
v -4 -2 0
v -5 -3 0
v -6 -3 0
v -6 -2 0
v -5 -2 0
v -6 -3 0
v -7 -3 0
v -7 -2 0
v -6 -2 0
v -7 -3 0
v -8 -3 0
v -8 -2 0
v -7 -2 0
v 0 -4 0
v -1 -4 0
v -1 -3 0
v 0 -3 0
v -1 -4 0
v -2 -4 0
v -2 -3 0
v -1 -3 0
v -2 -4 0
v -3 -4 0
v -3 -3 0
v -2 -3 0
v -3 -4 0
v -4 -4 0
v -4 -3 0
v -3 -3 0
v -4 -4 0
v -5 -4 0
v -5 -3 0
v -4 -3 0
v -5 -4 0
v -6 -4 0
v -6 -3 0
v -5 -3 0
v -6 -4 0
v -7 -4 0
v -7 -3 0
v -6 -3 0
v -7 -4 0
v -8 -4 0
v -8 -3 0
v -7 -3 0
v -1 -5 0
v -2 -5 0
v -2 -4 0
v -1 -4 0
v -2 -5 0
v -3 -5 0
v -3 -4 0
v -2 -4 0
v -3 -5 0
v -4 -5 0
v -4 -4 0
v -3 -4 0
v -4 -5 0
v -5 -5 0
v -5 -4 0
v -4 -4 0
v -5 -5 0
v -6 -5 0
v -6 -4 0
v -5 -4 0
v -6 -5 0
v -7 -5 0
v -7 -4 0
v -6 -4 0
v -7 -5 0
v -8 -5 0
v -8 -4 0
v -7 -4 0

# Texture cooridinates (Count = 68)
vt 0.8260869 0.8157895
vt 0.8115942 0.8157895
vt 0.8115942 0.8421053
vt 0.8260869 0.8421053
vt 0.7971014 0.4736842
vt 0.8115942 0.4736842
vt 0.8115942 0.5
vt 0.7971014 0.5
vt 0.8260869 0.4736842
vt 0.8260869 0.5
vt 0.8405797 0.4736842
vt 0.8405797 0.5
vt 0.8550724 0.4736842
vt 0.8550724 0.5
vt 0.8695652 0.4736842
vt 0.8695652 0.5
vt 0.884058 0.4736842
vt 0.884058 0.5
vt 0.8260869 0.7894737
vt 0.8115942 0.7894737
vt 0.2173913 0.6578947
vt 0.2028985 0.6578947
vt 0.2028985 0.6842105
vt 0.2173913 0.6842105
vt 0.2318841 0.6578947
vt 0.2318841 0.6842105
vt 0.173913 0.6578947
vt 0.1884058 0.6578947
vt 0.1884058 0.6842105
vt 0.173913 0.6842105
vt 0.1594203 0.6578947
vt 0.1594203 0.6842105
vt 0.1449275 0.6578947
vt 0.1449275 0.6842105
vt 0.04347826 0.6052631
vt 0.02898551 0.6052631
vt 0.02898551 0.6315789
vt 0.04347826 0.6315789
vt 0.2173913 0.6315789
vt 0.2028985 0.6315789
vt 0.2318841 0.6315789
vt 0.173913 0.6315789
vt 0.1884058 0.6315789
vt 0.1594203 0.6315789
vt 0.1449275 0.6315789
vt 0.04347826 0.5789474
vt 0.02898551 0.5789474
vt 0.1014493 0.6052631
vt 0.08695652 0.6052631
vt 0.08695652 0.6315789
vt 0.1014493 0.6315789
vt 0.07246377 0.6052631
vt 0.07246377 0.6315789
vt 0.05797102 0.6052631
vt 0.05797102 0.6315789
vt 0.173913 0.6052631
vt 0.1594203 0.6052631
vt 0.1449275 0.6052631
vt 0.01449275 0.6052631
vt 0.01449275 0.6315789
vt 0.05797102 0.5789474
vt 0.1014493 0.5789474
vt 0.08695652 0.5789474
vt 0.07246377 0.5789474
vt 0.173913 0.5789474
vt 0.1594203 0.5789474
vt 0.1449275 0.5789474
vt 0.01449275 0.5789474

# Normal
vn 0 0 -1

# Mesh description
g Pueblo_mesh_0069

# Faces
f 1/1/1 2/2/1 3/3/1 4/4/1
f 5/5/1 6/6/1 7/7/1 8/8/1
f 9/6/1 10/9/1 11/10/1 12/7/1
f 13/9/1 14/11/1 15/12/1 16/10/1
f 17/11/1 18/13/1 19/14/1 20/12/1
f 21/13/1 22/15/1 23/16/1 24/14/1
f 25/15/1 26/17/1 27/18/1 28/16/1
f 29/19/1 30/20/1 31/2/1 32/1/1
f 33/19/1 34/20/1 35/2/1 36/1/1
f 37/21/1 38/22/1 39/23/1 40/24/1
f 41/25/1 42/21/1 43/24/1 44/26/1
f 45/27/1 46/28/1 47/29/1 48/30/1
f 49/27/1 50/31/1 51/32/1 52/30/1
f 53/25/1 54/21/1 55/24/1 56/26/1
f 57/31/1 58/33/1 59/34/1 60/32/1
f 61/35/1 62/36/1 63/37/1 64/38/1
f 65/35/1 66/36/1 67/37/1 68/38/1
f 69/39/1 70/40/1 71/22/1 72/21/1
f 73/41/1 74/39/1 75/21/1 76/25/1
f 77/42/1 78/43/1 79/28/1 80/27/1
f 81/42/1 82/44/1 83/31/1 84/27/1
f 85/41/1 86/39/1 87/21/1 88/25/1
f 89/44/1 90/45/1 91/33/1 92/31/1
f 93/46/1 94/47/1 95/36/1 96/35/1
f 97/46/1 98/47/1 99/36/1 100/35/1
f 101/48/1 102/49/1 103/50/1 104/51/1
f 105/49/1 106/52/1 107/53/1 108/50/1
f 109/52/1 110/54/1 111/55/1 112/53/1
f 113/56/1 114/57/1 115/44/1 116/42/1
f 117/57/1 118/58/1 119/45/1 120/44/1
f 121/36/1 122/59/1 123/60/1 124/37/1
f 125/61/1 126/46/1 127/35/1 128/54/1
f 129/62/1 130/63/1 131/49/1 132/48/1
f 133/63/1 134/64/1 135/52/1 136/49/1
f 137/64/1 138/61/1 139/54/1 140/52/1
f 141/65/1 142/66/1 143/57/1 144/56/1
f 145/66/1 146/67/1 147/58/1 148/57/1
f 149/47/1 150/68/1 151/59/1 152/36/1

