# Tiled2Unity generated file. Do not modify by hand.
# Wavefront file for 'Pueblo_mesh_0036.obj'

# Vertices (Count = 112)
v -1 -1 0
v -2 -1 0
v -2 0 0
v -1 0 0
v -1 -2 0
v -2 -2 0
v -2 -1 0
v -1 -1 0
v -2 -2 0
v -3 -2 0
v -3 -1 0
v -2 -1 0
v -3 -2 0
v -4 -2 0
v -4 -1 0
v -3 -1 0
v -1 -3 0
v -2 -3 0
v -2 -2 0
v -1 -2 0
v -2 -3 0
v -3 -3 0
v -3 -2 0
v -2 -2 0
v -3 -3 0
v -4 -3 0
v -4 -2 0
v -3 -2 0
v -1 -4 0
v -2 -4 0
v -2 -3 0
v -1 -3 0
v -2 -4 0
v -3 -4 0
v -3 -3 0
v -2 -3 0
v -3 -4 0
v -4 -4 0
v -4 -3 0
v -3 -3 0
v -1 -11 0
v -2 -11 0
v -2 -10 0
v -1 -10 0
v -2 -11 0
v -3 -11 0
v -3 -10 0
v -2 -10 0
v -3 -11 0
v -4 -11 0
v -4 -10 0
v -3 -10 0
v -4 -11 0
v -5 -11 0
v -5 -10 0
v -4 -10 0
v -13 -11 0
v -14 -11 0
v -14 -10 0
v -13 -10 0
v -14 -11 0
v -15 -11 0
v -15 -10 0
v -14 -10 0
v -9 -12 0
v -10 -12 0
v -10 -11 0
v -9 -11 0
v -10 -12 0
v -11 -12 0
v -11 -11 0
v -10 -11 0
v -11 -12 0
v -12 -12 0
v -12 -11 0
v -11 -11 0
v -7 -14 0
v -8 -14 0
v -8 -13 0
v -7 -13 0
v -8 -14 0
v -9 -14 0
v -9 -13 0
v -8 -13 0
v -14 -14 0
v -15 -14 0
v -15 -13 0
v -14 -13 0
v -15 -14 0
v -16 -14 0
v -16 -13 0
v -15 -13 0
v -9 -16 0
v -10 -16 0
v -10 -15 0
v -9 -15 0
v -10 -16 0
v -11 -16 0
v -11 -15 0
v -10 -15 0
v -11 -16 0
v -12 -16 0
v -12 -15 0
v -11 -15 0
v -12 -16 0
v -13 -16 0
v -13 -15 0
v -12 -15 0
v -13 -16 0
v -14 -16 0
v -14 -15 0
v -13 -15 0

# Texture cooridinates (Count = 42)
vt 0.01923077 0.4583333
vt 0.03846154 0.4583333
vt 0.03846154 0.5
vt 0.01923077 0.5
vt 0.01923077 0.4166667
vt 0.03846154 0.4166667
vt 0.05769231 0.4166667
vt 0.05769231 0.4583333
vt 0.07692308 0.4166667
vt 0.07692308 0.4583333
vt 0.01923077 0.375
vt 0.03846154 0.375
vt 0.05769231 0.375
vt 0.07692308 0.375
vt 0.01923077 0.3333333
vt 0.03846154 0.3333333
vt 0.05769231 0.3333333
vt 0.07692308 0.3333333
vt 0.6538461 0.7083334
vt 0.6730769 0.7083334
vt 0.6730769 0.75
vt 0.6538461 0.75
vt 0.6923077 0.7083334
vt 0.6923077 0.75
vt 0.7115384 0.7083334
vt 0.7115384 0.75
vt 0.7307692 0.7083334
vt 0.7307692 0.75
vt 0.3846154 0.5416666
vt 0.4038461 0.5416666
vt 0.4038461 0.5833334
vt 0.3846154 0.5833334
vt 0.4230769 0.5416666
vt 0.4230769 0.5833334
vt 0.4807692 0.7083334
vt 0.5 0.7083334
vt 0.5 0.75
vt 0.4807692 0.75
vt 0.5192308 0.7083334
vt 0.5192308 0.75
vt 0.5384616 0.7083334
vt 0.5384616 0.75

# Normal
vn 0 0 -1

# Mesh description
g Pueblo_mesh_0036

# Faces
f 1/1/1 2/2/1 3/3/1 4/4/1
f 5/5/1 6/6/1 7/2/1 8/1/1
f 9/6/1 10/7/1 11/8/1 12/2/1
f 13/7/1 14/9/1 15/10/1 16/8/1
f 17/11/1 18/12/1 19/6/1 20/5/1
f 21/12/1 22/13/1 23/7/1 24/6/1
f 25/13/1 26/14/1 27/9/1 28/7/1
f 29/15/1 30/16/1 31/12/1 32/11/1
f 33/16/1 34/17/1 35/13/1 36/12/1
f 37/17/1 38/18/1 39/14/1 40/13/1
f 41/19/1 42/20/1 43/21/1 44/22/1
f 45/20/1 46/23/1 47/24/1 48/21/1
f 49/23/1 50/25/1 51/26/1 52/24/1
f 53/25/1 54/27/1 55/28/1 56/26/1
f 57/29/1 58/30/1 59/31/1 60/32/1
f 61/30/1 62/33/1 63/34/1 64/31/1
f 65/35/1 66/36/1 67/37/1 68/38/1
f 69/36/1 70/39/1 71/40/1 72/37/1
f 73/39/1 74/41/1 75/42/1 76/40/1
f 77/29/1 78/30/1 79/31/1 80/32/1
f 81/30/1 82/33/1 83/34/1 84/31/1
f 85/35/1 86/36/1 87/37/1 88/38/1
f 89/36/1 90/39/1 91/40/1 92/37/1
f 93/35/1 94/36/1 95/37/1 96/38/1
f 97/36/1 98/39/1 99/40/1 100/37/1
f 101/39/1 102/41/1 103/42/1 104/40/1
f 105/29/1 106/30/1 107/31/1 108/32/1
f 109/30/1 110/33/1 111/34/1 112/31/1

