# Tiled2Unity generated file. Do not modify by hand.
# Wavefront file for 'Pueblo_mesh_0045.obj'

# Vertices (Count = 92)
v -1 -1 0
v -2 -1 0
v -2 0 0
v -1 0 0
v -3 -1 0
v -4 -1 0
v -4 0 0
v -3 0 0
v 0 -2 0
v -1 -2 0
v -1 -1 0
v 0 -1 0
v -1 -2 0
v -2 -2 0
v -2 -1 0
v -1 -1 0
v -3 -2 0
v -4 -2 0
v -4 -1 0
v -3 -1 0
v -3 -3 0
v -4 -3 0
v -4 -2 0
v -3 -2 0
v 0 -4 0
v -1 -4 0
v -1 -3 0
v 0 -3 0
v -1 -4 0
v -2 -4 0
v -2 -3 0
v -1 -3 0
v -2 -4 0
v -3 -4 0
v -3 -3 0
v -2 -3 0
v -3 -4 0
v -4 -4 0
v -4 -3 0
v -3 -3 0
v 0 -5 0
v -1 -5 0
v -1 -4 0
v 0 -4 0
v -1 -5 0
v -2 -5 0
v -2 -4 0
v -1 -4 0
v -2 -5 0
v -3 -5 0
v -3 -4 0
v -2 -4 0
v -3 -5 0
v -4 -5 0
v -4 -4 0
v -3 -4 0
v 0 -6 0
v -1 -6 0
v -1 -5 0
v 0 -5 0
v -1 -6 0
v -2 -6 0
v -2 -5 0
v -1 -5 0
v -2 -6 0
v -3 -6 0
v -3 -5 0
v -2 -5 0
v -3 -6 0
v -4 -6 0
v -4 -5 0
v -3 -5 0
v 0 -7 0
v -1 -7 0
v -1 -6 0
v 0 -6 0
v -1 -7 0
v -2 -7 0
v -2 -6 0
v -1 -6 0
v -2 -7 0
v -3 -7 0
v -3 -6 0
v -2 -6 0
v -3 -7 0
v -4 -7 0
v -4 -6 0
v -3 -6 0
v -3 -8 0
v -4 -8 0
v -4 -7 0
v -3 -7 0

# Texture cooridinates (Count = 38)
vt 0.02941176 0.4705882
vt 0.05882353 0.4705882
vt 0.05882353 0.5294118
vt 0.02941176 0.5294118
vt 0.0882353 0.4705882
vt 0.1176471 0.4705882
vt 0.1176471 0.5294118
vt 0.0882353 0.5294118
vt 0.0882353 0.5882353
vt 0.05882353 0.5882353
vt 0.1470588 0.4705882
vt 0.1764706 0.4705882
vt 0.1764706 0.5294118
vt 0.1470588 0.5294118
vt 0.05882353 0.4117647
vt 0.0882353 0.4117647
vt 0.1176471 0.4117647
vt 0.05882353 0.3529412
vt 0.0882353 0.3529412
vt 0.2941177 0.4117647
vt 0.3235294 0.4117647
vt 0.3235294 0.4705882
vt 0.2941177 0.4705882
vt 0.1176471 0.3529412
vt 0.05882353 0.2941176
vt 0.0882353 0.2941176
vt 0.2941177 0.2941176
vt 0.3235294 0.2941176
vt 0.3235294 0.3529412
vt 0.2941177 0.3529412
vt 0.1176471 0.2941176
vt 0.05882353 0.2352941
vt 0.0882353 0.2352941
vt 0.1176471 0.2352941
vt 0.0882353 0.05882353
vt 0.1176471 0.05882353
vt 0.1176471 0.1176471
vt 0.0882353 0.1176471

# Normal
vn 0 0 -1

# Mesh description
g Pueblo_mesh_0045

# Faces
f 1/1/1 2/2/1 3/3/1 4/4/1
f 5/5/1 6/6/1 7/7/1 8/8/1
f 9/3/1 10/8/1 11/9/1 12/10/1
f 13/11/1 14/12/1 15/13/1 16/14/1
f 17/5/1 18/6/1 19/7/1 20/8/1
f 21/5/1 22/6/1 23/7/1 24/8/1
f 25/15/1 26/16/1 27/5/1 28/2/1
f 29/15/1 30/16/1 31/5/1 32/2/1
f 33/15/1 34/16/1 35/5/1 36/2/1
f 37/16/1 38/17/1 39/6/1 40/5/1
f 41/18/1 42/19/1 43/16/1 44/15/1
f 45/20/1 46/21/1 47/22/1 48/23/1
f 49/18/1 50/19/1 51/16/1 52/15/1
f 53/19/1 54/24/1 55/17/1 56/16/1
f 57/25/1 58/26/1 59/19/1 60/18/1
f 61/27/1 62/28/1 63/29/1 64/30/1
f 65/25/1 66/26/1 67/19/1 68/18/1
f 69/26/1 70/31/1 71/24/1 72/19/1
f 73/32/1 74/33/1 75/26/1 76/25/1
f 77/32/1 78/33/1 79/26/1 80/25/1
f 81/32/1 82/33/1 83/26/1 84/25/1
f 85/33/1 86/34/1 87/31/1 88/26/1
f 89/35/1 90/36/1 91/37/1 92/38/1

