# Tiled2Unity generated file. Do not modify by hand.
# Wavefront file for 'Pueblo_mesh_0005.obj'

# Vertices (Count = 68)
v -10 -1 0
v -11 -1 0
v -11 0 0
v -10 0 0
v -10 -2 0
v -11 -2 0
v -11 -1 0
v -10 -1 0
v -10 -3 0
v -11 -3 0
v -11 -2 0
v -10 -2 0
v -11 -3 0
v -12 -3 0
v -12 -2 0
v -11 -2 0
v -12 -3 0
v -13 -3 0
v -13 -2 0
v -12 -2 0
v -13 -3 0
v -14 -3 0
v -14 -2 0
v -13 -2 0
v -14 -3 0
v -15 -3 0
v -15 -2 0
v -14 -2 0
v -15 -3 0
v -16 -3 0
v -16 -2 0
v -15 -2 0
v -10 -4 0
v -11 -4 0
v -11 -3 0
v -10 -3 0
v -10 -5 0
v -11 -5 0
v -11 -4 0
v -10 -4 0
v -11 -5 0
v -12 -5 0
v -12 -4 0
v -11 -4 0
v -12 -5 0
v -13 -5 0
v -13 -4 0
v -12 -4 0
v -13 -5 0
v -14 -5 0
v -14 -4 0
v -13 -4 0
v -14 -5 0
v -15 -5 0
v -15 -4 0
v -14 -4 0
v -15 -5 0
v -16 -5 0
v -16 -4 0
v -15 -4 0
v -14 -7 0
v -15 -7 0
v -15 -6 0
v -14 -6 0
v -14 -8 0
v -15 -8 0
v -15 -7 0
v -14 -7 0

# Texture cooridinates (Count = 8)
vt 0.05882353 0.4705882
vt 0.0882353 0.4705882
vt 0.0882353 0.5294118
vt 0.05882353 0.5294118
vt 0.3235294 0.5882353
vt 0.3529412 0.5882353
vt 0.3529412 0.6470588
vt 0.3235294 0.6470588

# Normal
vn 0 0 -1

# Mesh description
g Pueblo_mesh_0005

# Faces
f 1/1/1 2/2/1 3/3/1 4/4/1
f 5/1/1 6/2/1 7/3/1 8/4/1
f 9/1/1 10/2/1 11/3/1 12/4/1
f 13/1/1 14/2/1 15/3/1 16/4/1
f 17/1/1 18/2/1 19/3/1 20/4/1
f 21/1/1 22/2/1 23/3/1 24/4/1
f 25/1/1 26/2/1 27/3/1 28/4/1
f 29/1/1 30/2/1 31/3/1 32/4/1
f 33/5/1 34/6/1 35/7/1 36/8/1
f 37/5/1 38/6/1 39/7/1 40/8/1
f 41/5/1 42/6/1 43/7/1 44/8/1
f 45/5/1 46/6/1 47/7/1 48/8/1
f 49/5/1 50/6/1 51/7/1 52/8/1
f 53/5/1 54/6/1 55/7/1 56/8/1
f 57/5/1 58/6/1 59/7/1 60/8/1
f 61/5/1 62/6/1 63/7/1 64/8/1
f 65/5/1 66/6/1 67/7/1 68/8/1

