# Tiled2Unity generated file. Do not modify by hand.
# Wavefront file for 'Pueblo_mesh_0039.obj'

# Vertices (Count = 8)
v -3 -16 0
v -4 -16 0
v -4 -15 0
v -3 -15 0
v -8 -16 0
v -9 -16 0
v -9 -15 0
v -8 -15 0

# Texture cooridinates (Count = 8)
vt 0.7826087 0.7368421
vt 0.7681159 0.7368421
vt 0.7681159 0.7631579
vt 0.7826087 0.7631579
vt 0.7101449 0.7368421
vt 0.6956522 0.7368421
vt 0.6956522 0.7631579
vt 0.7101449 0.7631579

# Normal
vn 0 0 -1

# Mesh description
g Pueblo_mesh_0039

# Faces
f 1/1/1 2/2/1 3/3/1 4/4/1
f 5/5/1 6/6/1 7/7/1 8/8/1

