# Tiled2Unity generated file. Do not modify by hand.
# Wavefront file for 'Pueblo_mesh_0012.obj'

# Vertices (Count = 36)
v -2 -1 0
v -3 -1 0
v -3 0 0
v -2 0 0
v -2 -2 0
v -3 -2 0
v -3 -1 0
v -2 -1 0
v 0 -3 0
v -1 -3 0
v -1 -2 0
v 0 -2 0
v -1 -3 0
v -2 -3 0
v -2 -2 0
v -1 -2 0
v -2 -3 0
v -3 -3 0
v -3 -2 0
v -2 -2 0
v -2 -4 0
v -3 -4 0
v -3 -3 0
v -2 -3 0
v 0 -5 0
v -1 -5 0
v -1 -4 0
v 0 -4 0
v -1 -5 0
v -2 -5 0
v -2 -4 0
v -1 -4 0
v -2 -5 0
v -3 -5 0
v -3 -4 0
v -2 -4 0

# Texture cooridinates (Count = 8)
vt 0.05882353 0.4705882
vt 0.0882353 0.4705882
vt 0.0882353 0.5294118
vt 0.05882353 0.5294118
vt 0.3235294 0.5882353
vt 0.3529412 0.5882353
vt 0.3529412 0.6470588
vt 0.3235294 0.6470588

# Normal
vn 0 0 -1

# Mesh description
g Pueblo_mesh_0012

# Faces
f 1/1/1 2/2/1 3/3/1 4/4/1
f 5/1/1 6/2/1 7/3/1 8/4/1
f 9/1/1 10/2/1 11/3/1 12/4/1
f 13/1/1 14/2/1 15/3/1 16/4/1
f 17/1/1 18/2/1 19/3/1 20/4/1
f 21/5/1 22/6/1 23/7/1 24/8/1
f 25/5/1 26/6/1 27/7/1 28/8/1
f 29/5/1 30/6/1 31/7/1 32/8/1
f 33/5/1 34/6/1 35/7/1 36/8/1

