# Tiled2Unity generated file. Do not modify by hand.
# Wavefront file for 'Pueblo_mesh_0048.obj'

# Vertices (Count = 64)
v 0 -7 0
v -1 -7 0
v -1 -6 0
v 0 -6 0
v -1 -7 0
v -2 -7 0
v -2 -6 0
v -1 -6 0
v -2 -7 0
v -3 -7 0
v -3 -6 0
v -2 -6 0
v -3 -7 0
v -4 -7 0
v -4 -6 0
v -3 -6 0
v -4 -7 0
v -5 -7 0
v -5 -6 0
v -4 -6 0
v -5 -7 0
v -6 -7 0
v -6 -6 0
v -5 -6 0
v -6 -7 0
v -7 -7 0
v -7 -6 0
v -6 -6 0
v -7 -7 0
v -8 -7 0
v -8 -6 0
v -7 -6 0
v 0 -11 0
v -1 -11 0
v -1 -10 0
v 0 -10 0
v -1 -11 0
v -2 -11 0
v -2 -10 0
v -1 -10 0
v -2 -11 0
v -3 -11 0
v -3 -10 0
v -2 -10 0
v -3 -11 0
v -4 -11 0
v -4 -10 0
v -3 -10 0
v -4 -11 0
v -5 -11 0
v -5 -10 0
v -4 -10 0
v -5 -11 0
v -6 -11 0
v -6 -10 0
v -5 -10 0
v -6 -11 0
v -7 -11 0
v -7 -10 0
v -6 -10 0
v -7 -11 0
v -8 -11 0
v -8 -10 0
v -7 -10 0

# Texture cooridinates (Count = 16)
vt 0.2115385 0.3333333
vt 0.1923077 0.3333333
vt 0.1923077 0.375
vt 0.2115385 0.375
vt 0.2307692 0.3333333
vt 0.2307692 0.375
vt 0.25 0.3333333
vt 0.25 0.375
vt 0.2115385 0.25
vt 0.1923077 0.25
vt 0.1923077 0.2916667
vt 0.2115385 0.2916667
vt 0.2307692 0.25
vt 0.2307692 0.2916667
vt 0.25 0.25
vt 0.25 0.2916667

# Normal
vn 0 0 -1

# Mesh description
g Pueblo_mesh_0048

# Faces
f 1/1/1 2/2/1 3/3/1 4/4/1
f 5/5/1 6/1/1 7/4/1 8/6/1
f 9/1/1 10/2/1 11/3/1 12/4/1
f 13/5/1 14/1/1 15/4/1 16/6/1
f 17/1/1 18/2/1 19/3/1 20/4/1
f 21/5/1 22/1/1 23/4/1 24/6/1
f 25/1/1 26/5/1 27/6/1 28/4/1
f 29/5/1 30/7/1 31/8/1 32/6/1
f 33/9/1 34/10/1 35/11/1 36/12/1
f 37/13/1 38/9/1 39/12/1 40/14/1
f 41/9/1 42/10/1 43/11/1 44/12/1
f 45/13/1 46/9/1 47/12/1 48/14/1
f 49/9/1 50/10/1 51/11/1 52/12/1
f 53/13/1 54/9/1 55/12/1 56/14/1
f 57/9/1 58/13/1 59/14/1 60/12/1
f 61/13/1 62/15/1 63/16/1 64/14/1

