# Tiled2Unity generated file. Do not modify by hand.
# Wavefront file for 'Pueblo_mesh_0073.obj'

# Vertices (Count = 300)
v -1 -1 0
v -2 -1 0
v -2 0 0
v -1 0 0
v -2 -1 0
v -3 -1 0
v -3 0 0
v -2 0 0
v -3 -1 0
v -4 -1 0
v -4 0 0
v -3 0 0
v 0 -6 0
v -1 -6 0
v -1 -5 0
v 0 -5 0
v -1 -6 0
v -2 -6 0
v -2 -5 0
v -1 -5 0
v -2 -6 0
v -3 -6 0
v -3 -5 0
v -2 -5 0
v -3 -6 0
v -4 -6 0
v -4 -5 0
v -3 -5 0
v -4 -6 0
v -5 -6 0
v -5 -5 0
v -4 -5 0
v -5 -6 0
v -6 -6 0
v -6 -5 0
v -5 -5 0
v 0 -7 0
v -1 -7 0
v -1 -6 0
v 0 -6 0
v -1 -7 0
v -2 -7 0
v -2 -6 0
v -1 -6 0
v -2 -7 0
v -3 -7 0
v -3 -6 0
v -2 -6 0
v -3 -7 0
v -4 -7 0
v -4 -6 0
v -3 -6 0
v -4 -7 0
v -5 -7 0
v -5 -6 0
v -4 -6 0
v -5 -7 0
v -6 -7 0
v -6 -6 0
v -5 -6 0
v 0 -8 0
v -1 -8 0
v -1 -7 0
v 0 -7 0
v -1 -8 0
v -2 -8 0
v -2 -7 0
v -1 -7 0
v -2 -8 0
v -3 -8 0
v -3 -7 0
v -2 -7 0
v -3 -8 0
v -4 -8 0
v -4 -7 0
v -3 -7 0
v -4 -8 0
v -5 -8 0
v -5 -7 0
v -4 -7 0
v -5 -8 0
v -6 -8 0
v -6 -7 0
v -5 -7 0
v -13 -8 0
v -14 -8 0
v -14 -7 0
v -13 -7 0
v -14 -8 0
v -15 -8 0
v -15 -7 0
v -14 -7 0
v 0 -9 0
v -1 -9 0
v -1 -8 0
v 0 -8 0
v -1 -9 0
v -2 -9 0
v -2 -8 0
v -1 -8 0
v -2 -9 0
v -3 -9 0
v -3 -8 0
v -2 -8 0
v -3 -9 0
v -4 -9 0
v -4 -8 0
v -3 -8 0
v -4 -9 0
v -5 -9 0
v -5 -8 0
v -4 -8 0
v -5 -9 0
v -6 -9 0
v -6 -8 0
v -5 -8 0
v -9 -9 0
v -10 -9 0
v -10 -8 0
v -9 -8 0
v -10 -9 0
v -11 -9 0
v -11 -8 0
v -10 -8 0
v -11 -9 0
v -12 -9 0
v -12 -8 0
v -11 -8 0
v -13 -9 0
v -14 -9 0
v -14 -8 0
v -13 -8 0
v -14 -9 0
v -15 -9 0
v -15 -8 0
v -14 -8 0
v 0 -10 0
v -1 -10 0
v -1 -9 0
v 0 -9 0
v -1 -10 0
v -2 -10 0
v -2 -9 0
v -1 -9 0
v -2 -10 0
v -3 -10 0
v -3 -9 0
v -2 -9 0
v -3 -10 0
v -4 -10 0
v -4 -9 0
v -3 -9 0
v -4 -10 0
v -5 -10 0
v -5 -9 0
v -4 -9 0
v -5 -10 0
v -6 -10 0
v -6 -9 0
v -5 -9 0
v -9 -10 0
v -10 -10 0
v -10 -9 0
v -9 -9 0
v -10 -10 0
v -11 -10 0
v -11 -9 0
v -10 -9 0
v -11 -10 0
v -12 -10 0
v -12 -9 0
v -11 -9 0
v -13 -10 0
v -14 -10 0
v -14 -9 0
v -13 -9 0
v -14 -10 0
v -15 -10 0
v -15 -9 0
v -14 -9 0
v -7 -11 0
v -8 -11 0
v -8 -10 0
v -7 -10 0
v -8 -11 0
v -9 -11 0
v -9 -10 0
v -8 -10 0
v -9 -11 0
v -10 -11 0
v -10 -10 0
v -9 -10 0
v -10 -11 0
v -11 -11 0
v -11 -10 0
v -10 -10 0
v -11 -11 0
v -12 -11 0
v -12 -10 0
v -11 -10 0
v -14 -11 0
v -15 -11 0
v -15 -10 0
v -14 -10 0
v -15 -11 0
v -16 -11 0
v -16 -10 0
v -15 -10 0
v -7 -12 0
v -8 -12 0
v -8 -11 0
v -7 -11 0
v -8 -12 0
v -9 -12 0
v -9 -11 0
v -8 -11 0
v -14 -12 0
v -15 -12 0
v -15 -11 0
v -14 -11 0
v -15 -12 0
v -16 -12 0
v -16 -11 0
v -15 -11 0
v -7 -13 0
v -8 -13 0
v -8 -12 0
v -7 -12 0
v -8 -13 0
v -9 -13 0
v -9 -12 0
v -8 -12 0
v -9 -13 0
v -10 -13 0
v -10 -12 0
v -9 -12 0
v -10 -13 0
v -11 -13 0
v -11 -12 0
v -10 -12 0
v -11 -13 0
v -12 -13 0
v -12 -12 0
v -11 -12 0
v -12 -13 0
v -13 -13 0
v -13 -12 0
v -12 -12 0
v -13 -13 0
v -14 -13 0
v -14 -12 0
v -13 -12 0
v -14 -13 0
v -15 -13 0
v -15 -12 0
v -14 -12 0
v -15 -13 0
v -16 -13 0
v -16 -12 0
v -15 -12 0
v -9 -14 0
v -10 -14 0
v -10 -13 0
v -9 -13 0
v -10 -14 0
v -11 -14 0
v -11 -13 0
v -10 -13 0
v -11 -14 0
v -12 -14 0
v -12 -13 0
v -11 -13 0
v -12 -14 0
v -13 -14 0
v -13 -13 0
v -12 -13 0
v -13 -14 0
v -14 -14 0
v -14 -13 0
v -13 -13 0
v -9 -15 0
v -10 -15 0
v -10 -14 0
v -9 -14 0
v -10 -15 0
v -11 -15 0
v -11 -14 0
v -10 -14 0
v -11 -15 0
v -12 -15 0
v -12 -14 0
v -11 -14 0
v -12 -15 0
v -13 -15 0
v -13 -14 0
v -12 -14 0
v -13 -15 0
v -14 -15 0
v -14 -14 0
v -13 -14 0

# Texture cooridinates (Count = 78)
vt 0.01923077 0.4583333
vt 0.03846154 0.4583333
vt 0.03846154 0.5
vt 0.01923077 0.5
vt 0.05769231 0.4583333
vt 0.05769231 0.5
vt 0.07692308 0.4583333
vt 0.07692308 0.5
vt 0.6346154 0.9166667
vt 0.6538461 0.9166667
vt 0.6538461 0.9583333
vt 0.6346154 0.9583333
vt 0.6730769 0.9166667
vt 0.6730769 0.9583333
vt 0.6923077 0.9166667
vt 0.6923077 0.9583333
vt 0.7115384 0.9166667
vt 0.7115384 0.9583333
vt 0.7307692 0.9166667
vt 0.7307692 0.9583333
vt 0.75 0.9166667
vt 0.75 0.9583333
vt 0.6346154 0.875
vt 0.6538461 0.875
vt 0.6730769 0.875
vt 0.6923077 0.875
vt 0.7115384 0.875
vt 0.7307692 0.875
vt 0.75 0.875
vt 0.6346154 0.8333333
vt 0.6538461 0.8333333
vt 0.6730769 0.8333333
vt 0.6923077 0.8333333
vt 0.7115384 0.8333333
vt 0.7307692 0.8333333
vt 0.75 0.8333333
vt 0.3846154 0.6666666
vt 0.4038461 0.6666666
vt 0.4038461 0.7083334
vt 0.3846154 0.7083334
vt 0.4230769 0.6666666
vt 0.4230769 0.7083334
vt 0.6346154 0.7916667
vt 0.6538461 0.7916667
vt 0.6730769 0.7916667
vt 0.6923077 0.7916667
vt 0.7115384 0.7916667
vt 0.7307692 0.7916667
vt 0.75 0.7916667
vt 0.4807692 0.8333333
vt 0.5 0.8333333
vt 0.5 0.875
vt 0.4807692 0.875
vt 0.5192308 0.8333333
vt 0.5192308 0.875
vt 0.5384616 0.8333333
vt 0.5384616 0.875
vt 0.3846154 0.625
vt 0.4038461 0.625
vt 0.4230769 0.625
vt 0.6346154 0.75
vt 0.6538461 0.75
vt 0.6730769 0.75
vt 0.6923077 0.75
vt 0.7115384 0.75
vt 0.7307692 0.75
vt 0.75 0.75
vt 0.4807692 0.7916667
vt 0.5 0.7916667
vt 0.5192308 0.7916667
vt 0.5384616 0.7916667
vt 0.3846154 0.5833334
vt 0.4038461 0.5833334
vt 0.4230769 0.5833334
vt 0.4807692 0.75
vt 0.5 0.75
vt 0.5192308 0.75
vt 0.5384616 0.75

# Normal
vn 0 0 -1

# Mesh description
g Pueblo_mesh_0073

# Faces
f 1/1/1 2/2/1 3/3/1 4/4/1
f 5/2/1 6/5/1 7/6/1 8/3/1
f 9/5/1 10/7/1 11/8/1 12/6/1
f 13/9/1 14/10/1 15/11/1 16/12/1
f 17/10/1 18/13/1 19/14/1 20/11/1
f 21/13/1 22/15/1 23/16/1 24/14/1
f 25/15/1 26/17/1 27/18/1 28/16/1
f 29/17/1 30/19/1 31/20/1 32/18/1
f 33/19/1 34/21/1 35/22/1 36/20/1
f 37/23/1 38/24/1 39/10/1 40/9/1
f 41/24/1 42/25/1 43/13/1 44/10/1
f 45/25/1 46/26/1 47/15/1 48/13/1
f 49/26/1 50/27/1 51/17/1 52/15/1
f 53/27/1 54/28/1 55/19/1 56/17/1
f 57/28/1 58/29/1 59/21/1 60/19/1
f 61/30/1 62/31/1 63/24/1 64/23/1
f 65/31/1 66/32/1 67/25/1 68/24/1
f 69/32/1 70/33/1 71/26/1 72/25/1
f 73/33/1 74/34/1 75/27/1 76/26/1
f 77/34/1 78/35/1 79/28/1 80/27/1
f 81/35/1 82/36/1 83/29/1 84/28/1
f 85/37/1 86/38/1 87/39/1 88/40/1
f 89/38/1 90/41/1 91/42/1 92/39/1
f 93/43/1 94/44/1 95/31/1 96/30/1
f 97/44/1 98/45/1 99/32/1 100/31/1
f 101/45/1 102/46/1 103/33/1 104/32/1
f 105/46/1 106/47/1 107/34/1 108/33/1
f 109/47/1 110/48/1 111/35/1 112/34/1
f 113/48/1 114/49/1 115/36/1 116/35/1
f 117/50/1 118/51/1 119/52/1 120/53/1
f 121/51/1 122/54/1 123/55/1 124/52/1
f 125/54/1 126/56/1 127/57/1 128/55/1
f 129/58/1 130/59/1 131/38/1 132/37/1
f 133/59/1 134/60/1 135/41/1 136/38/1
f 137/61/1 138/62/1 139/44/1 140/43/1
f 141/62/1 142/63/1 143/45/1 144/44/1
f 145/63/1 146/64/1 147/46/1 148/45/1
f 149/64/1 150/65/1 151/47/1 152/46/1
f 153/65/1 154/66/1 155/48/1 156/47/1
f 157/66/1 158/67/1 159/49/1 160/48/1
f 161/68/1 162/69/1 163/51/1 164/50/1
f 165/69/1 166/70/1 167/54/1 168/51/1
f 169/70/1 170/71/1 171/56/1 172/54/1
f 173/72/1 174/73/1 175/59/1 176/58/1
f 177/73/1 178/74/1 179/60/1 180/59/1
f 181/37/1 182/38/1 183/39/1 184/40/1
f 185/38/1 186/41/1 187/42/1 188/39/1
f 189/75/1 190/76/1 191/69/1 192/68/1
f 193/76/1 194/77/1 195/70/1 196/69/1
f 197/77/1 198/78/1 199/71/1 200/70/1
f 201/50/1 202/51/1 203/52/1 204/53/1
f 205/51/1 206/54/1 207/55/1 208/52/1
f 209/58/1 210/59/1 211/38/1 212/37/1
f 213/59/1 214/60/1 215/41/1 216/38/1
f 217/68/1 218/69/1 219/51/1 220/50/1
f 221/69/1 222/70/1 223/54/1 224/51/1
f 225/72/1 226/73/1 227/59/1 228/58/1
f 229/73/1 230/74/1 231/60/1 232/59/1
f 233/50/1 234/51/1 235/52/1 236/53/1
f 237/51/1 238/54/1 239/55/1 240/52/1
f 241/54/1 242/56/1 243/57/1 244/55/1
f 245/37/1 246/38/1 247/39/1 248/40/1
f 249/38/1 250/41/1 251/42/1 252/39/1
f 253/75/1 254/76/1 255/69/1 256/68/1
f 257/76/1 258/77/1 259/70/1 260/69/1
f 261/68/1 262/69/1 263/51/1 264/50/1
f 265/69/1 266/70/1 267/54/1 268/51/1
f 269/70/1 270/71/1 271/56/1 272/54/1
f 273/58/1 274/59/1 275/38/1 276/37/1
f 277/59/1 278/60/1 279/41/1 280/38/1
f 281/75/1 282/76/1 283/69/1 284/68/1
f 285/76/1 286/77/1 287/70/1 288/69/1
f 289/77/1 290/78/1 291/71/1 292/70/1
f 293/72/1 294/73/1 295/59/1 296/58/1
f 297/73/1 298/74/1 299/60/1 300/59/1

