# Tiled2Unity generated file. Do not modify by hand.
# Wavefront file for 'Pueblo_mesh_0044.obj'

# Vertices (Count = 100)
v -6 -9 0
v -7 -9 0
v -7 -8 0
v -6 -8 0
v -7 -9 0
v -8 -9 0
v -8 -8 0
v -7 -8 0
v -8 -9 0
v -9 -9 0
v -9 -8 0
v -8 -8 0
v -10 -10 0
v -11 -10 0
v -11 -9 0
v -10 -9 0
v -11 -10 0
v -12 -10 0
v -12 -9 0
v -11 -9 0
v -12 -10 0
v -13 -10 0
v -13 -9 0
v -12 -9 0
v 0 -11 0
v -1 -11 0
v -1 -10 0
v 0 -10 0
v -1 -11 0
v -2 -11 0
v -2 -10 0
v -1 -10 0
v -2 -11 0
v -3 -11 0
v -3 -10 0
v -2 -10 0
v -3 -12 0
v -4 -12 0
v -4 -11 0
v -3 -11 0
v -4 -12 0
v -5 -12 0
v -5 -11 0
v -4 -11 0
v -5 -12 0
v -6 -12 0
v -6 -11 0
v -5 -11 0
v -3 -13 0
v -4 -13 0
v -4 -12 0
v -3 -12 0
v -4 -13 0
v -5 -13 0
v -5 -12 0
v -4 -12 0
v -8 -13 0
v -9 -13 0
v -9 -12 0
v -8 -12 0
v -9 -13 0
v -10 -13 0
v -10 -12 0
v -9 -12 0
v -13 -13 0
v -14 -13 0
v -14 -12 0
v -13 -12 0
v -14 -13 0
v -15 -13 0
v -15 -12 0
v -14 -12 0
v -15 -13 0
v -16 -13 0
v -16 -12 0
v -15 -12 0
v -3 -14 0
v -4 -14 0
v -4 -13 0
v -3 -13 0
v -4 -14 0
v -5 -14 0
v -5 -13 0
v -4 -13 0
v -10 -15 0
v -11 -15 0
v -11 -14 0
v -10 -14 0
v -11 -15 0
v -12 -15 0
v -12 -14 0
v -11 -14 0
v -6 -16 0
v -7 -16 0
v -7 -15 0
v -6 -15 0
v -7 -16 0
v -8 -16 0
v -8 -15 0
v -7 -15 0

# Texture cooridinates (Count = 25)
vt 0.4807692 0.7083334
vt 0.5 0.7083334
vt 0.5 0.75
vt 0.4807692 0.75
vt 0.5192308 0.7083334
vt 0.5192308 0.75
vt 0.5384616 0.7083334
vt 0.5384616 0.75
vt 0.4807692 0.9166667
vt 0.5 0.9166667
vt 0.5 0.9583333
vt 0.4807692 0.9583333
vt 0.5192308 0.9166667
vt 0.5192308 0.9583333
vt 0.3846154 0.5416666
vt 0.4038461 0.5416666
vt 0.4038461 0.5833334
vt 0.3846154 0.5833334
vt 0.4230769 0.5416666
vt 0.4230769 0.5833334
vt 0.4423077 0.5416666
vt 0.4423077 0.5833334
vt 0.4807692 0.875
vt 0.5 0.875
vt 0.5192308 0.875

# Normal
vn 0 0 -1

# Mesh description
g Pueblo_mesh_0044

# Faces
f 1/1/1 2/2/1 3/3/1 4/4/1
f 5/2/1 6/5/1 7/6/1 8/3/1
f 9/5/1 10/7/1 11/8/1 12/6/1
f 13/1/1 14/2/1 15/3/1 16/4/1
f 17/2/1 18/5/1 19/6/1 20/3/1
f 21/5/1 22/7/1 23/8/1 24/6/1
f 25/1/1 26/2/1 27/3/1 28/4/1
f 29/2/1 30/5/1 31/6/1 32/3/1
f 33/5/1 34/7/1 35/8/1 36/6/1
f 37/1/1 38/2/1 39/3/1 40/4/1
f 41/2/1 42/5/1 43/6/1 44/3/1
f 45/5/1 46/7/1 47/8/1 48/6/1
f 49/9/1 50/10/1 51/11/1 52/12/1
f 53/10/1 54/13/1 55/14/1 56/11/1
f 57/15/1 58/16/1 59/17/1 60/18/1
f 61/16/1 62/19/1 63/20/1 64/17/1
f 65/15/1 66/16/1 67/17/1 68/18/1
f 69/16/1 70/19/1 71/20/1 72/17/1
f 73/19/1 74/21/1 75/22/1 76/20/1
f 77/23/1 78/24/1 79/10/1 80/9/1
f 81/24/1 82/25/1 83/13/1 84/10/1
f 85/15/1 86/16/1 87/17/1 88/18/1
f 89/16/1 90/19/1 91/20/1 92/17/1
f 93/15/1 94/16/1 95/17/1 96/18/1
f 97/16/1 98/19/1 99/20/1 100/17/1

