# Tiled2Unity generated file. Do not modify by hand.
# Wavefront file for 'Pueblo_mesh_0073.obj'

# Vertices (Count = 312)
v -1 -1 0
v -2 -1 0
v -2 0 0
v -1 0 0
v -2 -1 0
v -3 -1 0
v -3 0 0
v -2 0 0
v -3 -1 0
v -4 -1 0
v -4 0 0
v -3 0 0
v -1 -2 0
v -2 -2 0
v -2 -1 0
v -1 -1 0
v -2 -2 0
v -3 -2 0
v -3 -1 0
v -2 -1 0
v -3 -2 0
v -4 -2 0
v -4 -1 0
v -3 -1 0
v 0 -6 0
v -1 -6 0
v -1 -5 0
v 0 -5 0
v -1 -6 0
v -2 -6 0
v -2 -5 0
v -1 -5 0
v -2 -6 0
v -3 -6 0
v -3 -5 0
v -2 -5 0
v -3 -6 0
v -4 -6 0
v -4 -5 0
v -3 -5 0
v -4 -6 0
v -5 -6 0
v -5 -5 0
v -4 -5 0
v -5 -6 0
v -6 -6 0
v -6 -5 0
v -5 -5 0
v 0 -7 0
v -1 -7 0
v -1 -6 0
v 0 -6 0
v -1 -7 0
v -2 -7 0
v -2 -6 0
v -1 -6 0
v -2 -7 0
v -3 -7 0
v -3 -6 0
v -2 -6 0
v -3 -7 0
v -4 -7 0
v -4 -6 0
v -3 -6 0
v -4 -7 0
v -5 -7 0
v -5 -6 0
v -4 -6 0
v -5 -7 0
v -6 -7 0
v -6 -6 0
v -5 -6 0
v 0 -8 0
v -1 -8 0
v -1 -7 0
v 0 -7 0
v -1 -8 0
v -2 -8 0
v -2 -7 0
v -1 -7 0
v -2 -8 0
v -3 -8 0
v -3 -7 0
v -2 -7 0
v -3 -8 0
v -4 -8 0
v -4 -7 0
v -3 -7 0
v -4 -8 0
v -5 -8 0
v -5 -7 0
v -4 -7 0
v -5 -8 0
v -6 -8 0
v -6 -7 0
v -5 -7 0
v -13 -8 0
v -14 -8 0
v -14 -7 0
v -13 -7 0
v -14 -8 0
v -15 -8 0
v -15 -7 0
v -14 -7 0
v 0 -9 0
v -1 -9 0
v -1 -8 0
v 0 -8 0
v -1 -9 0
v -2 -9 0
v -2 -8 0
v -1 -8 0
v -2 -9 0
v -3 -9 0
v -3 -8 0
v -2 -8 0
v -3 -9 0
v -4 -9 0
v -4 -8 0
v -3 -8 0
v -4 -9 0
v -5 -9 0
v -5 -8 0
v -4 -8 0
v -5 -9 0
v -6 -9 0
v -6 -8 0
v -5 -8 0
v -9 -9 0
v -10 -9 0
v -10 -8 0
v -9 -8 0
v -10 -9 0
v -11 -9 0
v -11 -8 0
v -10 -8 0
v -11 -9 0
v -12 -9 0
v -12 -8 0
v -11 -8 0
v -13 -9 0
v -14 -9 0
v -14 -8 0
v -13 -8 0
v -14 -9 0
v -15 -9 0
v -15 -8 0
v -14 -8 0
v 0 -10 0
v -1 -10 0
v -1 -9 0
v 0 -9 0
v -1 -10 0
v -2 -10 0
v -2 -9 0
v -1 -9 0
v -2 -10 0
v -3 -10 0
v -3 -9 0
v -2 -9 0
v -3 -10 0
v -4 -10 0
v -4 -9 0
v -3 -9 0
v -4 -10 0
v -5 -10 0
v -5 -9 0
v -4 -9 0
v -5 -10 0
v -6 -10 0
v -6 -9 0
v -5 -9 0
v -9 -10 0
v -10 -10 0
v -10 -9 0
v -9 -9 0
v -10 -10 0
v -11 -10 0
v -11 -9 0
v -10 -9 0
v -11 -10 0
v -12 -10 0
v -12 -9 0
v -11 -9 0
v -13 -10 0
v -14 -10 0
v -14 -9 0
v -13 -9 0
v -14 -10 0
v -15 -10 0
v -15 -9 0
v -14 -9 0
v -7 -11 0
v -8 -11 0
v -8 -10 0
v -7 -10 0
v -8 -11 0
v -9 -11 0
v -9 -10 0
v -8 -10 0
v -9 -11 0
v -10 -11 0
v -10 -10 0
v -9 -10 0
v -10 -11 0
v -11 -11 0
v -11 -10 0
v -10 -10 0
v -11 -11 0
v -12 -11 0
v -12 -10 0
v -11 -10 0
v -14 -11 0
v -15 -11 0
v -15 -10 0
v -14 -10 0
v -15 -11 0
v -16 -11 0
v -16 -10 0
v -15 -10 0
v -7 -12 0
v -8 -12 0
v -8 -11 0
v -7 -11 0
v -8 -12 0
v -9 -12 0
v -9 -11 0
v -8 -11 0
v -14 -12 0
v -15 -12 0
v -15 -11 0
v -14 -11 0
v -15 -12 0
v -16 -12 0
v -16 -11 0
v -15 -11 0
v -7 -13 0
v -8 -13 0
v -8 -12 0
v -7 -12 0
v -8 -13 0
v -9 -13 0
v -9 -12 0
v -8 -12 0
v -9 -13 0
v -10 -13 0
v -10 -12 0
v -9 -12 0
v -10 -13 0
v -11 -13 0
v -11 -12 0
v -10 -12 0
v -11 -13 0
v -12 -13 0
v -12 -12 0
v -11 -12 0
v -12 -13 0
v -13 -13 0
v -13 -12 0
v -12 -12 0
v -13 -13 0
v -14 -13 0
v -14 -12 0
v -13 -12 0
v -14 -13 0
v -15 -13 0
v -15 -12 0
v -14 -12 0
v -15 -13 0
v -16 -13 0
v -16 -12 0
v -15 -12 0
v -9 -14 0
v -10 -14 0
v -10 -13 0
v -9 -13 0
v -10 -14 0
v -11 -14 0
v -11 -13 0
v -10 -13 0
v -11 -14 0
v -12 -14 0
v -12 -13 0
v -11 -13 0
v -12 -14 0
v -13 -14 0
v -13 -13 0
v -12 -13 0
v -13 -14 0
v -14 -14 0
v -14 -13 0
v -13 -13 0
v -9 -15 0
v -10 -15 0
v -10 -14 0
v -9 -14 0
v -10 -15 0
v -11 -15 0
v -11 -14 0
v -10 -14 0
v -11 -15 0
v -12 -15 0
v -12 -14 0
v -11 -14 0
v -12 -15 0
v -13 -15 0
v -13 -14 0
v -12 -14 0
v -13 -15 0
v -14 -15 0
v -14 -14 0
v -13 -14 0

# Texture cooridinates (Count = 82)
vt 0.01923077 0.4583333
vt 0.03846154 0.4583333
vt 0.03846154 0.5
vt 0.01923077 0.5
vt 0.05769231 0.4583333
vt 0.05769231 0.5
vt 0.07692308 0.4583333
vt 0.07692308 0.5
vt 0.01923077 0.4166667
vt 0.03846154 0.4166667
vt 0.05769231 0.4166667
vt 0.07692308 0.4166667
vt 0.6346154 0.9166667
vt 0.6538461 0.9166667
vt 0.6538461 0.9583333
vt 0.6346154 0.9583333
vt 0.6730769 0.9166667
vt 0.6730769 0.9583333
vt 0.6923077 0.9166667
vt 0.6923077 0.9583333
vt 0.7115384 0.9166667
vt 0.7115384 0.9583333
vt 0.7307692 0.9166667
vt 0.7307692 0.9583333
vt 0.75 0.9166667
vt 0.75 0.9583333
vt 0.6346154 0.875
vt 0.6538461 0.875
vt 0.6730769 0.875
vt 0.6923077 0.875
vt 0.7115384 0.875
vt 0.7307692 0.875
vt 0.75 0.875
vt 0.6346154 0.8333333
vt 0.6538461 0.8333333
vt 0.6730769 0.8333333
vt 0.6923077 0.8333333
vt 0.7115384 0.8333333
vt 0.7307692 0.8333333
vt 0.75 0.8333333
vt 0.3846154 0.6666666
vt 0.4038461 0.6666666
vt 0.4038461 0.7083334
vt 0.3846154 0.7083334
vt 0.4230769 0.6666666
vt 0.4230769 0.7083334
vt 0.6346154 0.7916667
vt 0.6538461 0.7916667
vt 0.6730769 0.7916667
vt 0.6923077 0.7916667
vt 0.7115384 0.7916667
vt 0.7307692 0.7916667
vt 0.75 0.7916667
vt 0.4807692 0.8333333
vt 0.5 0.8333333
vt 0.5 0.875
vt 0.4807692 0.875
vt 0.5192308 0.8333333
vt 0.5192308 0.875
vt 0.5384616 0.8333333
vt 0.5384616 0.875
vt 0.3846154 0.625
vt 0.4038461 0.625
vt 0.4230769 0.625
vt 0.6346154 0.75
vt 0.6538461 0.75
vt 0.6730769 0.75
vt 0.6923077 0.75
vt 0.7115384 0.75
vt 0.7307692 0.75
vt 0.75 0.75
vt 0.4807692 0.7916667
vt 0.5 0.7916667
vt 0.5192308 0.7916667
vt 0.5384616 0.7916667
vt 0.3846154 0.5833334
vt 0.4038461 0.5833334
vt 0.4230769 0.5833334
vt 0.4807692 0.75
vt 0.5 0.75
vt 0.5192308 0.75
vt 0.5384616 0.75

# Normal
vn 0 0 -1

# Mesh description
g Pueblo_mesh_0073

# Faces
f 1/1/1 2/2/1 3/3/1 4/4/1
f 5/2/1 6/5/1 7/6/1 8/3/1
f 9/5/1 10/7/1 11/8/1 12/6/1
f 13/9/1 14/10/1 15/2/1 16/1/1
f 17/10/1 18/11/1 19/5/1 20/2/1
f 21/11/1 22/12/1 23/7/1 24/5/1
f 25/13/1 26/14/1 27/15/1 28/16/1
f 29/14/1 30/17/1 31/18/1 32/15/1
f 33/17/1 34/19/1 35/20/1 36/18/1
f 37/19/1 38/21/1 39/22/1 40/20/1
f 41/21/1 42/23/1 43/24/1 44/22/1
f 45/23/1 46/25/1 47/26/1 48/24/1
f 49/27/1 50/28/1 51/14/1 52/13/1
f 53/28/1 54/29/1 55/17/1 56/14/1
f 57/29/1 58/30/1 59/19/1 60/17/1
f 61/30/1 62/31/1 63/21/1 64/19/1
f 65/31/1 66/32/1 67/23/1 68/21/1
f 69/32/1 70/33/1 71/25/1 72/23/1
f 73/34/1 74/35/1 75/28/1 76/27/1
f 77/35/1 78/36/1 79/29/1 80/28/1
f 81/36/1 82/37/1 83/30/1 84/29/1
f 85/37/1 86/38/1 87/31/1 88/30/1
f 89/38/1 90/39/1 91/32/1 92/31/1
f 93/39/1 94/40/1 95/33/1 96/32/1
f 97/41/1 98/42/1 99/43/1 100/44/1
f 101/42/1 102/45/1 103/46/1 104/43/1
f 105/47/1 106/48/1 107/35/1 108/34/1
f 109/48/1 110/49/1 111/36/1 112/35/1
f 113/49/1 114/50/1 115/37/1 116/36/1
f 117/50/1 118/51/1 119/38/1 120/37/1
f 121/51/1 122/52/1 123/39/1 124/38/1
f 125/52/1 126/53/1 127/40/1 128/39/1
f 129/54/1 130/55/1 131/56/1 132/57/1
f 133/55/1 134/58/1 135/59/1 136/56/1
f 137/58/1 138/60/1 139/61/1 140/59/1
f 141/62/1 142/63/1 143/42/1 144/41/1
f 145/63/1 146/64/1 147/45/1 148/42/1
f 149/65/1 150/66/1 151/48/1 152/47/1
f 153/66/1 154/67/1 155/49/1 156/48/1
f 157/67/1 158/68/1 159/50/1 160/49/1
f 161/68/1 162/69/1 163/51/1 164/50/1
f 165/69/1 166/70/1 167/52/1 168/51/1
f 169/70/1 170/71/1 171/53/1 172/52/1
f 173/72/1 174/73/1 175/55/1 176/54/1
f 177/73/1 178/74/1 179/58/1 180/55/1
f 181/74/1 182/75/1 183/60/1 184/58/1
f 185/76/1 186/77/1 187/63/1 188/62/1
f 189/77/1 190/78/1 191/64/1 192/63/1
f 193/41/1 194/42/1 195/43/1 196/44/1
f 197/42/1 198/45/1 199/46/1 200/43/1
f 201/79/1 202/80/1 203/73/1 204/72/1
f 205/80/1 206/81/1 207/74/1 208/73/1
f 209/81/1 210/82/1 211/75/1 212/74/1
f 213/54/1 214/55/1 215/56/1 216/57/1
f 217/55/1 218/58/1 219/59/1 220/56/1
f 221/62/1 222/63/1 223/42/1 224/41/1
f 225/63/1 226/64/1 227/45/1 228/42/1
f 229/72/1 230/73/1 231/55/1 232/54/1
f 233/73/1 234/74/1 235/58/1 236/55/1
f 237/76/1 238/77/1 239/63/1 240/62/1
f 241/77/1 242/78/1 243/64/1 244/63/1
f 245/54/1 246/55/1 247/56/1 248/57/1
f 249/55/1 250/58/1 251/59/1 252/56/1
f 253/58/1 254/60/1 255/61/1 256/59/1
f 257/41/1 258/42/1 259/43/1 260/44/1
f 261/42/1 262/45/1 263/46/1 264/43/1
f 265/79/1 266/80/1 267/73/1 268/72/1
f 269/80/1 270/81/1 271/74/1 272/73/1
f 273/72/1 274/73/1 275/55/1 276/54/1
f 277/73/1 278/74/1 279/58/1 280/55/1
f 281/74/1 282/75/1 283/60/1 284/58/1
f 285/62/1 286/63/1 287/42/1 288/41/1
f 289/63/1 290/64/1 291/45/1 292/42/1
f 293/79/1 294/80/1 295/73/1 296/72/1
f 297/80/1 298/81/1 299/74/1 300/73/1
f 301/81/1 302/82/1 303/75/1 304/74/1
f 305/76/1 306/77/1 307/63/1 308/62/1
f 309/77/1 310/78/1 311/64/1 312/63/1

