# Tiled2Unity generated file. Do not modify by hand.
# Wavefront file for 'Pueblo_mesh_0083.obj'

# Vertices (Count = 248)
v 0 -3 0
v -1 -3 0
v -1 -2 0
v 0 -2 0
v -1 -3 0
v -2 -3 0
v -2 -2 0
v -1 -2 0
v -2 -3 0
v -3 -3 0
v -3 -2 0
v -2 -2 0
v -3 -3 0
v -4 -3 0
v -4 -2 0
v -3 -2 0
v -4 -3 0
v -5 -3 0
v -5 -2 0
v -4 -2 0
v -5 -3 0
v -6 -3 0
v -6 -2 0
v -5 -2 0
v 0 -4 0
v -1 -4 0
v -1 -3 0
v 0 -3 0
v -1 -4 0
v -2 -4 0
v -2 -3 0
v -1 -3 0
v -2 -4 0
v -3 -4 0
v -3 -3 0
v -2 -3 0
v -3 -4 0
v -4 -4 0
v -4 -3 0
v -3 -3 0
v -4 -4 0
v -5 -4 0
v -5 -3 0
v -4 -3 0
v -5 -4 0
v -6 -4 0
v -6 -3 0
v -5 -3 0
v -7 -4 0
v -8 -4 0
v -8 -3 0
v -7 -3 0
v -8 -4 0
v -9 -4 0
v -9 -3 0
v -8 -3 0
v -9 -4 0
v -10 -4 0
v -10 -3 0
v -9 -3 0
v -10 -4 0
v -11 -4 0
v -11 -3 0
v -10 -3 0
v -11 -4 0
v -12 -4 0
v -12 -3 0
v -11 -3 0
v -12 -4 0
v -13 -4 0
v -13 -3 0
v -12 -3 0
v -13 -4 0
v -14 -4 0
v -14 -3 0
v -13 -3 0
v -4 -5 0
v -5 -5 0
v -5 -4 0
v -4 -4 0
v -7 -5 0
v -8 -5 0
v -8 -4 0
v -7 -4 0
v -8 -5 0
v -9 -5 0
v -9 -4 0
v -8 -4 0
v -9 -5 0
v -10 -5 0
v -10 -4 0
v -9 -4 0
v -10 -5 0
v -11 -5 0
v -11 -4 0
v -10 -4 0
v -11 -5 0
v -12 -5 0
v -12 -4 0
v -11 -4 0
v -12 -5 0
v -13 -5 0
v -13 -4 0
v -12 -4 0
v -13 -5 0
v -14 -5 0
v -14 -4 0
v -13 -4 0
v -4 -6 0
v -5 -6 0
v -5 -5 0
v -4 -5 0
v -7 -6 0
v -8 -6 0
v -8 -5 0
v -7 -5 0
v -8 -6 0
v -9 -6 0
v -9 -5 0
v -8 -5 0
v -9 -6 0
v -10 -6 0
v -10 -5 0
v -9 -5 0
v -10 -6 0
v -11 -6 0
v -11 -5 0
v -10 -5 0
v -11 -6 0
v -12 -6 0
v -12 -5 0
v -11 -5 0
v -12 -6 0
v -13 -6 0
v -13 -5 0
v -12 -5 0
v -13 -6 0
v -14 -6 0
v -14 -5 0
v -13 -5 0
v -8 -7 0
v -9 -7 0
v -9 -6 0
v -8 -6 0
v -8 -8 0
v -9 -8 0
v -9 -7 0
v -8 -7 0
v -10 -9 0
v -11 -9 0
v -11 -8 0
v -10 -8 0
v -11 -9 0
v -12 -9 0
v -12 -8 0
v -11 -8 0
v -12 -9 0
v -13 -9 0
v -13 -8 0
v -12 -8 0
v -1 -13 0
v -2 -13 0
v -2 -12 0
v -1 -12 0
v -2 -13 0
v -3 -13 0
v -3 -12 0
v -2 -12 0
v -3 -13 0
v -4 -13 0
v -4 -12 0
v -3 -12 0
v -4 -13 0
v -5 -13 0
v -5 -12 0
v -4 -12 0
v -5 -13 0
v -6 -13 0
v -6 -12 0
v -5 -12 0
v -6 -13 0
v -7 -13 0
v -7 -12 0
v -6 -12 0
v -7 -13 0
v -8 -13 0
v -8 -12 0
v -7 -12 0
v -1 -14 0
v -2 -14 0
v -2 -13 0
v -1 -13 0
v -2 -14 0
v -3 -14 0
v -3 -13 0
v -2 -13 0
v -3 -14 0
v -4 -14 0
v -4 -13 0
v -3 -13 0
v -4 -14 0
v -5 -14 0
v -5 -13 0
v -4 -13 0
v -5 -14 0
v -6 -14 0
v -6 -13 0
v -5 -13 0
v -6 -14 0
v -7 -14 0
v -7 -13 0
v -6 -13 0
v -7 -14 0
v -8 -14 0
v -8 -13 0
v -7 -13 0
v -1 -15 0
v -2 -15 0
v -2 -14 0
v -1 -14 0
v -2 -15 0
v -3 -15 0
v -3 -14 0
v -2 -14 0
v -3 -15 0
v -4 -15 0
v -4 -14 0
v -3 -14 0
v -4 -15 0
v -5 -15 0
v -5 -14 0
v -4 -14 0
v -5 -15 0
v -6 -15 0
v -6 -14 0
v -5 -14 0
v -6 -15 0
v -7 -15 0
v -7 -14 0
v -6 -14 0
v -7 -15 0
v -8 -15 0
v -8 -14 0
v -7 -14 0
v -1 -16 0
v -2 -16 0
v -2 -15 0
v -1 -15 0

# Texture cooridinates (Count = 105)
vt 0.6666667 0.7368421
vt 0.6521739 0.7368421
vt 0.6521739 0.7631579
vt 0.6666667 0.7631579
vt 0.6376812 0.7368421
vt 0.6376812 0.7631579
vt 0.6231884 0.7368421
vt 0.6231884 0.7631579
vt 0.6086956 0.7368421
vt 0.6086956 0.7631579
vt 0.5942029 0.7368421
vt 0.5942029 0.7631579
vt 0.5797101 0.7368421
vt 0.5797101 0.7631579
vt 0.6666667 0.7105263
vt 0.6521739 0.7105263
vt 0.6376812 0.7105263
vt 0.6231884 0.7105263
vt 0.6086956 0.7105263
vt 0.5942029 0.7105263
vt 0.5797101 0.7105263
vt 0.6811594 0.7368421
vt 0.6956522 0.7368421
vt 0.6956522 0.7631579
vt 0.6811594 0.7631579
vt 0.7101449 0.7368421
vt 0.7101449 0.7631579
vt 0.7246377 0.7368421
vt 0.7246377 0.7631579
vt 0.7391304 0.7368421
vt 0.7391304 0.7631579
vt 0.7536232 0.7368421
vt 0.7536232 0.7631579
vt 0.7681159 0.7368421
vt 0.7681159 0.7631579
vt 0.7826087 0.7368421
vt 0.7826087 0.7631579
vt 0.01449275 0.3947368
vt 0.02898551 0.3947368
vt 0.02898551 0.4210526
vt 0.01449275 0.4210526
vt 0.6811594 0.7105263
vt 0.6956522 0.7105263
vt 0.7101449 0.7105263
vt 0.7246377 0.7105263
vt 0.7391304 0.7105263
vt 0.7536232 0.7105263
vt 0.7681159 0.7105263
vt 0.7826087 0.7105263
vt 0.01449275 0.3421053
vt 0.02898551 0.3421053
vt 0.02898551 0.3684211
vt 0.01449275 0.3684211
vt 0.6811594 0.6842105
vt 0.6956522 0.6842105
vt 0.7101449 0.6842105
vt 0.7246377 0.6842105
vt 0.7391304 0.6842105
vt 0.7536232 0.6842105
vt 0.7681159 0.6842105
vt 0.7826087 0.6842105
vt 0.04347826 0.3947368
vt 0.04347826 0.4210526
vt 0.04347826 0.3421053
vt 0.04347826 0.3684211
vt 0.1014493 0.7368421
vt 0.08695652 0.7368421
vt 0.08695652 0.7631579
vt 0.1014493 0.7631579
vt 0.07246377 0.7368421
vt 0.07246377 0.7631579
vt 0.05797102 0.7368421
vt 0.05797102 0.7631579
vt 0.7971014 0.7368421
vt 0.7971014 0.7631579
vt 0.8115942 0.7368421
vt 0.8115942 0.7631579
vt 0.8260869 0.7368421
vt 0.8260869 0.7631579
vt 0.8405797 0.7368421
vt 0.8405797 0.7631579
vt 0.8550724 0.7368421
vt 0.8550724 0.7631579
vt 0.8695652 0.7368421
vt 0.8695652 0.7631579
vt 0.884058 0.7368421
vt 0.884058 0.7631579
vt 0.7971014 0.7105263
vt 0.8115942 0.7105263
vt 0.8260869 0.7105263
vt 0.8405797 0.7105263
vt 0.8550724 0.7105263
vt 0.8695652 0.7105263
vt 0.884058 0.7105263
vt 0.7971014 0.6842105
vt 0.8115942 0.6842105
vt 0.8260869 0.6842105
vt 0.8405797 0.6842105
vt 0.8550724 0.6842105
vt 0.8695652 0.6842105
vt 0.884058 0.6842105
vt 0.7971014 0.9473684
vt 0.8115942 0.9473684
vt 0.8115942 0.9736842
vt 0.7971014 0.9736842

# Normal
vn 0 0 -1

# Mesh description
g Pueblo_mesh_0083

# Faces
f 1/1/1 2/2/1 3/3/1 4/4/1
f 5/2/1 6/5/1 7/6/1 8/3/1
f 9/5/1 10/7/1 11/8/1 12/6/1
f 13/7/1 14/9/1 15/10/1 16/8/1
f 17/9/1 18/11/1 19/12/1 20/10/1
f 21/11/1 22/13/1 23/14/1 24/12/1
f 25/15/1 26/16/1 27/2/1 28/1/1
f 29/16/1 30/17/1 31/5/1 32/2/1
f 33/17/1 34/18/1 35/7/1 36/5/1
f 37/18/1 38/19/1 39/9/1 40/7/1
f 41/19/1 42/20/1 43/11/1 44/9/1
f 45/20/1 46/21/1 47/13/1 48/11/1
f 49/22/1 50/23/1 51/24/1 52/25/1
f 53/23/1 54/26/1 55/27/1 56/24/1
f 57/26/1 58/28/1 59/29/1 60/27/1
f 61/28/1 62/30/1 63/31/1 64/29/1
f 65/30/1 66/32/1 67/33/1 68/31/1
f 69/32/1 70/34/1 71/35/1 72/33/1
f 73/34/1 74/36/1 75/37/1 76/35/1
f 77/38/1 78/39/1 79/40/1 80/41/1
f 81/42/1 82/43/1 83/23/1 84/22/1
f 85/43/1 86/44/1 87/26/1 88/23/1
f 89/44/1 90/45/1 91/28/1 92/26/1
f 93/45/1 94/46/1 95/30/1 96/28/1
f 97/46/1 98/47/1 99/32/1 100/30/1
f 101/47/1 102/48/1 103/34/1 104/32/1
f 105/48/1 106/49/1 107/36/1 108/34/1
f 109/50/1 110/51/1 111/52/1 112/53/1
f 113/54/1 114/55/1 115/43/1 116/42/1
f 117/55/1 118/56/1 119/44/1 120/43/1
f 121/56/1 122/57/1 123/45/1 124/44/1
f 125/57/1 126/58/1 127/46/1 128/45/1
f 129/58/1 130/59/1 131/47/1 132/46/1
f 133/59/1 134/60/1 135/48/1 136/47/1
f 137/60/1 138/61/1 139/49/1 140/48/1
f 141/62/1 142/39/1 143/40/1 144/63/1
f 145/64/1 146/51/1 147/52/1 148/65/1
f 149/66/1 150/67/1 151/68/1 152/69/1
f 153/67/1 154/70/1 155/71/1 156/68/1
f 157/70/1 158/72/1 159/73/1 160/71/1
f 161/36/1 162/74/1 163/75/1 164/37/1
f 165/74/1 166/76/1 167/77/1 168/75/1
f 169/76/1 170/78/1 171/79/1 172/77/1
f 173/78/1 174/80/1 175/81/1 176/79/1
f 177/80/1 178/82/1 179/83/1 180/81/1
f 181/82/1 182/84/1 183/85/1 184/83/1
f 185/84/1 186/86/1 187/87/1 188/85/1
f 189/49/1 190/88/1 191/74/1 192/36/1
f 193/88/1 194/89/1 195/76/1 196/74/1
f 197/89/1 198/90/1 199/78/1 200/76/1
f 201/90/1 202/91/1 203/80/1 204/78/1
f 205/91/1 206/92/1 207/82/1 208/80/1
f 209/92/1 210/93/1 211/84/1 212/82/1
f 213/93/1 214/94/1 215/86/1 216/84/1
f 217/61/1 218/95/1 219/88/1 220/49/1
f 221/95/1 222/96/1 223/89/1 224/88/1
f 225/96/1 226/97/1 227/90/1 228/89/1
f 229/97/1 230/98/1 231/91/1 232/90/1
f 233/98/1 234/99/1 235/92/1 236/91/1
f 237/99/1 238/100/1 239/93/1 240/92/1
f 241/100/1 242/101/1 243/94/1 244/93/1
f 245/102/1 246/103/1 247/104/1 248/105/1

