# Tiled2Unity generated file. Do not modify by hand.
# Wavefront file for 'Pueblo_mesh_0086.obj'

# Vertices (Count = 144)
v -3 -9 0
v -4 -9 0
v -4 -8 0
v -3 -8 0
v -4 -9 0
v -5 -9 0
v -5 -8 0
v -4 -8 0
v -7 -9 0
v -8 -9 0
v -8 -8 0
v -7 -8 0
v -8 -9 0
v -9 -9 0
v -9 -8 0
v -8 -8 0
v -3 -10 0
v -4 -10 0
v -4 -9 0
v -3 -9 0
v -4 -10 0
v -5 -10 0
v -5 -9 0
v -4 -9 0
v -7 -10 0
v -8 -10 0
v -8 -9 0
v -7 -9 0
v -8 -10 0
v -9 -10 0
v -9 -9 0
v -8 -9 0
v -10 -10 0
v -11 -10 0
v -11 -9 0
v -10 -9 0
v -11 -10 0
v -12 -10 0
v -12 -9 0
v -11 -9 0
v -12 -10 0
v -13 -10 0
v -13 -9 0
v -12 -9 0
v -3 -11 0
v -4 -11 0
v -4 -10 0
v -3 -10 0
v -4 -11 0
v -5 -11 0
v -5 -10 0
v -4 -10 0
v -7 -11 0
v -8 -11 0
v -8 -10 0
v -7 -10 0
v -8 -11 0
v -9 -11 0
v -9 -10 0
v -8 -10 0
v -10 -11 0
v -11 -11 0
v -11 -10 0
v -10 -10 0
v -11 -11 0
v -12 -11 0
v -12 -10 0
v -11 -10 0
v -12 -11 0
v -13 -11 0
v -13 -10 0
v -12 -10 0
v -5 -12 0
v -6 -12 0
v -6 -11 0
v -5 -11 0
v -6 -12 0
v -7 -12 0
v -7 -11 0
v -6 -11 0
v -7 -12 0
v -8 -12 0
v -8 -11 0
v -7 -11 0
v -10 -12 0
v -11 -12 0
v -11 -11 0
v -10 -11 0
v -11 -12 0
v -12 -12 0
v -12 -11 0
v -11 -11 0
v -12 -12 0
v -13 -12 0
v -13 -11 0
v -12 -11 0
v -5 -13 0
v -6 -13 0
v -6 -12 0
v -5 -12 0
v -6 -13 0
v -7 -13 0
v -7 -12 0
v -6 -12 0
v -7 -13 0
v -8 -13 0
v -8 -12 0
v -7 -12 0
v -14 -13 0
v -15 -13 0
v -15 -12 0
v -14 -12 0
v -15 -13 0
v -16 -13 0
v -16 -12 0
v -15 -12 0
v -5 -14 0
v -6 -14 0
v -6 -13 0
v -5 -13 0
v -6 -14 0
v -7 -14 0
v -7 -13 0
v -6 -13 0
v -7 -14 0
v -8 -14 0
v -8 -13 0
v -7 -13 0
v -14 -14 0
v -15 -14 0
v -15 -13 0
v -14 -13 0
v -15 -14 0
v -16 -14 0
v -16 -13 0
v -15 -13 0
v -14 -15 0
v -15 -15 0
v -15 -14 0
v -14 -14 0
v -15 -15 0
v -16 -15 0
v -16 -14 0
v -15 -14 0

# Texture cooridinates (Count = 28)
vt 0.3846154 0.6666666
vt 0.4038461 0.6666666
vt 0.4038461 0.7083334
vt 0.3846154 0.7083334
vt 0.4230769 0.6666666
vt 0.4230769 0.7083334
vt 0.3846154 0.625
vt 0.4038461 0.625
vt 0.4230769 0.625
vt 0.4807692 0.8333333
vt 0.5 0.8333333
vt 0.5 0.875
vt 0.4807692 0.875
vt 0.5192308 0.8333333
vt 0.5192308 0.875
vt 0.5384616 0.8333333
vt 0.5384616 0.875
vt 0.3846154 0.5833334
vt 0.4038461 0.5833334
vt 0.4230769 0.5833334
vt 0.4807692 0.7916667
vt 0.5 0.7916667
vt 0.5192308 0.7916667
vt 0.5384616 0.7916667
vt 0.4807692 0.75
vt 0.5 0.75
vt 0.5192308 0.75
vt 0.5384616 0.75

# Normal
vn 0 0 -1

# Mesh description
g Pueblo_mesh_0086

# Faces
f 1/1/1 2/2/1 3/3/1 4/4/1
f 5/2/1 6/5/1 7/6/1 8/3/1
f 9/1/1 10/2/1 11/3/1 12/4/1
f 13/2/1 14/5/1 15/6/1 16/3/1
f 17/7/1 18/8/1 19/2/1 20/1/1
f 21/8/1 22/9/1 23/5/1 24/2/1
f 25/7/1 26/8/1 27/2/1 28/1/1
f 29/8/1 30/9/1 31/5/1 32/2/1
f 33/10/1 34/11/1 35/12/1 36/13/1
f 37/11/1 38/14/1 39/15/1 40/12/1
f 41/14/1 42/16/1 43/17/1 44/15/1
f 45/18/1 46/19/1 47/8/1 48/7/1
f 49/19/1 50/20/1 51/9/1 52/8/1
f 53/18/1 54/19/1 55/8/1 56/7/1
f 57/19/1 58/20/1 59/9/1 60/8/1
f 61/21/1 62/22/1 63/11/1 64/10/1
f 65/22/1 66/23/1 67/14/1 68/11/1
f 69/23/1 70/24/1 71/16/1 72/14/1
f 73/10/1 74/11/1 75/12/1 76/13/1
f 77/11/1 78/14/1 79/15/1 80/12/1
f 81/14/1 82/16/1 83/17/1 84/15/1
f 85/25/1 86/26/1 87/22/1 88/21/1
f 89/26/1 90/27/1 91/23/1 92/22/1
f 93/27/1 94/28/1 95/24/1 96/23/1
f 97/21/1 98/22/1 99/11/1 100/10/1
f 101/22/1 102/23/1 103/14/1 104/11/1
f 105/23/1 106/24/1 107/16/1 108/14/1
f 109/1/1 110/2/1 111/3/1 112/4/1
f 113/2/1 114/5/1 115/6/1 116/3/1
f 117/25/1 118/26/1 119/22/1 120/21/1
f 121/26/1 122/27/1 123/23/1 124/22/1
f 125/27/1 126/28/1 127/24/1 128/23/1
f 129/7/1 130/8/1 131/2/1 132/1/1
f 133/8/1 134/9/1 135/5/1 136/2/1
f 137/18/1 138/19/1 139/8/1 140/7/1
f 141/19/1 142/20/1 143/9/1 144/8/1

