# Tiled2Unity generated file. Do not modify by hand.
# Wavefront file for 'Pueblo_mesh_0075.obj'

# Vertices (Count = 12)
v 0 -11 0
v -1 -11 0
v -1 -10 0
v 0 -10 0
v 0 -12 0
v -1 -12 0
v -1 -11 0
v 0 -11 0
v 0 -13 0
v -1 -13 0
v -1 -12 0
v 0 -12 0

# Texture cooridinates (Count = 8)
vt 0.5192308 0.8333333
vt 0.5384616 0.8333333
vt 0.5384616 0.875
vt 0.5192308 0.875
vt 0.5192308 0.7916667
vt 0.5384616 0.7916667
vt 0.5192308 0.75
vt 0.5384616 0.75

# Normal
vn 0 0 -1

# Mesh description
g Pueblo_mesh_0075

# Faces
f 1/1/1 2/2/1 3/3/1 4/4/1
f 5/5/1 6/6/1 7/2/1 8/1/1
f 9/7/1 10/8/1 11/6/1 12/5/1

