# Tiled2Unity generated file. Do not modify by hand.
# Wavefront file for 'Pueblo_mesh_0018.obj'

# Vertices (Count = 740)
v 0 -1 0
v -1 -1 0
v -1 0 0
v 0 0 0
v -1 -1 0
v -2 -1 0
v -2 0 0
v -1 0 0
v -2 -1 0
v -3 -1 0
v -3 0 0
v -2 0 0
v -3 -1 0
v -4 -1 0
v -4 0 0
v -3 0 0
v -4 -1 0
v -5 -1 0
v -5 0 0
v -4 0 0
v -5 -1 0
v -6 -1 0
v -6 0 0
v -5 0 0
v -8 -1 0
v -9 -1 0
v -9 0 0
v -8 0 0
v -9 -1 0
v -10 -1 0
v -10 0 0
v -9 0 0
v -10 -1 0
v -11 -1 0
v -11 0 0
v -10 0 0
v -11 -1 0
v -12 -1 0
v -12 0 0
v -11 0 0
v -13 -1 0
v -14 -1 0
v -14 0 0
v -13 0 0
v -14 -1 0
v -15 -1 0
v -15 0 0
v -14 0 0
v -15 -1 0
v -16 -1 0
v -16 0 0
v -15 0 0
v 0 -2 0
v -1 -2 0
v -1 -1 0
v 0 -1 0
v -1 -2 0
v -2 -2 0
v -2 -1 0
v -1 -1 0
v -2 -2 0
v -3 -2 0
v -3 -1 0
v -2 -1 0
v -3 -2 0
v -4 -2 0
v -4 -1 0
v -3 -1 0
v -4 -2 0
v -5 -2 0
v -5 -1 0
v -4 -1 0
v -5 -2 0
v -6 -2 0
v -6 -1 0
v -5 -1 0
v -13 -2 0
v -14 -2 0
v -14 -1 0
v -13 -1 0
v -14 -2 0
v -15 -2 0
v -15 -1 0
v -14 -1 0
v -15 -2 0
v -16 -2 0
v -16 -1 0
v -15 -1 0
v 0 -3 0
v -1 -3 0
v -1 -2 0
v 0 -2 0
v -1 -3 0
v -2 -3 0
v -2 -2 0
v -1 -2 0
v -2 -3 0
v -3 -3 0
v -3 -2 0
v -2 -2 0
v -3 -3 0
v -4 -3 0
v -4 -2 0
v -3 -2 0
v -4 -3 0
v -5 -3 0
v -5 -2 0
v -4 -2 0
v -5 -3 0
v -6 -3 0
v -6 -2 0
v -5 -2 0
v -6 -3 0
v -7 -3 0
v -7 -2 0
v -6 -2 0
v -7 -3 0
v -8 -3 0
v -8 -2 0
v -7 -2 0
v -8 -3 0
v -9 -3 0
v -9 -2 0
v -8 -2 0
v -9 -3 0
v -10 -3 0
v -10 -2 0
v -9 -2 0
v -10 -3 0
v -11 -3 0
v -11 -2 0
v -10 -2 0
v -11 -3 0
v -12 -3 0
v -12 -2 0
v -11 -2 0
v -12 -3 0
v -13 -3 0
v -13 -2 0
v -12 -2 0
v -13 -3 0
v -14 -3 0
v -14 -2 0
v -13 -2 0
v -14 -3 0
v -15 -3 0
v -15 -2 0
v -14 -2 0
v -15 -3 0
v -16 -3 0
v -16 -2 0
v -15 -2 0
v 0 -4 0
v -1 -4 0
v -1 -3 0
v 0 -3 0
v -1 -4 0
v -2 -4 0
v -2 -3 0
v -1 -3 0
v -2 -4 0
v -3 -4 0
v -3 -3 0
v -2 -3 0
v -3 -4 0
v -4 -4 0
v -4 -3 0
v -3 -3 0
v -4 -4 0
v -5 -4 0
v -5 -3 0
v -4 -3 0
v -5 -4 0
v -6 -4 0
v -6 -3 0
v -5 -3 0
v -6 -4 0
v -7 -4 0
v -7 -3 0
v -6 -3 0
v -7 -4 0
v -8 -4 0
v -8 -3 0
v -7 -3 0
v -8 -4 0
v -9 -4 0
v -9 -3 0
v -8 -3 0
v -9 -4 0
v -10 -4 0
v -10 -3 0
v -9 -3 0
v -10 -4 0
v -11 -4 0
v -11 -3 0
v -10 -3 0
v -11 -4 0
v -12 -4 0
v -12 -3 0
v -11 -3 0
v -12 -4 0
v -13 -4 0
v -13 -3 0
v -12 -3 0
v -13 -4 0
v -14 -4 0
v -14 -3 0
v -13 -3 0
v -14 -4 0
v -15 -4 0
v -15 -3 0
v -14 -3 0
v -15 -4 0
v -16 -4 0
v -16 -3 0
v -15 -3 0
v 0 -5 0
v -1 -5 0
v -1 -4 0
v 0 -4 0
v -1 -5 0
v -2 -5 0
v -2 -4 0
v -1 -4 0
v -2 -5 0
v -3 -5 0
v -3 -4 0
v -2 -4 0
v -3 -5 0
v -4 -5 0
v -4 -4 0
v -3 -4 0
v -4 -5 0
v -5 -5 0
v -5 -4 0
v -4 -4 0
v -5 -5 0
v -6 -5 0
v -6 -4 0
v -5 -4 0
v -6 -5 0
v -7 -5 0
v -7 -4 0
v -6 -4 0
v -7 -5 0
v -8 -5 0
v -8 -4 0
v -7 -4 0
v -8 -5 0
v -9 -5 0
v -9 -4 0
v -8 -4 0
v -9 -5 0
v -10 -5 0
v -10 -4 0
v -9 -4 0
v -10 -5 0
v -11 -5 0
v -11 -4 0
v -10 -4 0
v -11 -5 0
v -12 -5 0
v -12 -4 0
v -11 -4 0
v -12 -5 0
v -13 -5 0
v -13 -4 0
v -12 -4 0
v -13 -5 0
v -14 -5 0
v -14 -4 0
v -13 -4 0
v -14 -5 0
v -15 -5 0
v -15 -4 0
v -14 -4 0
v -15 -5 0
v -16 -5 0
v -16 -4 0
v -15 -4 0
v 0 -6 0
v -1 -6 0
v -1 -5 0
v 0 -5 0
v -1 -6 0
v -2 -6 0
v -2 -5 0
v -1 -5 0
v -2 -6 0
v -3 -6 0
v -3 -5 0
v -2 -5 0
v -3 -6 0
v -4 -6 0
v -4 -5 0
v -3 -5 0
v -4 -6 0
v -5 -6 0
v -5 -5 0
v -4 -5 0
v -5 -6 0
v -6 -6 0
v -6 -5 0
v -5 -5 0
v -6 -6 0
v -7 -6 0
v -7 -5 0
v -6 -5 0
v -7 -6 0
v -8 -6 0
v -8 -5 0
v -7 -5 0
v -8 -6 0
v -9 -6 0
v -9 -5 0
v -8 -5 0
v -9 -6 0
v -10 -6 0
v -10 -5 0
v -9 -5 0
v -10 -6 0
v -11 -6 0
v -11 -5 0
v -10 -5 0
v -11 -6 0
v -12 -6 0
v -12 -5 0
v -11 -5 0
v -12 -6 0
v -13 -6 0
v -13 -5 0
v -12 -5 0
v -13 -6 0
v -14 -6 0
v -14 -5 0
v -13 -5 0
v -14 -6 0
v -15 -6 0
v -15 -5 0
v -14 -5 0
v -15 -6 0
v -16 -6 0
v -16 -5 0
v -15 -5 0
v 0 -7 0
v -1 -7 0
v -1 -6 0
v 0 -6 0
v -1 -7 0
v -2 -7 0
v -2 -6 0
v -1 -6 0
v -2 -7 0
v -3 -7 0
v -3 -6 0
v -2 -6 0
v -3 -7 0
v -4 -7 0
v -4 -6 0
v -3 -6 0
v -4 -7 0
v -5 -7 0
v -5 -6 0
v -4 -6 0
v -5 -7 0
v -6 -7 0
v -6 -6 0
v -5 -6 0
v -6 -7 0
v -7 -7 0
v -7 -6 0
v -6 -6 0
v -7 -7 0
v -8 -7 0
v -8 -6 0
v -7 -6 0
v -8 -7 0
v -9 -7 0
v -9 -6 0
v -8 -6 0
v -9 -7 0
v -10 -7 0
v -10 -6 0
v -9 -6 0
v -10 -7 0
v -11 -7 0
v -11 -6 0
v -10 -6 0
v -11 -7 0
v -12 -7 0
v -12 -6 0
v -11 -6 0
v -12 -7 0
v -13 -7 0
v -13 -6 0
v -12 -6 0
v -13 -7 0
v -14 -7 0
v -14 -6 0
v -13 -6 0
v -14 -7 0
v -15 -7 0
v -15 -6 0
v -14 -6 0
v -15 -7 0
v -16 -7 0
v -16 -6 0
v -15 -6 0
v 0 -8 0
v -1 -8 0
v -1 -7 0
v 0 -7 0
v -1 -8 0
v -2 -8 0
v -2 -7 0
v -1 -7 0
v -2 -8 0
v -3 -8 0
v -3 -7 0
v -2 -7 0
v -3 -8 0
v -4 -8 0
v -4 -7 0
v -3 -7 0
v -4 -8 0
v -5 -8 0
v -5 -7 0
v -4 -7 0
v -5 -8 0
v -6 -8 0
v -6 -7 0
v -5 -7 0
v -6 -8 0
v -7 -8 0
v -7 -7 0
v -6 -7 0
v -7 -8 0
v -8 -8 0
v -8 -7 0
v -7 -7 0
v -8 -8 0
v -9 -8 0
v -9 -7 0
v -8 -7 0
v -9 -8 0
v -10 -8 0
v -10 -7 0
v -9 -7 0
v -10 -8 0
v -11 -8 0
v -11 -7 0
v -10 -7 0
v -11 -8 0
v -12 -8 0
v -12 -7 0
v -11 -7 0
v -12 -8 0
v -13 -8 0
v -13 -7 0
v -12 -7 0
v -13 -8 0
v -14 -8 0
v -14 -7 0
v -13 -7 0
v -14 -8 0
v -15 -8 0
v -15 -7 0
v -14 -7 0
v 0 -9 0
v -1 -9 0
v -1 -8 0
v 0 -8 0
v -8 -9 0
v -9 -9 0
v -9 -8 0
v -8 -8 0
v -9 -9 0
v -10 -9 0
v -10 -8 0
v -9 -8 0
v -10 -9 0
v -11 -9 0
v -11 -8 0
v -10 -8 0
v -11 -9 0
v -12 -9 0
v -12 -8 0
v -11 -8 0
v -12 -9 0
v -13 -9 0
v -13 -8 0
v -12 -8 0
v -13 -9 0
v -14 -9 0
v -14 -8 0
v -13 -8 0
v -14 -9 0
v -15 -9 0
v -15 -8 0
v -14 -8 0
v 0 -10 0
v -1 -10 0
v -1 -9 0
v 0 -9 0
v -8 -10 0
v -9 -10 0
v -9 -9 0
v -8 -9 0
v -9 -10 0
v -10 -10 0
v -10 -9 0
v -9 -9 0
v -10 -10 0
v -11 -10 0
v -11 -9 0
v -10 -9 0
v -11 -10 0
v -12 -10 0
v -12 -9 0
v -11 -9 0
v -12 -10 0
v -13 -10 0
v -13 -9 0
v -12 -9 0
v -13 -10 0
v -14 -10 0
v -14 -9 0
v -13 -9 0
v -14 -10 0
v -15 -10 0
v -15 -9 0
v -14 -9 0
v 0 -11 0
v -1 -11 0
v -1 -10 0
v 0 -10 0
v -8 -11 0
v -9 -11 0
v -9 -10 0
v -8 -10 0
v -9 -11 0
v -10 -11 0
v -10 -10 0
v -9 -10 0
v -10 -11 0
v -11 -11 0
v -11 -10 0
v -10 -10 0
v -11 -11 0
v -12 -11 0
v -12 -10 0
v -11 -10 0
v -12 -11 0
v -13 -11 0
v -13 -10 0
v -12 -10 0
v -13 -11 0
v -14 -11 0
v -14 -10 0
v -13 -10 0
v -14 -11 0
v -15 -11 0
v -15 -10 0
v -14 -10 0
v 0 -12 0
v -1 -12 0
v -1 -11 0
v 0 -11 0
v -8 -12 0
v -9 -12 0
v -9 -11 0
v -8 -11 0
v -9 -12 0
v -10 -12 0
v -10 -11 0
v -9 -11 0
v -10 -12 0
v -11 -12 0
v -11 -11 0
v -10 -11 0
v -11 -12 0
v -12 -12 0
v -12 -11 0
v -11 -11 0
v -12 -12 0
v -13 -12 0
v -13 -11 0
v -12 -11 0
v -13 -12 0
v -14 -12 0
v -14 -11 0
v -13 -11 0
v -14 -12 0
v -15 -12 0
v -15 -11 0
v -14 -11 0
v -15 -12 0
v -16 -12 0
v -16 -11 0
v -15 -11 0
v 0 -13 0
v -1 -13 0
v -1 -12 0
v 0 -12 0
v -8 -13 0
v -9 -13 0
v -9 -12 0
v -8 -12 0
v -9 -13 0
v -10 -13 0
v -10 -12 0
v -9 -12 0
v -10 -13 0
v -11 -13 0
v -11 -12 0
v -10 -12 0
v -11 -13 0
v -12 -13 0
v -12 -12 0
v -11 -12 0
v -12 -13 0
v -13 -13 0
v -13 -12 0
v -12 -12 0
v -13 -13 0
v -14 -13 0
v -14 -12 0
v -13 -12 0
v -14 -13 0
v -15 -13 0
v -15 -12 0
v -14 -12 0
v -15 -13 0
v -16 -13 0
v -16 -12 0
v -15 -12 0
v 0 -14 0
v -1 -14 0
v -1 -13 0
v 0 -13 0
v -8 -14 0
v -9 -14 0
v -9 -13 0
v -8 -13 0
v -9 -14 0
v -10 -14 0
v -10 -13 0
v -9 -13 0
v -10 -14 0
v -11 -14 0
v -11 -13 0
v -10 -13 0
v -11 -14 0
v -12 -14 0
v -12 -13 0
v -11 -13 0
v -12 -14 0
v -13 -14 0
v -13 -13 0
v -12 -13 0
v -13 -14 0
v -14 -14 0
v -14 -13 0
v -13 -13 0
v -14 -14 0
v -15 -14 0
v -15 -13 0
v -14 -13 0
v -15 -14 0
v -16 -14 0
v -16 -13 0
v -15 -13 0
v 0 -15 0
v -1 -15 0
v -1 -14 0
v 0 -14 0
v -8 -15 0
v -9 -15 0
v -9 -14 0
v -8 -14 0
v -9 -15 0
v -10 -15 0
v -10 -14 0
v -9 -14 0
v -10 -15 0
v -11 -15 0
v -11 -14 0
v -10 -14 0
v -11 -15 0
v -12 -15 0
v -12 -14 0
v -11 -14 0
v -12 -15 0
v -13 -15 0
v -13 -14 0
v -12 -14 0
v -13 -15 0
v -14 -15 0
v -14 -14 0
v -13 -14 0
v -14 -15 0
v -15 -15 0
v -15 -14 0
v -14 -14 0
v -15 -15 0
v -16 -15 0
v -16 -14 0
v -15 -14 0
v -8 -16 0
v -9 -16 0
v -9 -15 0
v -8 -15 0
v -9 -16 0
v -10 -16 0
v -10 -15 0
v -9 -15 0
v -10 -16 0
v -11 -16 0
v -11 -15 0
v -10 -15 0
v -11 -16 0
v -12 -16 0
v -12 -15 0
v -11 -15 0
v -12 -16 0
v -13 -16 0
v -13 -15 0
v -12 -15 0
v -13 -16 0
v -14 -16 0
v -14 -15 0
v -13 -15 0
v -14 -16 0
v -15 -16 0
v -15 -15 0
v -14 -15 0
v -15 -16 0
v -16 -16 0
v -16 -15 0
v -15 -15 0

# Texture cooridinates (Count = 34)
vt 0.05128205 0.9473684
vt 0.07692308 0.9473684
vt 0.07692308 0.9736842
vt 0.05128205 0.9736842
vt 0.5641026 0.6315789
vt 0.5897436 0.6315789
vt 0.5897436 0.6578947
vt 0.5641026 0.6578947
vt 0.1025641 0.9473684
vt 0.1025641 0.9736842
vt 0.1282051 0.9473684
vt 0.1282051 0.9736842
vt 0.2564103 0.9210526
vt 0.2820513 0.9210526
vt 0.2820513 0.9473684
vt 0.2564103 0.9473684
vt 0.05128205 0.7631579
vt 0.07692308 0.7631579
vt 0.07692308 0.7894737
vt 0.05128205 0.7894737
vt 0.1538462 0.9210526
vt 0.1794872 0.9210526
vt 0.1794872 0.9473684
vt 0.1538462 0.9473684
vt 0.1282051 0.9210526
vt 0.1025641 0.7631579
vt 0.1025641 0.7894737
vt 0.1282051 0.7894737
vt 0.1282051 0.7631579
vt 0.1025641 0.9210526
vt 0.1025641 0.8947368
vt 0.1282051 0.8947368
vt 0.07692308 0.8947368
vt 0.07692308 0.9210526

# Normal
vn 0 0 -1

# Mesh description
g Pueblo_mesh_0018

# Faces
f 1/1/1 2/2/1 3/3/1 4/4/1
f 5/5/1 6/6/1 7/7/1 8/8/1
f 9/1/1 10/2/1 11/3/1 12/4/1
f 13/5/1 14/6/1 15/7/1 16/8/1
f 17/5/1 18/6/1 19/7/1 20/8/1
f 21/2/1 22/1/1 23/4/1 24/3/1
f 25/2/1 26/1/1 27/4/1 28/3/1
f 29/2/1 30/1/1 31/4/1 32/3/1
f 33/2/1 34/1/1 35/4/1 36/3/1
f 37/2/1 38/1/1 39/4/1 40/3/1
f 41/1/1 42/2/1 43/3/1 44/4/1
f 45/2/1 46/9/1 47/10/1 48/3/1
f 49/1/1 50/2/1 51/3/1 52/4/1
f 53/1/1 54/2/1 55/3/1 56/4/1
f 57/1/1 58/2/1 59/3/1 60/4/1
f 61/2/1 62/1/1 63/4/1 64/3/1
f 65/1/1 66/2/1 67/3/1 68/4/1
f 69/5/1 70/6/1 71/7/1 72/8/1
f 73/2/1 74/1/1 75/4/1 76/3/1
f 77/9/1 78/11/1 79/12/1 80/10/1
f 81/9/1 82/11/1 83/12/1 84/10/1
f 85/1/1 86/2/1 87/3/1 88/4/1
f 89/1/1 90/2/1 91/3/1 92/4/1
f 93/5/1 94/6/1 95/7/1 96/8/1
f 97/5/1 98/6/1 99/7/1 100/8/1
f 101/5/1 102/6/1 103/7/1 104/8/1
f 105/5/1 106/6/1 107/7/1 108/8/1
f 109/2/1 110/1/1 111/4/1 112/3/1
f 113/2/1 114/1/1 115/4/1 116/3/1
f 117/2/1 118/1/1 119/4/1 120/3/1
f 121/2/1 122/1/1 123/4/1 124/3/1
f 125/2/1 126/1/1 127/4/1 128/3/1
f 129/2/1 130/9/1 131/10/1 132/3/1
f 133/2/1 134/9/1 135/10/1 136/3/1
f 137/9/1 138/11/1 139/12/1 140/10/1
f 141/9/1 142/11/1 143/12/1 144/10/1
f 145/2/1 146/1/1 147/4/1 148/3/1
f 149/2/1 150/1/1 151/4/1 152/3/1
f 153/2/1 154/1/1 155/4/1 156/3/1
f 157/5/1 158/6/1 159/7/1 160/8/1
f 161/5/1 162/6/1 163/7/1 164/8/1
f 165/1/1 166/2/1 167/3/1 168/4/1
f 169/5/1 170/6/1 171/7/1 172/8/1
f 173/5/1 174/6/1 175/7/1 176/8/1
f 177/2/1 178/1/1 179/4/1 180/3/1
f 181/2/1 182/1/1 183/4/1 184/3/1
f 185/13/1 186/14/1 187/15/1 188/16/1
f 189/2/1 190/9/1 191/10/1 192/3/1
f 193/2/1 194/9/1 195/10/1 196/3/1
f 197/2/1 198/1/1 199/4/1 200/3/1
f 201/9/1 202/11/1 203/12/1 204/10/1
f 205/2/1 206/1/1 207/4/1 208/3/1
f 209/2/1 210/1/1 211/4/1 212/3/1
f 213/2/1 214/1/1 215/4/1 216/3/1
f 217/5/1 218/6/1 219/7/1 220/8/1
f 221/17/1 222/18/1 223/19/1 224/20/1
f 225/5/1 226/6/1 227/7/1 228/8/1
f 229/5/1 230/6/1 231/7/1 232/8/1
f 233/17/1 234/18/1 235/19/1 236/20/1
f 237/5/1 238/6/1 239/7/1 240/8/1
f 241/2/1 242/1/1 243/4/1 244/3/1
f 245/21/1 246/22/1 247/23/1 248/24/1
f 249/2/1 250/1/1 251/4/1 252/3/1
f 253/2/1 254/1/1 255/4/1 256/3/1
f 257/2/1 258/1/1 259/4/1 260/3/1
f 261/2/1 262/1/1 263/4/1 264/3/1
f 265/2/1 266/1/1 267/4/1 268/3/1
f 269/2/1 270/1/1 271/4/1 272/3/1
f 273/2/1 274/1/1 275/4/1 276/3/1
f 277/2/1 278/1/1 279/4/1 280/3/1
f 281/1/1 282/2/1 283/3/1 284/4/1
f 285/5/1 286/6/1 287/7/1 288/8/1
f 289/5/1 290/6/1 291/7/1 292/8/1
f 293/5/1 294/6/1 295/7/1 296/8/1
f 297/5/1 298/6/1 299/7/1 300/8/1
f 301/5/1 302/6/1 303/7/1 304/8/1
f 305/5/1 306/6/1 307/7/1 308/8/1
f 309/2/1 310/1/1 311/4/1 312/3/1
f 313/21/1 314/25/1 315/11/1 316/24/1
f 317/25/1 318/21/1 319/24/1 320/11/1
f 321/2/1 322/1/1 323/4/1 324/3/1
f 325/2/1 326/1/1 327/4/1 328/3/1
f 329/2/1 330/1/1 331/4/1 332/3/1
f 333/2/1 334/1/1 335/4/1 336/3/1
f 337/2/1 338/1/1 339/4/1 340/3/1
f 341/2/1 342/1/1 343/4/1 344/3/1
f 345/17/1 346/18/1 347/19/1 348/20/1
f 349/5/1 350/6/1 351/7/1 352/8/1
f 353/5/1 354/6/1 355/7/1 356/8/1
f 357/2/1 358/1/1 359/4/1 360/3/1
f 361/9/1 362/11/1 363/12/1 364/10/1
f 365/9/1 366/11/1 367/12/1 368/10/1
f 369/5/1 370/6/1 371/7/1 372/8/1
f 373/5/1 374/6/1 375/7/1 376/8/1
f 377/5/1 378/6/1 379/7/1 380/8/1
f 381/25/1 382/21/1 383/24/1 384/11/1
f 385/22/1 386/21/1 387/24/1 388/23/1
f 389/2/1 390/1/1 391/4/1 392/3/1
f 393/2/1 394/1/1 395/4/1 396/3/1
f 397/2/1 398/1/1 399/4/1 400/3/1
f 401/2/1 402/1/1 403/4/1 404/3/1
f 405/2/1 406/1/1 407/4/1 408/3/1
f 409/2/1 410/1/1 411/4/1 412/3/1
f 413/2/1 414/1/1 415/4/1 416/3/1
f 417/2/1 418/1/1 419/4/1 420/3/1
f 421/9/1 422/11/1 423/12/1 424/10/1
f 425/9/1 426/11/1 427/12/1 428/10/1
f 429/2/1 430/1/1 431/4/1 432/3/1
f 433/2/1 434/1/1 435/4/1 436/3/1
f 437/2/1 438/1/1 439/4/1 440/3/1
f 441/26/1 442/27/1 443/28/1 444/29/1
f 445/26/1 446/27/1 447/28/1 448/29/1
f 449/21/1 450/22/1 451/23/1 452/24/1
f 453/21/1 454/25/1 455/11/1 456/24/1
f 457/2/1 458/1/1 459/4/1 460/3/1
f 461/2/1 462/1/1 463/4/1 464/3/1
f 465/2/1 466/1/1 467/4/1 468/3/1
f 469/2/1 470/1/1 471/4/1 472/3/1
f 473/2/1 474/1/1 475/4/1 476/3/1
f 477/2/1 478/1/1 479/4/1 480/3/1
f 481/2/1 482/1/1 483/4/1 484/3/1
f 485/30/1 486/25/1 487/11/1 488/9/1
f 489/21/1 490/25/1 491/11/1 492/24/1
f 493/2/1 494/1/1 495/4/1 496/3/1
f 497/2/1 498/1/1 499/4/1 500/3/1
f 501/2/1 502/1/1 503/4/1 504/3/1
f 505/31/1 506/32/1 507/25/1 508/30/1
f 509/33/1 510/31/1 511/30/1 512/34/1
f 513/5/1 514/6/1 515/7/1 516/8/1
f 517/21/1 518/22/1 519/23/1 520/24/1
f 521/2/1 522/1/1 523/4/1 524/3/1
f 525/2/1 526/1/1 527/4/1 528/3/1
f 529/2/1 530/1/1 531/4/1 532/3/1
f 533/2/1 534/1/1 535/4/1 536/3/1
f 537/2/1 538/1/1 539/4/1 540/3/1
f 541/2/1 542/1/1 543/4/1 544/3/1
f 545/5/1 546/6/1 547/7/1 548/8/1
f 549/2/1 550/1/1 551/4/1 552/3/1
f 553/2/1 554/1/1 555/4/1 556/3/1
f 557/2/1 558/1/1 559/4/1 560/3/1
f 561/2/1 562/1/1 563/4/1 564/3/1
f 565/2/1 566/1/1 567/4/1 568/3/1
f 569/2/1 570/1/1 571/4/1 572/3/1
f 573/5/1 574/6/1 575/7/1 576/8/1
f 577/5/1 578/6/1 579/7/1 580/8/1
f 581/5/1 582/6/1 583/7/1 584/8/1
f 585/5/1 586/6/1 587/7/1 588/8/1
f 589/1/1 590/2/1 591/3/1 592/4/1
f 593/17/1 594/18/1 595/19/1 596/20/1
f 597/5/1 598/6/1 599/7/1 600/8/1
f 601/2/1 602/1/1 603/4/1 604/3/1
f 605/2/1 606/1/1 607/4/1 608/3/1
f 609/5/1 610/6/1 611/7/1 612/8/1
f 613/5/1 614/6/1 615/7/1 616/8/1
f 617/17/1 618/18/1 619/19/1 620/20/1
f 621/5/1 622/6/1 623/7/1 624/8/1
f 625/5/1 626/6/1 627/7/1 628/8/1
f 629/5/1 630/6/1 631/7/1 632/8/1
f 633/5/1 634/6/1 635/7/1 636/8/1
f 637/2/1 638/1/1 639/4/1 640/3/1
f 641/2/1 642/1/1 643/4/1 644/3/1
f 645/5/1 646/6/1 647/7/1 648/8/1
f 649/5/1 650/6/1 651/7/1 652/8/1
f 653/1/1 654/2/1 655/3/1 656/4/1
f 657/5/1 658/6/1 659/7/1 660/8/1
f 661/5/1 662/6/1 663/7/1 664/8/1
f 665/17/1 666/18/1 667/19/1 668/20/1
f 669/5/1 670/6/1 671/7/1 672/8/1
f 673/2/1 674/1/1 675/4/1 676/3/1
f 677/2/1 678/1/1 679/4/1 680/3/1
f 681/2/1 682/1/1 683/4/1 684/3/1
f 685/17/1 686/18/1 687/19/1 688/20/1
f 689/5/1 690/6/1 691/7/1 692/8/1
f 693/2/1 694/1/1 695/4/1 696/3/1
f 697/2/1 698/1/1 699/4/1 700/3/1
f 701/2/1 702/1/1 703/4/1 704/3/1
f 705/2/1 706/1/1 707/4/1 708/3/1
f 709/2/1 710/1/1 711/4/1 712/3/1
f 713/5/1 714/6/1 715/7/1 716/8/1
f 717/5/1 718/6/1 719/7/1 720/8/1
f 721/2/1 722/1/1 723/4/1 724/3/1
f 725/2/1 726/1/1 727/4/1 728/3/1
f 729/2/1 730/1/1 731/4/1 732/3/1
f 733/2/1 734/1/1 735/4/1 736/3/1
f 737/2/1 738/1/1 739/4/1 740/3/1

