# Tiled2Unity generated file. Do not modify by hand.
# Wavefront file for 'Pueblo_mesh_0068.obj'

# Vertices (Count = 28)
v -13 -2 0
v -14 -2 0
v -14 -1 0
v -13 -1 0
v -13 -3 0
v -14 -3 0
v -14 -2 0
v -13 -2 0
v -14 -3 0
v -15 -3 0
v -15 -2 0
v -14 -2 0
v -15 -3 0
v -16 -3 0
v -16 -2 0
v -15 -2 0
v -13 -4 0
v -14 -4 0
v -14 -3 0
v -13 -3 0
v -14 -4 0
v -15 -4 0
v -15 -3 0
v -14 -3 0
v -15 -4 0
v -16 -4 0
v -16 -3 0
v -15 -3 0

# Texture cooridinates (Count = 11)
vt 0.05797102 0.6315789
vt 0.04347826 0.6315789
vt 0.04347826 0.6578947
vt 0.05797102 0.6578947
vt 0.05797102 0.6052631
vt 0.04347826 0.6052631
vt 0.02898551 0.6052631
vt 0.02898551 0.6315789
vt 0.05797102 0.5789474
vt 0.04347826 0.5789474
vt 0.02898551 0.5789474

# Normal
vn 0 0 -1

# Mesh description
g Pueblo_mesh_0068

# Faces
f 1/1/1 2/2/1 3/3/1 4/4/1
f 5/5/1 6/6/1 7/2/1 8/1/1
f 9/6/1 10/7/1 11/8/1 12/2/1
f 13/6/1 14/7/1 15/8/1 16/2/1
f 17/9/1 18/10/1 19/6/1 20/5/1
f 21/10/1 22/11/1 23/7/1 24/6/1
f 25/10/1 26/11/1 27/7/1 28/6/1

