# Tiled2Unity generated file. Do not modify by hand.
# Wavefront file for 'Pueblo_mesh_0049.obj'

# Vertices (Count = 308)
v -3 -2 0
v -4 -2 0
v -4 -1 0
v -3 -1 0
v -4 -2 0
v -5 -2 0
v -5 -1 0
v -4 -1 0
v -5 -2 0
v -6 -2 0
v -6 -1 0
v -5 -1 0
v -6 -2 0
v -7 -2 0
v -7 -1 0
v -6 -1 0
v -7 -2 0
v -8 -2 0
v -8 -1 0
v -7 -1 0
v -8 -2 0
v -9 -2 0
v -9 -1 0
v -8 -1 0
v -9 -2 0
v -10 -2 0
v -10 -1 0
v -9 -1 0
v -3 -3 0
v -4 -3 0
v -4 -2 0
v -3 -2 0
v -4 -3 0
v -5 -3 0
v -5 -2 0
v -4 -2 0
v -5 -3 0
v -6 -3 0
v -6 -2 0
v -5 -2 0
v -6 -3 0
v -7 -3 0
v -7 -2 0
v -6 -2 0
v -7 -3 0
v -8 -3 0
v -8 -2 0
v -7 -2 0
v -8 -3 0
v -9 -3 0
v -9 -2 0
v -8 -2 0
v -9 -3 0
v -10 -3 0
v -10 -2 0
v -9 -2 0
v -3 -4 0
v -4 -4 0
v -4 -3 0
v -3 -3 0
v -4 -4 0
v -5 -4 0
v -5 -3 0
v -4 -3 0
v -5 -4 0
v -6 -4 0
v -6 -3 0
v -5 -3 0
v -6 -4 0
v -7 -4 0
v -7 -3 0
v -6 -3 0
v -7 -4 0
v -8 -4 0
v -8 -3 0
v -7 -3 0
v -8 -4 0
v -9 -4 0
v -9 -3 0
v -8 -3 0
v -9 -4 0
v -10 -4 0
v -10 -3 0
v -9 -3 0
v -3 -5 0
v -4 -5 0
v -4 -4 0
v -3 -4 0
v -4 -5 0
v -5 -5 0
v -5 -4 0
v -4 -4 0
v -5 -5 0
v -6 -5 0
v -6 -4 0
v -5 -4 0
v -6 -5 0
v -7 -5 0
v -7 -4 0
v -6 -4 0
v -7 -5 0
v -8 -5 0
v -8 -4 0
v -7 -4 0
v -8 -5 0
v -9 -5 0
v -9 -4 0
v -8 -4 0
v -9 -5 0
v -10 -5 0
v -10 -4 0
v -9 -4 0
v -3 -6 0
v -4 -6 0
v -4 -5 0
v -3 -5 0
v -4 -6 0
v -5 -6 0
v -5 -5 0
v -4 -5 0
v -5 -6 0
v -6 -6 0
v -6 -5 0
v -5 -5 0
v -6 -6 0
v -7 -6 0
v -7 -5 0
v -6 -5 0
v -7 -6 0
v -8 -6 0
v -8 -5 0
v -7 -5 0
v -8 -6 0
v -9 -6 0
v -9 -5 0
v -8 -5 0
v -9 -6 0
v -10 -6 0
v -10 -5 0
v -9 -5 0
v -3 -7 0
v -4 -7 0
v -4 -6 0
v -3 -6 0
v -4 -7 0
v -5 -7 0
v -5 -6 0
v -4 -6 0
v -5 -7 0
v -6 -7 0
v -6 -6 0
v -5 -6 0
v -6 -7 0
v -7 -7 0
v -7 -6 0
v -6 -6 0
v -7 -7 0
v -8 -7 0
v -8 -6 0
v -7 -6 0
v -8 -7 0
v -9 -7 0
v -9 -6 0
v -8 -6 0
v -9 -7 0
v -10 -7 0
v -10 -6 0
v -9 -6 0
v -3 -8 0
v -4 -8 0
v -4 -7 0
v -3 -7 0
v -4 -8 0
v -5 -8 0
v -5 -7 0
v -4 -7 0
v -5 -8 0
v -6 -8 0
v -6 -7 0
v -5 -7 0
v -6 -8 0
v -7 -8 0
v -7 -7 0
v -6 -7 0
v -7 -8 0
v -8 -8 0
v -8 -7 0
v -7 -7 0
v -8 -8 0
v -9 -8 0
v -9 -7 0
v -8 -7 0
v -9 -8 0
v -10 -8 0
v -10 -7 0
v -9 -7 0
v -4 -13 0
v -5 -13 0
v -5 -12 0
v -4 -12 0
v -5 -13 0
v -6 -13 0
v -6 -12 0
v -5 -12 0
v -6 -13 0
v -7 -13 0
v -7 -12 0
v -6 -12 0
v -7 -13 0
v -8 -13 0
v -8 -12 0
v -7 -12 0
v -8 -13 0
v -9 -13 0
v -9 -12 0
v -8 -12 0
v -9 -13 0
v -10 -13 0
v -10 -12 0
v -9 -12 0
v -10 -13 0
v -11 -13 0
v -11 -12 0
v -10 -12 0
v -4 -14 0
v -5 -14 0
v -5 -13 0
v -4 -13 0
v -5 -14 0
v -6 -14 0
v -6 -13 0
v -5 -13 0
v -6 -14 0
v -7 -14 0
v -7 -13 0
v -6 -13 0
v -7 -14 0
v -8 -14 0
v -8 -13 0
v -7 -13 0
v -8 -14 0
v -9 -14 0
v -9 -13 0
v -8 -13 0
v -9 -14 0
v -10 -14 0
v -10 -13 0
v -9 -13 0
v -10 -14 0
v -11 -14 0
v -11 -13 0
v -10 -13 0
v -4 -15 0
v -5 -15 0
v -5 -14 0
v -4 -14 0
v -5 -15 0
v -6 -15 0
v -6 -14 0
v -5 -14 0
v -6 -15 0
v -7 -15 0
v -7 -14 0
v -6 -14 0
v -7 -15 0
v -8 -15 0
v -8 -14 0
v -7 -14 0
v -8 -15 0
v -9 -15 0
v -9 -14 0
v -8 -14 0
v -9 -15 0
v -10 -15 0
v -10 -14 0
v -9 -14 0
v -10 -15 0
v -11 -15 0
v -11 -14 0
v -10 -14 0
v -4 -16 0
v -5 -16 0
v -5 -15 0
v -4 -15 0
v -5 -16 0
v -6 -16 0
v -6 -15 0
v -5 -15 0
v -6 -16 0
v -7 -16 0
v -7 -15 0
v -6 -15 0
v -7 -16 0
v -8 -16 0
v -8 -15 0
v -7 -15 0
v -8 -16 0
v -9 -16 0
v -9 -15 0
v -8 -15 0
v -9 -16 0
v -10 -16 0
v -10 -15 0
v -9 -15 0
v -10 -16 0
v -11 -16 0
v -11 -15 0
v -10 -15 0

# Texture cooridinates (Count = 119)
vt 0.7826087 0.6842105
vt 0.7681159 0.6842105
vt 0.7681159 0.7105263
vt 0.7826087 0.7105263
vt 0.7536232 0.6842105
vt 0.7536232 0.7105263
vt 0.7391304 0.6842105
vt 0.7391304 0.7105263
vt 0.7246377 0.6842105
vt 0.7246377 0.7105263
vt 0.7101449 0.6842105
vt 0.7101449 0.7105263
vt 0.6956522 0.6842105
vt 0.6956522 0.7105263
vt 0.6811594 0.6842105
vt 0.6811594 0.7105263
vt 0.7826087 0.4473684
vt 0.7681159 0.4473684
vt 0.7681159 0.4736842
vt 0.7826087 0.4736842
vt 0.7536232 0.4473684
vt 0.7536232 0.4736842
vt 0.7391304 0.4473684
vt 0.7391304 0.4736842
vt 0.7246377 0.4473684
vt 0.7246377 0.4736842
vt 0.7101449 0.4473684
vt 0.7101449 0.4736842
vt 0.6956522 0.4473684
vt 0.6956522 0.4736842
vt 0.6811594 0.4473684
vt 0.6811594 0.4736842
vt 0.7826087 0.4210526
vt 0.7681159 0.4210526
vt 0.7536232 0.4210526
vt 0.7391304 0.4210526
vt 0.7246377 0.4210526
vt 0.7101449 0.4210526
vt 0.6956522 0.4210526
vt 0.6811594 0.4210526
vt 0.2608696 0.5526316
vt 0.2463768 0.5526316
vt 0.2463768 0.5789474
vt 0.2608696 0.5789474
vt 0.2173913 0.5526316
vt 0.2028985 0.5526316
vt 0.2028985 0.5789474
vt 0.2173913 0.5789474
vt 0.2318841 0.5526316
vt 0.2318841 0.5789474
vt 0.1594203 0.5526316
vt 0.1449275 0.5526316
vt 0.1449275 0.5789474
vt 0.1594203 0.5789474
vt 0.2608696 0.5263158
vt 0.2463768 0.5263158
vt 0.2173913 0.5263158
vt 0.2028985 0.5263158
vt 0.2318841 0.5263158
vt 0.1594203 0.5263158
vt 0.1449275 0.5263158
vt 0.05797102 0.5
vt 0.04347826 0.5
vt 0.04347826 0.5263158
vt 0.05797102 0.5263158
vt 0.173913 0.5
vt 0.1594203 0.5
vt 0.173913 0.5263158
vt 0.1449275 0.5
vt 0.1014493 0.5
vt 0.08695652 0.5
vt 0.08695652 0.5263158
vt 0.1014493 0.5263158
vt 0.07246377 0.5
vt 0.07246377 0.5263158
vt 0.02898551 0.5
vt 0.01449275 0.5
vt 0.01449275 0.5263158
vt 0.02898551 0.5263158
vt 0.05797102 0.4736842
vt 0.04347826 0.4736842
vt 0.173913 0.4736842
vt 0.1594203 0.4736842
vt 0.1449275 0.4736842
vt 0.1014493 0.4736842
vt 0.08695652 0.4736842
vt 0.07246377 0.4736842
vt 0.02898551 0.4736842
vt 0.01449275 0.4736842
vt 0.3188406 0.9473684
vt 0.3043478 0.9473684
vt 0.3043478 0.9736842
vt 0.3188406 0.9736842
vt 0.2898551 0.9473684
vt 0.2898551 0.9736842
vt 0.2753623 0.9473684
vt 0.2753623 0.9736842
vt 0.3188406 0.9210526
vt 0.3043478 0.9210526
vt 0.2898551 0.9210526
vt 0.2753623 0.9210526
vt 0.3188406 0.8947368
vt 0.3043478 0.8947368
vt 0.2898551 0.8947368
vt 0.2753623 0.8947368
vt 0.05797102 0.8157895
vt 0.04347826 0.8157895
vt 0.04347826 0.8421053
vt 0.05797102 0.8421053
vt 0.2318841 0.8157895
vt 0.2173913 0.8157895
vt 0.2173913 0.8421053
vt 0.2318841 0.8421053
vt 0.2028985 0.8157895
vt 0.2028985 0.8421053
vt 0.02898551 0.8157895
vt 0.02898551 0.8421053
vt 0.01449275 0.8157895
vt 0.01449275 0.8421053

# Normal
vn 0 0 -1

# Mesh description
g Pueblo_mesh_0049

# Faces
f 1/1/1 2/2/1 3/3/1 4/4/1
f 5/2/1 6/5/1 7/6/1 8/3/1
f 9/5/1 10/7/1 11/8/1 12/6/1
f 13/7/1 14/9/1 15/10/1 16/8/1
f 17/9/1 18/11/1 19/12/1 20/10/1
f 21/11/1 22/13/1 23/14/1 24/12/1
f 25/13/1 26/15/1 27/16/1 28/14/1
f 29/17/1 30/18/1 31/19/1 32/20/1
f 33/18/1 34/21/1 35/22/1 36/19/1
f 37/21/1 38/23/1 39/24/1 40/22/1
f 41/23/1 42/25/1 43/26/1 44/24/1
f 45/25/1 46/27/1 47/28/1 48/26/1
f 49/27/1 50/29/1 51/30/1 52/28/1
f 53/29/1 54/31/1 55/32/1 56/30/1
f 57/33/1 58/34/1 59/18/1 60/17/1
f 61/34/1 62/35/1 63/21/1 64/18/1
f 65/35/1 66/36/1 67/23/1 68/21/1
f 69/36/1 70/37/1 71/25/1 72/23/1
f 73/37/1 74/38/1 75/27/1 76/25/1
f 77/38/1 78/39/1 79/29/1 80/27/1
f 81/39/1 82/40/1 83/31/1 84/29/1
f 85/41/1 86/42/1 87/43/1 88/44/1
f 89/45/1 90/46/1 91/47/1 92/48/1
f 93/49/1 94/45/1 95/48/1 96/50/1
f 97/45/1 98/46/1 99/47/1 100/48/1
f 101/49/1 102/45/1 103/48/1 104/50/1
f 105/45/1 106/46/1 107/47/1 108/48/1
f 109/51/1 110/52/1 111/53/1 112/54/1
f 113/55/1 114/56/1 115/42/1 116/41/1
f 117/57/1 118/58/1 119/46/1 120/45/1
f 121/59/1 122/57/1 123/45/1 124/49/1
f 125/57/1 126/58/1 127/46/1 128/45/1
f 129/59/1 130/57/1 131/45/1 132/49/1
f 133/57/1 134/58/1 135/46/1 136/45/1
f 137/60/1 138/61/1 139/52/1 140/51/1
f 141/62/1 142/63/1 143/64/1 144/65/1
f 145/66/1 146/67/1 147/60/1 148/68/1
f 149/67/1 150/69/1 151/61/1 152/60/1
f 153/70/1 154/71/1 155/72/1 156/73/1
f 157/71/1 158/74/1 159/75/1 160/72/1
f 161/74/1 162/62/1 163/65/1 164/75/1
f 165/76/1 166/77/1 167/78/1 168/79/1
f 169/80/1 170/81/1 171/63/1 172/62/1
f 173/82/1 174/83/1 175/67/1 176/66/1
f 177/83/1 178/84/1 179/69/1 180/67/1
f 181/85/1 182/86/1 183/71/1 184/70/1
f 185/86/1 186/87/1 187/74/1 188/71/1
f 189/87/1 190/80/1 191/62/1 192/74/1
f 193/88/1 194/89/1 195/77/1 196/76/1
f 197/90/1 198/91/1 199/92/1 200/93/1
f 201/91/1 202/94/1 203/95/1 204/92/1
f 205/91/1 206/94/1 207/95/1 208/92/1
f 209/91/1 210/94/1 211/95/1 212/92/1
f 213/91/1 214/94/1 215/95/1 216/92/1
f 217/91/1 218/94/1 219/95/1 220/92/1
f 221/94/1 222/96/1 223/97/1 224/95/1
f 225/98/1 226/99/1 227/91/1 228/90/1
f 229/99/1 230/100/1 231/94/1 232/91/1
f 233/99/1 234/100/1 235/94/1 236/91/1
f 237/99/1 238/100/1 239/94/1 240/91/1
f 241/99/1 242/100/1 243/94/1 244/91/1
f 245/99/1 246/100/1 247/94/1 248/91/1
f 249/100/1 250/101/1 251/96/1 252/94/1
f 253/102/1 254/103/1 255/99/1 256/98/1
f 257/103/1 258/104/1 259/100/1 260/99/1
f 261/103/1 262/104/1 263/100/1 264/99/1
f 265/103/1 266/104/1 267/100/1 268/99/1
f 269/103/1 270/104/1 271/100/1 272/99/1
f 273/103/1 274/104/1 275/100/1 276/99/1
f 277/104/1 278/105/1 279/101/1 280/100/1
f 281/106/1 282/107/1 283/108/1 284/109/1
f 285/110/1 286/111/1 287/112/1 288/113/1
f 289/111/1 290/114/1 291/115/1 292/112/1
f 293/107/1 294/116/1 295/117/1 296/108/1
f 297/110/1 298/111/1 299/112/1 300/113/1
f 301/111/1 302/114/1 303/115/1 304/112/1
f 305/116/1 306/118/1 307/119/1 308/117/1

