# Tiled2Unity generated file. Do not modify by hand.
# Wavefront file for 'Pueblo_mesh_0025.obj'

# Vertices (Count = 52)
v -13 -1 0
v -14 -1 0
v -14 0 0
v -13 0 0
v -9 -2 0
v -10 -2 0
v -10 -1 0
v -9 -1 0
v -11 -2 0
v -12 -2 0
v -12 -1 0
v -11 -1 0
v -14 -2 0
v -15 -2 0
v -15 -1 0
v -14 -1 0
v -10 -3 0
v -11 -3 0
v -11 -2 0
v -10 -2 0
v -14 -3 0
v -15 -3 0
v -15 -2 0
v -14 -2 0
v -15 -3 0
v -16 -3 0
v -16 -2 0
v -15 -2 0
v -11 -4 0
v -12 -4 0
v -12 -3 0
v -11 -3 0
v -13 -4 0
v -14 -4 0
v -14 -3 0
v -13 -3 0
v -12 -5 0
v -13 -5 0
v -13 -4 0
v -12 -4 0
v -13 -5 0
v -14 -5 0
v -14 -4 0
v -13 -4 0
v -14 -5 0
v -15 -5 0
v -15 -4 0
v -14 -4 0
v -13 -6 0
v -14 -6 0
v -14 -5 0
v -13 -5 0

# Texture cooridinates (Count = 16)
vt 0.1025641 0.7368421
vt 0.1282051 0.7368421
vt 0.1282051 0.7631579
vt 0.1025641 0.7631579
vt 0.07692308 0.9473684
vt 0.05128205 0.9473684
vt 0.05128205 0.9736842
vt 0.07692308 0.9736842
vt 0.05128205 0.7368421
vt 0.07692308 0.7368421
vt 0.07692308 0.7631579
vt 0.05128205 0.7631579
vt 0.3076923 0.7368421
vt 0.3333333 0.7368421
vt 0.3333333 0.7631579
vt 0.3076923 0.7631579

# Normal
vn 0 0 -1

# Mesh description
g Pueblo_mesh_0025

# Faces
f 1/1/1 2/2/1 3/3/1 4/4/1
f 5/5/1 6/6/1 7/7/1 8/8/1
f 9/9/1 10/10/1 11/11/1 12/12/1
f 13/9/1 14/10/1 15/11/1 16/12/1
f 17/5/1 18/6/1 19/7/1 20/8/1
f 21/1/1 22/2/1 23/3/1 24/4/1
f 25/13/1 26/14/1 27/15/1 28/16/1
f 29/5/1 30/6/1 31/7/1 32/8/1
f 33/1/1 34/2/1 35/3/1 36/4/1
f 37/5/1 38/6/1 39/7/1 40/8/1
f 41/9/1 42/10/1 43/11/1 44/12/1
f 45/9/1 46/10/1 47/11/1 48/12/1
f 49/5/1 50/6/1 51/7/1 52/8/1

