# Tiled2Unity generated file. Do not modify by hand.
# Wavefront file for 'Pueblo_mesh_0026.obj'

# Vertices (Count = 588)
v 0 -1 0
v -1 -1 0
v -1 0 0
v 0 0 0
v -1 -1 0
v -2 -1 0
v -2 0 0
v -1 0 0
v -2 -1 0
v -3 -1 0
v -3 0 0
v -2 0 0
v -3 -1 0
v -4 -1 0
v -4 0 0
v -3 0 0
v -11 -1 0
v -12 -1 0
v -12 0 0
v -11 0 0
v -12 -1 0
v -13 -1 0
v -13 0 0
v -12 0 0
v -13 -1 0
v -14 -1 0
v -14 0 0
v -13 0 0
v -14 -1 0
v -15 -1 0
v -15 0 0
v -14 0 0
v -15 -1 0
v -16 -1 0
v -16 0 0
v -15 0 0
v -1 -2 0
v -2 -2 0
v -2 -1 0
v -1 -1 0
v -2 -2 0
v -3 -2 0
v -3 -1 0
v -2 -1 0
v -3 -2 0
v -4 -2 0
v -4 -1 0
v -3 -1 0
v -4 -2 0
v -5 -2 0
v -5 -1 0
v -4 -1 0
v -5 -2 0
v -6 -2 0
v -6 -1 0
v -5 -1 0
v -6 -2 0
v -7 -2 0
v -7 -1 0
v -6 -1 0
v -7 -2 0
v -8 -2 0
v -8 -1 0
v -7 -1 0
v -8 -2 0
v -9 -2 0
v -9 -1 0
v -8 -1 0
v -9 -2 0
v -10 -2 0
v -10 -1 0
v -9 -1 0
v -10 -2 0
v -11 -2 0
v -11 -1 0
v -10 -1 0
v -11 -2 0
v -12 -2 0
v -12 -1 0
v -11 -1 0
v -12 -2 0
v -13 -2 0
v -13 -1 0
v -12 -1 0
v -13 -2 0
v -14 -2 0
v -14 -1 0
v -13 -1 0
v -14 -2 0
v -15 -2 0
v -15 -1 0
v -14 -1 0
v -15 -2 0
v -16 -2 0
v -16 -1 0
v -15 -1 0
v -2 -3 0
v -3 -3 0
v -3 -2 0
v -2 -2 0
v -3 -3 0
v -4 -3 0
v -4 -2 0
v -3 -2 0
v -4 -3 0
v -5 -3 0
v -5 -2 0
v -4 -2 0
v -5 -3 0
v -6 -3 0
v -6 -2 0
v -5 -2 0
v -6 -3 0
v -7 -3 0
v -7 -2 0
v -6 -2 0
v -7 -3 0
v -8 -3 0
v -8 -2 0
v -7 -2 0
v -8 -3 0
v -9 -3 0
v -9 -2 0
v -8 -2 0
v -9 -3 0
v -10 -3 0
v -10 -2 0
v -9 -2 0
v -10 -3 0
v -11 -3 0
v -11 -2 0
v -10 -2 0
v -11 -3 0
v -12 -3 0
v -12 -2 0
v -11 -2 0
v -12 -3 0
v -13 -3 0
v -13 -2 0
v -12 -2 0
v -13 -3 0
v -14 -3 0
v -14 -2 0
v -13 -2 0
v -14 -3 0
v -15 -3 0
v -15 -2 0
v -14 -2 0
v -15 -3 0
v -16 -3 0
v -16 -2 0
v -15 -2 0
v 0 -4 0
v -1 -4 0
v -1 -3 0
v 0 -3 0
v -3 -4 0
v -4 -4 0
v -4 -3 0
v -3 -3 0
v -4 -4 0
v -5 -4 0
v -5 -3 0
v -4 -3 0
v -5 -4 0
v -6 -4 0
v -6 -3 0
v -5 -3 0
v -6 -4 0
v -7 -4 0
v -7 -3 0
v -6 -3 0
v -7 -4 0
v -8 -4 0
v -8 -3 0
v -7 -3 0
v -8 -4 0
v -9 -4 0
v -9 -3 0
v -8 -3 0
v -9 -4 0
v -10 -4 0
v -10 -3 0
v -9 -3 0
v -10 -4 0
v -11 -4 0
v -11 -3 0
v -10 -3 0
v -11 -4 0
v -12 -4 0
v -12 -3 0
v -11 -3 0
v -12 -4 0
v -13 -4 0
v -13 -3 0
v -12 -3 0
v -13 -4 0
v -14 -4 0
v -14 -3 0
v -13 -3 0
v -14 -4 0
v -15 -4 0
v -15 -3 0
v -14 -3 0
v -15 -4 0
v -16 -4 0
v -16 -3 0
v -15 -3 0
v -1 -5 0
v -2 -5 0
v -2 -4 0
v -1 -4 0
v -2 -5 0
v -3 -5 0
v -3 -4 0
v -2 -4 0
v -4 -5 0
v -5 -5 0
v -5 -4 0
v -4 -4 0
v -5 -5 0
v -6 -5 0
v -6 -4 0
v -5 -4 0
v -6 -5 0
v -7 -5 0
v -7 -4 0
v -6 -4 0
v -7 -5 0
v -8 -5 0
v -8 -4 0
v -7 -4 0
v -8 -5 0
v -9 -5 0
v -9 -4 0
v -8 -4 0
v -9 -5 0
v -10 -5 0
v -10 -4 0
v -9 -4 0
v -10 -5 0
v -11 -5 0
v -11 -4 0
v -10 -4 0
v -11 -5 0
v -12 -5 0
v -12 -4 0
v -11 -4 0
v -12 -5 0
v -13 -5 0
v -13 -4 0
v -12 -4 0
v -13 -5 0
v -14 -5 0
v -14 -4 0
v -13 -4 0
v -14 -5 0
v -15 -5 0
v -15 -4 0
v -14 -4 0
v -15 -5 0
v -16 -5 0
v -16 -4 0
v -15 -4 0
v 0 -6 0
v -1 -6 0
v -1 -5 0
v 0 -5 0
v -1 -6 0
v -2 -6 0
v -2 -5 0
v -1 -5 0
v -4 -6 0
v -5 -6 0
v -5 -5 0
v -4 -5 0
v -5 -6 0
v -6 -6 0
v -6 -5 0
v -5 -5 0
v -6 -6 0
v -7 -6 0
v -7 -5 0
v -6 -5 0
v -7 -6 0
v -8 -6 0
v -8 -5 0
v -7 -5 0
v -8 -6 0
v -9 -6 0
v -9 -5 0
v -8 -5 0
v -9 -6 0
v -10 -6 0
v -10 -5 0
v -9 -5 0
v -10 -6 0
v -11 -6 0
v -11 -5 0
v -10 -5 0
v -11 -6 0
v -12 -6 0
v -12 -5 0
v -11 -5 0
v -12 -6 0
v -13 -6 0
v -13 -5 0
v -12 -5 0
v -13 -6 0
v -14 -6 0
v -14 -5 0
v -13 -5 0
v -14 -6 0
v -15 -6 0
v -15 -5 0
v -14 -5 0
v -15 -6 0
v -16 -6 0
v -16 -5 0
v -15 -5 0
v -7 -7 0
v -8 -7 0
v -8 -6 0
v -7 -6 0
v -8 -7 0
v -9 -7 0
v -9 -6 0
v -8 -6 0
v -9 -7 0
v -10 -7 0
v -10 -6 0
v -9 -6 0
v -10 -7 0
v -11 -7 0
v -11 -6 0
v -10 -6 0
v -11 -7 0
v -12 -7 0
v -12 -6 0
v -11 -6 0
v -12 -7 0
v -13 -7 0
v -13 -6 0
v -12 -6 0
v -13 -7 0
v -14 -7 0
v -14 -6 0
v -13 -6 0
v -14 -7 0
v -15 -7 0
v -15 -6 0
v -14 -6 0
v -15 -7 0
v -16 -7 0
v -16 -6 0
v -15 -6 0
v 0 -8 0
v -1 -8 0
v -1 -7 0
v 0 -7 0
v -8 -8 0
v -9 -8 0
v -9 -7 0
v -8 -7 0
v -9 -8 0
v -10 -8 0
v -10 -7 0
v -9 -7 0
v -10 -8 0
v -11 -8 0
v -11 -7 0
v -10 -7 0
v -11 -8 0
v -12 -8 0
v -12 -7 0
v -11 -7 0
v -12 -8 0
v -13 -8 0
v -13 -7 0
v -12 -7 0
v -13 -8 0
v -14 -8 0
v -14 -7 0
v -13 -7 0
v -14 -8 0
v -15 -8 0
v -15 -7 0
v -14 -7 0
v -15 -8 0
v -16 -8 0
v -16 -7 0
v -15 -7 0
v -2 -9 0
v -3 -9 0
v -3 -8 0
v -2 -8 0
v -3 -9 0
v -4 -9 0
v -4 -8 0
v -3 -8 0
v -6 -9 0
v -7 -9 0
v -7 -8 0
v -6 -8 0
v -9 -9 0
v -10 -9 0
v -10 -8 0
v -9 -8 0
v -10 -9 0
v -11 -9 0
v -11 -8 0
v -10 -8 0
v -11 -9 0
v -12 -9 0
v -12 -8 0
v -11 -8 0
v -12 -9 0
v -13 -9 0
v -13 -8 0
v -12 -8 0
v -13 -9 0
v -14 -9 0
v -14 -8 0
v -13 -8 0
v -14 -9 0
v -15 -9 0
v -15 -8 0
v -14 -8 0
v -15 -9 0
v -16 -9 0
v -16 -8 0
v -15 -8 0
v -3 -10 0
v -4 -10 0
v -4 -9 0
v -3 -9 0
v -5 -10 0
v -6 -10 0
v -6 -9 0
v -5 -9 0
v -6 -10 0
v -7 -10 0
v -7 -9 0
v -6 -9 0
v -7 -10 0
v -8 -10 0
v -8 -9 0
v -7 -9 0
v -8 -10 0
v -9 -10 0
v -9 -9 0
v -8 -9 0
v -10 -10 0
v -11 -10 0
v -11 -9 0
v -10 -9 0
v -11 -10 0
v -12 -10 0
v -12 -9 0
v -11 -9 0
v -12 -10 0
v -13 -10 0
v -13 -9 0
v -12 -9 0
v -13 -10 0
v -14 -10 0
v -14 -9 0
v -13 -9 0
v -14 -10 0
v -15 -10 0
v -15 -9 0
v -14 -9 0
v -15 -10 0
v -16 -10 0
v -16 -9 0
v -15 -9 0
v -4 -11 0
v -5 -11 0
v -5 -10 0
v -4 -10 0
v -5 -11 0
v -6 -11 0
v -6 -10 0
v -5 -10 0
v -7 -11 0
v -8 -11 0
v -8 -10 0
v -7 -10 0
v -10 -11 0
v -11 -11 0
v -11 -10 0
v -10 -10 0
v -12 -11 0
v -13 -11 0
v -13 -10 0
v -12 -10 0
v -13 -11 0
v -14 -11 0
v -14 -10 0
v -13 -10 0
v -14 -11 0
v -15 -11 0
v -15 -10 0
v -14 -10 0
v -15 -11 0
v -16 -11 0
v -16 -10 0
v -15 -10 0
v -6 -12 0
v -7 -12 0
v -7 -11 0
v -6 -11 0
v -9 -12 0
v -10 -12 0
v -10 -11 0
v -9 -11 0
v -11 -12 0
v -12 -12 0
v -12 -11 0
v -11 -11 0
v -12 -12 0
v -13 -12 0
v -13 -11 0
v -12 -11 0
v -13 -12 0
v -14 -12 0
v -14 -11 0
v -13 -11 0
v -14 -12 0
v -15 -12 0
v -15 -11 0
v -14 -11 0
v -15 -12 0
v -16 -12 0
v -16 -11 0
v -15 -11 0
v -7 -13 0
v -8 -13 0
v -8 -12 0
v -7 -12 0
v -11 -13 0
v -12 -13 0
v -12 -12 0
v -11 -12 0
v -14 -13 0
v -15 -13 0
v -15 -12 0
v -14 -12 0
v -15 -13 0
v -16 -13 0
v -16 -12 0
v -15 -12 0
v -7 -14 0
v -8 -14 0
v -8 -13 0
v -7 -13 0
v -9 -14 0
v -10 -14 0
v -10 -13 0
v -9 -13 0
v -10 -14 0
v -11 -14 0
v -11 -13 0
v -10 -13 0
v -11 -14 0
v -12 -14 0
v -12 -13 0
v -11 -13 0
v -15 -14 0
v -16 -14 0
v -16 -13 0
v -15 -13 0
v -7 -15 0
v -8 -15 0
v -8 -14 0
v -7 -14 0
v -12 -15 0
v -13 -15 0
v -13 -14 0
v -12 -14 0
v -14 -15 0
v -15 -15 0
v -15 -14 0
v -14 -14 0
v -7 -16 0
v -8 -16 0
v -8 -15 0
v -7 -15 0

# Texture cooridinates (Count = 41)
vt 0.07692308 0.9473684
vt 0.05128205 0.9473684
vt 0.05128205 0.9736842
vt 0.07692308 0.9736842
vt 0.1794872 0.7105263
vt 0.2051282 0.7105263
vt 0.2051282 0.7368421
vt 0.1794872 0.7368421
vt 0.07692308 0.7368421
vt 0.1025641 0.7368421
vt 0.1025641 0.7631579
vt 0.07692308 0.7631579
vt 0.1025641 0.9473684
vt 0.1282051 0.9473684
vt 0.1282051 0.9736842
vt 0.1025641 0.9736842
vt 0.2307692 0.9210526
vt 0.2564103 0.9210526
vt 0.2564103 0.9473684
vt 0.2307692 0.9473684
vt 0.1282051 0.7368421
vt 0.1282051 0.7631579
vt 0.3846154 0.7368421
vt 0.4102564 0.7368421
vt 0.4102564 0.7631579
vt 0.3846154 0.7631579
vt 0.4358974 0.7368421
vt 0.4358974 0.7631579
vt 0.05128205 0.7368421
vt 0.05128205 0.7631579
vt 0.3076923 0.7368421
vt 0.3333333 0.7368421
vt 0.3333333 0.7631579
vt 0.3076923 0.7631579
vt 0.2307692 0.7105263
vt 0.2307692 0.7368421
vt 0.1282051 0.7105263
vt 0.1538462 0.7105263
vt 0.1538462 0.7368421
vt 0.2820513 0.7368421
vt 0.2820513 0.7631579

# Normal
vn 0 0 -1

# Mesh description
g Pueblo_mesh_0026

# Faces
f 1/1/1 2/2/1 3/3/1 4/4/1
f 5/1/1 6/2/1 7/3/1 8/4/1
f 9/5/1 10/6/1 11/7/1 12/8/1
f 13/1/1 14/2/1 15/3/1 16/4/1
f 17/1/1 18/2/1 19/3/1 20/4/1
f 21/1/1 22/2/1 23/3/1 24/4/1
f 25/1/1 26/2/1 27/3/1 28/4/1
f 29/1/1 30/2/1 31/3/1 32/4/1
f 33/2/1 34/1/1 35/4/1 36/3/1
f 37/9/1 38/10/1 39/11/1 40/12/1
f 41/1/1 42/2/1 43/3/1 44/4/1
f 45/1/1 46/2/1 47/3/1 48/4/1
f 49/1/1 50/2/1 51/3/1 52/4/1
f 53/1/1 54/2/1 55/3/1 56/4/1
f 57/1/1 58/2/1 59/3/1 60/4/1
f 61/1/1 62/2/1 63/3/1 64/4/1
f 65/1/1 66/2/1 67/3/1 68/4/1
f 69/13/1 70/14/1 71/15/1 72/16/1
f 73/13/1 74/14/1 75/15/1 76/16/1
f 77/1/1 78/2/1 79/3/1 80/4/1
f 81/1/1 82/2/1 83/3/1 84/4/1
f 85/17/1 86/18/1 87/19/1 88/20/1
f 89/1/1 90/13/1 91/16/1 92/4/1
f 93/1/1 94/2/1 95/3/1 96/4/1
f 97/5/1 98/6/1 99/7/1 100/8/1
f 101/10/1 102/21/1 103/22/1 104/11/1
f 105/1/1 106/2/1 107/3/1 108/4/1
f 109/1/1 110/2/1 111/3/1 112/4/1
f 113/1/1 114/2/1 115/3/1 116/4/1
f 117/1/1 118/2/1 119/3/1 120/4/1
f 121/1/1 122/2/1 123/3/1 124/4/1
f 125/1/1 126/2/1 127/3/1 128/4/1
f 129/13/1 130/14/1 131/15/1 132/16/1
f 133/1/1 134/13/1 135/16/1 136/4/1
f 137/17/1 138/18/1 139/19/1 140/20/1
f 141/17/1 142/18/1 143/19/1 144/20/1
f 145/1/1 146/13/1 147/16/1 148/4/1
f 149/1/1 150/13/1 151/16/1 152/4/1
f 153/23/1 154/24/1 155/25/1 156/26/1
f 157/9/1 158/10/1 159/11/1 160/12/1
f 161/9/1 162/10/1 163/11/1 164/12/1
f 165/1/1 166/2/1 167/3/1 168/4/1
f 169/1/1 170/2/1 171/3/1 172/4/1
f 173/1/1 174/2/1 175/3/1 176/4/1
f 177/1/1 178/2/1 179/3/1 180/4/1
f 181/1/1 182/2/1 183/3/1 184/4/1
f 185/13/1 186/14/1 187/15/1 188/16/1
f 189/13/1 190/14/1 191/15/1 192/16/1
f 193/2/1 194/1/1 195/4/1 196/3/1
f 197/2/1 198/1/1 199/4/1 200/3/1
f 201/1/1 202/2/1 203/3/1 204/4/1
f 205/1/1 206/13/1 207/16/1 208/4/1
f 209/10/1 210/21/1 211/22/1 212/11/1
f 213/24/1 214/27/1 215/28/1 216/25/1
f 217/9/1 218/10/1 219/11/1 220/12/1
f 221/1/1 222/2/1 223/3/1 224/4/1
f 225/1/1 226/2/1 227/3/1 228/4/1
f 229/9/1 230/10/1 231/11/1 232/12/1
f 233/1/1 234/2/1 235/3/1 236/4/1
f 237/1/1 238/2/1 239/3/1 240/4/1
f 241/17/1 242/18/1 243/19/1 244/20/1
f 245/1/1 246/13/1 247/16/1 248/4/1
f 249/13/1 250/14/1 251/15/1 252/16/1
f 253/2/1 254/1/1 255/4/1 256/3/1
f 257/2/1 258/1/1 259/4/1 260/3/1
f 261/1/1 262/13/1 263/16/1 264/4/1
f 265/10/1 266/21/1 267/22/1 268/11/1
f 269/10/1 270/21/1 271/22/1 272/11/1
f 273/5/1 274/6/1 275/7/1 276/8/1
f 277/9/1 278/10/1 279/11/1 280/12/1
f 281/1/1 282/2/1 283/3/1 284/4/1
f 285/5/1 286/6/1 287/7/1 288/8/1
f 289/1/1 290/2/1 291/3/1 292/4/1
f 293/10/1 294/21/1 295/22/1 296/11/1
f 297/1/1 298/2/1 299/3/1 300/4/1
f 301/1/1 302/13/1 303/16/1 304/4/1
f 305/1/1 306/13/1 307/16/1 308/4/1
f 309/17/1 310/18/1 311/19/1 312/20/1
f 313/2/1 314/1/1 315/4/1 316/3/1
f 317/2/1 318/1/1 319/4/1 320/3/1
f 321/1/1 322/2/1 323/3/1 324/4/1
f 325/9/1 326/10/1 327/11/1 328/12/1
f 329/1/1 330/2/1 331/3/1 332/4/1
f 333/1/1 334/2/1 335/3/1 336/4/1
f 337/1/1 338/2/1 339/3/1 340/4/1
f 341/1/1 342/13/1 343/16/1 344/4/1
f 345/2/1 346/1/1 347/4/1 348/3/1
f 349/2/1 350/1/1 351/4/1 352/3/1
f 353/2/1 354/1/1 355/4/1 356/3/1
f 357/1/1 358/2/1 359/3/1 360/4/1
f 361/9/1 362/10/1 363/11/1 364/12/1
f 365/1/1 366/2/1 367/3/1 368/4/1
f 369/1/1 370/2/1 371/3/1 372/4/1
f 373/1/1 374/2/1 375/3/1 376/4/1
f 377/1/1 378/2/1 379/3/1 380/4/1
f 381/2/1 382/1/1 383/4/1 384/3/1
f 385/2/1 386/1/1 387/4/1 388/3/1
f 389/2/1 390/1/1 391/4/1 392/3/1
f 393/1/1 394/2/1 395/3/1 396/4/1
f 397/9/1 398/10/1 399/11/1 400/12/1
f 401/10/1 402/21/1 403/22/1 404/11/1
f 405/1/1 406/2/1 407/3/1 408/4/1
f 409/10/1 410/21/1 411/22/1 412/11/1
f 413/9/1 414/10/1 415/11/1 416/12/1
f 417/1/1 418/2/1 419/3/1 420/4/1
f 421/1/1 422/2/1 423/3/1 424/4/1
f 425/17/1 426/18/1 427/19/1 428/20/1
f 429/2/1 430/1/1 431/4/1 432/3/1
f 433/1/1 434/2/1 435/3/1 436/4/1
f 437/29/1 438/9/1 439/12/1 440/30/1
f 441/9/1 442/10/1 443/11/1 444/12/1
f 445/9/1 446/10/1 447/11/1 448/12/1
f 449/29/1 450/9/1 451/12/1 452/30/1
f 453/1/1 454/2/1 455/3/1 456/4/1
f 457/9/1 458/10/1 459/11/1 460/12/1
f 461/1/1 462/2/1 463/3/1 464/4/1
f 465/1/1 466/2/1 467/3/1 468/4/1
f 469/2/1 470/1/1 471/4/1 472/3/1
f 473/2/1 474/1/1 475/4/1 476/3/1
f 477/1/1 478/2/1 479/3/1 480/4/1
f 481/1/1 482/2/1 483/3/1 484/4/1
f 485/31/1 486/32/1 487/33/1 488/34/1
f 489/10/1 490/21/1 491/22/1 492/11/1
f 493/6/1 494/35/1 495/36/1 496/7/1
f 497/9/1 498/10/1 499/11/1 500/12/1
f 501/1/1 502/2/1 503/3/1 504/4/1
f 505/2/1 506/1/1 507/4/1 508/3/1
f 509/1/1 510/2/1 511/3/1 512/4/1
f 513/23/1 514/24/1 515/25/1 516/26/1
f 517/6/1 518/35/1 519/36/1 520/7/1
f 521/37/1 522/38/1 523/39/1 524/21/1
f 525/1/1 526/2/1 527/3/1 528/4/1
f 529/1/1 530/2/1 531/3/1 532/4/1
f 533/1/1 534/2/1 535/3/1 536/4/1
f 537/1/1 538/2/1 539/3/1 540/4/1
f 541/10/1 542/21/1 543/22/1 544/11/1
f 545/1/1 546/2/1 547/3/1 548/4/1
f 549/9/1 550/10/1 551/11/1 552/12/1
f 553/1/1 554/2/1 555/3/1 556/4/1
f 557/10/1 558/21/1 559/22/1 560/11/1
f 561/24/1 562/27/1 563/28/1 564/25/1
f 565/10/1 566/21/1 567/22/1 568/11/1
f 569/1/1 570/2/1 571/3/1 572/4/1
f 573/1/1 574/2/1 575/3/1 576/4/1
f 577/40/1 578/31/1 579/34/1 580/41/1
f 581/24/1 582/27/1 583/28/1 584/25/1
f 585/1/1 586/2/1 587/3/1 588/4/1

