# Tiled2Unity generated file. Do not modify by hand.
# Wavefront file for 'Pueblo_mesh_0059.obj'

# Vertices (Count = 384)
v 0 -2 0
v -1 -2 0
v -1 -1 0
v 0 -1 0
v -1 -2 0
v -2 -2 0
v -2 -1 0
v -1 -1 0
v -2 -2 0
v -3 -2 0
v -3 -1 0
v -2 -1 0
v 0 -3 0
v -1 -3 0
v -1 -2 0
v 0 -2 0
v -5 -3 0
v -6 -3 0
v -6 -2 0
v -5 -2 0
v 0 -5 0
v -1 -5 0
v -1 -4 0
v 0 -4 0
v -1 -5 0
v -2 -5 0
v -2 -4 0
v -1 -4 0
v -2 -5 0
v -3 -5 0
v -3 -4 0
v -2 -4 0
v -3 -5 0
v -4 -5 0
v -4 -4 0
v -3 -4 0
v -4 -5 0
v -5 -5 0
v -5 -4 0
v -4 -4 0
v -5 -5 0
v -6 -5 0
v -6 -4 0
v -5 -4 0
v -7 -5 0
v -8 -5 0
v -8 -4 0
v -7 -4 0
v -8 -5 0
v -9 -5 0
v -9 -4 0
v -8 -4 0
v -12 -5 0
v -13 -5 0
v -13 -4 0
v -12 -4 0
v -13 -5 0
v -14 -5 0
v -14 -4 0
v -13 -4 0
v 0 -6 0
v -1 -6 0
v -1 -5 0
v 0 -5 0
v -1 -6 0
v -2 -6 0
v -2 -5 0
v -1 -5 0
v -2 -6 0
v -3 -6 0
v -3 -5 0
v -2 -5 0
v -3 -6 0
v -4 -6 0
v -4 -5 0
v -3 -5 0
v -4 -6 0
v -5 -6 0
v -5 -5 0
v -4 -5 0
v -5 -6 0
v -6 -6 0
v -6 -5 0
v -5 -5 0
v 0 -7 0
v -1 -7 0
v -1 -6 0
v 0 -6 0
v -1 -7 0
v -2 -7 0
v -2 -6 0
v -1 -6 0
v -2 -7 0
v -3 -7 0
v -3 -6 0
v -2 -6 0
v -3 -7 0
v -4 -7 0
v -4 -6 0
v -3 -6 0
v -4 -7 0
v -5 -7 0
v -5 -6 0
v -4 -6 0
v -5 -7 0
v -6 -7 0
v -6 -6 0
v -5 -6 0
v -7 -7 0
v -8 -7 0
v -8 -6 0
v -7 -6 0
v -8 -7 0
v -9 -7 0
v -9 -6 0
v -8 -6 0
v -9 -7 0
v -10 -7 0
v -10 -6 0
v -9 -6 0
v -10 -7 0
v -11 -7 0
v -11 -6 0
v -10 -6 0
v -11 -7 0
v -12 -7 0
v -12 -6 0
v -11 -6 0
v -12 -7 0
v -13 -7 0
v -13 -6 0
v -12 -6 0
v -13 -7 0
v -14 -7 0
v -14 -6 0
v -13 -6 0
v 0 -8 0
v -1 -8 0
v -1 -7 0
v 0 -7 0
v -1 -8 0
v -2 -8 0
v -2 -7 0
v -1 -7 0
v -2 -8 0
v -3 -8 0
v -3 -7 0
v -2 -7 0
v -3 -8 0
v -4 -8 0
v -4 -7 0
v -3 -7 0
v -4 -8 0
v -5 -8 0
v -5 -7 0
v -4 -7 0
v -5 -8 0
v -6 -8 0
v -6 -7 0
v -5 -7 0
v -7 -8 0
v -8 -8 0
v -8 -7 0
v -7 -7 0
v -8 -8 0
v -9 -8 0
v -9 -7 0
v -8 -7 0
v -9 -8 0
v -10 -8 0
v -10 -7 0
v -9 -7 0
v -10 -8 0
v -11 -8 0
v -11 -7 0
v -10 -7 0
v -11 -8 0
v -12 -8 0
v -12 -7 0
v -11 -7 0
v -12 -8 0
v -13 -8 0
v -13 -7 0
v -12 -7 0
v -13 -8 0
v -14 -8 0
v -14 -7 0
v -13 -7 0
v 0 -9 0
v -1 -9 0
v -1 -8 0
v 0 -8 0
v -1 -9 0
v -2 -9 0
v -2 -8 0
v -1 -8 0
v -2 -9 0
v -3 -9 0
v -3 -8 0
v -2 -8 0
v -3 -9 0
v -4 -9 0
v -4 -8 0
v -3 -8 0
v -4 -9 0
v -5 -9 0
v -5 -8 0
v -4 -8 0
v -5 -9 0
v -6 -9 0
v -6 -8 0
v -5 -8 0
v -7 -9 0
v -8 -9 0
v -8 -8 0
v -7 -8 0
v -8 -9 0
v -9 -9 0
v -9 -8 0
v -8 -8 0
v -9 -9 0
v -10 -9 0
v -10 -8 0
v -9 -8 0
v -10 -9 0
v -11 -9 0
v -11 -8 0
v -10 -8 0
v -11 -9 0
v -12 -9 0
v -12 -8 0
v -11 -8 0
v -12 -9 0
v -13 -9 0
v -13 -8 0
v -12 -8 0
v -13 -9 0
v -14 -9 0
v -14 -8 0
v -13 -8 0
v 0 -10 0
v -1 -10 0
v -1 -9 0
v 0 -9 0
v -1 -10 0
v -2 -10 0
v -2 -9 0
v -1 -9 0
v -2 -10 0
v -3 -10 0
v -3 -9 0
v -2 -9 0
v -3 -10 0
v -4 -10 0
v -4 -9 0
v -3 -9 0
v -4 -10 0
v -5 -10 0
v -5 -9 0
v -4 -9 0
v -5 -10 0
v -6 -10 0
v -6 -9 0
v -5 -9 0
v -7 -10 0
v -8 -10 0
v -8 -9 0
v -7 -9 0
v -8 -10 0
v -9 -10 0
v -9 -9 0
v -8 -9 0
v -9 -10 0
v -10 -10 0
v -10 -9 0
v -9 -9 0
v -10 -10 0
v -11 -10 0
v -11 -9 0
v -10 -9 0
v -11 -10 0
v -12 -10 0
v -12 -9 0
v -11 -9 0
v -12 -10 0
v -13 -10 0
v -13 -9 0
v -12 -9 0
v -13 -10 0
v -14 -10 0
v -14 -9 0
v -13 -9 0
v 0 -11 0
v -1 -11 0
v -1 -10 0
v 0 -10 0
v -1 -11 0
v -2 -11 0
v -2 -10 0
v -1 -10 0
v -2 -11 0
v -3 -11 0
v -3 -10 0
v -2 -10 0
v -3 -11 0
v -4 -11 0
v -4 -10 0
v -3 -10 0
v -4 -11 0
v -5 -11 0
v -5 -10 0
v -4 -10 0
v -5 -11 0
v -6 -11 0
v -6 -10 0
v -5 -10 0
v -7 -11 0
v -8 -11 0
v -8 -10 0
v -7 -10 0
v -8 -11 0
v -9 -11 0
v -9 -10 0
v -8 -10 0
v -9 -11 0
v -10 -11 0
v -10 -10 0
v -9 -10 0
v -10 -11 0
v -11 -11 0
v -11 -10 0
v -10 -10 0
v -11 -11 0
v -12 -11 0
v -12 -10 0
v -11 -10 0
v -12 -11 0
v -13 -11 0
v -13 -10 0
v -12 -10 0
v -13 -11 0
v -14 -11 0
v -14 -10 0
v -13 -10 0
v 0 -15 0
v -1 -15 0
v -1 -14 0
v 0 -14 0
v -1 -15 0
v -2 -15 0
v -2 -14 0
v -1 -14 0
v -10 -15 0
v -11 -15 0
v -11 -14 0
v -10 -14 0
v 0 -16 0
v -1 -16 0
v -1 -15 0
v 0 -15 0
v -2 -16 0
v -3 -16 0
v -3 -15 0
v -2 -15 0
v -3 -16 0
v -4 -16 0
v -4 -15 0
v -3 -15 0
v -4 -16 0
v -5 -16 0
v -5 -15 0
v -4 -15 0
v -5 -16 0
v -6 -16 0
v -6 -15 0
v -5 -15 0
v -6 -16 0
v -7 -16 0
v -7 -15 0
v -6 -15 0
v -7 -16 0
v -8 -16 0
v -8 -15 0
v -7 -15 0

# Texture cooridinates (Count = 196)
vt 0.6666667 0.7631579
vt 0.6521739 0.7631579
vt 0.6521739 0.7894737
vt 0.6666667 0.7894737
vt 0.6376812 0.7631579
vt 0.6376812 0.7894737
vt 0.6231884 0.7631579
vt 0.6231884 0.7894737
vt 0.6666667 0.7368421
vt 0.6521739 0.7368421
vt 0.5942029 0.7368421
vt 0.5797101 0.7368421
vt 0.5797101 0.7631579
vt 0.5942029 0.7631579
vt 0.6666667 0.6842105
vt 0.6521739 0.6842105
vt 0.6521739 0.7105263
vt 0.6666667 0.7105263
vt 0.6376812 0.6842105
vt 0.6376812 0.7105263
vt 0.6231884 0.6842105
vt 0.6231884 0.7105263
vt 0.6086956 0.6842105
vt 0.6086956 0.7105263
vt 0.5942029 0.6842105
vt 0.5942029 0.7105263
vt 0.5797101 0.6842105
vt 0.5797101 0.7105263
vt 0.7826087 0.7368421
vt 0.7681159 0.7368421
vt 0.7681159 0.7631579
vt 0.7826087 0.7631579
vt 0.7536232 0.7368421
vt 0.7536232 0.7631579
vt 0.7101449 0.7368421
vt 0.6956522 0.7368421
vt 0.6956522 0.7631579
vt 0.7101449 0.7631579
vt 0.6811594 0.7368421
vt 0.6811594 0.7631579
vt 0.6666667 0.6578947
vt 0.6521739 0.6578947
vt 0.6376812 0.6578947
vt 0.6231884 0.6578947
vt 0.6086956 0.6578947
vt 0.5942029 0.6578947
vt 0.5797101 0.6578947
vt 0.6666667 0.6315789
vt 0.6521739 0.6315789
vt 0.6376812 0.6315789
vt 0.6231884 0.6315789
vt 0.6086956 0.6315789
vt 0.5942029 0.6315789
vt 0.5797101 0.6315789
vt 0.7826087 0.6842105
vt 0.7681159 0.6842105
vt 0.7681159 0.7105263
vt 0.7826087 0.7105263
vt 0.7536232 0.6842105
vt 0.7536232 0.7105263
vt 0.7391304 0.6842105
vt 0.7391304 0.7105263
vt 0.7246377 0.6842105
vt 0.7246377 0.7105263
vt 0.7101449 0.6842105
vt 0.7101449 0.7105263
vt 0.6956522 0.6842105
vt 0.6956522 0.7105263
vt 0.6811594 0.6842105
vt 0.6811594 0.7105263
vt 0.2173913 0.9210526
vt 0.2028985 0.9210526
vt 0.2028985 0.9473684
vt 0.2173913 0.9473684
vt 0.1884058 0.9210526
vt 0.1884058 0.9473684
vt 0.2318841 0.9210526
vt 0.2318841 0.9473684
vt 0.173913 0.9210526
vt 0.1594203 0.9210526
vt 0.1594203 0.9473684
vt 0.173913 0.9473684
vt 0.1449275 0.9210526
vt 0.1449275 0.9473684
vt 0.7826087 0.5526316
vt 0.7681159 0.5526316
vt 0.7681159 0.5789474
vt 0.7826087 0.5789474
vt 0.7536232 0.5526316
vt 0.7536232 0.5789474
vt 0.7391304 0.5526316
vt 0.7391304 0.5789474
vt 0.7246377 0.5526316
vt 0.7246377 0.5789474
vt 0.7101449 0.5526316
vt 0.7101449 0.5789474
vt 0.6956522 0.5526316
vt 0.6956522 0.5789474
vt 0.6811594 0.5526316
vt 0.6811594 0.5789474
vt 0.2173913 0.8947368
vt 0.2028985 0.8947368
vt 0.1884058 0.8947368
vt 0.2318841 0.8947368
vt 0.173913 0.8947368
vt 0.1594203 0.8947368
vt 0.1449275 0.8947368
vt 0.7826087 0.5263158
vt 0.7681159 0.5263158
vt 0.7536232 0.5263158
vt 0.7391304 0.5263158
vt 0.7246377 0.5263158
vt 0.7101449 0.5263158
vt 0.6956522 0.5263158
vt 0.6811594 0.5263158
vt 0.1014493 0.8157895
vt 0.08695652 0.8157895
vt 0.08695652 0.8421053
vt 0.1014493 0.8421053
vt 0.07246377 0.8157895
vt 0.07246377 0.8421053
vt 0.05797102 0.8157895
vt 0.05797102 0.8421053
vt 0.173913 0.8157895
vt 0.1594203 0.8157895
vt 0.1594203 0.8421053
vt 0.173913 0.8421053
vt 0.1449275 0.8157895
vt 0.1449275 0.8421053
vt 0.02898551 0.8157895
vt 0.01449275 0.8157895
vt 0.01449275 0.8421053
vt 0.02898551 0.8421053
vt 0.05797102 0.7105263
vt 0.04347826 0.7105263
vt 0.04347826 0.7368421
vt 0.05797102 0.7368421
vt 0.2028985 0.7105263
vt 0.1884058 0.7105263
vt 0.1884058 0.7368421
vt 0.2028985 0.7368421
vt 0.173913 0.7105263
vt 0.173913 0.7368421
vt 0.1014493 0.7105263
vt 0.08695652 0.7105263
vt 0.08695652 0.7368421
vt 0.1014493 0.7368421
vt 0.07246377 0.7105263
vt 0.07246377 0.7368421
vt 0.02898551 0.7105263
vt 0.01449275 0.7105263
vt 0.01449275 0.7368421
vt 0.02898551 0.7368421
vt 0.1014493 0.7894737
vt 0.08695652 0.7894737
vt 0.07246377 0.7894737
vt 0.05797102 0.7894737
vt 0.173913 0.7894737
vt 0.1594203 0.7894737
vt 0.1449275 0.7894737
vt 0.02898551 0.7894737
vt 0.01449275 0.7894737
vt 0.05797102 0.6842105
vt 0.04347826 0.6842105
vt 0.2028985 0.6842105
vt 0.1884058 0.6842105
vt 0.173913 0.6842105
vt 0.1014493 0.6842105
vt 0.08695652 0.6842105
vt 0.07246377 0.6842105
vt 0.02898551 0.6842105
vt 0.01449275 0.6842105
vt 0.8260869 0.8684211
vt 0.8115942 0.8684211
vt 0.8115942 0.8947368
vt 0.8260869 0.8947368
vt 0.4782609 0.7368421
vt 0.4637681 0.7368421
vt 0.4637681 0.7631579
vt 0.4782609 0.7631579
vt 0.8260869 0.8421053
vt 0.8115942 0.8421053
vt 0.7971014 0.5
vt 0.8115942 0.5
vt 0.8115942 0.5263158
vt 0.7971014 0.5263158
vt 0.8260869 0.5
vt 0.8260869 0.5263158
vt 0.8405797 0.5
vt 0.8405797 0.5263158
vt 0.8550724 0.5
vt 0.8550724 0.5263158
vt 0.8695652 0.5
vt 0.8695652 0.5263158
vt 0.884058 0.5
vt 0.884058 0.5263158

# Normal
vn 0 0 -1

# Mesh description
g Pueblo_mesh_0059

# Faces
f 1/1/1 2/2/1 3/3/1 4/4/1
f 5/2/1 6/5/1 7/6/1 8/3/1
f 9/5/1 10/7/1 11/8/1 12/6/1
f 13/9/1 14/10/1 15/2/1 16/1/1
f 17/11/1 18/12/1 19/13/1 20/14/1
f 21/15/1 22/16/1 23/17/1 24/18/1
f 25/16/1 26/19/1 27/20/1 28/17/1
f 29/19/1 30/21/1 31/22/1 32/20/1
f 33/21/1 34/23/1 35/24/1 36/22/1
f 37/23/1 38/25/1 39/26/1 40/24/1
f 41/25/1 42/27/1 43/28/1 44/26/1
f 45/29/1 46/30/1 47/31/1 48/32/1
f 49/30/1 50/33/1 51/34/1 52/31/1
f 53/35/1 54/36/1 55/37/1 56/38/1
f 57/36/1 58/39/1 59/40/1 60/37/1
f 61/41/1 62/42/1 63/16/1 64/15/1
f 65/42/1 66/43/1 67/19/1 68/16/1
f 69/43/1 70/44/1 71/21/1 72/19/1
f 73/44/1 74/45/1 75/23/1 76/21/1
f 77/45/1 78/46/1 79/25/1 80/23/1
f 81/46/1 82/47/1 83/27/1 84/25/1
f 85/48/1 86/49/1 87/42/1 88/41/1
f 89/49/1 90/50/1 91/43/1 92/42/1
f 93/50/1 94/51/1 95/44/1 96/43/1
f 97/51/1 98/52/1 99/45/1 100/44/1
f 101/52/1 102/53/1 103/46/1 104/45/1
f 105/53/1 106/54/1 107/47/1 108/46/1
f 109/55/1 110/56/1 111/57/1 112/58/1
f 113/56/1 114/59/1 115/60/1 116/57/1
f 117/59/1 118/61/1 119/62/1 120/60/1
f 121/61/1 122/63/1 123/64/1 124/62/1
f 125/63/1 126/65/1 127/66/1 128/64/1
f 129/65/1 130/67/1 131/68/1 132/66/1
f 133/67/1 134/69/1 135/70/1 136/68/1
f 137/71/1 138/72/1 139/73/1 140/74/1
f 141/72/1 142/75/1 143/76/1 144/73/1
f 145/77/1 146/71/1 147/74/1 148/78/1
f 149/79/1 150/80/1 151/81/1 152/82/1
f 153/77/1 154/71/1 155/74/1 156/78/1
f 157/80/1 158/83/1 159/84/1 160/81/1
f 161/85/1 162/86/1 163/87/1 164/88/1
f 165/86/1 166/89/1 167/90/1 168/87/1
f 169/89/1 170/91/1 171/92/1 172/90/1
f 173/91/1 174/93/1 175/94/1 176/92/1
f 177/93/1 178/95/1 179/96/1 180/94/1
f 181/95/1 182/97/1 183/98/1 184/96/1
f 185/97/1 186/99/1 187/100/1 188/98/1
f 189/101/1 190/102/1 191/72/1 192/71/1
f 193/102/1 194/103/1 195/75/1 196/72/1
f 197/104/1 198/101/1 199/71/1 200/77/1
f 201/105/1 202/106/1 203/80/1 204/79/1
f 205/104/1 206/101/1 207/71/1 208/77/1
f 209/106/1 210/107/1 211/83/1 212/80/1
f 213/108/1 214/109/1 215/86/1 216/85/1
f 217/109/1 218/110/1 219/89/1 220/86/1
f 221/110/1 222/111/1 223/91/1 224/89/1
f 225/111/1 226/112/1 227/93/1 228/91/1
f 229/112/1 230/113/1 231/95/1 232/93/1
f 233/113/1 234/114/1 235/97/1 236/95/1
f 237/114/1 238/115/1 239/99/1 240/97/1
f 241/116/1 242/117/1 243/118/1 244/119/1
f 245/117/1 246/120/1 247/121/1 248/118/1
f 249/120/1 250/122/1 251/123/1 252/121/1
f 253/124/1 254/125/1 255/126/1 256/127/1
f 257/125/1 258/128/1 259/129/1 260/126/1
f 261/130/1 262/131/1 263/132/1 264/133/1
f 265/134/1 266/135/1 267/136/1 268/137/1
f 269/138/1 270/139/1 271/140/1 272/141/1
f 273/139/1 274/142/1 275/143/1 276/140/1
f 277/144/1 278/145/1 279/146/1 280/147/1
f 281/145/1 282/148/1 283/149/1 284/146/1
f 285/148/1 286/134/1 287/137/1 288/149/1
f 289/150/1 290/151/1 291/152/1 292/153/1
f 293/154/1 294/155/1 295/117/1 296/116/1
f 297/155/1 298/156/1 299/120/1 300/117/1
f 301/156/1 302/157/1 303/122/1 304/120/1
f 305/158/1 306/159/1 307/125/1 308/124/1
f 309/159/1 310/160/1 311/128/1 312/125/1
f 313/161/1 314/162/1 315/131/1 316/130/1
f 317/163/1 318/164/1 319/135/1 320/134/1
f 321/165/1 322/166/1 323/139/1 324/138/1
f 325/166/1 326/167/1 327/142/1 328/139/1
f 329/168/1 330/169/1 331/145/1 332/144/1
f 333/169/1 334/170/1 335/148/1 336/145/1
f 337/170/1 338/163/1 339/134/1 340/148/1
f 341/171/1 342/172/1 343/151/1 344/150/1
f 345/173/1 346/174/1 347/175/1 348/176/1
f 349/173/1 350/174/1 351/175/1 352/176/1
f 353/177/1 354/178/1 355/179/1 356/180/1
f 357/181/1 358/182/1 359/174/1 360/173/1
f 361/183/1 362/184/1 363/185/1 364/186/1
f 365/184/1 366/187/1 367/188/1 368/185/1
f 369/187/1 370/189/1 371/190/1 372/188/1
f 373/189/1 374/191/1 375/192/1 376/190/1
f 377/191/1 378/193/1 379/194/1 380/192/1
f 381/193/1 382/195/1 383/196/1 384/194/1

