# Tiled2Unity generated file. Do not modify by hand.
# Wavefront file for 'Pueblo_mesh_0062.obj'

# Vertices (Count = 28)
v -4 -1 0
v -5 -1 0
v -5 0 0
v -4 0 0
v -5 -1 0
v -6 -1 0
v -6 0 0
v -5 0 0
v -6 -1 0
v -7 -1 0
v -7 0 0
v -6 0 0
v -7 -1 0
v -8 -1 0
v -8 0 0
v -7 0 0
v -8 -1 0
v -9 -1 0
v -9 0 0
v -8 0 0
v -9 -1 0
v -10 -1 0
v -10 0 0
v -9 0 0
v -10 -1 0
v -11 -1 0
v -11 0 0
v -10 0 0

# Texture cooridinates (Count = 14)
vt 0.05797102 0.7894737
vt 0.04347826 0.7894737
vt 0.04347826 0.8157895
vt 0.05797102 0.8157895
vt 0.2318841 0.7894737
vt 0.2173913 0.7894737
vt 0.2173913 0.8157895
vt 0.2318841 0.8157895
vt 0.2028985 0.7894737
vt 0.2028985 0.8157895
vt 0.02898551 0.7894737
vt 0.02898551 0.8157895
vt 0.01449275 0.7894737
vt 0.01449275 0.8157895

# Normal
vn 0 0 -1

# Mesh description
g Pueblo_mesh_0062

# Faces
f 1/1/1 2/2/1 3/3/1 4/4/1
f 5/5/1 6/6/1 7/7/1 8/8/1
f 9/6/1 10/9/1 11/10/1 12/7/1
f 13/2/1 14/11/1 15/12/1 16/3/1
f 17/5/1 18/6/1 19/7/1 20/8/1
f 21/6/1 22/9/1 23/10/1 24/7/1
f 25/11/1 26/13/1 27/14/1 28/12/1

