# Tiled2Unity generated file. Do not modify by hand.
# Wavefront file for 'Pueblo_mesh_0063.obj'

# Vertices (Count = 8)
v -11 -1 0
v -12 -1 0
v -12 0 0
v -11 0 0
v -11 -2 0
v -12 -2 0
v -12 -1 0
v -11 -1 0

# Texture cooridinates (Count = 6)
vt 0.6111111 0.9130435
vt 0.6666667 0.9130435
vt 0.6666667 0.9565217
vt 0.6111111 0.9565217
vt 0.6111111 0.8695652
vt 0.6666667 0.8695652

# Normal
vn 0 0 -1

# Mesh description
g Pueblo_mesh_0063

# Faces
f 1/1/1 2/2/1 3/3/1 4/4/1
f 5/5/1 6/6/1 7/2/1 8/1/1

