# Tiled2Unity generated file. Do not modify by hand.
# Wavefront file for 'Pueblo_mesh_0079.obj'

# Vertices (Count = 60)
v -3 -1 0
v -4 -1 0
v -4 0 0
v -3 0 0
v -4 -1 0
v -5 -1 0
v -5 0 0
v -4 0 0
v -5 -1 0
v -6 -1 0
v -6 0 0
v -5 0 0
v -6 -1 0
v -7 -1 0
v -7 0 0
v -6 0 0
v -7 -1 0
v -8 -1 0
v -8 0 0
v -7 0 0
v -8 -1 0
v -9 -1 0
v -9 0 0
v -8 0 0
v -9 -1 0
v -10 -1 0
v -10 0 0
v -9 0 0
v -7 -6 0
v -8 -6 0
v -8 -5 0
v -7 -5 0
v -4 -12 0
v -5 -12 0
v -5 -11 0
v -4 -11 0
v -5 -12 0
v -6 -12 0
v -6 -11 0
v -5 -11 0
v -6 -12 0
v -7 -12 0
v -7 -11 0
v -6 -11 0
v -7 -12 0
v -8 -12 0
v -8 -11 0
v -7 -11 0
v -8 -12 0
v -9 -12 0
v -9 -11 0
v -8 -11 0
v -9 -12 0
v -10 -12 0
v -10 -11 0
v -9 -11 0
v -10 -12 0
v -11 -12 0
v -11 -11 0
v -10 -11 0

# Texture cooridinates (Count = 28)
vt 0.6811594 0.7105263
vt 0.6956522 0.7105263
vt 0.6956522 0.7368421
vt 0.6811594 0.7368421
vt 0.7101449 0.7105263
vt 0.7101449 0.7368421
vt 0.7246377 0.7105263
vt 0.7246377 0.7368421
vt 0.7391304 0.7105263
vt 0.7391304 0.7368421
vt 0.7536232 0.7105263
vt 0.7536232 0.7368421
vt 0.7681159 0.7105263
vt 0.7681159 0.7368421
vt 0.7826087 0.7105263
vt 0.7826087 0.7368421
vt 0.2028985 0.3684211
vt 0.1884058 0.3684211
vt 0.1884058 0.3947368
vt 0.2028985 0.3947368
vt 0.2753623 0.9736842
vt 0.2898551 0.9736842
vt 0.2898551 1
vt 0.2753623 1
vt 0.3043478 0.9736842
vt 0.3043478 1
vt 0.3188406 0.9736842
vt 0.3188406 1

# Normal
vn 0 0 -1

# Mesh description
g Pueblo_mesh_0079

# Faces
f 1/1/1 2/2/1 3/3/1 4/4/1
f 5/2/1 6/5/1 7/6/1 8/3/1
f 9/5/1 10/7/1 11/8/1 12/6/1
f 13/7/1 14/9/1 15/10/1 16/8/1
f 17/9/1 18/11/1 19/12/1 20/10/1
f 21/11/1 22/13/1 23/14/1 24/12/1
f 25/13/1 26/15/1 27/16/1 28/14/1
f 29/17/1 30/18/1 31/19/1 32/20/1
f 33/21/1 34/22/1 35/23/1 36/24/1
f 37/22/1 38/25/1 39/26/1 40/23/1
f 41/22/1 42/25/1 43/26/1 44/23/1
f 45/22/1 46/25/1 47/26/1 48/23/1
f 49/22/1 50/25/1 51/26/1 52/23/1
f 53/22/1 54/25/1 55/26/1 56/23/1
f 57/25/1 58/27/1 59/28/1 60/26/1

