# Tiled2Unity generated file. Do not modify by hand.
# Wavefront file for 'Pueblo_mesh_0035.obj'

# Vertices (Count = 236)
v -15 -1 0
v -16 -1 0
v -16 0 0
v -15 0 0
v -15 -2 0
v -16 -2 0
v -16 -1 0
v -15 -1 0
v -15 -3 0
v -16 -3 0
v -16 -2 0
v -15 -2 0
v -15 -4 0
v -16 -4 0
v -16 -3 0
v -15 -3 0
v -15 -5 0
v -16 -5 0
v -16 -4 0
v -15 -4 0
v -8 -6 0
v -9 -6 0
v -9 -5 0
v -8 -5 0
v -11 -6 0
v -12 -6 0
v -12 -5 0
v -11 -5 0
v -12 -6 0
v -13 -6 0
v -13 -5 0
v -12 -5 0
v -13 -6 0
v -14 -6 0
v -14 -5 0
v -13 -5 0
v -14 -6 0
v -15 -6 0
v -15 -5 0
v -14 -5 0
v -15 -6 0
v -16 -6 0
v -16 -5 0
v -15 -5 0
v -8 -7 0
v -9 -7 0
v -9 -6 0
v -8 -6 0
v -9 -7 0
v -10 -7 0
v -10 -6 0
v -9 -6 0
v -10 -7 0
v -11 -7 0
v -11 -6 0
v -10 -6 0
v -11 -7 0
v -12 -7 0
v -12 -6 0
v -11 -6 0
v -12 -7 0
v -13 -7 0
v -13 -6 0
v -12 -6 0
v -13 -7 0
v -14 -7 0
v -14 -6 0
v -13 -6 0
v -14 -7 0
v -15 -7 0
v -15 -6 0
v -14 -6 0
v -15 -7 0
v -16 -7 0
v -16 -6 0
v -15 -6 0
v -8 -8 0
v -9 -8 0
v -9 -7 0
v -8 -7 0
v -9 -8 0
v -10 -8 0
v -10 -7 0
v -9 -7 0
v -10 -8 0
v -11 -8 0
v -11 -7 0
v -10 -7 0
v -11 -8 0
v -12 -8 0
v -12 -7 0
v -11 -7 0
v -12 -8 0
v -13 -8 0
v -13 -7 0
v -12 -7 0
v -13 -8 0
v -14 -8 0
v -14 -7 0
v -13 -7 0
v -14 -8 0
v -15 -8 0
v -15 -7 0
v -14 -7 0
v -15 -8 0
v -16 -8 0
v -16 -7 0
v -15 -7 0
v -8 -9 0
v -9 -9 0
v -9 -8 0
v -8 -8 0
v -9 -9 0
v -10 -9 0
v -10 -8 0
v -9 -8 0
v -10 -9 0
v -11 -9 0
v -11 -8 0
v -10 -8 0
v -11 -9 0
v -12 -9 0
v -12 -8 0
v -11 -8 0
v -14 -12 0
v -15 -12 0
v -15 -11 0
v -14 -11 0
v -15 -12 0
v -16 -12 0
v -16 -11 0
v -15 -11 0
v -7 -13 0
v -8 -13 0
v -8 -12 0
v -7 -12 0
v -8 -13 0
v -9 -13 0
v -9 -12 0
v -8 -12 0
v -9 -13 0
v -10 -13 0
v -10 -12 0
v -9 -12 0
v -10 -13 0
v -11 -13 0
v -11 -12 0
v -10 -12 0
v -11 -13 0
v -12 -13 0
v -12 -12 0
v -11 -12 0
v -12 -13 0
v -13 -13 0
v -13 -12 0
v -12 -12 0
v -13 -13 0
v -14 -13 0
v -14 -12 0
v -13 -12 0
v -14 -13 0
v -15 -13 0
v -15 -12 0
v -14 -12 0
v -15 -13 0
v -16 -13 0
v -16 -12 0
v -15 -12 0
v -7 -14 0
v -8 -14 0
v -8 -13 0
v -7 -13 0
v -8 -14 0
v -9 -14 0
v -9 -13 0
v -8 -13 0
v -9 -14 0
v -10 -14 0
v -10 -13 0
v -9 -13 0
v -10 -14 0
v -11 -14 0
v -11 -13 0
v -10 -13 0
v -11 -14 0
v -12 -14 0
v -12 -13 0
v -11 -13 0
v -12 -14 0
v -13 -14 0
v -13 -13 0
v -12 -13 0
v -13 -14 0
v -14 -14 0
v -14 -13 0
v -13 -13 0
v -14 -14 0
v -15 -14 0
v -15 -13 0
v -14 -13 0
v -15 -14 0
v -16 -14 0
v -16 -13 0
v -15 -13 0
v -7 -15 0
v -8 -15 0
v -8 -14 0
v -7 -14 0
v -8 -15 0
v -9 -15 0
v -9 -14 0
v -8 -14 0
v -9 -15 0
v -10 -15 0
v -10 -14 0
v -9 -14 0
v -10 -15 0
v -11 -15 0
v -11 -14 0
v -10 -14 0
v -11 -15 0
v -12 -15 0
v -12 -14 0
v -11 -14 0
v -12 -15 0
v -13 -15 0
v -13 -14 0
v -12 -14 0
v -13 -15 0
v -14 -15 0
v -14 -14 0
v -13 -14 0
v -14 -15 0
v -15 -15 0
v -15 -14 0
v -14 -14 0

# Texture cooridinates (Count = 37)
vt 0.05128205 0.5526316
vt 0.02564103 0.5526316
vt 0.02564103 0.5789474
vt 0.05128205 0.5789474
vt 0.07692308 0.5526316
vt 0.07692308 0.5789474
vt 0.07692308 0.5263158
vt 0.05128205 0.5263158
vt 0.02564103 0.5263158
vt 0.07692308 0.5
vt 0.05128205 0.5
vt 0.1794872 0.5
vt 0.1538462 0.5
vt 0.1538462 0.5263158
vt 0.1794872 0.5263158
vt 0.02564103 0.5
vt 0.07692308 0.4736842
vt 0.05128205 0.4736842
vt 0.1794872 0.4736842
vt 0.1538462 0.4736842
vt 0.02564103 0.4736842
vt 0.2051282 0.3947368
vt 0.1794872 0.3947368
vt 0.1794872 0.4210526
vt 0.2051282 0.4210526
vt 0.1538462 0.3947368
vt 0.1538462 0.4210526
vt 0.1282051 0.3947368
vt 0.1282051 0.4210526
vt 0.2051282 0.3684211
vt 0.1794872 0.3684211
vt 0.1538462 0.3684211
vt 0.1282051 0.3684211
vt 0.2051282 0.3421053
vt 0.1794872 0.3421053
vt 0.1538462 0.3421053
vt 0.1282051 0.3421053

# Normal
vn 0 0 -1

# Mesh description
g Pueblo_mesh_0035

# Faces
f 1/1/1 2/2/1 3/3/1 4/4/1
f 5/1/1 6/2/1 7/3/1 8/4/1
f 9/1/1 10/2/1 11/3/1 12/4/1
f 13/1/1 14/2/1 15/3/1 16/4/1
f 17/1/1 18/2/1 19/3/1 20/4/1
f 21/1/1 22/5/1 23/6/1 24/4/1
f 25/5/1 26/1/1 27/4/1 28/6/1
f 29/7/1 30/8/1 31/1/1 32/5/1
f 33/7/1 34/8/1 35/1/1 36/5/1
f 37/7/1 38/8/1 39/1/1 40/5/1
f 41/8/1 42/9/1 43/2/1 44/1/1
f 45/9/1 46/8/1 47/1/1 48/2/1
f 49/8/1 50/7/1 51/5/1 52/1/1
f 53/7/1 54/8/1 55/1/1 56/5/1
f 57/8/1 58/9/1 59/2/1 60/1/1
f 61/10/1 62/11/1 63/8/1 64/7/1
f 65/12/1 66/13/1 67/14/1 68/15/1
f 69/10/1 70/11/1 71/8/1 72/7/1
f 73/11/1 74/16/1 75/9/1 76/8/1
f 77/16/1 78/11/1 79/8/1 80/9/1
f 81/11/1 82/10/1 83/7/1 84/8/1
f 85/10/1 86/11/1 87/8/1 88/7/1
f 89/11/1 90/16/1 91/9/1 92/8/1
f 93/17/1 94/18/1 95/11/1 96/10/1
f 97/19/1 98/20/1 99/13/1 100/12/1
f 101/17/1 102/18/1 103/11/1 104/10/1
f 105/18/1 106/21/1 107/16/1 108/11/1
f 109/21/1 110/18/1 111/11/1 112/16/1
f 113/18/1 114/17/1 115/10/1 116/11/1
f 117/17/1 118/18/1 119/11/1 120/10/1
f 121/18/1 122/21/1 123/16/1 124/11/1
f 125/5/1 126/1/1 127/4/1 128/6/1
f 129/7/1 130/8/1 131/1/1 132/5/1
f 133/7/1 134/8/1 135/1/1 136/5/1
f 137/7/1 138/8/1 139/1/1 140/5/1
f 141/22/1 142/23/1 143/24/1 144/25/1
f 145/23/1 146/26/1 147/27/1 148/24/1
f 149/26/1 150/28/1 151/29/1 152/27/1
f 153/7/1 154/8/1 155/1/1 156/5/1
f 157/7/1 158/8/1 159/1/1 160/5/1
f 161/8/1 162/9/1 163/2/1 164/1/1
f 165/10/1 166/11/1 167/8/1 168/7/1
f 169/10/1 170/11/1 171/8/1 172/7/1
f 173/10/1 174/11/1 175/8/1 176/7/1
f 177/30/1 178/31/1 179/23/1 180/22/1
f 181/31/1 182/32/1 183/26/1 184/23/1
f 185/32/1 186/33/1 187/28/1 188/26/1
f 189/10/1 190/11/1 191/8/1 192/7/1
f 193/10/1 194/11/1 195/8/1 196/7/1
f 197/11/1 198/16/1 199/9/1 200/8/1
f 201/17/1 202/18/1 203/11/1 204/10/1
f 205/17/1 206/18/1 207/11/1 208/10/1
f 209/17/1 210/18/1 211/11/1 212/10/1
f 213/34/1 214/35/1 215/31/1 216/30/1
f 217/35/1 218/36/1 219/32/1 220/31/1
f 221/36/1 222/37/1 223/33/1 224/32/1
f 225/17/1 226/18/1 227/11/1 228/10/1
f 229/17/1 230/18/1 231/11/1 232/10/1
f 233/18/1 234/21/1 235/16/1 236/11/1

