# Tiled2Unity generated file. Do not modify by hand.
# Wavefront file for 'Bosque_mesh_0026.obj'

# Vertices (Count = 40)
v -1 -1 0
v -2 -1 0
v -2 0 0
v -1 0 0
v -9 -1 0
v -10 -1 0
v -10 0 0
v -9 0 0
v -15 -1 0
v -16 -1 0
v -16 0 0
v -15 0 0
v -4 -3 0
v -5 -3 0
v -5 -2 0
v -4 -2 0
v -4 -4 0
v -5 -4 0
v -5 -3 0
v -4 -3 0
v -1 -12 0
v -2 -12 0
v -2 -11 0
v -1 -11 0
v -4 -12 0
v -5 -12 0
v -5 -11 0
v -4 -11 0
v -5 -12 0
v -6 -12 0
v -6 -11 0
v -5 -11 0
v -4 -13 0
v -5 -13 0
v -5 -12 0
v -4 -12 0
v -5 -14 0
v -6 -14 0
v -6 -13 0
v -5 -13 0

# Texture cooridinates (Count = 18)
vt 0.2307692 0.75
vt 0.25 0.75
vt 0.25 0.7916667
vt 0.2307692 0.7916667
vt 0.3269231 0.75
vt 0.3076923 0.75
vt 0.3076923 0.7916667
vt 0.3269231 0.7916667
vt 0.1923077 0.4166667
vt 0.2115385 0.4166667
vt 0.2115385 0.4583333
vt 0.1923077 0.4583333
vt 0.1923077 0.375
vt 0.2115385 0.375
vt 0.2884615 0.75
vt 0.2884615 0.7916667
vt 0.2115385 0.75
vt 0.2115385 0.7916667

# Normal
vn 0 0 -1

# Mesh description
g Bosque_mesh_0026

# Faces
f 1/1/1 2/2/1 3/3/1 4/4/1
f 5/5/1 6/6/1 7/7/1 8/8/1
f 9/6/1 10/5/1 11/8/1 12/7/1
f 13/9/1 14/10/1 15/11/1 16/12/1
f 17/13/1 18/14/1 19/10/1 20/9/1
f 21/15/1 22/6/1 23/7/1 24/16/1
f 25/17/1 26/1/1 27/4/1 28/18/1
f 29/1/1 30/2/1 31/3/1 32/4/1
f 33/6/1 34/5/1 35/8/1 36/7/1
f 37/15/1 38/6/1 39/7/1 40/16/1

