# Tiled2Unity generated file. Do not modify by hand.
# Wavefront file for 'Bosque_mesh_0008.obj'

# Vertices (Count = 36)
v -1 -1 0
v -2 -1 0
v -2 0 0
v -1 0 0
v -1 -2 0
v -2 -2 0
v -2 -1 0
v -1 -1 0
v -7 -2 0
v -8 -2 0
v -8 -1 0
v -7 -1 0
v -8 -2 0
v -9 -2 0
v -9 -1 0
v -8 -1 0
v -4 -6 0
v -5 -6 0
v -5 -5 0
v -4 -5 0
v -13 -7 0
v -14 -7 0
v -14 -6 0
v -13 -6 0
v -1 -10 0
v -2 -10 0
v -2 -9 0
v -1 -9 0
v -7 -14 0
v -8 -14 0
v -8 -13 0
v -7 -13 0
v -8 -14 0
v -9 -14 0
v -9 -13 0
v -8 -13 0

# Texture cooridinates (Count = 29)
vt 0.2884615 0.8333333
vt 0.3076923 0.8333333
vt 0.3076923 0.875
vt 0.2884615 0.875
vt 0.2884615 0.7916667
vt 0.3076923 0.7916667
vt 0.07692308 0.625
vt 0.09615385 0.625
vt 0.09615385 0.6666666
vt 0.07692308 0.6666666
vt 0.1153846 0.625
vt 0.1153846 0.6666666
vt 0.3076923 0.75
vt 0.3269231 0.75
vt 0.3269231 0.7916667
vt 0.3461539 0.375
vt 0.3653846 0.375
vt 0.3653846 0.4166667
vt 0.3461539 0.4166667
vt 0.25 0.75
vt 0.2692308 0.75
vt 0.2692308 0.7916667
vt 0.25 0.7916667
vt 0.3846154 0.5416666
vt 0.4038461 0.5416666
vt 0.4038461 0.5833334
vt 0.3846154 0.5833334
vt 0.4230769 0.5416666
vt 0.4230769 0.5833334

# Normal
vn 0 0 -1

# Mesh description
g Bosque_mesh_0008

# Faces
f 1/1/1 2/2/1 3/3/1 4/4/1
f 5/5/1 6/6/1 7/2/1 8/1/1
f 9/7/1 10/8/1 11/9/1 12/10/1
f 13/8/1 14/11/1 15/12/1 16/9/1
f 17/13/1 18/14/1 19/15/1 20/6/1
f 21/16/1 22/17/1 23/18/1 24/19/1
f 25/20/1 26/21/1 27/22/1 28/23/1
f 29/24/1 30/25/1 31/26/1 32/27/1
f 33/25/1 34/28/1 35/29/1 36/26/1

