# Tiled2Unity generated file. Do not modify by hand.
# Wavefront file for 'Bosque_mesh_0018.obj'

# Vertices (Count = 100)
v -4 -1 0
v -5 -1 0
v -5 0 0
v -4 0 0
v -5 -1 0
v -6 -1 0
v -6 0 0
v -5 0 0
v -6 -1 0
v -7 -1 0
v -7 0 0
v -6 0 0
v -10 -1 0
v -11 -1 0
v -11 0 0
v -10 0 0
v -14 -1 0
v -15 -1 0
v -15 0 0
v -14 0 0
v -4 -2 0
v -5 -2 0
v -5 -1 0
v -4 -1 0
v -5 -2 0
v -6 -2 0
v -6 -1 0
v -5 -1 0
v -6 -2 0
v -7 -2 0
v -7 -1 0
v -6 -1 0
v -9 -2 0
v -10 -2 0
v -10 -1 0
v -9 -1 0
v -4 -3 0
v -5 -3 0
v -5 -2 0
v -4 -2 0
v -5 -3 0
v -6 -3 0
v -6 -2 0
v -5 -2 0
v -6 -3 0
v -7 -3 0
v -7 -2 0
v -6 -2 0
v -12 -3 0
v -13 -3 0
v -13 -2 0
v -12 -2 0
v -13 -3 0
v -14 -3 0
v -14 -2 0
v -13 -2 0
v -8 -5 0
v -9 -5 0
v -9 -4 0
v -8 -4 0
v -3 -6 0
v -4 -6 0
v -4 -5 0
v -3 -5 0
v -15 -6 0
v -16 -6 0
v -16 -5 0
v -15 -5 0
v -11 -7 0
v -12 -7 0
v -12 -6 0
v -11 -6 0
v -14 -7 0
v -15 -7 0
v -15 -6 0
v -14 -6 0
v -14 -8 0
v -15 -8 0
v -15 -7 0
v -14 -7 0
v -10 -9 0
v -11 -9 0
v -11 -8 0
v -10 -8 0
v -13 -9 0
v -14 -9 0
v -14 -8 0
v -13 -8 0
v -7 -13 0
v -8 -13 0
v -8 -12 0
v -7 -12 0
v -13 -13 0
v -14 -13 0
v -14 -12 0
v -13 -12 0
v -12 -16 0
v -13 -16 0
v -13 -15 0
v -12 -15 0

# Texture cooridinates (Count = 36)
vt 0.05128205 0.5
vt 0.07692308 0.5
vt 0.07692308 0.5263158
vt 0.05128205 0.5263158
vt 0.1025641 0.5
vt 0.1025641 0.5263158
vt 0.2051282 0.9210526
vt 0.2307692 0.9210526
vt 0.2307692 0.9473684
vt 0.2051282 0.9473684
vt 0.1538462 0.9210526
vt 0.1794872 0.9210526
vt 0.1794872 0.9473684
vt 0.1538462 0.9473684
vt 0.2564103 0.9210526
vt 0.2564103 0.9473684
vt 0.05128205 0.4736842
vt 0.07692308 0.4736842
vt 0.1025641 0.4736842
vt 0.2051282 0.8947368
vt 0.2307692 0.8947368
vt 0.1794872 0.8947368
vt 0.05128205 0.9473684
vt 0.07692308 0.9473684
vt 0.07692308 0.9736842
vt 0.05128205 0.9736842
vt 0.5128205 0.9210526
vt 0.5384616 0.9210526
vt 0.5384616 0.9473684
vt 0.5128205 0.9473684
vt 0.5128205 0.8947368
vt 0.5384616 0.8947368
vt 0.3076923 0.8947368
vt 0.3333333 0.8947368
vt 0.3333333 0.9210526
vt 0.3076923 0.9210526

# Normal
vn 0 0 -1

# Mesh description
g Bosque_mesh_0018

# Faces
f 1/1/1 2/2/1 3/3/1 4/4/1
f 5/1/1 6/2/1 7/3/1 8/4/1
f 9/2/1 10/5/1 11/6/1 12/3/1
f 13/7/1 14/8/1 15/9/1 16/10/1
f 17/11/1 18/12/1 19/13/1 20/14/1
f 21/1/1 22/2/1 23/3/1 24/4/1
f 25/1/1 26/2/1 27/3/1 28/4/1
f 29/2/1 30/5/1 31/6/1 32/3/1
f 33/8/1 34/15/1 35/16/1 36/9/1
f 37/17/1 38/18/1 39/2/1 40/1/1
f 41/17/1 42/18/1 43/2/1 44/1/1
f 45/18/1 46/19/1 47/5/1 48/2/1
f 49/20/1 50/21/1 51/8/1 52/7/1
f 53/22/1 54/20/1 55/7/1 56/12/1
f 57/8/1 58/15/1 59/16/1 60/9/1
f 61/23/1 62/24/1 63/25/1 64/26/1
f 65/7/1 66/8/1 67/9/1 68/10/1
f 69/8/1 70/15/1 71/16/1 72/9/1
f 73/27/1 74/28/1 75/29/1 76/30/1
f 77/31/1 78/32/1 79/28/1 80/27/1
f 81/11/1 82/12/1 83/13/1 84/14/1
f 85/11/1 86/12/1 87/13/1 88/14/1
f 89/8/1 90/15/1 91/16/1 92/9/1
f 93/8/1 94/15/1 95/16/1 96/9/1
f 97/33/1 98/34/1 99/35/1 100/36/1

