# Tiled2Unity generated file. Do not modify by hand.
# Wavefront file for 'Bosque_mesh_0010.obj'

# Vertices (Count = 124)
v -4 -1 0
v -5 -1 0
v -5 0 0
v -4 0 0
v -4 -2 0
v -5 -2 0
v -5 -1 0
v -4 -1 0
v 0 -3 0
v -1 -3 0
v -1 -2 0
v 0 -2 0
v -1 -3 0
v -2 -3 0
v -2 -2 0
v -1 -2 0
v -2 -3 0
v -3 -3 0
v -3 -2 0
v -2 -2 0
v -3 -3 0
v -4 -3 0
v -4 -2 0
v -3 -2 0
v -4 -3 0
v -5 -3 0
v -5 -2 0
v -4 -2 0
v 0 -4 0
v -1 -4 0
v -1 -3 0
v 0 -3 0
v -1 -4 0
v -2 -4 0
v -2 -3 0
v -1 -3 0
v -2 -4 0
v -3 -4 0
v -3 -3 0
v -2 -3 0
v -3 -4 0
v -4 -4 0
v -4 -3 0
v -3 -3 0
v -4 -4 0
v -5 -4 0
v -5 -3 0
v -4 -3 0
v 0 -5 0
v -1 -5 0
v -1 -4 0
v 0 -4 0
v -1 -5 0
v -2 -5 0
v -2 -4 0
v -1 -4 0
v -2 -5 0
v -3 -5 0
v -3 -4 0
v -2 -4 0
v -3 -5 0
v -4 -5 0
v -4 -4 0
v -3 -4 0
v -4 -5 0
v -5 -5 0
v -5 -4 0
v -4 -4 0
v 0 -11 0
v -1 -11 0
v -1 -10 0
v 0 -10 0
v -1 -11 0
v -2 -11 0
v -2 -10 0
v -1 -10 0
v -2 -11 0
v -3 -11 0
v -3 -10 0
v -2 -10 0
v -3 -11 0
v -4 -11 0
v -4 -10 0
v -3 -10 0
v -4 -11 0
v -5 -11 0
v -5 -10 0
v -4 -10 0
v -5 -11 0
v -6 -11 0
v -6 -10 0
v -5 -10 0
v -6 -11 0
v -7 -11 0
v -7 -10 0
v -6 -10 0
v -6 -12 0
v -7 -12 0
v -7 -11 0
v -6 -11 0
v -6 -13 0
v -7 -13 0
v -7 -12 0
v -6 -12 0
v -6 -14 0
v -7 -14 0
v -7 -13 0
v -6 -13 0
v -6 -15 0
v -7 -15 0
v -7 -14 0
v -6 -14 0
v -4 -16 0
v -5 -16 0
v -5 -15 0
v -4 -15 0
v -5 -16 0
v -6 -16 0
v -6 -15 0
v -5 -15 0
v -6 -16 0
v -7 -16 0
v -7 -15 0
v -6 -15 0

# Texture cooridinates (Count = 27)
vt 0.02564103 0.5789474
vt 0.05128205 0.5789474
vt 0.05128205 0.6052631
vt 0.02564103 0.6052631
vt 0.05128205 0.5263158
vt 0.07692308 0.5263158
vt 0.07692308 0.5526316
vt 0.05128205 0.5526316
vt 0.1025641 0.5263158
vt 0.1025641 0.5526316
vt 0.05128205 0.5
vt 0.07692308 0.5
vt 0.1538462 0.5
vt 0.1794872 0.5
vt 0.1794872 0.5263158
vt 0.1538462 0.5263158
vt 0.1025641 0.5
vt 0.05128205 0.4736842
vt 0.07692308 0.4736842
vt 0.1538462 0.4736842
vt 0.1794872 0.4736842
vt 0.1025641 0.4736842
vt 0.07692308 0.6052631
vt 0.07692308 0.6315789
vt 0.05128205 0.6315789
vt 0.1025641 0.6052631
vt 0.1025641 0.6315789

# Normal
vn 0 0 -1

# Mesh description
g Bosque_mesh_0010

# Faces
f 1/1/1 2/2/1 3/3/1 4/4/1
f 5/1/1 6/2/1 7/3/1 8/4/1
f 9/5/1 10/6/1 11/7/1 12/8/1
f 13/5/1 14/6/1 15/7/1 16/8/1
f 17/5/1 18/6/1 19/7/1 20/8/1
f 21/5/1 22/6/1 23/7/1 24/8/1
f 25/6/1 26/9/1 27/10/1 28/7/1
f 29/11/1 30/12/1 31/6/1 32/5/1
f 33/13/1 34/14/1 35/15/1 36/16/1
f 37/11/1 38/12/1 39/6/1 40/5/1
f 41/11/1 42/12/1 43/6/1 44/5/1
f 45/12/1 46/17/1 47/9/1 48/6/1
f 49/18/1 50/19/1 51/12/1 52/11/1
f 53/20/1 54/21/1 55/14/1 56/13/1
f 57/18/1 58/19/1 59/12/1 60/11/1
f 61/18/1 62/19/1 63/12/1 64/11/1
f 65/19/1 66/22/1 67/17/1 68/12/1
f 69/3/1 70/23/1 71/24/1 72/25/1
f 73/3/1 74/23/1 75/24/1 76/25/1
f 77/3/1 78/23/1 79/24/1 80/25/1
f 81/3/1 82/23/1 83/24/1 84/25/1
f 85/3/1 86/23/1 87/24/1 88/25/1
f 89/3/1 90/23/1 91/24/1 92/25/1
f 93/23/1 94/26/1 95/27/1 96/24/1
f 97/1/1 98/2/1 99/3/1 100/4/1
f 101/1/1 102/2/1 103/3/1 104/4/1
f 105/1/1 106/2/1 107/3/1 108/4/1
f 109/1/1 110/2/1 111/3/1 112/4/1
f 113/5/1 114/6/1 115/7/1 116/8/1
f 117/5/1 118/6/1 119/7/1 120/8/1
f 121/6/1 122/9/1 123/10/1 124/7/1

