# Tiled2Unity generated file. Do not modify by hand.
# Wavefront file for 'Bosque_mesh_0015.obj'

# Vertices (Count = 12)
v -7 -8 0
v -8 -8 0
v -8 -7 0
v -7 -7 0
v -8 -8 0
v -9 -8 0
v -9 -7 0
v -8 -7 0
v -9 -8 0
v -10 -8 0
v -10 -7 0
v -9 -7 0

# Texture cooridinates (Count = 8)
vt 0.4807692 0.7083334
vt 0.5 0.7083334
vt 0.5 0.75
vt 0.4807692 0.75
vt 0.5192308 0.7083334
vt 0.5192308 0.75
vt 0.5384616 0.7083334
vt 0.5384616 0.75

# Normal
vn 0 0 -1

# Mesh description
g Bosque_mesh_0015

# Faces
f 1/1/1 2/2/1 3/3/1 4/4/1
f 5/2/1 6/5/1 7/6/1 8/3/1
f 9/5/1 10/7/1 11/8/1 12/6/1

