# Tiled2Unity generated file. Do not modify by hand.
# Wavefront file for 'Bosque_mesh_0020.obj'

# Vertices (Count = 144)
v -13 -1 0
v -14 -1 0
v -14 0 0
v -13 0 0
v -14 -1 0
v -15 -1 0
v -15 0 0
v -14 0 0
v -13 -2 0
v -14 -2 0
v -14 -1 0
v -13 -1 0
v -14 -2 0
v -15 -2 0
v -15 -1 0
v -14 -1 0
v -1 -3 0
v -2 -3 0
v -2 -2 0
v -1 -2 0
v -2 -3 0
v -3 -3 0
v -3 -2 0
v -2 -2 0
v -3 -3 0
v -4 -3 0
v -4 -2 0
v -3 -2 0
v -4 -3 0
v -5 -3 0
v -5 -2 0
v -4 -2 0
v -5 -3 0
v -6 -3 0
v -6 -2 0
v -5 -2 0
v -6 -3 0
v -7 -3 0
v -7 -2 0
v -6 -2 0
v -13 -3 0
v -14 -3 0
v -14 -2 0
v -13 -2 0
v -14 -3 0
v -15 -3 0
v -15 -2 0
v -14 -2 0
v -1 -4 0
v -2 -4 0
v -2 -3 0
v -1 -3 0
v -2 -4 0
v -3 -4 0
v -3 -3 0
v -2 -3 0
v -3 -4 0
v -4 -4 0
v -4 -3 0
v -3 -3 0
v -4 -4 0
v -5 -4 0
v -5 -3 0
v -4 -3 0
v -5 -4 0
v -6 -4 0
v -6 -3 0
v -5 -3 0
v -6 -4 0
v -7 -4 0
v -7 -3 0
v -6 -3 0
v -1 -5 0
v -2 -5 0
v -2 -4 0
v -1 -4 0
v -2 -5 0
v -3 -5 0
v -3 -4 0
v -2 -4 0
v -3 -5 0
v -4 -5 0
v -4 -4 0
v -3 -4 0
v -4 -5 0
v -5 -5 0
v -5 -4 0
v -4 -4 0
v -5 -5 0
v -6 -5 0
v -6 -4 0
v -5 -4 0
v -6 -5 0
v -7 -5 0
v -7 -4 0
v -6 -4 0
v -1 -6 0
v -2 -6 0
v -2 -5 0
v -1 -5 0
v -2 -6 0
v -3 -6 0
v -3 -5 0
v -2 -5 0
v -3 -6 0
v -4 -6 0
v -4 -5 0
v -3 -5 0
v -4 -6 0
v -5 -6 0
v -5 -5 0
v -4 -5 0
v -5 -6 0
v -6 -6 0
v -6 -5 0
v -5 -5 0
v -6 -6 0
v -7 -6 0
v -7 -5 0
v -6 -5 0
v -1 -7 0
v -2 -7 0
v -2 -6 0
v -1 -6 0
v -2 -7 0
v -3 -7 0
v -3 -6 0
v -2 -6 0
v -3 -7 0
v -4 -7 0
v -4 -6 0
v -3 -6 0
v -4 -7 0
v -5 -7 0
v -5 -6 0
v -4 -6 0
v -5 -7 0
v -6 -7 0
v -6 -6 0
v -5 -6 0
v -6 -7 0
v -7 -7 0
v -7 -6 0
v -6 -6 0

# Texture cooridinates (Count = 54)
vt 0.3846154 0.6666666
vt 0.4038461 0.6666666
vt 0.4038461 0.7083334
vt 0.3846154 0.7083334
vt 0.4230769 0.6666666
vt 0.4230769 0.7083334
vt 0.3846154 0.625
vt 0.4038461 0.625
vt 0.4230769 0.625
vt 0.6346154 0.9166667
vt 0.6538461 0.9166667
vt 0.6538461 0.9583333
vt 0.6346154 0.9583333
vt 0.6730769 0.9166667
vt 0.6730769 0.9583333
vt 0.6923077 0.9166667
vt 0.6923077 0.9583333
vt 0.7115384 0.9166667
vt 0.7115384 0.9583333
vt 0.7307692 0.9166667
vt 0.7307692 0.9583333
vt 0.75 0.9166667
vt 0.75 0.9583333
vt 0.3846154 0.5833334
vt 0.4038461 0.5833334
vt 0.4230769 0.5833334
vt 0.6346154 0.875
vt 0.6538461 0.875
vt 0.6730769 0.875
vt 0.6923077 0.875
vt 0.7115384 0.875
vt 0.7307692 0.875
vt 0.75 0.875
vt 0.6346154 0.8333333
vt 0.6538461 0.8333333
vt 0.6730769 0.8333333
vt 0.6923077 0.8333333
vt 0.7115384 0.8333333
vt 0.7307692 0.8333333
vt 0.75 0.8333333
vt 0.6346154 0.7916667
vt 0.6538461 0.7916667
vt 0.6730769 0.7916667
vt 0.6923077 0.7916667
vt 0.7115384 0.7916667
vt 0.7307692 0.7916667
vt 0.75 0.7916667
vt 0.6346154 0.75
vt 0.6538461 0.75
vt 0.6730769 0.75
vt 0.6923077 0.75
vt 0.7115384 0.75
vt 0.7307692 0.75
vt 0.75 0.75

# Normal
vn 0 0 -1

# Mesh description
g Bosque_mesh_0020

# Faces
f 1/1/1 2/2/1 3/3/1 4/4/1
f 5/2/1 6/5/1 7/6/1 8/3/1
f 9/7/1 10/8/1 11/2/1 12/1/1
f 13/8/1 14/9/1 15/5/1 16/2/1
f 17/10/1 18/11/1 19/12/1 20/13/1
f 21/11/1 22/14/1 23/15/1 24/12/1
f 25/14/1 26/16/1 27/17/1 28/15/1
f 29/16/1 30/18/1 31/19/1 32/17/1
f 33/18/1 34/20/1 35/21/1 36/19/1
f 37/20/1 38/22/1 39/23/1 40/21/1
f 41/24/1 42/25/1 43/8/1 44/7/1
f 45/25/1 46/26/1 47/9/1 48/8/1
f 49/27/1 50/28/1 51/11/1 52/10/1
f 53/28/1 54/29/1 55/14/1 56/11/1
f 57/29/1 58/30/1 59/16/1 60/14/1
f 61/30/1 62/31/1 63/18/1 64/16/1
f 65/31/1 66/32/1 67/20/1 68/18/1
f 69/32/1 70/33/1 71/22/1 72/20/1
f 73/34/1 74/35/1 75/28/1 76/27/1
f 77/35/1 78/36/1 79/29/1 80/28/1
f 81/36/1 82/37/1 83/30/1 84/29/1
f 85/37/1 86/38/1 87/31/1 88/30/1
f 89/38/1 90/39/1 91/32/1 92/31/1
f 93/39/1 94/40/1 95/33/1 96/32/1
f 97/41/1 98/42/1 99/35/1 100/34/1
f 101/42/1 102/43/1 103/36/1 104/35/1
f 105/43/1 106/44/1 107/37/1 108/36/1
f 109/44/1 110/45/1 111/38/1 112/37/1
f 113/45/1 114/46/1 115/39/1 116/38/1
f 117/46/1 118/47/1 119/40/1 120/39/1
f 121/48/1 122/49/1 123/42/1 124/41/1
f 125/49/1 126/50/1 127/43/1 128/42/1
f 129/50/1 130/51/1 131/44/1 132/43/1
f 133/51/1 134/52/1 135/45/1 136/44/1
f 137/52/1 138/53/1 139/46/1 140/45/1
f 141/53/1 142/54/1 143/47/1 144/46/1

