# Tiled2Unity generated file. Do not modify by hand.
# Wavefront file for 'Bosque_mesh_0011.obj'

# Vertices (Count = 76)
v -13 -4 0
v -14 -4 0
v -14 -3 0
v -13 -3 0
v -14 -4 0
v -15 -4 0
v -15 -3 0
v -14 -3 0
v -2 -8 0
v -3 -8 0
v -3 -7 0
v -2 -7 0
v -3 -8 0
v -4 -8 0
v -4 -7 0
v -3 -7 0
v -4 -8 0
v -5 -8 0
v -5 -7 0
v -4 -7 0
v -5 -8 0
v -6 -8 0
v -6 -7 0
v -5 -7 0
v -2 -12 0
v -3 -12 0
v -3 -11 0
v -2 -11 0
v -3 -12 0
v -4 -12 0
v -4 -11 0
v -3 -11 0
v -2 -13 0
v -3 -13 0
v -3 -12 0
v -2 -12 0
v -3 -13 0
v -4 -13 0
v -4 -12 0
v -3 -12 0
v -11 -13 0
v -12 -13 0
v -12 -12 0
v -11 -12 0
v -14 -13 0
v -15 -13 0
v -15 -12 0
v -14 -12 0
v -15 -13 0
v -16 -13 0
v -16 -12 0
v -15 -12 0
v -14 -14 0
v -15 -14 0
v -15 -13 0
v -14 -13 0
v -15 -14 0
v -16 -14 0
v -16 -13 0
v -15 -13 0
v -13 -15 0
v -14 -15 0
v -14 -14 0
v -13 -14 0
v -14 -15 0
v -15 -15 0
v -15 -14 0
v -14 -14 0
v -13 -16 0
v -14 -16 0
v -14 -15 0
v -13 -15 0
v -14 -16 0
v -15 -16 0
v -15 -15 0
v -14 -15 0

# Texture cooridinates (Count = 44)
vt 0.3846154 0.5416666
vt 0.4038461 0.5416666
vt 0.4038461 0.5833334
vt 0.3846154 0.5833334
vt 0.4230769 0.5416666
vt 0.4230769 0.5833334
vt 0.6538461 0.7083334
vt 0.6730769 0.7083334
vt 0.6730769 0.75
vt 0.6538461 0.75
vt 0.6923077 0.7083334
vt 0.6923077 0.75
vt 0.7115384 0.7083334
vt 0.7115384 0.75
vt 0.7307692 0.7083334
vt 0.7307692 0.75
vt 0.4038461 0.9166667
vt 0.4230769 0.9166667
vt 0.4230769 0.9583333
vt 0.4038461 0.9583333
vt 0.4423077 0.9166667
vt 0.4423077 0.9583333
vt 0.4038461 0.875
vt 0.4230769 0.875
vt 0.4423077 0.875
vt 0.7692308 0.125
vt 0.7884616 0.125
vt 0.7884616 0.1666667
vt 0.7692308 0.1666667
vt 0.5192308 0.9166667
vt 0.5384616 0.9166667
vt 0.5384616 0.9583333
vt 0.5192308 0.9583333
vt 0.5576923 0.9166667
vt 0.5576923 0.9583333
vt 0.5192308 0.875
vt 0.5384616 0.875
vt 0.5576923 0.875
vt 0.4807692 0.9166667
vt 0.5 0.9166667
vt 0.5 0.9583333
vt 0.4807692 0.9583333
vt 0.4807692 0.875
vt 0.5 0.875

# Normal
vn 0 0 -1

# Mesh description
g Bosque_mesh_0011

# Faces
f 1/1/1 2/2/1 3/3/1 4/4/1
f 5/2/1 6/5/1 7/6/1 8/3/1
f 9/7/1 10/8/1 11/9/1 12/10/1
f 13/8/1 14/11/1 15/12/1 16/9/1
f 17/11/1 18/13/1 19/14/1 20/12/1
f 21/13/1 22/15/1 23/16/1 24/14/1
f 25/17/1 26/18/1 27/19/1 28/20/1
f 29/18/1 30/21/1 31/22/1 32/19/1
f 33/23/1 34/24/1 35/18/1 36/17/1
f 37/24/1 38/25/1 39/21/1 40/18/1
f 41/26/1 42/27/1 43/28/1 44/29/1
f 45/30/1 46/31/1 47/32/1 48/33/1
f 49/31/1 50/34/1 51/35/1 52/32/1
f 53/36/1 54/37/1 55/31/1 56/30/1
f 57/37/1 58/38/1 59/34/1 60/31/1
f 61/39/1 62/40/1 63/41/1 64/42/1
f 65/40/1 66/30/1 67/33/1 68/41/1
f 69/43/1 70/44/1 71/40/1 72/39/1
f 73/44/1 74/36/1 75/30/1 76/40/1

