# Tiled2Unity generated file. Do not modify by hand.
# Wavefront file for 'Bosque_mesh_0019.obj'

# Vertices (Count = 60)
v -12 -4 0
v -13 -4 0
v -13 -3 0
v -12 -3 0
v -13 -4 0
v -14 -4 0
v -14 -3 0
v -13 -3 0
v -14 -4 0
v -15 -4 0
v -15 -3 0
v -14 -3 0
v -12 -5 0
v -13 -5 0
v -13 -4 0
v -12 -4 0
v -13 -5 0
v -14 -5 0
v -14 -4 0
v -13 -4 0
v -14 -5 0
v -15 -5 0
v -15 -4 0
v -14 -4 0
v -12 -6 0
v -13 -6 0
v -13 -5 0
v -12 -5 0
v -13 -6 0
v -14 -6 0
v -14 -5 0
v -13 -5 0
v -14 -6 0
v -15 -6 0
v -15 -5 0
v -14 -5 0
v -7 -11 0
v -8 -11 0
v -8 -10 0
v -7 -10 0
v -8 -11 0
v -9 -11 0
v -9 -10 0
v -8 -10 0
v -7 -12 0
v -8 -12 0
v -8 -11 0
v -7 -11 0
v -8 -12 0
v -9 -12 0
v -9 -11 0
v -8 -11 0
v -7 -13 0
v -8 -13 0
v -8 -12 0
v -7 -12 0
v -8 -13 0
v -9 -13 0
v -9 -12 0
v -8 -12 0

# Texture cooridinates (Count = 28)
vt 0.3269231 0.5
vt 0.3461539 0.5
vt 0.3461539 0.5416666
vt 0.3269231 0.5416666
vt 0.3653846 0.5
vt 0.3653846 0.5416666
vt 0.3846154 0.5
vt 0.3846154 0.5416666
vt 0.3269231 0.4583333
vt 0.3461539 0.4583333
vt 0.3653846 0.4583333
vt 0.3846154 0.4583333
vt 0.3269231 0.4166667
vt 0.3461539 0.4166667
vt 0.3653846 0.4166667
vt 0.3846154 0.4166667
vt 0.3846154 0.6666666
vt 0.4038461 0.6666666
vt 0.4038461 0.7083334
vt 0.3846154 0.7083334
vt 0.4230769 0.6666666
vt 0.4230769 0.7083334
vt 0.3846154 0.625
vt 0.4038461 0.625
vt 0.4230769 0.625
vt 0.3846154 0.5833334
vt 0.4038461 0.5833334
vt 0.4230769 0.5833334

# Normal
vn 0 0 -1

# Mesh description
g Bosque_mesh_0019

# Faces
f 1/1/1 2/2/1 3/3/1 4/4/1
f 5/2/1 6/5/1 7/6/1 8/3/1
f 9/5/1 10/7/1 11/8/1 12/6/1
f 13/9/1 14/10/1 15/2/1 16/1/1
f 17/10/1 18/11/1 19/5/1 20/2/1
f 21/11/1 22/12/1 23/7/1 24/5/1
f 25/13/1 26/14/1 27/10/1 28/9/1
f 29/14/1 30/15/1 31/11/1 32/10/1
f 33/15/1 34/16/1 35/12/1 36/11/1
f 37/17/1 38/18/1 39/19/1 40/20/1
f 41/18/1 42/21/1 43/22/1 44/19/1
f 45/23/1 46/24/1 47/18/1 48/17/1
f 49/24/1 50/25/1 51/21/1 52/18/1
f 53/26/1 54/27/1 55/24/1 56/23/1
f 57/27/1 58/28/1 59/25/1 60/24/1

