# Tiled2Unity generated file. Do not modify by hand.
# Wavefront file for 'Bosque_mesh_0013.obj'

# Vertices (Count = 120)
v 0 -1 0
v -1 -1 0
v -1 0 0
v 0 0 0
v -1 -1 0
v -2 -1 0
v -2 0 0
v -1 0 0
v -5 -1 0
v -6 -1 0
v -6 0 0
v -5 0 0
v -6 -1 0
v -7 -1 0
v -7 0 0
v -6 0 0
v -7 -1 0
v -8 -1 0
v -8 0 0
v -7 0 0
v -8 -1 0
v -9 -1 0
v -9 0 0
v -8 0 0
v -9 -1 0
v -10 -1 0
v -10 0 0
v -9 0 0
v -10 -1 0
v -11 -1 0
v -11 0 0
v -10 0 0
v 0 -2 0
v -1 -2 0
v -1 -1 0
v 0 -1 0
v -1 -2 0
v -2 -2 0
v -2 -1 0
v -1 -1 0
v -5 -2 0
v -6 -2 0
v -6 -1 0
v -5 -1 0
v -6 -2 0
v -7 -2 0
v -7 -1 0
v -6 -1 0
v -7 -2 0
v -8 -2 0
v -8 -1 0
v -7 -1 0
v -8 -2 0
v -9 -2 0
v -9 -1 0
v -8 -1 0
v -9 -2 0
v -10 -2 0
v -10 -1 0
v -9 -1 0
v -10 -2 0
v -11 -2 0
v -11 -1 0
v -10 -1 0
v 0 -3 0
v -1 -3 0
v -1 -2 0
v 0 -2 0
v -1 -3 0
v -2 -3 0
v -2 -2 0
v -1 -2 0
v -2 -3 0
v -3 -3 0
v -3 -2 0
v -2 -2 0
v -3 -3 0
v -4 -3 0
v -4 -2 0
v -3 -2 0
v -4 -3 0
v -5 -3 0
v -5 -2 0
v -4 -2 0
v -5 -3 0
v -6 -3 0
v -6 -2 0
v -5 -2 0
v -6 -3 0
v -7 -3 0
v -7 -2 0
v -6 -2 0
v -7 -3 0
v -8 -3 0
v -8 -2 0
v -7 -2 0
v -8 -3 0
v -9 -3 0
v -9 -2 0
v -8 -2 0
v -9 -3 0
v -10 -3 0
v -10 -2 0
v -9 -2 0
v -10 -3 0
v -11 -3 0
v -11 -2 0
v -10 -2 0
v -2 -4 0
v -3 -4 0
v -3 -3 0
v -2 -3 0
v -3 -4 0
v -4 -4 0
v -4 -3 0
v -3 -3 0
v -4 -4 0
v -5 -4 0
v -5 -3 0
v -4 -3 0

# Texture cooridinates (Count = 27)
vt 0.02564103 0.5
vt 0.05128205 0.5
vt 0.05128205 0.5263158
vt 0.02564103 0.5263158
vt 0.07692308 0.5
vt 0.07692308 0.5263158
vt 0.1538462 0.5
vt 0.1794872 0.5
vt 0.1794872 0.5263158
vt 0.1538462 0.5263158
vt 0.02564103 0.4736842
vt 0.05128205 0.4736842
vt 0.1538462 0.4736842
vt 0.1794872 0.4736842
vt 0.1282051 0.3684211
vt 0.1538462 0.3684211
vt 0.1538462 0.3947368
vt 0.1282051 0.3947368
vt 0.1794872 0.3684211
vt 0.1794872 0.3947368
vt 0.2051282 0.3684211
vt 0.2051282 0.3947368
vt 0.07692308 0.4736842
vt 0.1282051 0.3421053
vt 0.1538462 0.3421053
vt 0.1794872 0.3421053
vt 0.2051282 0.3421053

# Normal
vn 0 0 -1

# Mesh description
g Bosque_mesh_0013

# Faces
f 1/1/1 2/2/1 3/3/1 4/4/1
f 5/2/1 6/5/1 7/6/1 8/3/1
f 9/2/1 10/5/1 11/6/1 12/3/1
f 13/2/1 14/5/1 15/6/1 16/3/1
f 17/2/1 18/5/1 19/6/1 20/3/1
f 21/2/1 22/5/1 23/6/1 24/3/1
f 25/2/1 26/5/1 27/6/1 28/3/1
f 29/2/1 30/5/1 31/6/1 32/3/1
f 33/1/1 34/2/1 35/3/1 36/4/1
f 37/7/1 38/8/1 39/9/1 40/10/1
f 41/2/1 42/5/1 43/6/1 44/3/1
f 45/5/1 46/2/1 47/3/1 48/6/1
f 49/8/1 50/7/1 51/10/1 52/9/1
f 53/2/1 54/5/1 55/6/1 56/3/1
f 57/2/1 58/5/1 59/6/1 60/3/1
f 61/2/1 62/5/1 63/6/1 64/3/1
f 65/11/1 66/12/1 67/2/1 68/1/1
f 69/13/1 70/14/1 71/8/1 72/7/1
f 73/15/1 74/16/1 75/17/1 76/18/1
f 77/16/1 78/19/1 79/20/1 80/17/1
f 81/19/1 82/21/1 83/22/1 84/20/1
f 85/12/1 86/23/1 87/5/1 88/2/1
f 89/23/1 90/12/1 91/2/1 92/5/1
f 93/14/1 94/13/1 95/7/1 96/8/1
f 97/12/1 98/23/1 99/5/1 100/2/1
f 101/12/1 102/23/1 103/5/1 104/2/1
f 105/12/1 106/23/1 107/5/1 108/2/1
f 109/24/1 110/25/1 111/16/1 112/15/1
f 113/25/1 114/26/1 115/19/1 116/16/1
f 117/26/1 118/27/1 119/21/1 120/19/1

