# Tiled2Unity generated file. Do not modify by hand.
# Wavefront file for 'Bosque_mesh_0029.obj'

# Vertices (Count = 16)
v -14 -8 0
v -15 -8 0
v -15 -7 0
v -14 -7 0
v -13 -10 0
v -14 -10 0
v -14 -9 0
v -13 -9 0
v -13 -11 0
v -14 -11 0
v -14 -10 0
v -13 -10 0
v -14 -11 0
v -15 -11 0
v -15 -10 0
v -14 -10 0

# Texture cooridinates (Count = 10)
vt 0.1730769 0.75
vt 0.1923077 0.75
vt 0.1923077 0.7916667
vt 0.1730769 0.7916667
vt 0.3269231 0.375
vt 0.3076923 0.375
vt 0.3076923 0.4166667
vt 0.3269231 0.4166667
vt 0.2884615 0.375
vt 0.2884615 0.4166667

# Normal
vn 0 0 -1

# Mesh description
g Bosque_mesh_0029

# Faces
f 1/1/1 2/2/1 3/3/1 4/4/1
f 5/5/1 6/6/1 7/7/1 8/8/1
f 9/9/1 10/6/1 11/7/1 12/10/1
f 13/5/1 14/6/1 15/7/1 16/8/1

