# Tiled2Unity generated file. Do not modify by hand.
# Wavefront file for 'Bosque_mesh_0016.obj'

# Vertices (Count = 28)
v -7 -8 0
v -8 -8 0
v -8 -7 0
v -7 -7 0
v -8 -8 0
v -9 -8 0
v -9 -7 0
v -8 -7 0
v -9 -8 0
v -10 -8 0
v -10 -7 0
v -9 -7 0
v -14 -8 0
v -15 -8 0
v -15 -7 0
v -14 -7 0
v -13 -10 0
v -14 -10 0
v -14 -9 0
v -13 -9 0
v -13 -11 0
v -14 -11 0
v -14 -10 0
v -13 -10 0
v -14 -11 0
v -15 -11 0
v -15 -10 0
v -14 -10 0

# Texture cooridinates (Count = 18)
vt 0.4807692 0.7083334
vt 0.5 0.7083334
vt 0.5 0.75
vt 0.4807692 0.75
vt 0.5192308 0.7083334
vt 0.5192308 0.75
vt 0.5384616 0.7083334
vt 0.5384616 0.75
vt 0.1730769 0.75
vt 0.1923077 0.75
vt 0.1923077 0.7916667
vt 0.1730769 0.7916667
vt 0.3269231 0.375
vt 0.3076923 0.375
vt 0.3076923 0.4166667
vt 0.3269231 0.4166667
vt 0.2884615 0.375
vt 0.2884615 0.4166667

# Normal
vn 0 0 -1

# Mesh description
g Bosque_mesh_0016

# Faces
f 1/1/1 2/2/1 3/3/1 4/4/1
f 5/2/1 6/5/1 7/6/1 8/3/1
f 9/5/1 10/7/1 11/8/1 12/6/1
f 13/9/1 14/10/1 15/11/1 16/12/1
f 17/13/1 18/14/1 19/15/1 20/16/1
f 21/17/1 22/14/1 23/15/1 24/18/1
f 25/13/1 26/14/1 27/15/1 28/16/1

