# Tiled2Unity generated file. Do not modify by hand.
# Wavefront file for 'Bosque_mesh_0009.obj'

# Vertices (Count = 236)
v -2 -1 0
v -3 -1 0
v -3 0 0
v -2 0 0
v 0 -2 0
v -1 -2 0
v -1 -1 0
v 0 -1 0
v -2 -2 0
v -3 -2 0
v -3 -1 0
v -2 -1 0
v -12 -2 0
v -13 -2 0
v -13 -1 0
v -12 -1 0
v 0 -3 0
v -1 -3 0
v -1 -2 0
v 0 -2 0
v -1 -3 0
v -2 -3 0
v -2 -2 0
v -1 -2 0
v -2 -3 0
v -3 -3 0
v -3 -2 0
v -2 -2 0
v -11 -3 0
v -12 -3 0
v -12 -2 0
v -11 -2 0
v -15 -3 0
v -16 -3 0
v -16 -2 0
v -15 -2 0
v 0 -4 0
v -1 -4 0
v -1 -3 0
v 0 -3 0
v -1 -4 0
v -2 -4 0
v -2 -3 0
v -1 -3 0
v -2 -4 0
v -3 -4 0
v -3 -3 0
v -2 -3 0
v -4 -4 0
v -5 -4 0
v -5 -3 0
v -4 -3 0
v -15 -4 0
v -16 -4 0
v -16 -3 0
v -15 -3 0
v 0 -5 0
v -1 -5 0
v -1 -4 0
v 0 -4 0
v -1 -5 0
v -2 -5 0
v -2 -4 0
v -1 -4 0
v -2 -5 0
v -3 -5 0
v -3 -4 0
v -2 -4 0
v -15 -5 0
v -16 -5 0
v -16 -4 0
v -15 -4 0
v 0 -6 0
v -1 -6 0
v -1 -5 0
v 0 -5 0
v -8 -6 0
v -9 -6 0
v -9 -5 0
v -8 -5 0
v -15 -6 0
v -16 -6 0
v -16 -5 0
v -15 -5 0
v 0 -7 0
v -1 -7 0
v -1 -6 0
v 0 -6 0
v -8 -7 0
v -9 -7 0
v -9 -6 0
v -8 -6 0
v -12 -7 0
v -13 -7 0
v -13 -6 0
v -12 -6 0
v -15 -7 0
v -16 -7 0
v -16 -6 0
v -15 -6 0
v 0 -8 0
v -1 -8 0
v -1 -7 0
v 0 -7 0
v -5 -8 0
v -6 -8 0
v -6 -7 0
v -5 -7 0
v -14 -8 0
v -15 -8 0
v -15 -7 0
v -14 -7 0
v -15 -8 0
v -16 -8 0
v -16 -7 0
v -15 -7 0
v 0 -9 0
v -1 -9 0
v -1 -8 0
v 0 -8 0
v -6 -9 0
v -7 -9 0
v -7 -8 0
v -6 -8 0
v -10 -9 0
v -11 -9 0
v -11 -8 0
v -10 -8 0
v -15 -9 0
v -16 -9 0
v -16 -8 0
v -15 -8 0
v 0 -10 0
v -1 -10 0
v -1 -9 0
v 0 -9 0
v -10 -10 0
v -11 -10 0
v -11 -9 0
v -10 -9 0
v -11 -10 0
v -12 -10 0
v -12 -9 0
v -11 -9 0
v -15 -10 0
v -16 -10 0
v -16 -9 0
v -15 -9 0
v 0 -11 0
v -1 -11 0
v -1 -10 0
v 0 -10 0
v -2 -11 0
v -3 -11 0
v -3 -10 0
v -2 -10 0
v -15 -11 0
v -16 -11 0
v -16 -10 0
v -15 -10 0
v 0 -12 0
v -1 -12 0
v -1 -11 0
v 0 -11 0
v -13 -12 0
v -14 -12 0
v -14 -11 0
v -13 -11 0
v 0 -13 0
v -1 -13 0
v -1 -12 0
v 0 -12 0
v -2 -13 0
v -3 -13 0
v -3 -12 0
v -2 -12 0
v -6 -13 0
v -7 -13 0
v -7 -12 0
v -6 -12 0
v -14 -13 0
v -15 -13 0
v -15 -12 0
v -14 -12 0
v 0 -14 0
v -1 -14 0
v -1 -13 0
v 0 -13 0
v -1 -14 0
v -2 -14 0
v -2 -13 0
v -1 -13 0
v -2 -14 0
v -3 -14 0
v -3 -13 0
v -2 -13 0
v 0 -15 0
v -1 -15 0
v -1 -14 0
v 0 -14 0
v -10 -15 0
v -11 -15 0
v -11 -14 0
v -10 -14 0
v 0 -16 0
v -1 -16 0
v -1 -15 0
v 0 -15 0
v -1 -16 0
v -2 -16 0
v -2 -15 0
v -1 -15 0
v -5 -16 0
v -6 -16 0
v -6 -15 0
v -5 -15 0
v -6 -16 0
v -7 -16 0
v -7 -15 0
v -6 -15 0
v -7 -16 0
v -8 -16 0
v -8 -15 0
v -7 -15 0
v -8 -16 0
v -9 -16 0
v -9 -15 0
v -8 -15 0
v -9 -16 0
v -10 -16 0
v -10 -15 0
v -9 -15 0
v -10 -16 0
v -11 -16 0
v -11 -15 0
v -10 -15 0

# Texture cooridinates (Count = 62)
vt 0.02564103 0.5789474
vt 0.05128205 0.5789474
vt 0.05128205 0.6052631
vt 0.02564103 0.6052631
vt 0.2564103 0.9210526
vt 0.2820513 0.9210526
vt 0.2820513 0.9473684
vt 0.2564103 0.9473684
vt 0.02564103 0.8947368
vt 0.05128205 0.8947368
vt 0.05128205 0.9210526
vt 0.02564103 0.9210526
vt 0.05128205 0.5263158
vt 0.07692308 0.5263158
vt 0.07692308 0.5526316
vt 0.05128205 0.5526316
vt 0.1025641 0.5263158
vt 0.1025641 0.5526316
vt 0.07692308 0.8947368
vt 0.07692308 0.9210526
vt 0.1025641 0.5789474
vt 0.07692308 0.5789474
vt 0.1794872 0.4736842
vt 0.2051282 0.4736842
vt 0.2051282 0.5
vt 0.1794872 0.5
vt 0.1538462 0.5
vt 0.1794872 0.5263158
vt 0.1538462 0.5263158
vt 0.2307692 0.5
vt 0.2307692 0.5263158
vt 0.2051282 0.5263158
vt 0.1538462 0.9210526
vt 0.1794872 0.9210526
vt 0.1794872 0.9473684
vt 0.1538462 0.9473684
vt 0.07692308 0.4210526
vt 0.1025641 0.4210526
vt 0.1025641 0.4473684
vt 0.07692308 0.4473684
vt 0.1538462 0.4736842
vt 0.07692308 0.4736842
vt 0.1025641 0.4736842
vt 0.1025641 0.5
vt 0.07692308 0.5
vt 0.02564103 0.5526316
vt 0.3333333 0.9210526
vt 0.3589744 0.9210526
vt 0.3589744 0.9473684
vt 0.3333333 0.9473684
vt 0.1025641 0.8947368
vt 0.1282051 0.8947368
vt 0.1282051 0.9210526
vt 0.1025641 0.9210526
vt 0.1794872 0.8947368
vt 0.2051282 0.8947368
vt 0.2051282 0.9210526
vt 0.2820513 0.8947368
vt 0.3076923 0.8947368
vt 0.3076923 0.9210526
vt 0.1538462 0.8947368
vt 0.02564103 0.5263158

# Normal
vn 0 0 -1

# Mesh description
g Bosque_mesh_0009

# Faces
f 1/1/1 2/2/1 3/3/1 4/4/1
f 5/5/1 6/6/1 7/7/1 8/8/1
f 9/1/1 10/2/1 11/3/1 12/4/1
f 13/9/1 14/10/1 15/11/1 16/12/1
f 17/13/1 18/14/1 19/15/1 20/16/1
f 21/13/1 22/14/1 23/15/1 24/16/1
f 25/14/1 26/17/1 27/18/1 28/15/1
f 29/10/1 30/19/1 31/20/1 32/11/1
f 33/15/1 34/18/1 35/21/1 36/22/1
f 37/23/1 38/24/1 39/25/1 40/26/1
f 41/27/1 42/26/1 43/28/1 44/29/1
f 45/25/1 46/30/1 47/31/1 48/32/1
f 49/33/1 50/34/1 51/35/1 52/36/1
f 53/1/1 54/2/1 55/3/1 56/4/1
f 57/37/1 58/38/1 59/39/1 60/40/1
f 61/41/1 62/23/1 63/26/1 64/27/1
f 65/42/1 66/43/1 67/44/1 68/45/1
f 69/1/1 70/2/1 71/3/1 72/4/1
f 73/46/1 74/16/1 75/2/1 76/1/1
f 77/5/1 78/6/1 79/7/1 80/8/1
f 81/1/1 82/2/1 83/3/1 84/4/1
f 85/46/1 86/16/1 87/2/1 88/1/1
f 89/33/1 90/34/1 91/35/1 92/36/1
f 93/47/1 94/48/1 95/49/1 96/50/1
f 97/1/1 98/2/1 99/3/1 100/4/1
f 101/46/1 102/16/1 103/2/1 104/1/1
f 105/10/1 106/19/1 107/20/1 108/11/1
f 109/47/1 110/48/1 111/49/1 112/50/1
f 113/1/1 114/2/1 115/3/1 116/4/1
f 117/46/1 118/16/1 119/2/1 120/1/1
f 121/51/1 122/52/1 123/53/1 124/54/1
f 125/33/1 126/34/1 127/35/1 128/36/1
f 129/1/1 130/2/1 131/3/1 132/4/1
f 133/46/1 134/16/1 135/2/1 136/1/1
f 137/19/1 138/51/1 139/54/1 140/20/1
f 141/51/1 142/52/1 143/53/1 144/54/1
f 145/1/1 146/2/1 147/3/1 148/4/1
f 149/46/1 150/16/1 151/2/1 152/1/1
f 153/33/1 154/34/1 155/35/1 156/36/1
f 157/22/1 158/2/1 159/16/1 160/15/1
f 161/46/1 162/16/1 163/2/1 164/1/1
f 165/33/1 166/34/1 167/35/1 168/36/1
f 169/46/1 170/16/1 171/2/1 172/1/1
f 173/55/1 174/56/1 175/57/1 176/34/1
f 177/33/1 178/34/1 179/35/1 180/36/1
f 181/58/1 182/59/1 183/60/1 184/6/1
f 185/46/1 186/16/1 187/2/1 188/1/1
f 189/52/1 190/61/1 191/33/1 192/53/1
f 193/61/1 194/55/1 195/34/1 196/33/1
f 197/46/1 198/16/1 199/2/1 200/1/1
f 201/33/1 202/34/1 203/35/1 204/36/1
f 205/62/1 206/13/1 207/16/1 208/46/1
f 209/13/1 210/14/1 211/15/1 212/16/1
f 213/13/1 214/14/1 215/15/1 216/16/1
f 217/13/1 218/14/1 219/15/1 220/16/1
f 221/13/1 222/14/1 223/15/1 224/16/1
f 225/13/1 226/14/1 227/15/1 228/16/1
f 229/13/1 230/14/1 231/15/1 232/16/1
f 233/13/1 234/14/1 235/15/1 236/16/1

